%TF.GenerationSoftware,KiCad,Pcbnew,10.0.6*%
%TF.CreationDate,2026-09-19T22:54:49+05:30*%
%TF.ProjectId,AC_DC_trial,41435f44-435f-4747-9269-616c2e6b6963,rev?*%
%TF.SameCoordinates,Original*%
%TF.FileFunction,Copper,L1,Top*%
%TF.FilePolarity,Positive*%
%FSLAX46Y46*%
G04 Gerber Fmt 4.6, Leading zero omitted, Abs format (unit mm)*
G04 Created by KiCad (PCBNEW 10.0.6) date 2026-09-19 22:54:49*
%MOMM*%
%LPD*%
G01*
G04 APERTURE LIST*
G04 Aperture macros list*
%AMRoundRect*
0 Rectangle with rounded corners*
0 $1 Rounding radius*
0 $2 $3 $4 $5 $6 $7 $8 $9 X,Y pos of 4 corners*
0 Add a 4 corners polygon primitive as box body*
4,1,4,$2,$3,$4,$5,$6,$7,$8,$9,$2,$3,0*
0 Add four circle primitives for the rounded corners*
1,1,$1+$1,$2,$3*
1,1,$1+$1,$4,$5*
1,1,$1+$1,$6,$7*
1,1,$1+$1,$8,$9*
0 Add four rect primitives between the rounded corners*
20,1,$1+$1,$2,$3,$4,$5,0*
20,1,$1+$1,$4,$5,$6,$7,0*
20,1,$1+$1,$6,$7,$8,$9,0*
20,1,$1+$1,$8,$9,$2,$3,0*%
G04 Aperture macros list end*
%TA.AperFunction,ComponentPad*%
%ADD10RoundRect,0.249999X-0.850001X-0.850001X0.850001X-0.850001X0.850001X0.850001X-0.850001X0.850001X0*%
%TD*%
%TA.AperFunction,ComponentPad*%
%ADD11C,2.200000*%
%TD*%
%TA.AperFunction,ComponentPad*%
%ADD12C,1.600000*%
%TD*%
%TA.AperFunction,ComponentPad*%
%ADD13RoundRect,0.250000X-1.050000X1.050000X-1.050000X-1.050000X1.050000X-1.050000X1.050000X1.050000X0*%
%TD*%
%TA.AperFunction,ComponentPad*%
%ADD14C,2.600000*%
%TD*%
%TA.AperFunction,ComponentPad*%
%ADD15C,3.000000*%
%TD*%
%TA.AperFunction,ComponentPad*%
%ADD16C,1.440000*%
%TD*%
%TA.AperFunction,ComponentPad*%
%ADD17RoundRect,0.249999X-0.850001X0.850001X-0.850001X-0.850001X0.850001X-0.850001X0.850001X0.850001X0*%
%TD*%
%TA.AperFunction,ComponentPad*%
%ADD18RoundRect,0.250000X-0.550000X-0.550000X0.550000X-0.550000X0.550000X0.550000X-0.550000X0.550000X0*%
%TD*%
%TA.AperFunction,ComponentPad*%
%ADD19R,1.800000X1.800000*%
%TD*%
%TA.AperFunction,ComponentPad*%
%ADD20C,1.800000*%
%TD*%
%TA.AperFunction,ComponentPad*%
%ADD21R,1.905000X2.000000*%
%TD*%
%TA.AperFunction,ComponentPad*%
%ADD22O,1.905000X2.000000*%
%TD*%
%TA.AperFunction,ComponentPad*%
%ADD23RoundRect,0.250001X-0.949999X-0.949999X0.949999X-0.949999X0.949999X0.949999X-0.949999X0.949999X0*%
%TD*%
%TA.AperFunction,ComponentPad*%
%ADD24C,2.400000*%
%TD*%
%TA.AperFunction,Conductor*%
%ADD25C,1.000000*%
%TD*%
%TA.AperFunction,Conductor*%
%ADD26C,0.200000*%
%TD*%
%TA.AperFunction,Conductor*%
%ADD27C,2.000000*%
%TD*%
G04 APERTURE END LIST*
D10*
%TO.P,D5,1,K_1*%
%TO.N,VRECT_POS*%
X138895000Y-128775000D03*
D11*
%TO.P,D5,2,A_2*%
%TO.N,VOUT*%
X149055000Y-128775000D03*
%TD*%
D12*
%TO.P,R1,1,~_1*%
%TO.N,VOUT*%
X138920000Y-132625000D03*
%TO.P,R1,2,~_2*%
%TO.N,ADJ_NODE*%
X149080000Y-132625000D03*
%TD*%
D13*
%TO.P,J1,1,Pin_1_1*%
%TO.N,AC_IN1*%
X105475000Y-115125000D03*
D14*
%TO.P,J1,2,Pin_2_2*%
%TO.N,AC_N*%
X105475000Y-120125000D03*
%TD*%
D15*
%TO.P,F1,1,~_1*%
%TO.N,AC_IN1*%
X110000000Y-106500000D03*
%TO.P,F1,2,~_2*%
%TO.N,AC_L*%
X132500000Y-106500000D03*
%TD*%
D16*
%TO.P,RV1,1,1_1*%
%TO.N,ADJ_NODE*%
X130195000Y-144325000D03*
%TO.P,RV1,2,2_2*%
X132735000Y-144325000D03*
%TO.P,RV1,3,3_3*%
%TO.N,GND*%
X135275000Y-144325000D03*
%TD*%
D12*
%TO.P,R2,1,~_1*%
%TO.N,VOUT*%
X153850000Y-127595000D03*
%TO.P,R2,2,~_2*%
%TO.N,LED_A*%
X153850000Y-137755000D03*
%TD*%
D17*
%TO.P,D2,1,K_1*%
%TO.N,VRECT_POS*%
X119000000Y-116000000D03*
D11*
%TO.P,D2,2,A_2*%
%TO.N,AC_N*%
X119000000Y-126160000D03*
%TD*%
D13*
%TO.P,J2,1,Pin_1_1*%
%TO.N,VOUT*%
X154025000Y-111950000D03*
D14*
%TO.P,J2,2,Pin_2_2*%
%TO.N,GND*%
X154025000Y-116950000D03*
%TD*%
D17*
%TO.P,D1,1,K_1*%
%TO.N,VRECT_POS*%
X113500000Y-116000000D03*
D11*
%TO.P,D1,2,A_2*%
%TO.N,AC_L*%
X113500000Y-126160000D03*
%TD*%
D18*
%TO.P,C4,1,~_1*%
%TO.N,VOUT*%
X140272300Y-108400000D03*
D12*
%TO.P,C4,2,~_2*%
%TO.N,GND*%
X143772300Y-108400000D03*
%TD*%
D17*
%TO.P,D3,1,K_1*%
%TO.N,AC_L*%
X113500000Y-131000000D03*
D11*
%TO.P,D3,2,A_2*%
%TO.N,GND*%
X113500000Y-141160000D03*
%TD*%
D19*
%TO.P,D7,1,K_1*%
%TO.N,GND*%
X140000000Y-144000000D03*
D20*
%TO.P,D7,2,A_2*%
%TO.N,LED_A*%
X142540000Y-144000000D03*
%TD*%
D21*
%TO.P,U1,1,ADJ_1*%
%TO.N,ADJ_NODE*%
X144700000Y-117650000D03*
D22*
%TO.P,U1,2,VO_2*%
%TO.N,VOUT*%
X142160000Y-117650000D03*
%TO.P,U1,3,VI_3*%
%TO.N,VRECT_POS*%
X139620000Y-117650000D03*
%TD*%
D12*
%TO.P,C2,1*%
%TO.N,VRECT_POS*%
X135425000Y-138400000D03*
%TO.P,C2,2*%
%TO.N,GND*%
X130425000Y-138400000D03*
%TD*%
D23*
%TO.P,C1,1,~_1*%
%TO.N,VRECT_POS*%
X127325000Y-121025000D03*
D24*
%TO.P,C1,2,~_2*%
%TO.N,GND*%
X132325000Y-121025000D03*
%TD*%
D17*
%TO.P,D4,1,K_1*%
%TO.N,AC_N*%
X119000000Y-131000000D03*
D11*
%TO.P,D4,2,A_2*%
%TO.N,GND*%
X119000000Y-141160000D03*
%TD*%
D20*
%TO.P,RV_MOV1,1,~_1*%
%TO.N,AC_L*%
X107125000Y-128450000D03*
%TO.P,RV_MOV1,2,~_2*%
%TO.N,AC_N*%
X105225000Y-135950000D03*
%TD*%
D12*
%TO.P,C5,1,~_1*%
%TO.N,VOUT*%
X146800000Y-141700000D03*
%TO.P,C5,2,~_2*%
%TO.N,GND*%
X146800000Y-146700000D03*
%TD*%
D18*
%TO.P,C3,1,~_1*%
%TO.N,ADJ_NODE*%
X131017600Y-131925000D03*
D12*
%TO.P,C3,2,~_2*%
%TO.N,GND*%
X133517600Y-131925000D03*
%TD*%
D10*
%TO.P,D6,1,K_1*%
%TO.N,VOUT*%
X138870000Y-137075000D03*
D11*
%TO.P,D6,2,A_2*%
%TO.N,ADJ_NODE*%
X149030000Y-137075000D03*
%TD*%
%TO.N,VRECT_POS*%
D25*
X135425000Y-132245000D02*
X138895000Y-128775000D01*
X139620000Y-128050000D02*
X138895000Y-128775000D01*
X124375000Y-121025000D02*
X127325000Y-121025000D01*
X119000000Y-116000000D02*
X119350000Y-116000000D01*
X119350000Y-116000000D02*
X124375000Y-121025000D01*
X135425000Y-138400000D02*
X135425000Y-132245000D01*
X139620000Y-117650000D02*
X139620000Y-128050000D01*
X113500000Y-116000000D02*
X119000000Y-116000000D01*
X131100000Y-117650000D02*
X139620000Y-117650000D01*
X127725000Y-121025000D02*
X131100000Y-117650000D01*
X127325000Y-121025000D02*
X127725000Y-121025000D01*
%TO.N,VOUT*%
X150235000Y-127595000D02*
X149055000Y-128775000D01*
X143822300Y-111950000D02*
X140272300Y-108400000D01*
X147500836Y-141700000D02*
X153850000Y-135350836D01*
X138920000Y-132625000D02*
X145205000Y-132625000D01*
X145205000Y-132625000D02*
X149055000Y-128775000D01*
X153850000Y-127595000D02*
X150235000Y-127595000D01*
X153850000Y-135350836D02*
X153850000Y-127595000D01*
X142160000Y-121880000D02*
X149055000Y-128775000D01*
X142160000Y-113612300D02*
X143822300Y-111950000D01*
X138920000Y-137025000D02*
X138870000Y-137075000D01*
X146800000Y-141700000D02*
X147500836Y-141700000D01*
X142160000Y-117650000D02*
X142160000Y-121880000D01*
X142160000Y-117650000D02*
X142160000Y-113612300D01*
X138920000Y-132625000D02*
X138920000Y-137025000D01*
X154025000Y-111950000D02*
X143822300Y-111950000D01*
%TO.N,ADJ_NODE*%
D26*
X130195000Y-144325000D02*
X132735000Y-144325000D01*
X133050000Y-140025000D02*
X130195000Y-142880000D01*
X149030000Y-137075000D02*
X146080000Y-140025000D01*
X149030000Y-132675000D02*
X149080000Y-132625000D01*
X133050000Y-135700000D02*
X133050000Y-140025000D01*
X146080000Y-140025000D02*
X133050000Y-140025000D01*
X131017600Y-131925000D02*
X131018000Y-131925000D01*
X130195000Y-142880000D02*
X130195000Y-144325000D01*
X149030000Y-137075000D02*
X149030000Y-132675000D01*
X131018000Y-131925000D02*
X131018000Y-133668000D01*
X131018000Y-133668000D02*
X133050000Y-135700000D01*
%TO.N,AC_IN1*%
D27*
X107500000Y-106500000D02*
X105475000Y-108525000D01*
X105475000Y-108525000D02*
X105475000Y-115125000D01*
X110000000Y-106500000D02*
X107500000Y-106500000D01*
%TO.N,AC_N*%
X123675000Y-133850000D02*
X123675000Y-130835000D01*
X105225000Y-135950000D02*
X121575000Y-135950000D01*
X102450000Y-133175000D02*
X105225000Y-135950000D01*
X121575000Y-135950000D02*
X123675000Y-133850000D01*
X105475000Y-120125000D02*
X102450000Y-123150000D01*
X102450000Y-123150000D02*
X102450000Y-133175000D01*
X119000000Y-131000000D02*
X119000000Y-126160000D01*
X123675000Y-130835000D02*
X119000000Y-126160000D01*
%TO.N,AC_L*%
X113500000Y-131000000D02*
X113500000Y-130740000D01*
X111210000Y-128450000D02*
X113500000Y-126160000D01*
X109525000Y-122185000D02*
X109525000Y-114379000D01*
X113500000Y-130740000D02*
X111210000Y-128450000D01*
X113500000Y-126160000D02*
X109525000Y-122185000D01*
X109525000Y-114379000D02*
X112704000Y-111200000D01*
X127800000Y-111200000D02*
X132500000Y-106500000D01*
X113500000Y-126160000D02*
X113615000Y-126160000D01*
X112704000Y-111200000D02*
X127800000Y-111200000D01*
X107125000Y-128450000D02*
X111210000Y-128450000D01*
%TO.N,GND*%
D25*
X113500000Y-141160000D02*
X119000000Y-141160000D01*
X119000000Y-141160000D02*
X127665000Y-141160000D01*
X127665000Y-141160000D02*
X130425000Y-138400000D01*
%TO.N,LED_A*%
D26*
X142540000Y-144000000D02*
X147605000Y-144000000D01*
X147605000Y-144000000D02*
X153850000Y-137755000D01*
%TD*%
%TA.AperFunction,Conductor*%
%TO.N,GND*%
G36*
X159242539Y-100720185D02*
G01*
X159288294Y-100772989D01*
X159299500Y-100824500D01*
X159299500Y-149175500D01*
X159279815Y-149242539D01*
X159227011Y-149288294D01*
X159175500Y-149299500D01*
X127460306Y-149299500D01*
X127393267Y-149279815D01*
X127347512Y-149227011D01*
X127336306Y-149175582D01*
X127335356Y-147732297D01*
X127334609Y-146597682D01*
X145500000Y-146597682D01*
X145500000Y-146802317D01*
X145532009Y-147004417D01*
X145595244Y-147199031D01*
X145688141Y-147381350D01*
X145688147Y-147381359D01*
X145720523Y-147425921D01*
X145720524Y-147425922D01*
X146400000Y-146746446D01*
X146400000Y-146752661D01*
X146427259Y-146854394D01*
X146479920Y-146945606D01*
X146554394Y-147020080D01*
X146645606Y-147072741D01*
X146747339Y-147100000D01*
X146753553Y-147100000D01*
X146074076Y-147779474D01*
X146118650Y-147811859D01*
X146300968Y-147904755D01*
X146495582Y-147967990D01*
X146697683Y-148000000D01*
X146902317Y-148000000D01*
X147104417Y-147967990D01*
X147299031Y-147904755D01*
X147481349Y-147811859D01*
X147525921Y-147779474D01*
X146846447Y-147100000D01*
X146852661Y-147100000D01*
X146954394Y-147072741D01*
X147045606Y-147020080D01*
X147120080Y-146945606D01*
X147172741Y-146854394D01*
X147200000Y-146752661D01*
X147200000Y-146746447D01*
X147879474Y-147425921D01*
X147911859Y-147381349D01*
X148004755Y-147199031D01*
X148067990Y-147004417D01*
X148100000Y-146802317D01*
X148100000Y-146597682D01*
X148067990Y-146395582D01*
X148004755Y-146200968D01*
X147911859Y-146018650D01*
X147879474Y-145974077D01*
X147879474Y-145974076D01*
X147200000Y-146653551D01*
X147200000Y-146647339D01*
X147172741Y-146545606D01*
X147120080Y-146454394D01*
X147045606Y-146379920D01*
X146954394Y-146327259D01*
X146852661Y-146300000D01*
X146846446Y-146300000D01*
X147525922Y-145620524D01*
X147525921Y-145620523D01*
X147481359Y-145588147D01*
X147481350Y-145588141D01*
X147299031Y-145495244D01*
X147104417Y-145432009D01*
X146902317Y-145400000D01*
X146697683Y-145400000D01*
X146495582Y-145432009D01*
X146300968Y-145495244D01*
X146118644Y-145588143D01*
X146074077Y-145620523D01*
X146074077Y-145620524D01*
X146753554Y-146300000D01*
X146747339Y-146300000D01*
X146645606Y-146327259D01*
X146554394Y-146379920D01*
X146479920Y-146454394D01*
X146427259Y-146545606D01*
X146400000Y-146647339D01*
X146400000Y-146653553D01*
X145720524Y-145974077D01*
X145720523Y-145974077D01*
X145688143Y-146018644D01*
X145595244Y-146200968D01*
X145532009Y-146395582D01*
X145500000Y-146597682D01*
X127334609Y-146597682D01*
X127334606Y-146592898D01*
X127329892Y-139432297D01*
X127329145Y-138297682D01*
X129125000Y-138297682D01*
X129125000Y-138502317D01*
X129157009Y-138704417D01*
X129220244Y-138899031D01*
X129313141Y-139081350D01*
X129313147Y-139081359D01*
X129345523Y-139125921D01*
X129345524Y-139125922D01*
X130025000Y-138446446D01*
X130025000Y-138452661D01*
X130052259Y-138554394D01*
X130104920Y-138645606D01*
X130179394Y-138720080D01*
X130270606Y-138772741D01*
X130372339Y-138800000D01*
X130378553Y-138800000D01*
X129699076Y-139479474D01*
X129743650Y-139511859D01*
X129925968Y-139604755D01*
X130120582Y-139667990D01*
X130322683Y-139700000D01*
X130527317Y-139700000D01*
X130729417Y-139667990D01*
X130924031Y-139604755D01*
X131106349Y-139511859D01*
X131150921Y-139479474D01*
X130471447Y-138800000D01*
X130477661Y-138800000D01*
X130579394Y-138772741D01*
X130670606Y-138720080D01*
X130745080Y-138645606D01*
X130797741Y-138554394D01*
X130825000Y-138452661D01*
X130825000Y-138446447D01*
X131504474Y-139125921D01*
X131536859Y-139081349D01*
X131629755Y-138899031D01*
X131692990Y-138704417D01*
X131725000Y-138502317D01*
X131725000Y-138297682D01*
X131692990Y-138095582D01*
X131629755Y-137900968D01*
X131536859Y-137718650D01*
X131504474Y-137674077D01*
X131504474Y-137674076D01*
X130825000Y-138353551D01*
X130825000Y-138347339D01*
X130797741Y-138245606D01*
X130745080Y-138154394D01*
X130670606Y-138079920D01*
X130579394Y-138027259D01*
X130477661Y-138000000D01*
X130471446Y-138000000D01*
X131150922Y-137320524D01*
X131150921Y-137320523D01*
X131106359Y-137288147D01*
X131106350Y-137288141D01*
X130924031Y-137195244D01*
X130729417Y-137132009D01*
X130527317Y-137100000D01*
X130322683Y-137100000D01*
X130120582Y-137132009D01*
X129925968Y-137195244D01*
X129743644Y-137288143D01*
X129699077Y-137320523D01*
X129699077Y-137320524D01*
X130378554Y-138000000D01*
X130372339Y-138000000D01*
X130270606Y-138027259D01*
X130179394Y-138079920D01*
X130104920Y-138154394D01*
X130052259Y-138245606D01*
X130025000Y-138347339D01*
X130025000Y-138353553D01*
X129345524Y-137674077D01*
X129345523Y-137674077D01*
X129313143Y-137718644D01*
X129220244Y-137900968D01*
X129157009Y-138095582D01*
X129125000Y-138297682D01*
X127329145Y-138297682D01*
X127329142Y-138292898D01*
X127328533Y-137367865D01*
X127318975Y-122849582D01*
X127338615Y-122782529D01*
X127391389Y-122736740D01*
X127442975Y-122725500D01*
X128325003Y-122725500D01*
X128325008Y-122725500D01*
X128427797Y-122714999D01*
X128594334Y-122659814D01*
X128743655Y-122567711D01*
X128867711Y-122443655D01*
X128959814Y-122294334D01*
X129014999Y-122127797D01*
X129025500Y-122025008D01*
X129025500Y-121190782D01*
X129045185Y-121123743D01*
X129061819Y-121103101D01*
X129251345Y-120913575D01*
X130625000Y-120913575D01*
X130625000Y-121136424D01*
X130654085Y-121357354D01*
X130654088Y-121357367D01*
X130711763Y-121572618D01*
X130797045Y-121778502D01*
X130797054Y-121778520D01*
X130908464Y-121971491D01*
X130908473Y-121971504D01*
X130959040Y-122037403D01*
X130959043Y-122037403D01*
X131760387Y-121236059D01*
X131765889Y-121256591D01*
X131844881Y-121393408D01*
X131956592Y-121505119D01*
X132093409Y-121584111D01*
X132113940Y-121589612D01*
X131312595Y-122390955D01*
X131312595Y-122390956D01*
X131378507Y-122441533D01*
X131571485Y-122552949D01*
X131571497Y-122552954D01*
X131777381Y-122638236D01*
X131992632Y-122695911D01*
X131992645Y-122695914D01*
X132213575Y-122725000D01*
X132436425Y-122725000D01*
X132657354Y-122695914D01*
X132657367Y-122695911D01*
X132872618Y-122638236D01*
X133078502Y-122552954D01*
X133078514Y-122552949D01*
X133271498Y-122441530D01*
X133337403Y-122390957D01*
X133337404Y-122390956D01*
X132536059Y-121589612D01*
X132556591Y-121584111D01*
X132693408Y-121505119D01*
X132805119Y-121393408D01*
X132884111Y-121256591D01*
X132889612Y-121236059D01*
X133690956Y-122037404D01*
X133690957Y-122037403D01*
X133741530Y-121971498D01*
X133852949Y-121778514D01*
X133852954Y-121778502D01*
X133938236Y-121572618D01*
X133995911Y-121357367D01*
X133995914Y-121357354D01*
X134025000Y-121136424D01*
X134025000Y-120913575D01*
X133995914Y-120692645D01*
X133995911Y-120692632D01*
X133938236Y-120477381D01*
X133852954Y-120271497D01*
X133852949Y-120271485D01*
X133741533Y-120078507D01*
X133690956Y-120012595D01*
X133690955Y-120012595D01*
X132889612Y-120813939D01*
X132884111Y-120793409D01*
X132805119Y-120656592D01*
X132693408Y-120544881D01*
X132556591Y-120465889D01*
X132536058Y-120460387D01*
X133337403Y-119659043D01*
X133337403Y-119659040D01*
X133271504Y-119608473D01*
X133271491Y-119608464D01*
X133078520Y-119497054D01*
X133078502Y-119497045D01*
X132872618Y-119411763D01*
X132657367Y-119354088D01*
X132657354Y-119354085D01*
X132436425Y-119325000D01*
X132213575Y-119325000D01*
X131992645Y-119354085D01*
X131992632Y-119354088D01*
X131777381Y-119411763D01*
X131571497Y-119497045D01*
X131571479Y-119497054D01*
X131378511Y-119608462D01*
X131312595Y-119659042D01*
X132113941Y-120460387D01*
X132093409Y-120465889D01*
X131956592Y-120544881D01*
X131844881Y-120656592D01*
X131765889Y-120793409D01*
X131760387Y-120813940D01*
X130959042Y-120012595D01*
X130908462Y-120078511D01*
X130797054Y-120271479D01*
X130797045Y-120271497D01*
X130711763Y-120477381D01*
X130654088Y-120692632D01*
X130654085Y-120692645D01*
X130625000Y-120913575D01*
X129251345Y-120913575D01*
X129343084Y-120821836D01*
X130545607Y-119619314D01*
X131478102Y-118686819D01*
X131539425Y-118653334D01*
X131565783Y-118650500D01*
X138466786Y-118650500D01*
X138533825Y-118670185D01*
X138554467Y-118686819D01*
X138583181Y-118715533D01*
X138616666Y-118776856D01*
X138619500Y-118803214D01*
X138619500Y-127050500D01*
X138599815Y-127117539D01*
X138547011Y-127163294D01*
X138495500Y-127174500D01*
X137994982Y-127174500D01*
X137892203Y-127185000D01*
X137892202Y-127185001D01*
X137809669Y-127212349D01*
X137725667Y-127240185D01*
X137725662Y-127240187D01*
X137576342Y-127332289D01*
X137452289Y-127456342D01*
X137360187Y-127605662D01*
X137360186Y-127605665D01*
X137305001Y-127772202D01*
X137305001Y-127772203D01*
X137305000Y-127772203D01*
X137294500Y-127874982D01*
X137294500Y-128909217D01*
X137274815Y-128976256D01*
X137258181Y-128996898D01*
X134879072Y-131376006D01*
X134817749Y-131409491D01*
X134748057Y-131404507D01*
X134692124Y-131362635D01*
X134680906Y-131344620D01*
X134629459Y-131243650D01*
X134597074Y-131199077D01*
X134597074Y-131199076D01*
X133917600Y-131878553D01*
X133917600Y-131872339D01*
X133890341Y-131770606D01*
X133837680Y-131679394D01*
X133763206Y-131604920D01*
X133671994Y-131552259D01*
X133570261Y-131525000D01*
X133564046Y-131525000D01*
X134243522Y-130845524D01*
X134243521Y-130845523D01*
X134198959Y-130813147D01*
X134198950Y-130813141D01*
X134016631Y-130720244D01*
X133822017Y-130657009D01*
X133619917Y-130625000D01*
X133415283Y-130625000D01*
X133213182Y-130657009D01*
X133018568Y-130720244D01*
X132836244Y-130813143D01*
X132791677Y-130845523D01*
X132791677Y-130845524D01*
X133471154Y-131525000D01*
X133464939Y-131525000D01*
X133363206Y-131552259D01*
X133271994Y-131604920D01*
X133197520Y-131679394D01*
X133144859Y-131770606D01*
X133117600Y-131872339D01*
X133117600Y-131878553D01*
X132438124Y-131199077D01*
X132400319Y-131202053D01*
X132331941Y-131187689D01*
X132282184Y-131138638D01*
X132279710Y-131133949D01*
X132275701Y-131125942D01*
X132252414Y-131055666D01*
X132160312Y-130906344D01*
X132036256Y-130782288D01*
X131886934Y-130690186D01*
X131720397Y-130635001D01*
X131720395Y-130635000D01*
X131617610Y-130624500D01*
X130417598Y-130624500D01*
X130417581Y-130624501D01*
X130314803Y-130635000D01*
X130314800Y-130635001D01*
X130148268Y-130690185D01*
X130148263Y-130690187D01*
X129998942Y-130782289D01*
X129874889Y-130906342D01*
X129782787Y-131055663D01*
X129782786Y-131055666D01*
X129727601Y-131222203D01*
X129727601Y-131222204D01*
X129727600Y-131222204D01*
X129717100Y-131324983D01*
X129717100Y-132525001D01*
X129717101Y-132525018D01*
X129727600Y-132627796D01*
X129727601Y-132627799D01*
X129760590Y-132727351D01*
X129782786Y-132794334D01*
X129874888Y-132943656D01*
X129998944Y-133067712D01*
X130148266Y-133159814D01*
X130314803Y-133214999D01*
X130314806Y-133214999D01*
X130319452Y-133215994D01*
X130380887Y-133249274D01*
X130414577Y-133310484D01*
X130417500Y-133337248D01*
X130417500Y-133581330D01*
X130417499Y-133581348D01*
X130417499Y-133747054D01*
X130417498Y-133747054D01*
X130458423Y-133899786D01*
X130473268Y-133925496D01*
X130473269Y-133925501D01*
X130473271Y-133925501D01*
X130537479Y-134036714D01*
X130537481Y-134036717D01*
X130656349Y-134155585D01*
X130656355Y-134155590D01*
X132413181Y-135912416D01*
X132446666Y-135973739D01*
X132449500Y-136000097D01*
X132449500Y-139724902D01*
X132429815Y-139791941D01*
X132413181Y-139812583D01*
X129714481Y-142511282D01*
X129714477Y-142511287D01*
X129670979Y-142586630D01*
X129670979Y-142586631D01*
X129635423Y-142648214D01*
X129628708Y-142673275D01*
X129594499Y-142800943D01*
X129594499Y-142800945D01*
X129594499Y-142969046D01*
X129594500Y-142969059D01*
X129594500Y-143189486D01*
X129574815Y-143256525D01*
X129543386Y-143289804D01*
X129399896Y-143394056D01*
X129264057Y-143529895D01*
X129264057Y-143529896D01*
X129264055Y-143529898D01*
X129249450Y-143550000D01*
X129151135Y-143685318D01*
X129063916Y-143856493D01*
X129004553Y-144039197D01*
X128993304Y-144110222D01*
X128974500Y-144228945D01*
X128974500Y-144421055D01*
X128983740Y-144479394D01*
X129004553Y-144610802D01*
X129063916Y-144793506D01*
X129131171Y-144925500D01*
X129151135Y-144964681D01*
X129264055Y-145120102D01*
X129399898Y-145255945D01*
X129555319Y-145368865D01*
X129725576Y-145455616D01*
X129726493Y-145456083D01*
X129817845Y-145485764D01*
X129909199Y-145515447D01*
X130098945Y-145545500D01*
X130098946Y-145545500D01*
X130291054Y-145545500D01*
X130291055Y-145545500D01*
X130480801Y-145515447D01*
X130663509Y-145456082D01*
X130834681Y-145368865D01*
X130990102Y-145255945D01*
X131125945Y-145120102D01*
X131230195Y-144976613D01*
X131285525Y-144933949D01*
X131330513Y-144925500D01*
X131599487Y-144925500D01*
X131666526Y-144945185D01*
X131699804Y-144976613D01*
X131804055Y-145120102D01*
X131939898Y-145255945D01*
X132095319Y-145368865D01*
X132265576Y-145455616D01*
X132266493Y-145456083D01*
X132357845Y-145485764D01*
X132449199Y-145515447D01*
X132638945Y-145545500D01*
X132638946Y-145545500D01*
X132831054Y-145545500D01*
X132831055Y-145545500D01*
X133020801Y-145515447D01*
X133203509Y-145456082D01*
X133374681Y-145368865D01*
X133530102Y-145255945D01*
X133665945Y-145120102D01*
X133778865Y-144964681D01*
X133866082Y-144793509D01*
X133885410Y-144734023D01*
X133887332Y-144728109D01*
X133926769Y-144670433D01*
X133991127Y-144643234D01*
X134059973Y-144655148D01*
X134111450Y-144702392D01*
X134123194Y-144728107D01*
X134144383Y-144793321D01*
X134231561Y-144964415D01*
X134252798Y-144993646D01*
X134875000Y-144371445D01*
X134875000Y-144377661D01*
X134902259Y-144479394D01*
X134954920Y-144570606D01*
X135029394Y-144645080D01*
X135120606Y-144697741D01*
X135222339Y-144725000D01*
X135228554Y-144725000D01*
X134606351Y-145347200D01*
X134606352Y-145347201D01*
X134635577Y-145368434D01*
X134806678Y-145455616D01*
X134989315Y-145514959D01*
X135178985Y-145545000D01*
X135371015Y-145545000D01*
X135560684Y-145514959D01*
X135743321Y-145455616D01*
X135914419Y-145368436D01*
X135943646Y-145347201D01*
X135943646Y-145347200D01*
X135321447Y-144725000D01*
X135327661Y-144725000D01*
X135429394Y-144697741D01*
X135520606Y-144645080D01*
X135595080Y-144570606D01*
X135647741Y-144479394D01*
X135675000Y-144377661D01*
X135675000Y-144371446D01*
X136297200Y-144993646D01*
X136297201Y-144993646D01*
X136318436Y-144964419D01*
X136405616Y-144793321D01*
X136464959Y-144610684D01*
X136495000Y-144421015D01*
X136495000Y-144228989D01*
X136493265Y-144218035D01*
X136493265Y-144218032D01*
X136464959Y-144039315D01*
X136405616Y-143856678D01*
X136318434Y-143685577D01*
X136297201Y-143656352D01*
X136297200Y-143656351D01*
X135675000Y-144278552D01*
X135675000Y-144272339D01*
X135647741Y-144170606D01*
X135595080Y-144079394D01*
X135520606Y-144004920D01*
X135429394Y-143952259D01*
X135327661Y-143925000D01*
X135321447Y-143925000D01*
X135943646Y-143302798D01*
X135914415Y-143281561D01*
X135743321Y-143194383D01*
X135658372Y-143166782D01*
X135560684Y-143135040D01*
X135371015Y-143105000D01*
X135178985Y-143105000D01*
X134989315Y-143135040D01*
X134806678Y-143194383D01*
X134635578Y-143281564D01*
X134606352Y-143302798D01*
X134606351Y-143302798D01*
X135228554Y-143925000D01*
X135222339Y-143925000D01*
X135120606Y-143952259D01*
X135029394Y-144004920D01*
X134954920Y-144079394D01*
X134902259Y-144170606D01*
X134875000Y-144272339D01*
X134875000Y-144278553D01*
X134252798Y-143656351D01*
X134252798Y-143656352D01*
X134231564Y-143685578D01*
X134144384Y-143856677D01*
X134123194Y-143921893D01*
X134083755Y-143979568D01*
X134019396Y-144006765D01*
X133950550Y-143994850D01*
X133899075Y-143947605D01*
X133887332Y-143921890D01*
X133866084Y-143856495D01*
X133850702Y-143826306D01*
X133778865Y-143685319D01*
X133665945Y-143529898D01*
X133530102Y-143394055D01*
X133374681Y-143281135D01*
X133335500Y-143261171D01*
X133203506Y-143193916D01*
X133020802Y-143134553D01*
X132925928Y-143119526D01*
X132831055Y-143104500D01*
X132638945Y-143104500D01*
X132584912Y-143113058D01*
X132449197Y-143134553D01*
X132266493Y-143193916D01*
X132095318Y-143281135D01*
X132065502Y-143302798D01*
X131939898Y-143394055D01*
X131939896Y-143394057D01*
X131939895Y-143394057D01*
X131804057Y-143529895D01*
X131804057Y-143529896D01*
X131804055Y-143529898D01*
X131712181Y-143656352D01*
X131699805Y-143673386D01*
X131644475Y-143716051D01*
X131599487Y-143724500D01*
X131330513Y-143724500D01*
X131263474Y-143704815D01*
X131230195Y-143673386D01*
X131217819Y-143656352D01*
X131125945Y-143529898D01*
X130990102Y-143394055D01*
X130904410Y-143331796D01*
X130846614Y-143289804D01*
X130803949Y-143234473D01*
X130795500Y-143189486D01*
X130795500Y-143180097D01*
X130815185Y-143113058D01*
X130831819Y-143092416D01*
X133262417Y-140661819D01*
X133323740Y-140628334D01*
X133350098Y-140625500D01*
X145735953Y-140625500D01*
X145802992Y-140645185D01*
X145848747Y-140697989D01*
X145858691Y-140767147D01*
X145829666Y-140830703D01*
X145823634Y-140837181D01*
X145808032Y-140852782D01*
X145808028Y-140852786D01*
X145687715Y-141018386D01*
X145594781Y-141200776D01*
X145531522Y-141395465D01*
X145499500Y-141597648D01*
X145499500Y-141802351D01*
X145531522Y-142004534D01*
X145594781Y-142199223D01*
X145658691Y-142324653D01*
X145665381Y-142337782D01*
X145687715Y-142381613D01*
X145808028Y-142547213D01*
X145952786Y-142691971D01*
X146076740Y-142782027D01*
X146118390Y-142812287D01*
X146207936Y-142857913D01*
X146300776Y-142905218D01*
X146300778Y-142905218D01*
X146300781Y-142905220D01*
X146382457Y-142931758D01*
X146495465Y-142968477D01*
X146582847Y-142982317D01*
X146697648Y-143000500D01*
X146697649Y-143000500D01*
X146902351Y-143000500D01*
X146902352Y-143000500D01*
X147104534Y-142968477D01*
X147299219Y-142905220D01*
X147481610Y-142812287D01*
X147627075Y-142706601D01*
X147675765Y-142685304D01*
X147696024Y-142681275D01*
X147767547Y-142667048D01*
X147837135Y-142673275D01*
X147892313Y-142716137D01*
X147915558Y-142782027D01*
X147899491Y-142850024D01*
X147879417Y-142876346D01*
X147392584Y-143363181D01*
X147331261Y-143396666D01*
X147304903Y-143399500D01*
X143881836Y-143399500D01*
X143814797Y-143379815D01*
X143771352Y-143331796D01*
X143737814Y-143265976D01*
X143608247Y-143087641D01*
X143608243Y-143087636D01*
X143452363Y-142931756D01*
X143452358Y-142931752D01*
X143274025Y-142802187D01*
X143274024Y-142802186D01*
X143274022Y-142802185D01*
X143211096Y-142770122D01*
X143077606Y-142702104D01*
X143077603Y-142702103D01*
X142867952Y-142633985D01*
X142759086Y-142616742D01*
X142650222Y-142599500D01*
X142429778Y-142599500D01*
X142357201Y-142610995D01*
X142212047Y-142633985D01*
X142002396Y-142702103D01*
X142002393Y-142702104D01*
X141805974Y-142802187D01*
X141627641Y-142931752D01*
X141627636Y-142931756D01*
X141577075Y-142982317D01*
X141515752Y-143015801D01*
X141446060Y-143010816D01*
X141390127Y-142968945D01*
X141373213Y-142937968D01*
X141343354Y-142857913D01*
X141343350Y-142857906D01*
X141257190Y-142742812D01*
X141257187Y-142742809D01*
X141142093Y-142656649D01*
X141142086Y-142656645D01*
X141007379Y-142606403D01*
X141007372Y-142606401D01*
X140947844Y-142600000D01*
X140250000Y-142600000D01*
X140250000Y-143624722D01*
X140173694Y-143580667D01*
X140059244Y-143550000D01*
X139940756Y-143550000D01*
X139826306Y-143580667D01*
X139750000Y-143624722D01*
X139750000Y-142600000D01*
X139052155Y-142600000D01*
X138992627Y-142606401D01*
X138992620Y-142606403D01*
X138857913Y-142656645D01*
X138857906Y-142656649D01*
X138742812Y-142742809D01*
X138742809Y-142742812D01*
X138656649Y-142857906D01*
X138656645Y-142857913D01*
X138606403Y-142992620D01*
X138606401Y-142992627D01*
X138600000Y-143052155D01*
X138600000Y-143750000D01*
X139624722Y-143750000D01*
X139580667Y-143826306D01*
X139550000Y-143940756D01*
X139550000Y-144059244D01*
X139580667Y-144173694D01*
X139624722Y-144250000D01*
X138600000Y-144250000D01*
X138600000Y-144947844D01*
X138606401Y-145007372D01*
X138606403Y-145007379D01*
X138656645Y-145142086D01*
X138656649Y-145142093D01*
X138742809Y-145257187D01*
X138742812Y-145257190D01*
X138857906Y-145343350D01*
X138857913Y-145343354D01*
X138992620Y-145393596D01*
X138992627Y-145393598D01*
X139052155Y-145399999D01*
X139052172Y-145400000D01*
X139750000Y-145400000D01*
X139750000Y-144375277D01*
X139826306Y-144419333D01*
X139940756Y-144450000D01*
X140059244Y-144450000D01*
X140173694Y-144419333D01*
X140250000Y-144375277D01*
X140250000Y-145400000D01*
X140947828Y-145400000D01*
X140947844Y-145399999D01*
X141007372Y-145393598D01*
X141007379Y-145393596D01*
X141142086Y-145343354D01*
X141142093Y-145343350D01*
X141257187Y-145257190D01*
X141257190Y-145257187D01*
X141343350Y-145142093D01*
X141343354Y-145142086D01*
X141373213Y-145062031D01*
X141415084Y-145006097D01*
X141480548Y-144981680D01*
X141548821Y-144996531D01*
X141577076Y-145017683D01*
X141627636Y-145068243D01*
X141627641Y-145068247D01*
X141783192Y-145181260D01*
X141805978Y-145197815D01*
X141922501Y-145257187D01*
X142002393Y-145297895D01*
X142002396Y-145297896D01*
X142107221Y-145331955D01*
X142212049Y-145366015D01*
X142429778Y-145400500D01*
X142429779Y-145400500D01*
X142650221Y-145400500D01*
X142650222Y-145400500D01*
X142867951Y-145366015D01*
X143077606Y-145297895D01*
X143274022Y-145197815D01*
X143452365Y-145068242D01*
X143608242Y-144912365D01*
X143737815Y-144734022D01*
X143771352Y-144668204D01*
X143819326Y-144617409D01*
X143881836Y-144600500D01*
X147518331Y-144600500D01*
X147518347Y-144600501D01*
X147525943Y-144600501D01*
X147684054Y-144600501D01*
X147684057Y-144600501D01*
X147836785Y-144559577D01*
X147886904Y-144530639D01*
X147973716Y-144480520D01*
X148085520Y-144368716D01*
X148085520Y-144368714D01*
X148095728Y-144358507D01*
X148095729Y-144358504D01*
X153405159Y-139049075D01*
X153466480Y-139015592D01*
X153531154Y-139018826D01*
X153545466Y-139023477D01*
X153747648Y-139055500D01*
X153747649Y-139055500D01*
X153952351Y-139055500D01*
X153952352Y-139055500D01*
X154154534Y-139023477D01*
X154349219Y-138960220D01*
X154531610Y-138867287D01*
X154624590Y-138799732D01*
X154697213Y-138746971D01*
X154697215Y-138746968D01*
X154697219Y-138746966D01*
X154841966Y-138602219D01*
X154841968Y-138602215D01*
X154841971Y-138602213D01*
X154950625Y-138452661D01*
X154962287Y-138436610D01*
X155055220Y-138254219D01*
X155118477Y-138059534D01*
X155150500Y-137857352D01*
X155150500Y-137652648D01*
X155141705Y-137597122D01*
X155118477Y-137450465D01*
X155055218Y-137255776D01*
X155004081Y-137155416D01*
X154962287Y-137073390D01*
X154954556Y-137062749D01*
X154841971Y-136907786D01*
X154697213Y-136763028D01*
X154531613Y-136642715D01*
X154531612Y-136642714D01*
X154531610Y-136642713D01*
X154473176Y-136612939D01*
X154349219Y-136549779D01*
X154327880Y-136542846D01*
X154270205Y-136503408D01*
X154243008Y-136439049D01*
X154254924Y-136370203D01*
X154278516Y-136337238D01*
X154487778Y-136127977D01*
X154487782Y-136127975D01*
X154627139Y-135988618D01*
X154736632Y-135824750D01*
X154812051Y-135642671D01*
X154814117Y-135632288D01*
X154814119Y-135632279D01*
X154845504Y-135474500D01*
X154850500Y-135449378D01*
X154850500Y-128470761D01*
X154870185Y-128403722D01*
X154874165Y-128397899D01*
X154962287Y-128276610D01*
X155055220Y-128094219D01*
X155118477Y-127899534D01*
X155150500Y-127697352D01*
X155150500Y-127492648D01*
X155118477Y-127290466D01*
X155102140Y-127240187D01*
X155080797Y-127174500D01*
X155055220Y-127095781D01*
X155055218Y-127095778D01*
X155055218Y-127095776D01*
X155021503Y-127029607D01*
X154962287Y-126913390D01*
X154892882Y-126817861D01*
X154841971Y-126747786D01*
X154697213Y-126603028D01*
X154531613Y-126482715D01*
X154531612Y-126482714D01*
X154531610Y-126482713D01*
X154474653Y-126453691D01*
X154349223Y-126389781D01*
X154154534Y-126326522D01*
X153979995Y-126298878D01*
X153952352Y-126294500D01*
X153747648Y-126294500D01*
X153723329Y-126298351D01*
X153545465Y-126326522D01*
X153350776Y-126389781D01*
X153168386Y-126482715D01*
X153047123Y-126570818D01*
X152981317Y-126594298D01*
X152974238Y-126594500D01*
X150136455Y-126594500D01*
X150039812Y-126613724D01*
X149943167Y-126632947D01*
X149943161Y-126632949D01*
X149889834Y-126655037D01*
X149889834Y-126655038D01*
X149844315Y-126673892D01*
X149761089Y-126708366D01*
X149761079Y-126708371D01*
X149597219Y-126817859D01*
X149527540Y-126887538D01*
X149457861Y-126957218D01*
X149457858Y-126957221D01*
X149276651Y-127138427D01*
X149215328Y-127171912D01*
X149185834Y-127173919D01*
X149185834Y-127174500D01*
X148924166Y-127174500D01*
X148924166Y-127172986D01*
X148862350Y-127159983D01*
X148833348Y-127138427D01*
X143196819Y-121501898D01*
X143163334Y-121440575D01*
X143160500Y-121414217D01*
X143160500Y-119073591D01*
X143180185Y-119006552D01*
X143232989Y-118960797D01*
X143302147Y-118950853D01*
X143365703Y-118979878D01*
X143383767Y-118999281D01*
X143389954Y-119007546D01*
X143389955Y-119007547D01*
X143505164Y-119093793D01*
X143505171Y-119093797D01*
X143640017Y-119144091D01*
X143640016Y-119144091D01*
X143646944Y-119144835D01*
X143699627Y-119150500D01*
X145700372Y-119150499D01*
X145759983Y-119144091D01*
X145894831Y-119093796D01*
X146010046Y-119007546D01*
X146096296Y-118892331D01*
X146146591Y-118757483D01*
X146153000Y-118697873D01*
X146152999Y-117600000D01*
X146152999Y-116832014D01*
X152225000Y-116832014D01*
X152225000Y-117067985D01*
X152255799Y-117301914D01*
X152316870Y-117529837D01*
X152407160Y-117747819D01*
X152407165Y-117747828D01*
X152525144Y-117952171D01*
X152525145Y-117952172D01*
X152587721Y-118033723D01*
X153423958Y-117197487D01*
X153448978Y-117257890D01*
X153520112Y-117364351D01*
X153610649Y-117454888D01*
X153717110Y-117526022D01*
X153777511Y-117551041D01*
X152941275Y-118387277D01*
X153022827Y-118449854D01*
X153022828Y-118449855D01*
X153227171Y-118567834D01*
X153227180Y-118567839D01*
X153445163Y-118658129D01*
X153445161Y-118658129D01*
X153673085Y-118719200D01*
X153907014Y-118749999D01*
X153907029Y-118750000D01*
X154142971Y-118750000D01*
X154142985Y-118749999D01*
X154376914Y-118719200D01*
X154604837Y-118658129D01*
X154822819Y-118567839D01*
X154822828Y-118567834D01*
X155027181Y-118449850D01*
X155108723Y-118387279D01*
X155108723Y-118387276D01*
X154272487Y-117551041D01*
X154332890Y-117526022D01*
X154439351Y-117454888D01*
X154529888Y-117364351D01*
X154601022Y-117257890D01*
X154626041Y-117197488D01*
X155462276Y-118033723D01*
X155462279Y-118033723D01*
X155524850Y-117952181D01*
X155642834Y-117747828D01*
X155642839Y-117747819D01*
X155733129Y-117529837D01*
X155794200Y-117301914D01*
X155824999Y-117067985D01*
X155825000Y-117067971D01*
X155825000Y-116832028D01*
X155824999Y-116832014D01*
X155794200Y-116598085D01*
X155733129Y-116370162D01*
X155642839Y-116152180D01*
X155642834Y-116152171D01*
X155524855Y-115947828D01*
X155524854Y-115947827D01*
X155462277Y-115866275D01*
X154626041Y-116702511D01*
X154601022Y-116642110D01*
X154529888Y-116535649D01*
X154439351Y-116445112D01*
X154332890Y-116373978D01*
X154272488Y-116348958D01*
X155108723Y-115512721D01*
X155027172Y-115450145D01*
X155027171Y-115450144D01*
X154822828Y-115332165D01*
X154822819Y-115332160D01*
X154604836Y-115241870D01*
X154604838Y-115241870D01*
X154376914Y-115180799D01*
X154142985Y-115150000D01*
X153907014Y-115150000D01*
X153673085Y-115180799D01*
X153445162Y-115241870D01*
X153227180Y-115332160D01*
X153227171Y-115332165D01*
X153022828Y-115450144D01*
X153022818Y-115450150D01*
X152941275Y-115512720D01*
X152941275Y-115512721D01*
X153777512Y-116348958D01*
X153717110Y-116373978D01*
X153610649Y-116445112D01*
X153520112Y-116535649D01*
X153448978Y-116642110D01*
X153423958Y-116702511D01*
X152587721Y-115866275D01*
X152587720Y-115866275D01*
X152525150Y-115947818D01*
X152525144Y-115947828D01*
X152407165Y-116152171D01*
X152407160Y-116152180D01*
X152316870Y-116370162D01*
X152255799Y-116598085D01*
X152225000Y-116832014D01*
X146152999Y-116832014D01*
X146152999Y-116827963D01*
X146152999Y-116602129D01*
X146152998Y-116602123D01*
X146148881Y-116563825D01*
X146146591Y-116542517D01*
X146144029Y-116535649D01*
X146096297Y-116407671D01*
X146096293Y-116407664D01*
X146010047Y-116292455D01*
X146010044Y-116292452D01*
X145894835Y-116206206D01*
X145894828Y-116206202D01*
X145759982Y-116155908D01*
X145759983Y-116155908D01*
X145700383Y-116149501D01*
X145700381Y-116149500D01*
X145700373Y-116149500D01*
X145700364Y-116149500D01*
X143699629Y-116149500D01*
X143699623Y-116149501D01*
X143640016Y-116155908D01*
X143505171Y-116206202D01*
X143505164Y-116206206D01*
X143389955Y-116292452D01*
X143389953Y-116292454D01*
X143383765Y-116300721D01*
X143327830Y-116342591D01*
X143258139Y-116347573D01*
X143196816Y-116314087D01*
X143163333Y-116252763D01*
X143160500Y-116226408D01*
X143160500Y-114078082D01*
X143180185Y-114011043D01*
X143196819Y-113990401D01*
X144200401Y-112986819D01*
X144261724Y-112953334D01*
X144288082Y-112950500D01*
X152102357Y-112950500D01*
X152169396Y-112970185D01*
X152215151Y-113022989D01*
X152225715Y-113061898D01*
X152235001Y-113152797D01*
X152235001Y-113152799D01*
X152290185Y-113319331D01*
X152290187Y-113319336D01*
X152325069Y-113375888D01*
X152382288Y-113468656D01*
X152506344Y-113592712D01*
X152655666Y-113684814D01*
X152822203Y-113739999D01*
X152924991Y-113750500D01*
X155125008Y-113750499D01*
X155227797Y-113739999D01*
X155394334Y-113684814D01*
X155543656Y-113592712D01*
X155667712Y-113468656D01*
X155759814Y-113319334D01*
X155814999Y-113152797D01*
X155825500Y-113050009D01*
X155825499Y-110849992D01*
X155814999Y-110747203D01*
X155759814Y-110580666D01*
X155667712Y-110431344D01*
X155543656Y-110307288D01*
X155394334Y-110215186D01*
X155227797Y-110160001D01*
X155227795Y-110160000D01*
X155125010Y-110149500D01*
X152924998Y-110149500D01*
X152924981Y-110149501D01*
X152822203Y-110160000D01*
X152822200Y-110160001D01*
X152655668Y-110215185D01*
X152655663Y-110215187D01*
X152506342Y-110307289D01*
X152382289Y-110431342D01*
X152290187Y-110580663D01*
X152290185Y-110580668D01*
X152235001Y-110747204D01*
X152235000Y-110747205D01*
X152225714Y-110838103D01*
X152199317Y-110902795D01*
X152142136Y-110942946D01*
X152102356Y-110949500D01*
X144288082Y-110949500D01*
X144221043Y-110929815D01*
X144200401Y-110913181D01*
X143049468Y-109762248D01*
X143015983Y-109700925D01*
X143020967Y-109631233D01*
X143062839Y-109575300D01*
X143128303Y-109550883D01*
X143193444Y-109564082D01*
X143273268Y-109604755D01*
X143467882Y-109667990D01*
X143669983Y-109700000D01*
X143874617Y-109700000D01*
X144076717Y-109667990D01*
X144271331Y-109604755D01*
X144453649Y-109511859D01*
X144498221Y-109479474D01*
X143818746Y-108800000D01*
X143824961Y-108800000D01*
X143926694Y-108772741D01*
X144017906Y-108720080D01*
X144092380Y-108645606D01*
X144145041Y-108554394D01*
X144172300Y-108452661D01*
X144172300Y-108446447D01*
X144851774Y-109125921D01*
X144884159Y-109081349D01*
X144977055Y-108899031D01*
X145040290Y-108704417D01*
X145072300Y-108502317D01*
X145072300Y-108297682D01*
X145040290Y-108095582D01*
X144977055Y-107900968D01*
X144884159Y-107718650D01*
X144851774Y-107674077D01*
X144851774Y-107674076D01*
X144172300Y-108353551D01*
X144172300Y-108347339D01*
X144145041Y-108245606D01*
X144092380Y-108154394D01*
X144017906Y-108079920D01*
X143926694Y-108027259D01*
X143824961Y-108000000D01*
X143818746Y-108000000D01*
X144498222Y-107320524D01*
X144498221Y-107320523D01*
X144453659Y-107288147D01*
X144453650Y-107288141D01*
X144271331Y-107195244D01*
X144076717Y-107132009D01*
X143874617Y-107100000D01*
X143669983Y-107100000D01*
X143467882Y-107132009D01*
X143273268Y-107195244D01*
X143090944Y-107288143D01*
X143046377Y-107320523D01*
X143046377Y-107320524D01*
X143725854Y-108000000D01*
X143719639Y-108000000D01*
X143617906Y-108027259D01*
X143526694Y-108079920D01*
X143452220Y-108154394D01*
X143399559Y-108245606D01*
X143372300Y-108347339D01*
X143372300Y-108353553D01*
X142692824Y-107674077D01*
X142692823Y-107674077D01*
X142660443Y-107718644D01*
X142567544Y-107900968D01*
X142504309Y-108095582D01*
X142472300Y-108297682D01*
X142472300Y-108502317D01*
X142504309Y-108704417D01*
X142567544Y-108899031D01*
X142608217Y-108978855D01*
X142621113Y-109047525D01*
X142594836Y-109112265D01*
X142537730Y-109152522D01*
X142467924Y-109155514D01*
X142410051Y-109122831D01*
X141609118Y-108321898D01*
X141575633Y-108260575D01*
X141572799Y-108234217D01*
X141572799Y-107799998D01*
X141572798Y-107799981D01*
X141562299Y-107697203D01*
X141562298Y-107697200D01*
X141546674Y-107650051D01*
X141507114Y-107530666D01*
X141415012Y-107381344D01*
X141290956Y-107257288D01*
X141141634Y-107165186D01*
X140975097Y-107110001D01*
X140975095Y-107110000D01*
X140872310Y-107099500D01*
X139672298Y-107099500D01*
X139672281Y-107099501D01*
X139569503Y-107110000D01*
X139569500Y-107110001D01*
X139402968Y-107165185D01*
X139402963Y-107165187D01*
X139253642Y-107257289D01*
X139129589Y-107381342D01*
X139037487Y-107530663D01*
X139037486Y-107530666D01*
X138982301Y-107697203D01*
X138982301Y-107697204D01*
X138982300Y-107697204D01*
X138971800Y-107799983D01*
X138971800Y-109000001D01*
X138971801Y-109000018D01*
X138982300Y-109102796D01*
X138982301Y-109102799D01*
X139000420Y-109157477D01*
X139037486Y-109269334D01*
X139129588Y-109418656D01*
X139253644Y-109542712D01*
X139402966Y-109634814D01*
X139569503Y-109689999D01*
X139672291Y-109700500D01*
X140106517Y-109700499D01*
X140173556Y-109720183D01*
X140194198Y-109736818D01*
X142319698Y-111862318D01*
X142353183Y-111923641D01*
X142348199Y-111993333D01*
X142319698Y-112037680D01*
X141708131Y-112649248D01*
X141522221Y-112835158D01*
X141522218Y-112835161D01*
X141452538Y-112904840D01*
X141382859Y-112974519D01*
X141273371Y-113138379D01*
X141273364Y-113138392D01*
X141197950Y-113320460D01*
X141197947Y-113320470D01*
X141159500Y-113513756D01*
X141159500Y-116496786D01*
X141139815Y-116563825D01*
X141123181Y-116584467D01*
X141051716Y-116655931D01*
X141051715Y-116655932D01*
X140990318Y-116740438D01*
X140934987Y-116783103D01*
X140865374Y-116789082D01*
X140803579Y-116756476D01*
X140789682Y-116740438D01*
X140737578Y-116668724D01*
X140728286Y-116655934D01*
X140566566Y-116494214D01*
X140381538Y-116359783D01*
X140347797Y-116342591D01*
X140177755Y-116255950D01*
X139960248Y-116185278D01*
X139774812Y-116155908D01*
X139734354Y-116149500D01*
X139505646Y-116149500D01*
X139465188Y-116155908D01*
X139279753Y-116185278D01*
X139279750Y-116185278D01*
X139062244Y-116255950D01*
X138858461Y-116359783D01*
X138792550Y-116407671D01*
X138673434Y-116494214D01*
X138673432Y-116494216D01*
X138673431Y-116494216D01*
X138554467Y-116613181D01*
X138493144Y-116646666D01*
X138466786Y-116649500D01*
X131001455Y-116649500D01*
X130904812Y-116668724D01*
X130808167Y-116687947D01*
X130808161Y-116687949D01*
X130754834Y-116710037D01*
X130754834Y-116710038D01*
X130709315Y-116728892D01*
X130626089Y-116763366D01*
X130626079Y-116763371D01*
X130520343Y-116834023D01*
X130520342Y-116834024D01*
X130462216Y-116872861D01*
X130462215Y-116872862D01*
X128046899Y-119288181D01*
X127985576Y-119321666D01*
X127959218Y-119324500D01*
X127440572Y-119324500D01*
X127373533Y-119304815D01*
X127327778Y-119252011D01*
X127316572Y-119200584D01*
X127314431Y-115947818D01*
X127313034Y-113824582D01*
X127332674Y-113757529D01*
X127385448Y-113711740D01*
X127437034Y-113700500D01*
X127940428Y-113700500D01*
X127940429Y-113700499D01*
X128083055Y-113684429D01*
X128219494Y-113669057D01*
X128219499Y-113669056D01*
X128219509Y-113669055D01*
X128493318Y-113606560D01*
X128758408Y-113513801D01*
X129011445Y-113391945D01*
X129249248Y-113242523D01*
X129468825Y-113067416D01*
X129506519Y-113029722D01*
X129567841Y-112996236D01*
X129592974Y-112993408D01*
X136525000Y-112925000D01*
X136600051Y-103828711D01*
X154199500Y-103828711D01*
X154199500Y-104071288D01*
X154231161Y-104311785D01*
X154293947Y-104546104D01*
X154382944Y-104760961D01*
X154386776Y-104770212D01*
X154508064Y-104980289D01*
X154508066Y-104980292D01*
X154508067Y-104980293D01*
X154655733Y-105172736D01*
X154655739Y-105172743D01*
X154827256Y-105344260D01*
X154827263Y-105344266D01*
X154940321Y-105431018D01*
X155019711Y-105491936D01*
X155229788Y-105613224D01*
X155453900Y-105706054D01*
X155688211Y-105768838D01*
X155868586Y-105792584D01*
X155928711Y-105800500D01*
X155928712Y-105800500D01*
X156171289Y-105800500D01*
X156219388Y-105794167D01*
X156411789Y-105768838D01*
X156646100Y-105706054D01*
X156870212Y-105613224D01*
X157080289Y-105491936D01*
X157272738Y-105344265D01*
X157444265Y-105172738D01*
X157591936Y-104980289D01*
X157713224Y-104770212D01*
X157806054Y-104546100D01*
X157868838Y-104311789D01*
X157900500Y-104071288D01*
X157900500Y-103828712D01*
X157868838Y-103588211D01*
X157806054Y-103353900D01*
X157713224Y-103129788D01*
X157591936Y-102919711D01*
X157444265Y-102727262D01*
X157444260Y-102727256D01*
X157272743Y-102555739D01*
X157272736Y-102555733D01*
X157080293Y-102408067D01*
X157080292Y-102408066D01*
X157080289Y-102408064D01*
X156870212Y-102286776D01*
X156870205Y-102286773D01*
X156646104Y-102193947D01*
X156411785Y-102131161D01*
X156171289Y-102099500D01*
X156171288Y-102099500D01*
X155928712Y-102099500D01*
X155928711Y-102099500D01*
X155688214Y-102131161D01*
X155453895Y-102193947D01*
X155229794Y-102286773D01*
X155229785Y-102286777D01*
X155019706Y-102408067D01*
X154827263Y-102555733D01*
X154827256Y-102555739D01*
X154655739Y-102727256D01*
X154655733Y-102727263D01*
X154508067Y-102919706D01*
X154386777Y-103129785D01*
X154386773Y-103129794D01*
X154293947Y-103353895D01*
X154231161Y-103588214D01*
X154199500Y-103828711D01*
X136600051Y-103828711D01*
X136624847Y-100823474D01*
X136645084Y-100756602D01*
X136698264Y-100711284D01*
X136748843Y-100700500D01*
X159175500Y-100700500D01*
X159242539Y-100720185D01*
G37*
%TD.AperFunction*%
%TA.AperFunction,Conductor*%
G36*
X133117600Y-131977661D02*
G01*
X133144859Y-132079394D01*
X133197520Y-132170606D01*
X133271994Y-132245080D01*
X133363206Y-132297741D01*
X133464939Y-132325000D01*
X133471153Y-132325000D01*
X132791676Y-133004474D01*
X132836250Y-133036859D01*
X133018568Y-133129755D01*
X133213182Y-133192990D01*
X133415283Y-133225000D01*
X133619917Y-133225000D01*
X133822017Y-133192990D01*
X134016631Y-133129755D01*
X134198950Y-133036859D01*
X134227613Y-133016034D01*
X134293419Y-132992553D01*
X134361474Y-133008378D01*
X134410169Y-133058483D01*
X134424500Y-133116351D01*
X134424500Y-137524237D01*
X134404815Y-137591276D01*
X134400818Y-137597122D01*
X134312715Y-137718386D01*
X134219781Y-137900776D01*
X134156522Y-138095465D01*
X134124500Y-138297648D01*
X134124500Y-138502351D01*
X134156522Y-138704534D01*
X134219781Y-138899223D01*
X134268759Y-138995346D01*
X134312585Y-139081359D01*
X134312715Y-139081613D01*
X134418790Y-139227615D01*
X134442270Y-139293422D01*
X134426444Y-139361475D01*
X134376338Y-139410170D01*
X134318472Y-139424500D01*
X133774500Y-139424500D01*
X133707461Y-139404815D01*
X133661706Y-139352011D01*
X133650500Y-139300500D01*
X133650500Y-135789059D01*
X133650501Y-135789046D01*
X133650501Y-135620945D01*
X133650501Y-135620943D01*
X133609577Y-135468215D01*
X133580639Y-135418095D01*
X133530520Y-135331284D01*
X133418716Y-135219480D01*
X133418715Y-135219479D01*
X133414385Y-135215149D01*
X133414374Y-135215139D01*
X131654819Y-133455584D01*
X131621334Y-133394261D01*
X131618500Y-133367903D01*
X131618500Y-133337076D01*
X131638185Y-133270037D01*
X131690989Y-133224282D01*
X131716556Y-133215820D01*
X131720387Y-133214999D01*
X131720397Y-133214999D01*
X131886934Y-133159814D01*
X132036256Y-133067712D01*
X132160312Y-132943656D01*
X132252414Y-132794334D01*
X132272884Y-132732559D01*
X132312655Y-132675116D01*
X132377171Y-132648292D01*
X132400319Y-132647946D01*
X132438125Y-132650921D01*
X133117600Y-131971446D01*
X133117600Y-131977661D01*
G37*
%TD.AperFunction*%
%TD*%
M02*
