%TF.GenerationSoftware,KiCad,Pcbnew,10.0.6*%
%TF.CreationDate,2026-09-19T22:54:49+05:30*%
%TF.ProjectId,AC_DC_trial,41435f44-435f-4747-9269-616c2e6b6963,rev?*%
%TF.SameCoordinates,Original*%
%TF.FileFunction,Legend,Top*%
%TF.FilePolarity,Positive*%
%FSLAX46Y46*%
G04 Gerber Fmt 4.6, Leading zero omitted, Abs format (unit mm)*
G04 Created by KiCad (PCBNEW 10.0.6) date 2026-09-19 22:54:49*
%MOMM*%
%LPD*%
G01*
G04 APERTURE LIST*
%ADD10C,0.150000*%
%ADD11C,0.120000*%
G04 APERTURE END LIST*
D10*
X143236905Y-126759819D02*
X143236905Y-125759819D01*
X143236905Y-125759819D02*
X143475000Y-125759819D01*
X143475000Y-125759819D02*
X143617857Y-125807438D01*
X143617857Y-125807438D02*
X143713095Y-125902676D01*
X143713095Y-125902676D02*
X143760714Y-125997914D01*
X143760714Y-125997914D02*
X143808333Y-126188390D01*
X143808333Y-126188390D02*
X143808333Y-126331247D01*
X143808333Y-126331247D02*
X143760714Y-126521723D01*
X143760714Y-126521723D02*
X143713095Y-126616961D01*
X143713095Y-126616961D02*
X143617857Y-126712200D01*
X143617857Y-126712200D02*
X143475000Y-126759819D01*
X143475000Y-126759819D02*
X143236905Y-126759819D01*
X144713095Y-125759819D02*
X144236905Y-125759819D01*
X144236905Y-125759819D02*
X144189286Y-126236009D01*
X144189286Y-126236009D02*
X144236905Y-126188390D01*
X144236905Y-126188390D02*
X144332143Y-126140771D01*
X144332143Y-126140771D02*
X144570238Y-126140771D01*
X144570238Y-126140771D02*
X144665476Y-126188390D01*
X144665476Y-126188390D02*
X144713095Y-126236009D01*
X144713095Y-126236009D02*
X144760714Y-126331247D01*
X144760714Y-126331247D02*
X144760714Y-126569342D01*
X144760714Y-126569342D02*
X144713095Y-126664580D01*
X144713095Y-126664580D02*
X144665476Y-126712200D01*
X144665476Y-126712200D02*
X144570238Y-126759819D01*
X144570238Y-126759819D02*
X144332143Y-126759819D01*
X144332143Y-126759819D02*
X144236905Y-126712200D01*
X144236905Y-126712200D02*
X144189286Y-126664580D01*
X138633095Y-127129819D02*
X138633095Y-126129819D01*
X139204523Y-127129819D02*
X138775952Y-126558390D01*
X139204523Y-126129819D02*
X138633095Y-126701247D01*
X143808333Y-129229819D02*
X143475000Y-128753628D01*
X143236905Y-129229819D02*
X143236905Y-128229819D01*
X143236905Y-128229819D02*
X143617857Y-128229819D01*
X143617857Y-128229819D02*
X143713095Y-128277438D01*
X143713095Y-128277438D02*
X143760714Y-128325057D01*
X143760714Y-128325057D02*
X143808333Y-128420295D01*
X143808333Y-128420295D02*
X143808333Y-128563152D01*
X143808333Y-128563152D02*
X143760714Y-128658390D01*
X143760714Y-128658390D02*
X143713095Y-128706009D01*
X143713095Y-128706009D02*
X143617857Y-128753628D01*
X143617857Y-128753628D02*
X143236905Y-128753628D01*
X144760714Y-129229819D02*
X144189286Y-129229819D01*
X144475000Y-129229819D02*
X144475000Y-128229819D01*
X144475000Y-128229819D02*
X144379762Y-128372676D01*
X144379762Y-128372676D02*
X144284524Y-128467914D01*
X144284524Y-128467914D02*
X144189286Y-128515533D01*
X105454819Y-111833333D02*
X106169104Y-111833333D01*
X106169104Y-111833333D02*
X106311961Y-111880952D01*
X106311961Y-111880952D02*
X106407200Y-111976190D01*
X106407200Y-111976190D02*
X106454819Y-112119047D01*
X106454819Y-112119047D02*
X106454819Y-112214285D01*
X106454819Y-110833333D02*
X106454819Y-111404761D01*
X106454819Y-111119047D02*
X105454819Y-111119047D01*
X105454819Y-111119047D02*
X105597676Y-111214285D01*
X105597676Y-111214285D02*
X105692914Y-111309523D01*
X105692914Y-111309523D02*
X105740533Y-111404761D01*
X106616666Y-103006009D02*
X106283333Y-103006009D01*
X106283333Y-103529819D02*
X106283333Y-102529819D01*
X106283333Y-102529819D02*
X106759523Y-102529819D01*
X107664285Y-103529819D02*
X107092857Y-103529819D01*
X107378571Y-103529819D02*
X107378571Y-102529819D01*
X107378571Y-102529819D02*
X107283333Y-102672676D01*
X107283333Y-102672676D02*
X107188095Y-102767914D01*
X107188095Y-102767914D02*
X107092857Y-102815533D01*
X103513095Y-141954819D02*
X103513095Y-140954819D01*
X103513095Y-141431009D02*
X104084523Y-141431009D01*
X104084523Y-141954819D02*
X104084523Y-140954819D01*
X104513095Y-141050057D02*
X104560714Y-141002438D01*
X104560714Y-141002438D02*
X104655952Y-140954819D01*
X104655952Y-140954819D02*
X104894047Y-140954819D01*
X104894047Y-140954819D02*
X104989285Y-141002438D01*
X104989285Y-141002438D02*
X105036904Y-141050057D01*
X105036904Y-141050057D02*
X105084523Y-141145295D01*
X105084523Y-141145295D02*
X105084523Y-141240533D01*
X105084523Y-141240533D02*
X105036904Y-141383390D01*
X105036904Y-141383390D02*
X104465476Y-141954819D01*
X104465476Y-141954819D02*
X105084523Y-141954819D01*
X132139761Y-148439819D02*
X131806428Y-147963628D01*
X131568333Y-148439819D02*
X131568333Y-147439819D01*
X131568333Y-147439819D02*
X131949285Y-147439819D01*
X131949285Y-147439819D02*
X132044523Y-147487438D01*
X132044523Y-147487438D02*
X132092142Y-147535057D01*
X132092142Y-147535057D02*
X132139761Y-147630295D01*
X132139761Y-147630295D02*
X132139761Y-147773152D01*
X132139761Y-147773152D02*
X132092142Y-147868390D01*
X132092142Y-147868390D02*
X132044523Y-147916009D01*
X132044523Y-147916009D02*
X131949285Y-147963628D01*
X131949285Y-147963628D02*
X131568333Y-147963628D01*
X132425476Y-147439819D02*
X132758809Y-148439819D01*
X132758809Y-148439819D02*
X133092142Y-147439819D01*
X133949285Y-148439819D02*
X133377857Y-148439819D01*
X133663571Y-148439819D02*
X133663571Y-147439819D01*
X133663571Y-147439819D02*
X133568333Y-147582676D01*
X133568333Y-147582676D02*
X133473095Y-147677914D01*
X133473095Y-147677914D02*
X133377857Y-147725533D01*
X156674819Y-132841666D02*
X156198628Y-133174999D01*
X156674819Y-133413094D02*
X155674819Y-133413094D01*
X155674819Y-133413094D02*
X155674819Y-133032142D01*
X155674819Y-133032142D02*
X155722438Y-132936904D01*
X155722438Y-132936904D02*
X155770057Y-132889285D01*
X155770057Y-132889285D02*
X155865295Y-132841666D01*
X155865295Y-132841666D02*
X156008152Y-132841666D01*
X156008152Y-132841666D02*
X156103390Y-132889285D01*
X156103390Y-132889285D02*
X156151009Y-132936904D01*
X156151009Y-132936904D02*
X156198628Y-133032142D01*
X156198628Y-133032142D02*
X156198628Y-133413094D01*
X155770057Y-132460713D02*
X155722438Y-132413094D01*
X155722438Y-132413094D02*
X155674819Y-132317856D01*
X155674819Y-132317856D02*
X155674819Y-132079761D01*
X155674819Y-132079761D02*
X155722438Y-131984523D01*
X155722438Y-131984523D02*
X155770057Y-131936904D01*
X155770057Y-131936904D02*
X155865295Y-131889285D01*
X155865295Y-131889285D02*
X155960533Y-131889285D01*
X155960533Y-131889285D02*
X156103390Y-131936904D01*
X156103390Y-131936904D02*
X156674819Y-132508332D01*
X156674819Y-132508332D02*
X156674819Y-131889285D01*
X121924819Y-121818094D02*
X120924819Y-121818094D01*
X120924819Y-121818094D02*
X120924819Y-121579999D01*
X120924819Y-121579999D02*
X120972438Y-121437142D01*
X120972438Y-121437142D02*
X121067676Y-121341904D01*
X121067676Y-121341904D02*
X121162914Y-121294285D01*
X121162914Y-121294285D02*
X121353390Y-121246666D01*
X121353390Y-121246666D02*
X121496247Y-121246666D01*
X121496247Y-121246666D02*
X121686723Y-121294285D01*
X121686723Y-121294285D02*
X121781961Y-121341904D01*
X121781961Y-121341904D02*
X121877200Y-121437142D01*
X121877200Y-121437142D02*
X121924819Y-121579999D01*
X121924819Y-121579999D02*
X121924819Y-121818094D01*
X121020057Y-120865713D02*
X120972438Y-120818094D01*
X120972438Y-120818094D02*
X120924819Y-120722856D01*
X120924819Y-120722856D02*
X120924819Y-120484761D01*
X120924819Y-120484761D02*
X120972438Y-120389523D01*
X120972438Y-120389523D02*
X121020057Y-120341904D01*
X121020057Y-120341904D02*
X121115295Y-120294285D01*
X121115295Y-120294285D02*
X121210533Y-120294285D01*
X121210533Y-120294285D02*
X121353390Y-120341904D01*
X121353390Y-120341904D02*
X121924819Y-120913332D01*
X121924819Y-120913332D02*
X121924819Y-120294285D01*
X121554819Y-116261904D02*
X120554819Y-116261904D01*
X121554819Y-115690476D02*
X120983390Y-116119047D01*
X120554819Y-115690476D02*
X121126247Y-116261904D01*
X154854819Y-121433333D02*
X155569104Y-121433333D01*
X155569104Y-121433333D02*
X155711961Y-121480952D01*
X155711961Y-121480952D02*
X155807200Y-121576190D01*
X155807200Y-121576190D02*
X155854819Y-121719047D01*
X155854819Y-121719047D02*
X155854819Y-121814285D01*
X154950057Y-121004761D02*
X154902438Y-120957142D01*
X154902438Y-120957142D02*
X154854819Y-120861904D01*
X154854819Y-120861904D02*
X154854819Y-120623809D01*
X154854819Y-120623809D02*
X154902438Y-120528571D01*
X154902438Y-120528571D02*
X154950057Y-120480952D01*
X154950057Y-120480952D02*
X155045295Y-120433333D01*
X155045295Y-120433333D02*
X155140533Y-120433333D01*
X155140533Y-120433333D02*
X155283390Y-120480952D01*
X155283390Y-120480952D02*
X155854819Y-121052380D01*
X155854819Y-121052380D02*
X155854819Y-120433333D01*
X116424819Y-121818094D02*
X115424819Y-121818094D01*
X115424819Y-121818094D02*
X115424819Y-121579999D01*
X115424819Y-121579999D02*
X115472438Y-121437142D01*
X115472438Y-121437142D02*
X115567676Y-121341904D01*
X115567676Y-121341904D02*
X115662914Y-121294285D01*
X115662914Y-121294285D02*
X115853390Y-121246666D01*
X115853390Y-121246666D02*
X115996247Y-121246666D01*
X115996247Y-121246666D02*
X116186723Y-121294285D01*
X116186723Y-121294285D02*
X116281961Y-121341904D01*
X116281961Y-121341904D02*
X116377200Y-121437142D01*
X116377200Y-121437142D02*
X116424819Y-121579999D01*
X116424819Y-121579999D02*
X116424819Y-121818094D01*
X116424819Y-120294285D02*
X116424819Y-120865713D01*
X116424819Y-120579999D02*
X115424819Y-120579999D01*
X115424819Y-120579999D02*
X115567676Y-120675237D01*
X115567676Y-120675237D02*
X115662914Y-120770475D01*
X115662914Y-120770475D02*
X115710533Y-120865713D01*
X116054819Y-116261904D02*
X115054819Y-116261904D01*
X116054819Y-115690476D02*
X115483390Y-116119047D01*
X115054819Y-115690476D02*
X115626247Y-116261904D01*
X141855633Y-103509580D02*
X141808014Y-103557200D01*
X141808014Y-103557200D02*
X141665157Y-103604819D01*
X141665157Y-103604819D02*
X141569919Y-103604819D01*
X141569919Y-103604819D02*
X141427062Y-103557200D01*
X141427062Y-103557200D02*
X141331824Y-103461961D01*
X141331824Y-103461961D02*
X141284205Y-103366723D01*
X141284205Y-103366723D02*
X141236586Y-103176247D01*
X141236586Y-103176247D02*
X141236586Y-103033390D01*
X141236586Y-103033390D02*
X141284205Y-102842914D01*
X141284205Y-102842914D02*
X141331824Y-102747676D01*
X141331824Y-102747676D02*
X141427062Y-102652438D01*
X141427062Y-102652438D02*
X141569919Y-102604819D01*
X141569919Y-102604819D02*
X141665157Y-102604819D01*
X141665157Y-102604819D02*
X141808014Y-102652438D01*
X141808014Y-102652438D02*
X141855633Y-102700057D01*
X142712776Y-102938152D02*
X142712776Y-103604819D01*
X142474681Y-102557200D02*
X142236586Y-103271485D01*
X142236586Y-103271485D02*
X142855633Y-103271485D01*
X116424819Y-136818094D02*
X115424819Y-136818094D01*
X115424819Y-136818094D02*
X115424819Y-136579999D01*
X115424819Y-136579999D02*
X115472438Y-136437142D01*
X115472438Y-136437142D02*
X115567676Y-136341904D01*
X115567676Y-136341904D02*
X115662914Y-136294285D01*
X115662914Y-136294285D02*
X115853390Y-136246666D01*
X115853390Y-136246666D02*
X115996247Y-136246666D01*
X115996247Y-136246666D02*
X116186723Y-136294285D01*
X116186723Y-136294285D02*
X116281961Y-136341904D01*
X116281961Y-136341904D02*
X116377200Y-136437142D01*
X116377200Y-136437142D02*
X116424819Y-136579999D01*
X116424819Y-136579999D02*
X116424819Y-136818094D01*
X115424819Y-135913332D02*
X115424819Y-135294285D01*
X115424819Y-135294285D02*
X115805771Y-135627618D01*
X115805771Y-135627618D02*
X115805771Y-135484761D01*
X115805771Y-135484761D02*
X115853390Y-135389523D01*
X115853390Y-135389523D02*
X115901009Y-135341904D01*
X115901009Y-135341904D02*
X115996247Y-135294285D01*
X115996247Y-135294285D02*
X116234342Y-135294285D01*
X116234342Y-135294285D02*
X116329580Y-135341904D01*
X116329580Y-135341904D02*
X116377200Y-135389523D01*
X116377200Y-135389523D02*
X116424819Y-135484761D01*
X116424819Y-135484761D02*
X116424819Y-135770475D01*
X116424819Y-135770475D02*
X116377200Y-135865713D01*
X116377200Y-135865713D02*
X116329580Y-135913332D01*
X116054819Y-131261904D02*
X115054819Y-131261904D01*
X116054819Y-130690476D02*
X115483390Y-131119047D01*
X115054819Y-130690476D02*
X115626247Y-131261904D01*
X150763095Y-104204819D02*
X150763095Y-103204819D01*
X150763095Y-103681009D02*
X151334523Y-103681009D01*
X151334523Y-104204819D02*
X151334523Y-103204819D01*
X152334523Y-104204819D02*
X151763095Y-104204819D01*
X152048809Y-104204819D02*
X152048809Y-103204819D01*
X152048809Y-103204819D02*
X151953571Y-103347676D01*
X151953571Y-103347676D02*
X151858333Y-103442914D01*
X151858333Y-103442914D02*
X151763095Y-103490533D01*
X140531905Y-141494819D02*
X140531905Y-140494819D01*
X140531905Y-140494819D02*
X140770000Y-140494819D01*
X140770000Y-140494819D02*
X140912857Y-140542438D01*
X140912857Y-140542438D02*
X141008095Y-140637676D01*
X141008095Y-140637676D02*
X141055714Y-140732914D01*
X141055714Y-140732914D02*
X141103333Y-140923390D01*
X141103333Y-140923390D02*
X141103333Y-141066247D01*
X141103333Y-141066247D02*
X141055714Y-141256723D01*
X141055714Y-141256723D02*
X141008095Y-141351961D01*
X141008095Y-141351961D02*
X140912857Y-141447200D01*
X140912857Y-141447200D02*
X140770000Y-141494819D01*
X140770000Y-141494819D02*
X140531905Y-141494819D01*
X141436667Y-140494819D02*
X142103333Y-140494819D01*
X142103333Y-140494819D02*
X141674762Y-141494819D01*
X141398095Y-121204819D02*
X141398095Y-122014342D01*
X141398095Y-122014342D02*
X141445714Y-122109580D01*
X141445714Y-122109580D02*
X141493333Y-122157200D01*
X141493333Y-122157200D02*
X141588571Y-122204819D01*
X141588571Y-122204819D02*
X141779047Y-122204819D01*
X141779047Y-122204819D02*
X141874285Y-122157200D01*
X141874285Y-122157200D02*
X141921904Y-122109580D01*
X141921904Y-122109580D02*
X141969523Y-122014342D01*
X141969523Y-122014342D02*
X141969523Y-121204819D01*
X142969523Y-122204819D02*
X142398095Y-122204819D01*
X142683809Y-122204819D02*
X142683809Y-121204819D01*
X142683809Y-121204819D02*
X142588571Y-121347676D01*
X142588571Y-121347676D02*
X142493333Y-121442914D01*
X142493333Y-121442914D02*
X142398095Y-121490533D01*
X132758333Y-141259580D02*
X132710714Y-141307200D01*
X132710714Y-141307200D02*
X132567857Y-141354819D01*
X132567857Y-141354819D02*
X132472619Y-141354819D01*
X132472619Y-141354819D02*
X132329762Y-141307200D01*
X132329762Y-141307200D02*
X132234524Y-141211961D01*
X132234524Y-141211961D02*
X132186905Y-141116723D01*
X132186905Y-141116723D02*
X132139286Y-140926247D01*
X132139286Y-140926247D02*
X132139286Y-140783390D01*
X132139286Y-140783390D02*
X132186905Y-140592914D01*
X132186905Y-140592914D02*
X132234524Y-140497676D01*
X132234524Y-140497676D02*
X132329762Y-140402438D01*
X132329762Y-140402438D02*
X132472619Y-140354819D01*
X132472619Y-140354819D02*
X132567857Y-140354819D01*
X132567857Y-140354819D02*
X132710714Y-140402438D01*
X132710714Y-140402438D02*
X132758333Y-140450057D01*
X133139286Y-140450057D02*
X133186905Y-140402438D01*
X133186905Y-140402438D02*
X133282143Y-140354819D01*
X133282143Y-140354819D02*
X133520238Y-140354819D01*
X133520238Y-140354819D02*
X133615476Y-140402438D01*
X133615476Y-140402438D02*
X133663095Y-140450057D01*
X133663095Y-140450057D02*
X133710714Y-140545295D01*
X133710714Y-140545295D02*
X133710714Y-140640533D01*
X133710714Y-140640533D02*
X133663095Y-140783390D01*
X133663095Y-140783390D02*
X133091667Y-141354819D01*
X133091667Y-141354819D02*
X133710714Y-141354819D01*
X129658333Y-113884580D02*
X129610714Y-113932200D01*
X129610714Y-113932200D02*
X129467857Y-113979819D01*
X129467857Y-113979819D02*
X129372619Y-113979819D01*
X129372619Y-113979819D02*
X129229762Y-113932200D01*
X129229762Y-113932200D02*
X129134524Y-113836961D01*
X129134524Y-113836961D02*
X129086905Y-113741723D01*
X129086905Y-113741723D02*
X129039286Y-113551247D01*
X129039286Y-113551247D02*
X129039286Y-113408390D01*
X129039286Y-113408390D02*
X129086905Y-113217914D01*
X129086905Y-113217914D02*
X129134524Y-113122676D01*
X129134524Y-113122676D02*
X129229762Y-113027438D01*
X129229762Y-113027438D02*
X129372619Y-112979819D01*
X129372619Y-112979819D02*
X129467857Y-112979819D01*
X129467857Y-112979819D02*
X129610714Y-113027438D01*
X129610714Y-113027438D02*
X129658333Y-113075057D01*
X130610714Y-113979819D02*
X130039286Y-113979819D01*
X130325000Y-113979819D02*
X130325000Y-112979819D01*
X130325000Y-112979819D02*
X130229762Y-113122676D01*
X130229762Y-113122676D02*
X130134524Y-113217914D01*
X130134524Y-113217914D02*
X130039286Y-113265533D01*
X121924819Y-136818094D02*
X120924819Y-136818094D01*
X120924819Y-136818094D02*
X120924819Y-136579999D01*
X120924819Y-136579999D02*
X120972438Y-136437142D01*
X120972438Y-136437142D02*
X121067676Y-136341904D01*
X121067676Y-136341904D02*
X121162914Y-136294285D01*
X121162914Y-136294285D02*
X121353390Y-136246666D01*
X121353390Y-136246666D02*
X121496247Y-136246666D01*
X121496247Y-136246666D02*
X121686723Y-136294285D01*
X121686723Y-136294285D02*
X121781961Y-136341904D01*
X121781961Y-136341904D02*
X121877200Y-136437142D01*
X121877200Y-136437142D02*
X121924819Y-136579999D01*
X121924819Y-136579999D02*
X121924819Y-136818094D01*
X121258152Y-135389523D02*
X121924819Y-135389523D01*
X120877200Y-135627618D02*
X121591485Y-135865713D01*
X121591485Y-135865713D02*
X121591485Y-135246666D01*
X121554819Y-131261904D02*
X120554819Y-131261904D01*
X121554819Y-130690476D02*
X120983390Y-131119047D01*
X120554819Y-130690476D02*
X121126247Y-131261904D01*
X103479819Y-134700000D02*
X103003628Y-135033333D01*
X103479819Y-135271428D02*
X102479819Y-135271428D01*
X102479819Y-135271428D02*
X102479819Y-134890476D01*
X102479819Y-134890476D02*
X102527438Y-134795238D01*
X102527438Y-134795238D02*
X102575057Y-134747619D01*
X102575057Y-134747619D02*
X102670295Y-134700000D01*
X102670295Y-134700000D02*
X102813152Y-134700000D01*
X102813152Y-134700000D02*
X102908390Y-134747619D01*
X102908390Y-134747619D02*
X102956009Y-134795238D01*
X102956009Y-134795238D02*
X103003628Y-134890476D01*
X103003628Y-134890476D02*
X103003628Y-135271428D01*
X102479819Y-134414285D02*
X103479819Y-134080952D01*
X103479819Y-134080952D02*
X102479819Y-133747619D01*
X103575057Y-133652381D02*
X103575057Y-132890476D01*
X103479819Y-132652380D02*
X102479819Y-132652380D01*
X102479819Y-132652380D02*
X103194104Y-132319047D01*
X103194104Y-132319047D02*
X102479819Y-131985714D01*
X102479819Y-131985714D02*
X103479819Y-131985714D01*
X102479819Y-131319047D02*
X102479819Y-131128571D01*
X102479819Y-131128571D02*
X102527438Y-131033333D01*
X102527438Y-131033333D02*
X102622676Y-130938095D01*
X102622676Y-130938095D02*
X102813152Y-130890476D01*
X102813152Y-130890476D02*
X103146485Y-130890476D01*
X103146485Y-130890476D02*
X103336961Y-130938095D01*
X103336961Y-130938095D02*
X103432200Y-131033333D01*
X103432200Y-131033333D02*
X103479819Y-131128571D01*
X103479819Y-131128571D02*
X103479819Y-131319047D01*
X103479819Y-131319047D02*
X103432200Y-131414285D01*
X103432200Y-131414285D02*
X103336961Y-131509523D01*
X103336961Y-131509523D02*
X103146485Y-131557142D01*
X103146485Y-131557142D02*
X102813152Y-131557142D01*
X102813152Y-131557142D02*
X102622676Y-131509523D01*
X102622676Y-131509523D02*
X102527438Y-131414285D01*
X102527438Y-131414285D02*
X102479819Y-131319047D01*
X102479819Y-130604761D02*
X103479819Y-130271428D01*
X103479819Y-130271428D02*
X102479819Y-129938095D01*
X103479819Y-129080952D02*
X103479819Y-129652380D01*
X103479819Y-129366666D02*
X102479819Y-129366666D01*
X102479819Y-129366666D02*
X102622676Y-129461904D01*
X102622676Y-129461904D02*
X102717914Y-129557142D01*
X102717914Y-129557142D02*
X102765533Y-129652380D01*
X149659580Y-144366666D02*
X149707200Y-144414285D01*
X149707200Y-144414285D02*
X149754819Y-144557142D01*
X149754819Y-144557142D02*
X149754819Y-144652380D01*
X149754819Y-144652380D02*
X149707200Y-144795237D01*
X149707200Y-144795237D02*
X149611961Y-144890475D01*
X149611961Y-144890475D02*
X149516723Y-144938094D01*
X149516723Y-144938094D02*
X149326247Y-144985713D01*
X149326247Y-144985713D02*
X149183390Y-144985713D01*
X149183390Y-144985713D02*
X148992914Y-144938094D01*
X148992914Y-144938094D02*
X148897676Y-144890475D01*
X148897676Y-144890475D02*
X148802438Y-144795237D01*
X148802438Y-144795237D02*
X148754819Y-144652380D01*
X148754819Y-144652380D02*
X148754819Y-144557142D01*
X148754819Y-144557142D02*
X148802438Y-144414285D01*
X148802438Y-144414285D02*
X148850057Y-144366666D01*
X148754819Y-143461904D02*
X148754819Y-143938094D01*
X148754819Y-143938094D02*
X149231009Y-143985713D01*
X149231009Y-143985713D02*
X149183390Y-143938094D01*
X149183390Y-143938094D02*
X149135771Y-143842856D01*
X149135771Y-143842856D02*
X149135771Y-143604761D01*
X149135771Y-143604761D02*
X149183390Y-143509523D01*
X149183390Y-143509523D02*
X149231009Y-143461904D01*
X149231009Y-143461904D02*
X149326247Y-143414285D01*
X149326247Y-143414285D02*
X149564342Y-143414285D01*
X149564342Y-143414285D02*
X149659580Y-143461904D01*
X149659580Y-143461904D02*
X149707200Y-143509523D01*
X149707200Y-143509523D02*
X149754819Y-143604761D01*
X149754819Y-143604761D02*
X149754819Y-143842856D01*
X149754819Y-143842856D02*
X149707200Y-143938094D01*
X149707200Y-143938094D02*
X149659580Y-143985713D01*
X127633333Y-132259580D02*
X127585714Y-132307200D01*
X127585714Y-132307200D02*
X127442857Y-132354819D01*
X127442857Y-132354819D02*
X127347619Y-132354819D01*
X127347619Y-132354819D02*
X127204762Y-132307200D01*
X127204762Y-132307200D02*
X127109524Y-132211961D01*
X127109524Y-132211961D02*
X127061905Y-132116723D01*
X127061905Y-132116723D02*
X127014286Y-131926247D01*
X127014286Y-131926247D02*
X127014286Y-131783390D01*
X127014286Y-131783390D02*
X127061905Y-131592914D01*
X127061905Y-131592914D02*
X127109524Y-131497676D01*
X127109524Y-131497676D02*
X127204762Y-131402438D01*
X127204762Y-131402438D02*
X127347619Y-131354819D01*
X127347619Y-131354819D02*
X127442857Y-131354819D01*
X127442857Y-131354819D02*
X127585714Y-131402438D01*
X127585714Y-131402438D02*
X127633333Y-131450057D01*
X127966667Y-131354819D02*
X128585714Y-131354819D01*
X128585714Y-131354819D02*
X128252381Y-131735771D01*
X128252381Y-131735771D02*
X128395238Y-131735771D01*
X128395238Y-131735771D02*
X128490476Y-131783390D01*
X128490476Y-131783390D02*
X128538095Y-131831009D01*
X128538095Y-131831009D02*
X128585714Y-131926247D01*
X128585714Y-131926247D02*
X128585714Y-132164342D01*
X128585714Y-132164342D02*
X128538095Y-132259580D01*
X128538095Y-132259580D02*
X128490476Y-132307200D01*
X128490476Y-132307200D02*
X128395238Y-132354819D01*
X128395238Y-132354819D02*
X128109524Y-132354819D01*
X128109524Y-132354819D02*
X128014286Y-132307200D01*
X128014286Y-132307200D02*
X127966667Y-132259580D01*
X143361905Y-135354819D02*
X143361905Y-134354819D01*
X143361905Y-134354819D02*
X143600000Y-134354819D01*
X143600000Y-134354819D02*
X143742857Y-134402438D01*
X143742857Y-134402438D02*
X143838095Y-134497676D01*
X143838095Y-134497676D02*
X143885714Y-134592914D01*
X143885714Y-134592914D02*
X143933333Y-134783390D01*
X143933333Y-134783390D02*
X143933333Y-134926247D01*
X143933333Y-134926247D02*
X143885714Y-135116723D01*
X143885714Y-135116723D02*
X143838095Y-135211961D01*
X143838095Y-135211961D02*
X143742857Y-135307200D01*
X143742857Y-135307200D02*
X143600000Y-135354819D01*
X143600000Y-135354819D02*
X143361905Y-135354819D01*
X144790476Y-134354819D02*
X144600000Y-134354819D01*
X144600000Y-134354819D02*
X144504762Y-134402438D01*
X144504762Y-134402438D02*
X144457143Y-134450057D01*
X144457143Y-134450057D02*
X144361905Y-134592914D01*
X144361905Y-134592914D02*
X144314286Y-134783390D01*
X144314286Y-134783390D02*
X144314286Y-135164342D01*
X144314286Y-135164342D02*
X144361905Y-135259580D01*
X144361905Y-135259580D02*
X144409524Y-135307200D01*
X144409524Y-135307200D02*
X144504762Y-135354819D01*
X144504762Y-135354819D02*
X144695238Y-135354819D01*
X144695238Y-135354819D02*
X144790476Y-135307200D01*
X144790476Y-135307200D02*
X144838095Y-135259580D01*
X144838095Y-135259580D02*
X144885714Y-135164342D01*
X144885714Y-135164342D02*
X144885714Y-134926247D01*
X144885714Y-134926247D02*
X144838095Y-134831009D01*
X144838095Y-134831009D02*
X144790476Y-134783390D01*
X144790476Y-134783390D02*
X144695238Y-134735771D01*
X144695238Y-134735771D02*
X144504762Y-134735771D01*
X144504762Y-134735771D02*
X144409524Y-134783390D01*
X144409524Y-134783390D02*
X144361905Y-134831009D01*
X144361905Y-134831009D02*
X144314286Y-134926247D01*
X138608095Y-135429819D02*
X138608095Y-134429819D01*
X139179523Y-135429819D02*
X138750952Y-134858390D01*
X139179523Y-134429819D02*
X138608095Y-135001247D01*
%TO.C,D5*%
D11*
X140235000Y-128775000D02*
X141255000Y-128775000D01*
X142035000Y-127305000D02*
X142035000Y-130245000D01*
X142155000Y-127305000D02*
X142155000Y-130245000D01*
X142275000Y-127305000D02*
X142275000Y-130245000D01*
X147715000Y-128775000D02*
X146695000Y-128775000D01*
X141255000Y-127305000D02*
X146695000Y-127305000D01*
X146695000Y-130245000D01*
X141255000Y-130245000D01*
X141255000Y-127305000D01*
%TO.C,R1*%
X139960000Y-132625000D02*
X140730000Y-132625000D01*
X148040000Y-132625000D02*
X147270000Y-132625000D01*
X140730000Y-131255000D02*
X147270000Y-131255000D01*
X147270000Y-133995000D01*
X140730000Y-133995000D01*
X140730000Y-131255000D01*
%TO.C,J1*%
X100755000Y-112505000D02*
X110795000Y-112505000D01*
X100755000Y-114825000D02*
X100755000Y-112505000D01*
X100755000Y-122745000D02*
X100755000Y-115425000D01*
X101375000Y-112505000D02*
X101375000Y-122745000D01*
X102875000Y-112505000D02*
X102875000Y-122745000D01*
X107775000Y-112505000D02*
X107775000Y-122745000D01*
X110795000Y-112505000D02*
X110795000Y-122745000D01*
X110795000Y-122745000D02*
X100755000Y-122745000D01*
X100755000Y-115125000D02*
X100145000Y-115565000D01*
X100145000Y-114685000D01*
X100755000Y-115125000D01*
G36*
X100755000Y-115125000D02*
G01*
X100145000Y-115565000D01*
X100145000Y-114685000D01*
X100755000Y-115125000D01*
G37*
%TO.C,F1*%
X109890000Y-101590000D02*
X132610000Y-101590000D01*
X109890000Y-104750000D02*
X109890000Y-101590000D01*
X109890000Y-111410000D02*
X109890000Y-108250000D01*
X109890000Y-111410000D02*
X132610000Y-111410000D01*
X132610000Y-104750000D02*
X132610000Y-101590000D01*
X132610000Y-111410000D02*
X132610000Y-108250000D01*
%TO.C,RV1*%
X127860000Y-141795000D02*
X137610000Y-141795000D01*
X127860000Y-146845000D02*
X127860000Y-141795000D01*
X137610000Y-141795000D02*
X137610000Y-146845000D01*
X137610000Y-146845000D02*
X127860000Y-146845000D01*
%TO.C,R2*%
X153850000Y-128635000D02*
X153850000Y-129405000D01*
X153850000Y-136715000D02*
X153850000Y-135945000D01*
X152480000Y-129405000D02*
X155220000Y-129405000D01*
X155220000Y-135945000D01*
X152480000Y-135945000D01*
X152480000Y-129405000D01*
%TO.C,D2*%
X119000000Y-117340000D02*
X119000000Y-118360000D01*
X119000000Y-124820000D02*
X119000000Y-123800000D01*
X120470000Y-119140000D02*
X117530000Y-119140000D01*
X120470000Y-119260000D02*
X117530000Y-119260000D01*
X120470000Y-119380000D02*
X117530000Y-119380000D01*
X117530000Y-118360000D02*
X120470000Y-118360000D01*
X120470000Y-123800000D01*
X117530000Y-123800000D01*
X117530000Y-118360000D01*
%TO.C,J2*%
X149305000Y-109330000D02*
X159345000Y-109330000D01*
X149305000Y-111650000D02*
X149305000Y-109330000D01*
X149305000Y-119570000D02*
X149305000Y-112250000D01*
X149925000Y-109330000D02*
X149925000Y-119570000D01*
X151425000Y-109330000D02*
X151425000Y-119570000D01*
X156325000Y-109330000D02*
X156325000Y-119570000D01*
X159345000Y-109330000D02*
X159345000Y-119570000D01*
X159345000Y-119570000D02*
X149305000Y-119570000D01*
X149305000Y-111950000D02*
X148695000Y-112390000D01*
X148695000Y-111510000D01*
X149305000Y-111950000D01*
G36*
X149305000Y-111950000D02*
G01*
X148695000Y-112390000D01*
X148695000Y-111510000D01*
X149305000Y-111950000D01*
G37*
%TO.C,D1*%
X113500000Y-117340000D02*
X113500000Y-118360000D01*
X113500000Y-124820000D02*
X113500000Y-123800000D01*
X114970000Y-119140000D02*
X112030000Y-119140000D01*
X114970000Y-119260000D02*
X112030000Y-119260000D01*
X114970000Y-119380000D02*
X112030000Y-119380000D01*
X112030000Y-118360000D02*
X114970000Y-118360000D01*
X114970000Y-123800000D01*
X112030000Y-123800000D01*
X112030000Y-118360000D01*
%TO.C,C4*%
X137612602Y-106085000D02*
X138412602Y-106085000D01*
X138012602Y-105685000D02*
X138012602Y-106485000D01*
X142022300Y-104320000D02*
X142022300Y-112480000D01*
X142062300Y-104320000D02*
X142062300Y-112480000D01*
X142102300Y-104321000D02*
X142102300Y-112479000D01*
X142142300Y-104322000D02*
X142142300Y-112478000D01*
X142182300Y-104323000D02*
X142182300Y-112477000D01*
X142222300Y-104325000D02*
X142222300Y-112475000D01*
X142262300Y-104327000D02*
X142262300Y-112473000D01*
X142302300Y-104330000D02*
X142302300Y-112470000D01*
X142342300Y-104332000D02*
X142342300Y-112468000D01*
X142382300Y-104336000D02*
X142382300Y-112464000D01*
X142422300Y-104339000D02*
X142422300Y-112461000D01*
X142462300Y-104344000D02*
X142462300Y-112456000D01*
X142502300Y-104348000D02*
X142502300Y-112452000D01*
X142542300Y-104353000D02*
X142542300Y-112447000D01*
X142582300Y-104358000D02*
X142582300Y-112442000D01*
X142622300Y-104364000D02*
X142622300Y-112436000D01*
X142662300Y-104370000D02*
X142662300Y-112430000D01*
X142702300Y-104377000D02*
X142702300Y-112423000D01*
X142742300Y-104383000D02*
X142742300Y-107360000D01*
X142742300Y-109440000D02*
X142742300Y-112417000D01*
X142782300Y-104391000D02*
X142782300Y-107360000D01*
X142782300Y-109440000D02*
X142782300Y-112409000D01*
X142822300Y-104398000D02*
X142822300Y-107360000D01*
X142822300Y-109440000D02*
X142822300Y-112402000D01*
X142862300Y-104407000D02*
X142862300Y-107360000D01*
X142862300Y-109440000D02*
X142862300Y-112393000D01*
X142902300Y-104415000D02*
X142902300Y-107360000D01*
X142902300Y-109440000D02*
X142902300Y-112385000D01*
X142942300Y-104424000D02*
X142942300Y-107360000D01*
X142942300Y-109440000D02*
X142942300Y-112376000D01*
X142982300Y-104433000D02*
X142982300Y-107360000D01*
X142982300Y-109440000D02*
X142982300Y-112367000D01*
X143022300Y-104443000D02*
X143022300Y-107360000D01*
X143022300Y-109440000D02*
X143022300Y-112357000D01*
X143062300Y-104453000D02*
X143062300Y-107360000D01*
X143062300Y-109440000D02*
X143062300Y-112347000D01*
X143102300Y-104464000D02*
X143102300Y-107360000D01*
X143102300Y-109440000D02*
X143102300Y-112336000D01*
X143142300Y-104475000D02*
X143142300Y-107360000D01*
X143142300Y-109440000D02*
X143142300Y-112325000D01*
X143182300Y-104487000D02*
X143182300Y-107360000D01*
X143182300Y-109440000D02*
X143182300Y-112313000D01*
X143222300Y-104499000D02*
X143222300Y-107360000D01*
X143222300Y-109440000D02*
X143222300Y-112301000D01*
X143262300Y-104511000D02*
X143262300Y-107360000D01*
X143262300Y-109440000D02*
X143262300Y-112289000D01*
X143302300Y-104524000D02*
X143302300Y-107360000D01*
X143302300Y-109440000D02*
X143302300Y-112276000D01*
X143342300Y-104537000D02*
X143342300Y-107360000D01*
X143342300Y-109440000D02*
X143342300Y-112263000D01*
X143382300Y-104551000D02*
X143382300Y-107360000D01*
X143382300Y-109440000D02*
X143382300Y-112249000D01*
X143422300Y-104565000D02*
X143422300Y-107360000D01*
X143422300Y-109440000D02*
X143422300Y-112235000D01*
X143462300Y-104580000D02*
X143462300Y-107360000D01*
X143462300Y-109440000D02*
X143462300Y-112220000D01*
X143502300Y-104595000D02*
X143502300Y-107360000D01*
X143502300Y-109440000D02*
X143502300Y-112205000D01*
X143542300Y-104611000D02*
X143542300Y-107360000D01*
X143542300Y-109440000D02*
X143542300Y-112189000D01*
X143582300Y-104627000D02*
X143582300Y-107360000D01*
X143582300Y-109440000D02*
X143582300Y-112173000D01*
X143622300Y-104643000D02*
X143622300Y-107360000D01*
X143622300Y-109440000D02*
X143622300Y-112157000D01*
X143662300Y-104660000D02*
X143662300Y-107360000D01*
X143662300Y-109440000D02*
X143662300Y-112140000D01*
X143702300Y-104678000D02*
X143702300Y-107360000D01*
X143702300Y-109440000D02*
X143702300Y-112122000D01*
X143742300Y-104696000D02*
X143742300Y-107360000D01*
X143742300Y-109440000D02*
X143742300Y-112104000D01*
X143782300Y-104715000D02*
X143782300Y-107360000D01*
X143782300Y-109440000D02*
X143782300Y-112085000D01*
X143822300Y-104734000D02*
X143822300Y-107360000D01*
X143822300Y-109440000D02*
X143822300Y-112066000D01*
X143862300Y-104754000D02*
X143862300Y-107360000D01*
X143862300Y-109440000D02*
X143862300Y-112046000D01*
X143902300Y-104774000D02*
X143902300Y-107360000D01*
X143902300Y-109440000D02*
X143902300Y-112026000D01*
X143942300Y-104795000D02*
X143942300Y-107360000D01*
X143942300Y-109440000D02*
X143942300Y-112005000D01*
X143982300Y-104816000D02*
X143982300Y-107360000D01*
X143982300Y-109440000D02*
X143982300Y-111984000D01*
X144022300Y-104838000D02*
X144022300Y-107360000D01*
X144022300Y-109440000D02*
X144022300Y-111962000D01*
X144062300Y-104861000D02*
X144062300Y-107360000D01*
X144062300Y-109440000D02*
X144062300Y-111939000D01*
X144102300Y-104884000D02*
X144102300Y-107360000D01*
X144102300Y-109440000D02*
X144102300Y-111916000D01*
X144142300Y-104907000D02*
X144142300Y-107360000D01*
X144142300Y-109440000D02*
X144142300Y-111893000D01*
X144182300Y-104932000D02*
X144182300Y-107360000D01*
X144182300Y-109440000D02*
X144182300Y-111868000D01*
X144222300Y-104957000D02*
X144222300Y-107360000D01*
X144222300Y-109440000D02*
X144222300Y-111843000D01*
X144262300Y-104982000D02*
X144262300Y-107360000D01*
X144262300Y-109440000D02*
X144262300Y-111818000D01*
X144302300Y-105008000D02*
X144302300Y-107360000D01*
X144302300Y-109440000D02*
X144302300Y-111792000D01*
X144342300Y-105035000D02*
X144342300Y-107360000D01*
X144342300Y-109440000D02*
X144342300Y-111765000D01*
X144382300Y-105063000D02*
X144382300Y-107360000D01*
X144382300Y-109440000D02*
X144382300Y-111737000D01*
X144422300Y-105091000D02*
X144422300Y-107360000D01*
X144422300Y-109440000D02*
X144422300Y-111709000D01*
X144462300Y-105120000D02*
X144462300Y-107360000D01*
X144462300Y-109440000D02*
X144462300Y-111680000D01*
X144502300Y-105150000D02*
X144502300Y-107360000D01*
X144502300Y-109440000D02*
X144502300Y-111650000D01*
X144542300Y-105181000D02*
X144542300Y-107360000D01*
X144542300Y-109440000D02*
X144542300Y-111619000D01*
X144582300Y-105212000D02*
X144582300Y-107360000D01*
X144582300Y-109440000D02*
X144582300Y-111588000D01*
X144622300Y-105244000D02*
X144622300Y-107360000D01*
X144622300Y-109440000D02*
X144622300Y-111556000D01*
X144662300Y-105277000D02*
X144662300Y-107360000D01*
X144662300Y-109440000D02*
X144662300Y-111523000D01*
X144702300Y-105311000D02*
X144702300Y-107360000D01*
X144702300Y-109440000D02*
X144702300Y-111489000D01*
X144742300Y-105345000D02*
X144742300Y-107360000D01*
X144742300Y-109440000D02*
X144742300Y-111455000D01*
X144782300Y-105381000D02*
X144782300Y-107360000D01*
X144782300Y-109440000D02*
X144782300Y-111419000D01*
X144822300Y-105418000D02*
X144822300Y-111382000D01*
X144862300Y-105455000D02*
X144862300Y-111345000D01*
X144902300Y-105494000D02*
X144902300Y-111306000D01*
X144942300Y-105533000D02*
X144942300Y-111267000D01*
X144982300Y-105574000D02*
X144982300Y-111226000D01*
X145022300Y-105616000D02*
X145022300Y-111184000D01*
X145062300Y-105659000D02*
X145062300Y-111141000D01*
X145102300Y-105704000D02*
X145102300Y-111096000D01*
X145142300Y-105749000D02*
X145142300Y-111051000D01*
X145182300Y-105796000D02*
X145182300Y-111004000D01*
X145222300Y-105845000D02*
X145222300Y-110955000D01*
X145262300Y-105895000D02*
X145262300Y-110905000D01*
X145302300Y-105947000D02*
X145302300Y-110853000D01*
X145342300Y-106000000D02*
X145342300Y-110800000D01*
X145382300Y-106056000D02*
X145382300Y-110744000D01*
X145422300Y-106113000D02*
X145422300Y-110687000D01*
X145462300Y-106173000D02*
X145462300Y-110627000D01*
X145502300Y-106235000D02*
X145502300Y-110565000D01*
X145542300Y-106299000D02*
X145542300Y-110501000D01*
X145582300Y-106366000D02*
X145582300Y-110434000D01*
X145622300Y-106436000D02*
X145622300Y-110364000D01*
X145662300Y-106510000D02*
X145662300Y-110290000D01*
X145702300Y-106587000D02*
X145702300Y-110213000D01*
X145742300Y-106669000D02*
X145742300Y-110131000D01*
X145782300Y-106756000D02*
X145782300Y-110044000D01*
X145822300Y-106848000D02*
X145822300Y-109952000D01*
X145862300Y-106947000D02*
X145862300Y-109853000D01*
X145902300Y-107054000D02*
X145902300Y-109746000D01*
X145942300Y-107172000D02*
X145942300Y-109628000D01*
X145982300Y-107303000D02*
X145982300Y-109497000D01*
X146022300Y-107453000D02*
X146022300Y-109347000D01*
X146062300Y-107632000D02*
X146062300Y-109168000D01*
X146102300Y-107867000D02*
X146102300Y-108933000D01*
X146142300Y-108400000D02*
G75*
G02*
X137902300Y-108400000I-4120000J0D01*
G01*
X137902300Y-108400000D02*
G75*
G02*
X146142300Y-108400000I4120000J0D01*
G01*
%TO.C,D3*%
X113500000Y-132340000D02*
X113500000Y-133360000D01*
X113500000Y-139820000D02*
X113500000Y-138800000D01*
X114970000Y-134140000D02*
X112030000Y-134140000D01*
X114970000Y-134260000D02*
X112030000Y-134260000D01*
X114970000Y-134380000D02*
X112030000Y-134380000D01*
X112030000Y-133360000D02*
X114970000Y-133360000D01*
X114970000Y-138800000D01*
X112030000Y-138800000D01*
X112030000Y-133360000D01*
%TO.C,D7*%
X139710000Y-142764000D02*
X139710000Y-142920000D01*
X139710000Y-145080000D02*
X139710000Y-145236000D01*
X139710000Y-142764484D02*
G75*
G02*
X142941437Y-142920000I1560000J-1235516D01*
G01*
X140229039Y-142920000D02*
G75*
G02*
X142310961Y-142920000I1040961J-1080000D01*
G01*
X142310961Y-145080000D02*
G75*
G02*
X140229039Y-145080000I-1040961J1080000D01*
G01*
X142941437Y-145080000D02*
G75*
G02*
X139710000Y-145235516I-1671437J1080000D01*
G01*
%TO.C,U1*%
X137050000Y-116290000D02*
X147270000Y-116290000D01*
X137050000Y-120910000D02*
X137050000Y-116290000D01*
X140310000Y-120910000D02*
X140310000Y-119530000D01*
X144010000Y-120910000D02*
X144010000Y-119530000D01*
X147270000Y-116290000D02*
X147270000Y-120910000D01*
X147270000Y-119530000D02*
X137050000Y-119530000D01*
X147270000Y-120910000D02*
X137050000Y-120910000D01*
%TO.C,C2*%
X130305000Y-137030000D02*
X135545000Y-137030000D01*
X130305000Y-137367000D02*
X130305000Y-137030000D01*
X130305000Y-139770000D02*
X130305000Y-139433000D01*
X135545000Y-137030000D02*
X135545000Y-137367000D01*
X135545000Y-139433000D02*
X135545000Y-139770000D01*
X135545000Y-139770000D02*
X130305000Y-139770000D01*
%TO.C,C1*%
X123007918Y-117450000D02*
X124257918Y-117450000D01*
X123632918Y-116825000D02*
X123632918Y-118075000D01*
X129825000Y-114695000D02*
X129825000Y-127355000D01*
X129865000Y-114695000D02*
X129865000Y-127355000D01*
X129905000Y-114696000D02*
X129905000Y-127354000D01*
X129945000Y-114696000D02*
X129945000Y-127354000D01*
X129985000Y-114697000D02*
X129985000Y-127353000D01*
X130025000Y-114698000D02*
X130025000Y-127352000D01*
X130065000Y-114700000D02*
X130065000Y-127350000D01*
X130105000Y-114701000D02*
X130105000Y-127349000D01*
X130145000Y-114703000D02*
X130145000Y-127347000D01*
X130185000Y-114705000D02*
X130185000Y-127345000D01*
X130225000Y-114708000D02*
X130225000Y-127342000D01*
X130265000Y-114710000D02*
X130265000Y-127340000D01*
X130305000Y-114713000D02*
X130305000Y-127337000D01*
X130345000Y-114716000D02*
X130345000Y-127334000D01*
X130385000Y-114720000D02*
X130385000Y-127330000D01*
X130425000Y-114723000D02*
X130425000Y-127327000D01*
X130465000Y-114727000D02*
X130465000Y-127323000D01*
X130505000Y-114731000D02*
X130505000Y-127319000D01*
X130545000Y-114736000D02*
X130545000Y-127314000D01*
X130585000Y-114741000D02*
X130585000Y-127309000D01*
X130625000Y-114745000D02*
X130625000Y-127305000D01*
X130665000Y-114751000D02*
X130665000Y-127299000D01*
X130705000Y-114756000D02*
X130705000Y-127294000D01*
X130745000Y-114762000D02*
X130745000Y-127288000D01*
X130785000Y-114768000D02*
X130785000Y-127282000D01*
X130825000Y-114774000D02*
X130825000Y-127276000D01*
X130865000Y-114780000D02*
X130865000Y-127270000D01*
X130905000Y-114787000D02*
X130905000Y-119585000D01*
X130905000Y-122465000D02*
X130905000Y-127263000D01*
X130945000Y-114794000D02*
X130945000Y-119585000D01*
X130945000Y-122465000D02*
X130945000Y-127256000D01*
X130985000Y-114802000D02*
X130985000Y-119585000D01*
X130985000Y-122465000D02*
X130985000Y-127248000D01*
X131025000Y-114809000D02*
X131025000Y-119585000D01*
X131025000Y-122465000D02*
X131025000Y-127241000D01*
X131065000Y-114817000D02*
X131065000Y-119585000D01*
X131065000Y-122465000D02*
X131065000Y-127233000D01*
X131105000Y-114825000D02*
X131105000Y-119585000D01*
X131105000Y-122465000D02*
X131105000Y-127225000D01*
X131145000Y-114833000D02*
X131145000Y-119585000D01*
X131145000Y-122465000D02*
X131145000Y-127217000D01*
X131185000Y-114842000D02*
X131185000Y-119585000D01*
X131185000Y-122465000D02*
X131185000Y-127208000D01*
X131225000Y-114851000D02*
X131225000Y-119585000D01*
X131225000Y-122465000D02*
X131225000Y-127199000D01*
X131265000Y-114860000D02*
X131265000Y-119585000D01*
X131265000Y-122465000D02*
X131265000Y-127190000D01*
X131305000Y-114869000D02*
X131305000Y-119585000D01*
X131305000Y-122465000D02*
X131305000Y-127181000D01*
X131345000Y-114879000D02*
X131345000Y-119585000D01*
X131345000Y-122465000D02*
X131345000Y-127171000D01*
X131385000Y-114889000D02*
X131385000Y-119585000D01*
X131385000Y-122465000D02*
X131385000Y-127161000D01*
X131425000Y-114899000D02*
X131425000Y-119585000D01*
X131425000Y-122465000D02*
X131425000Y-127151000D01*
X131465000Y-114910000D02*
X131465000Y-119585000D01*
X131465000Y-122465000D02*
X131465000Y-127140000D01*
X131505000Y-114921000D02*
X131505000Y-119585000D01*
X131505000Y-122465000D02*
X131505000Y-127129000D01*
X131545000Y-114932000D02*
X131545000Y-119585000D01*
X131545000Y-122465000D02*
X131545000Y-127118000D01*
X131585000Y-114943000D02*
X131585000Y-119585000D01*
X131585000Y-122465000D02*
X131585000Y-127107000D01*
X131625000Y-114955000D02*
X131625000Y-119585000D01*
X131625000Y-122465000D02*
X131625000Y-127095000D01*
X131665000Y-114967000D02*
X131665000Y-119585000D01*
X131665000Y-122465000D02*
X131665000Y-127083000D01*
X131705000Y-114979000D02*
X131705000Y-119585000D01*
X131705000Y-122465000D02*
X131705000Y-127071000D01*
X131745000Y-114991000D02*
X131745000Y-119585000D01*
X131745000Y-122465000D02*
X131745000Y-127059000D01*
X131785000Y-115004000D02*
X131785000Y-119585000D01*
X131785000Y-122465000D02*
X131785000Y-127046000D01*
X131825000Y-115017000D02*
X131825000Y-119585000D01*
X131825000Y-122465000D02*
X131825000Y-127033000D01*
X131865000Y-115030000D02*
X131865000Y-119585000D01*
X131865000Y-122465000D02*
X131865000Y-127020000D01*
X131905000Y-115044000D02*
X131905000Y-119585000D01*
X131905000Y-122465000D02*
X131905000Y-127006000D01*
X131945000Y-115058000D02*
X131945000Y-119585000D01*
X131945000Y-122465000D02*
X131945000Y-126992000D01*
X131985000Y-115072000D02*
X131985000Y-119585000D01*
X131985000Y-122465000D02*
X131985000Y-126978000D01*
X132025000Y-115087000D02*
X132025000Y-119585000D01*
X132025000Y-122465000D02*
X132025000Y-126963000D01*
X132065000Y-115102000D02*
X132065000Y-119585000D01*
X132065000Y-122465000D02*
X132065000Y-126948000D01*
X132105000Y-115117000D02*
X132105000Y-119585000D01*
X132105000Y-122465000D02*
X132105000Y-126933000D01*
X132145000Y-115133000D02*
X132145000Y-119585000D01*
X132145000Y-122465000D02*
X132145000Y-126917000D01*
X132185000Y-115148000D02*
X132185000Y-119585000D01*
X132185000Y-122465000D02*
X132185000Y-126902000D01*
X132225000Y-115164000D02*
X132225000Y-119585000D01*
X132225000Y-122465000D02*
X132225000Y-126886000D01*
X132265000Y-115181000D02*
X132265000Y-119585000D01*
X132265000Y-122465000D02*
X132265000Y-126869000D01*
X132305000Y-115198000D02*
X132305000Y-119585000D01*
X132305000Y-122465000D02*
X132305000Y-126852000D01*
X132345000Y-115215000D02*
X132345000Y-119585000D01*
X132345000Y-122465000D02*
X132345000Y-126835000D01*
X132385000Y-115232000D02*
X132385000Y-119585000D01*
X132385000Y-122465000D02*
X132385000Y-126818000D01*
X132425000Y-115250000D02*
X132425000Y-119585000D01*
X132425000Y-122465000D02*
X132425000Y-126800000D01*
X132465000Y-115268000D02*
X132465000Y-119585000D01*
X132465000Y-122465000D02*
X132465000Y-126782000D01*
X132505000Y-115286000D02*
X132505000Y-119585000D01*
X132505000Y-122465000D02*
X132505000Y-126764000D01*
X132545000Y-115305000D02*
X132545000Y-119585000D01*
X132545000Y-122465000D02*
X132545000Y-126745000D01*
X132585000Y-115324000D02*
X132585000Y-119585000D01*
X132585000Y-122465000D02*
X132585000Y-126726000D01*
X132625000Y-115343000D02*
X132625000Y-119585000D01*
X132625000Y-122465000D02*
X132625000Y-126707000D01*
X132665000Y-115363000D02*
X132665000Y-119585000D01*
X132665000Y-122465000D02*
X132665000Y-126687000D01*
X132705000Y-115383000D02*
X132705000Y-119585000D01*
X132705000Y-122465000D02*
X132705000Y-126667000D01*
X132745000Y-115404000D02*
X132745000Y-119585000D01*
X132745000Y-122465000D02*
X132745000Y-126646000D01*
X132785000Y-115424000D02*
X132785000Y-119585000D01*
X132785000Y-122465000D02*
X132785000Y-126626000D01*
X132825000Y-115446000D02*
X132825000Y-119585000D01*
X132825000Y-122465000D02*
X132825000Y-126604000D01*
X132865000Y-115467000D02*
X132865000Y-119585000D01*
X132865000Y-122465000D02*
X132865000Y-126583000D01*
X132905000Y-115489000D02*
X132905000Y-119585000D01*
X132905000Y-122465000D02*
X132905000Y-126561000D01*
X132945000Y-115511000D02*
X132945000Y-119585000D01*
X132945000Y-122465000D02*
X132945000Y-126539000D01*
X132985000Y-115534000D02*
X132985000Y-119585000D01*
X132985000Y-122465000D02*
X132985000Y-126516000D01*
X133025000Y-115557000D02*
X133025000Y-119585000D01*
X133025000Y-122465000D02*
X133025000Y-126493000D01*
X133065000Y-115581000D02*
X133065000Y-119585000D01*
X133065000Y-122465000D02*
X133065000Y-126469000D01*
X133105000Y-115604000D02*
X133105000Y-119585000D01*
X133105000Y-122465000D02*
X133105000Y-126446000D01*
X133145000Y-115629000D02*
X133145000Y-119585000D01*
X133145000Y-122465000D02*
X133145000Y-126421000D01*
X133185000Y-115653000D02*
X133185000Y-119585000D01*
X133185000Y-122465000D02*
X133185000Y-126397000D01*
X133225000Y-115678000D02*
X133225000Y-119585000D01*
X133225000Y-122465000D02*
X133225000Y-126372000D01*
X133265000Y-115704000D02*
X133265000Y-119585000D01*
X133265000Y-122465000D02*
X133265000Y-126346000D01*
X133305000Y-115730000D02*
X133305000Y-119585000D01*
X133305000Y-122465000D02*
X133305000Y-126320000D01*
X133345000Y-115756000D02*
X133345000Y-119585000D01*
X133345000Y-122465000D02*
X133345000Y-126294000D01*
X133385000Y-115783000D02*
X133385000Y-119585000D01*
X133385000Y-122465000D02*
X133385000Y-126267000D01*
X133425000Y-115810000D02*
X133425000Y-119585000D01*
X133425000Y-122465000D02*
X133425000Y-126240000D01*
X133465000Y-115837000D02*
X133465000Y-119585000D01*
X133465000Y-122465000D02*
X133465000Y-126213000D01*
X133505000Y-115866000D02*
X133505000Y-119585000D01*
X133505000Y-122465000D02*
X133505000Y-126184000D01*
X133545000Y-115894000D02*
X133545000Y-119585000D01*
X133545000Y-122465000D02*
X133545000Y-126156000D01*
X133585000Y-115923000D02*
X133585000Y-119585000D01*
X133585000Y-122465000D02*
X133585000Y-126127000D01*
X133625000Y-115953000D02*
X133625000Y-119585000D01*
X133625000Y-122465000D02*
X133625000Y-126097000D01*
X133665000Y-115983000D02*
X133665000Y-119585000D01*
X133665000Y-122465000D02*
X133665000Y-126067000D01*
X133705000Y-116013000D02*
X133705000Y-119585000D01*
X133705000Y-122465000D02*
X133705000Y-126037000D01*
X133745000Y-116044000D02*
X133745000Y-119585000D01*
X133745000Y-122465000D02*
X133745000Y-126006000D01*
X133785000Y-116075000D02*
X133785000Y-125975000D01*
X133825000Y-116107000D02*
X133825000Y-125943000D01*
X133865000Y-116140000D02*
X133865000Y-125910000D01*
X133905000Y-116173000D02*
X133905000Y-125877000D01*
X133945000Y-116207000D02*
X133945000Y-125843000D01*
X133985000Y-116241000D02*
X133985000Y-125809000D01*
X134025000Y-116276000D02*
X134025000Y-125774000D01*
X134065000Y-116311000D02*
X134065000Y-125739000D01*
X134105000Y-116347000D02*
X134105000Y-125703000D01*
X134145000Y-116384000D02*
X134145000Y-125666000D01*
X134185000Y-116421000D02*
X134185000Y-125629000D01*
X134225000Y-116459000D02*
X134225000Y-125591000D01*
X134265000Y-116497000D02*
X134265000Y-125553000D01*
X134305000Y-116537000D02*
X134305000Y-125513000D01*
X134345000Y-116577000D02*
X134345000Y-125473000D01*
X134385000Y-116617000D02*
X134385000Y-125433000D01*
X134425000Y-116659000D02*
X134425000Y-125391000D01*
X134465000Y-116701000D02*
X134465000Y-125349000D01*
X134505000Y-116744000D02*
X134505000Y-125306000D01*
X134545000Y-116787000D02*
X134545000Y-125263000D01*
X134585000Y-116832000D02*
X134585000Y-125218000D01*
X134625000Y-116877000D02*
X134625000Y-125173000D01*
X134665000Y-116924000D02*
X134665000Y-125126000D01*
X134705000Y-116971000D02*
X134705000Y-125079000D01*
X134745000Y-117019000D02*
X134745000Y-125031000D01*
X134785000Y-117068000D02*
X134785000Y-124982000D01*
X134825000Y-117118000D02*
X134825000Y-124932000D01*
X134865000Y-117169000D02*
X134865000Y-124881000D01*
X134905000Y-117222000D02*
X134905000Y-124828000D01*
X134945000Y-117275000D02*
X134945000Y-124775000D01*
X134985000Y-117330000D02*
X134985000Y-124720000D01*
X135025000Y-117386000D02*
X135025000Y-124664000D01*
X135065000Y-117443000D02*
X135065000Y-124607000D01*
X135105000Y-117502000D02*
X135105000Y-124548000D01*
X135145000Y-117562000D02*
X135145000Y-124488000D01*
X135185000Y-117623000D02*
X135185000Y-124427000D01*
X135225000Y-117686000D02*
X135225000Y-124364000D01*
X135265000Y-117751000D02*
X135265000Y-124299000D01*
X135305000Y-117817000D02*
X135305000Y-124233000D01*
X135345000Y-117886000D02*
X135345000Y-124164000D01*
X135385000Y-117956000D02*
X135385000Y-124094000D01*
X135425000Y-118029000D02*
X135425000Y-124021000D01*
X135465000Y-118104000D02*
X135465000Y-123946000D01*
X135505000Y-118182000D02*
X135505000Y-123868000D01*
X135545000Y-118262000D02*
X135545000Y-123788000D01*
X135585000Y-118345000D02*
X135585000Y-123705000D01*
X135625000Y-118431000D02*
X135625000Y-123619000D01*
X135665000Y-118521000D02*
X135665000Y-123529000D01*
X135705000Y-118615000D02*
X135705000Y-123435000D01*
X135745000Y-118713000D02*
X135745000Y-123337000D01*
X135785000Y-118817000D02*
X135785000Y-123233000D01*
X135825000Y-118926000D02*
X135825000Y-123124000D01*
X135865000Y-119041000D02*
X135865000Y-123009000D01*
X135905000Y-119165000D02*
X135905000Y-122885000D01*
X135945000Y-119298000D02*
X135945000Y-122752000D01*
X135985000Y-119443000D02*
X135985000Y-122607000D01*
X136025000Y-119603000D02*
X136025000Y-122447000D01*
X136065000Y-119785000D02*
X136065000Y-122265000D01*
X136105000Y-119998000D02*
X136105000Y-122052000D01*
X136145000Y-120268000D02*
X136145000Y-121782000D01*
X136185000Y-120708000D02*
X136185000Y-121342000D01*
X136195000Y-121025000D02*
G75*
G02*
X123455000Y-121025000I-6370000J0D01*
G01*
X123455000Y-121025000D02*
G75*
G02*
X136195000Y-121025000I6370000J0D01*
G01*
%TO.C,D4*%
X119000000Y-132340000D02*
X119000000Y-133360000D01*
X119000000Y-139820000D02*
X119000000Y-138800000D01*
X120470000Y-134140000D02*
X117530000Y-134140000D01*
X120470000Y-134260000D02*
X117530000Y-134260000D01*
X120470000Y-134380000D02*
X117530000Y-134380000D01*
X117530000Y-133360000D02*
X120470000Y-133360000D01*
X120470000Y-138800000D01*
X117530000Y-138800000D01*
X117530000Y-133360000D01*
%TO.C,RV_MOV1*%
D10*
X104025000Y-126200000D02*
X104025000Y-138200000D01*
X108325000Y-126200000D02*
X104025000Y-126200000D01*
X108325000Y-126200000D02*
X108325000Y-138200000D01*
X108325000Y-138200000D02*
X104025000Y-138200000D01*
%TO.C,C5*%
D11*
X145430000Y-141580000D02*
X145767000Y-141580000D01*
X145430000Y-146820000D02*
X145430000Y-141580000D01*
X145767000Y-146820000D02*
X145430000Y-146820000D01*
X147833000Y-141580000D02*
X148170000Y-141580000D01*
X148170000Y-141580000D02*
X148170000Y-146820000D01*
X148170000Y-146820000D02*
X147833000Y-146820000D01*
%TO.C,C3*%
X128767359Y-130086000D02*
X129397359Y-130086000D01*
X129082359Y-129771000D02*
X129082359Y-130401000D01*
X132267600Y-128695000D02*
X132267600Y-135155000D01*
X132307600Y-128695000D02*
X132307600Y-135155000D01*
X132347600Y-128696000D02*
X132347600Y-135154000D01*
X132387600Y-128697000D02*
X132387600Y-135153000D01*
X132427600Y-128699000D02*
X132427600Y-135151000D01*
X132467600Y-128701000D02*
X132467600Y-135149000D01*
X132507600Y-128704000D02*
X132507600Y-130885000D01*
X132507600Y-132965000D02*
X132507600Y-135146000D01*
X132547600Y-128707000D02*
X132547600Y-130885000D01*
X132547600Y-132965000D02*
X132547600Y-135143000D01*
X132587600Y-128711000D02*
X132587600Y-130885000D01*
X132587600Y-132965000D02*
X132587600Y-135139000D01*
X132627600Y-128715000D02*
X132627600Y-130885000D01*
X132627600Y-132965000D02*
X132627600Y-135135000D01*
X132667600Y-128720000D02*
X132667600Y-130885000D01*
X132667600Y-132965000D02*
X132667600Y-135130000D01*
X132707600Y-128725000D02*
X132707600Y-130885000D01*
X132707600Y-132965000D02*
X132707600Y-135125000D01*
X132747600Y-128730000D02*
X132747600Y-130885000D01*
X132747600Y-132965000D02*
X132747600Y-135120000D01*
X132787600Y-128737000D02*
X132787600Y-130885000D01*
X132787600Y-132965000D02*
X132787600Y-135113000D01*
X132827600Y-128743000D02*
X132827600Y-130885000D01*
X132827600Y-132965000D02*
X132827600Y-135107000D01*
X132867600Y-128751000D02*
X132867600Y-130885000D01*
X132867600Y-132965000D02*
X132867600Y-135099000D01*
X132907600Y-128758000D02*
X132907600Y-130885000D01*
X132907600Y-132965000D02*
X132907600Y-135092000D01*
X132947600Y-128766000D02*
X132947600Y-130885000D01*
X132947600Y-132965000D02*
X132947600Y-135084000D01*
X132987600Y-128775000D02*
X132987600Y-130885000D01*
X132987600Y-132965000D02*
X132987600Y-135075000D01*
X133027600Y-128785000D02*
X133027600Y-130885000D01*
X133027600Y-132965000D02*
X133027600Y-135065000D01*
X133067600Y-128794000D02*
X133067600Y-130885000D01*
X133067600Y-132965000D02*
X133067600Y-135056000D01*
X133107600Y-128805000D02*
X133107600Y-130885000D01*
X133107600Y-132965000D02*
X133107600Y-135045000D01*
X133147600Y-128816000D02*
X133147600Y-130885000D01*
X133147600Y-132965000D02*
X133147600Y-135034000D01*
X133187600Y-128827000D02*
X133187600Y-130885000D01*
X133187600Y-132965000D02*
X133187600Y-135023000D01*
X133227600Y-128839000D02*
X133227600Y-130885000D01*
X133227600Y-132965000D02*
X133227600Y-135011000D01*
X133267600Y-128852000D02*
X133267600Y-130885000D01*
X133267600Y-132965000D02*
X133267600Y-134998000D01*
X133307600Y-128865000D02*
X133307600Y-130885000D01*
X133307600Y-132965000D02*
X133307600Y-134985000D01*
X133347600Y-128878000D02*
X133347600Y-130885000D01*
X133347600Y-132965000D02*
X133347600Y-134972000D01*
X133387600Y-128893000D02*
X133387600Y-130885000D01*
X133387600Y-132965000D02*
X133387600Y-134957000D01*
X133427600Y-128908000D02*
X133427600Y-130885000D01*
X133427600Y-132965000D02*
X133427600Y-134942000D01*
X133467600Y-128923000D02*
X133467600Y-130885000D01*
X133467600Y-132965000D02*
X133467600Y-134927000D01*
X133507600Y-128939000D02*
X133507600Y-130885000D01*
X133507600Y-132965000D02*
X133507600Y-134911000D01*
X133547600Y-128956000D02*
X133547600Y-130885000D01*
X133547600Y-132965000D02*
X133547600Y-134894000D01*
X133587600Y-128973000D02*
X133587600Y-130885000D01*
X133587600Y-132965000D02*
X133587600Y-134877000D01*
X133627600Y-128991000D02*
X133627600Y-130885000D01*
X133627600Y-132965000D02*
X133627600Y-134859000D01*
X133667600Y-129010000D02*
X133667600Y-130885000D01*
X133667600Y-132965000D02*
X133667600Y-134840000D01*
X133707600Y-129029000D02*
X133707600Y-130885000D01*
X133707600Y-132965000D02*
X133707600Y-134821000D01*
X133747600Y-129049000D02*
X133747600Y-130885000D01*
X133747600Y-132965000D02*
X133747600Y-134801000D01*
X133787600Y-129070000D02*
X133787600Y-130885000D01*
X133787600Y-132965000D02*
X133787600Y-134780000D01*
X133827600Y-129091000D02*
X133827600Y-130885000D01*
X133827600Y-132965000D02*
X133827600Y-134759000D01*
X133867600Y-129113000D02*
X133867600Y-130885000D01*
X133867600Y-132965000D02*
X133867600Y-134737000D01*
X133907600Y-129136000D02*
X133907600Y-130885000D01*
X133907600Y-132965000D02*
X133907600Y-134714000D01*
X133947600Y-129160000D02*
X133947600Y-130885000D01*
X133947600Y-132965000D02*
X133947600Y-134690000D01*
X133987600Y-129184000D02*
X133987600Y-130885000D01*
X133987600Y-132965000D02*
X133987600Y-134666000D01*
X134027600Y-129209000D02*
X134027600Y-130885000D01*
X134027600Y-132965000D02*
X134027600Y-134641000D01*
X134067600Y-129235000D02*
X134067600Y-130885000D01*
X134067600Y-132965000D02*
X134067600Y-134615000D01*
X134107600Y-129262000D02*
X134107600Y-130885000D01*
X134107600Y-132965000D02*
X134107600Y-134588000D01*
X134147600Y-129289000D02*
X134147600Y-130885000D01*
X134147600Y-132965000D02*
X134147600Y-134561000D01*
X134187600Y-129318000D02*
X134187600Y-130885000D01*
X134187600Y-132965000D02*
X134187600Y-134532000D01*
X134227600Y-129348000D02*
X134227600Y-130885000D01*
X134227600Y-132965000D02*
X134227600Y-134502000D01*
X134267600Y-129378000D02*
X134267600Y-130885000D01*
X134267600Y-132965000D02*
X134267600Y-134472000D01*
X134307600Y-129409000D02*
X134307600Y-130885000D01*
X134307600Y-132965000D02*
X134307600Y-134441000D01*
X134347600Y-129442000D02*
X134347600Y-130885000D01*
X134347600Y-132965000D02*
X134347600Y-134408000D01*
X134387600Y-129475000D02*
X134387600Y-130885000D01*
X134387600Y-132965000D02*
X134387600Y-134375000D01*
X134427600Y-129510000D02*
X134427600Y-130885000D01*
X134427600Y-132965000D02*
X134427600Y-134340000D01*
X134467600Y-129546000D02*
X134467600Y-130885000D01*
X134467600Y-132965000D02*
X134467600Y-134304000D01*
X134507600Y-129583000D02*
X134507600Y-130885000D01*
X134507600Y-132965000D02*
X134507600Y-134267000D01*
X134547600Y-129621000D02*
X134547600Y-130885000D01*
X134547600Y-132965000D02*
X134547600Y-134229000D01*
X134587600Y-129661000D02*
X134587600Y-134189000D01*
X134627600Y-129702000D02*
X134627600Y-134148000D01*
X134667600Y-129744000D02*
X134667600Y-134106000D01*
X134707600Y-129788000D02*
X134707600Y-134062000D01*
X134747600Y-129834000D02*
X134747600Y-134016000D01*
X134787600Y-129881000D02*
X134787600Y-133969000D01*
X134827600Y-129930000D02*
X134827600Y-133920000D01*
X134867600Y-129982000D02*
X134867600Y-133868000D01*
X134907600Y-130035000D02*
X134907600Y-133815000D01*
X134947600Y-130091000D02*
X134947600Y-133759000D01*
X134987600Y-130150000D02*
X134987600Y-133700000D01*
X135027600Y-130211000D02*
X135027600Y-133639000D01*
X135067600Y-130276000D02*
X135067600Y-133574000D01*
X135107600Y-130344000D02*
X135107600Y-133506000D01*
X135147600Y-130416000D02*
X135147600Y-133434000D01*
X135187600Y-130493000D02*
X135187600Y-133357000D01*
X135227600Y-130575000D02*
X135227600Y-133275000D01*
X135267600Y-130664000D02*
X135267600Y-133186000D01*
X135307600Y-130760000D02*
X135307600Y-133090000D01*
X135347600Y-130867000D02*
X135347600Y-132983000D01*
X135387600Y-130986000D02*
X135387600Y-132864000D01*
X135427600Y-131124000D02*
X135427600Y-132726000D01*
X135467600Y-131292000D02*
X135467600Y-132558000D01*
X135507600Y-131523000D02*
X135507600Y-132327000D01*
X135537600Y-131925000D02*
G75*
G02*
X128997600Y-131925000I-3270000J0D01*
G01*
X128997600Y-131925000D02*
G75*
G02*
X135537600Y-131925000I3270000J0D01*
G01*
%TO.C,D6*%
X140210000Y-137075000D02*
X141230000Y-137075000D01*
X142010000Y-135605000D02*
X142010000Y-138545000D01*
X142130000Y-135605000D02*
X142130000Y-138545000D01*
X142250000Y-135605000D02*
X142250000Y-138545000D01*
X147690000Y-137075000D02*
X146670000Y-137075000D01*
X141230000Y-135605000D02*
X146670000Y-135605000D01*
X146670000Y-138545000D01*
X141230000Y-138545000D01*
X141230000Y-135605000D01*
%TD*%
M02*
