M48
; DRILL file KiCad 10.0.6 date 2026-09-19T22:55:08
; FORMAT={-:-/ absolute / metric / decimal}
; #@! TF.CreationDate,2026-09-19T22:55:08+05:30
; #@! TF.GenerationSoftware,Kicad,Pcbnew,10.0.6
; #@! TF.FileFunction,Plated,1,4,PTH
FMAT,2
METRIC
; #@! TA.AperFunction,Plated,PTH,ComponentDrill
T1C0.800
; #@! TA.AperFunction,Plated,PTH,ComponentDrill
T2C0.900
; #@! TA.AperFunction,Plated,PTH,ComponentDrill
T3C1.100
; #@! TA.AperFunction,Plated,PTH,ComponentDrill
T4C1.200
; #@! TA.AperFunction,Plated,PTH,ComponentDrill
T5C1.300
%
G90
G05
T1
X105.225Y-135.95
X107.125Y-128.45
X130.195Y-144.325
X130.425Y-138.4
X131.018Y-131.925
X132.735Y-144.325
X133.518Y-131.925
X135.275Y-144.325
X135.425Y-138.4
X138.92Y-132.625
X140.272Y-108.4
X143.772Y-108.4
X146.8Y-141.7
X146.8Y-146.7
X149.08Y-132.625
X153.85Y-127.595
X153.85Y-137.755
T2
X140.0Y-144.0
X142.54Y-144.0
T3
X113.5Y-116.0
X113.5Y-126.16
X113.5Y-131.0
X113.5Y-141.16
X119.0Y-116.0
X119.0Y-126.16
X119.0Y-131.0
X119.0Y-141.16
X138.87Y-137.075
X138.895Y-128.775
X139.62Y-117.65
X142.16Y-117.65
X144.7Y-117.65
X149.03Y-137.075
X149.055Y-128.775
T4
X127.325Y-121.025
X132.325Y-121.025
T5
X105.475Y-115.125
X105.475Y-120.125
X110.0Y-106.5
X132.5Y-106.5
X154.025Y-111.95
X154.025Y-116.95
M30
