%TF.GenerationSoftware,KiCad,Pcbnew,10.0.6*%
%TF.CreationDate,2026-09-19T22:54:49+05:30*%
%TF.ProjectId,AC_DC_trial,41435f44-435f-4747-9269-616c2e6b6963,rev?*%
%TF.SameCoordinates,Original*%
%TF.FileFunction,Copper,L2,Inr*%
%TF.FilePolarity,Positive*%
%FSLAX46Y46*%
G04 Gerber Fmt 4.6, Leading zero omitted, Abs format (unit mm)*
G04 Created by KiCad (PCBNEW 10.0.6) date 2026-09-19 22:54:49*
%MOMM*%
%LPD*%
G01*
G04 APERTURE LIST*
G04 Aperture macros list*
%AMRoundRect*
0 Rectangle with rounded corners*
0 $1 Rounding radius*
0 $2 $3 $4 $5 $6 $7 $8 $9 X,Y pos of 4 corners*
0 Add a 4 corners polygon primitive as box body*
4,1,4,$2,$3,$4,$5,$6,$7,$8,$9,$2,$3,0*
0 Add four circle primitives for the rounded corners*
1,1,$1+$1,$2,$3*
1,1,$1+$1,$4,$5*
1,1,$1+$1,$6,$7*
1,1,$1+$1,$8,$9*
0 Add four rect primitives between the rounded corners*
20,1,$1+$1,$2,$3,$4,$5,0*
20,1,$1+$1,$4,$5,$6,$7,0*
20,1,$1+$1,$6,$7,$8,$9,0*
20,1,$1+$1,$8,$9,$2,$3,0*%
G04 Aperture macros list end*
%TA.AperFunction,ComponentPad*%
%ADD10RoundRect,0.249999X-0.850001X-0.850001X0.850001X-0.850001X0.850001X0.850001X-0.850001X0.850001X0*%
%TD*%
%TA.AperFunction,ComponentPad*%
%ADD11C,2.200000*%
%TD*%
%TA.AperFunction,ComponentPad*%
%ADD12C,1.600000*%
%TD*%
%TA.AperFunction,ComponentPad*%
%ADD13RoundRect,0.250000X-1.050000X1.050000X-1.050000X-1.050000X1.050000X-1.050000X1.050000X1.050000X0*%
%TD*%
%TA.AperFunction,ComponentPad*%
%ADD14C,2.600000*%
%TD*%
%TA.AperFunction,ComponentPad*%
%ADD15C,3.000000*%
%TD*%
%TA.AperFunction,ComponentPad*%
%ADD16C,1.440000*%
%TD*%
%TA.AperFunction,ComponentPad*%
%ADD17RoundRect,0.249999X-0.850001X0.850001X-0.850001X-0.850001X0.850001X-0.850001X0.850001X0.850001X0*%
%TD*%
%TA.AperFunction,ComponentPad*%
%ADD18RoundRect,0.250000X-0.550000X-0.550000X0.550000X-0.550000X0.550000X0.550000X-0.550000X0.550000X0*%
%TD*%
%TA.AperFunction,ComponentPad*%
%ADD19R,1.800000X1.800000*%
%TD*%
%TA.AperFunction,ComponentPad*%
%ADD20C,1.800000*%
%TD*%
%TA.AperFunction,ComponentPad*%
%ADD21R,1.905000X2.000000*%
%TD*%
%TA.AperFunction,ComponentPad*%
%ADD22O,1.905000X2.000000*%
%TD*%
%TA.AperFunction,ComponentPad*%
%ADD23RoundRect,0.250001X-0.949999X-0.949999X0.949999X-0.949999X0.949999X0.949999X-0.949999X0.949999X0*%
%TD*%
%TA.AperFunction,ComponentPad*%
%ADD24C,2.400000*%
%TD*%
G04 APERTURE END LIST*
D10*
%TO.N,VRECT_POS*%
%TO.C,D5*%
X138895000Y-128775000D03*
D11*
%TO.N,VOUT*%
X149055000Y-128775000D03*
%TD*%
D12*
%TO.N,VOUT*%
%TO.C,R1*%
X138920000Y-132625000D03*
%TO.N,ADJ_NODE*%
X149080000Y-132625000D03*
%TD*%
D13*
%TO.N,AC_IN1*%
%TO.C,J1*%
X105475000Y-115125000D03*
D14*
%TO.N,AC_N*%
X105475000Y-120125000D03*
%TD*%
D15*
%TO.N,AC_IN1*%
%TO.C,F1*%
X110000000Y-106500000D03*
%TO.N,AC_L*%
X132500000Y-106500000D03*
%TD*%
D16*
%TO.N,ADJ_NODE*%
%TO.C,RV1*%
X130195000Y-144325000D03*
X132735000Y-144325000D03*
%TO.N,GND*%
X135275000Y-144325000D03*
%TD*%
D12*
%TO.N,VOUT*%
%TO.C,R2*%
X153850000Y-127595000D03*
%TO.N,LED_A*%
X153850000Y-137755000D03*
%TD*%
D17*
%TO.N,VRECT_POS*%
%TO.C,D2*%
X119000000Y-116000000D03*
D11*
%TO.N,AC_N*%
X119000000Y-126160000D03*
%TD*%
D13*
%TO.N,VOUT*%
%TO.C,J2*%
X154025000Y-111950000D03*
D14*
%TO.N,GND*%
X154025000Y-116950000D03*
%TD*%
D17*
%TO.N,VRECT_POS*%
%TO.C,D1*%
X113500000Y-116000000D03*
D11*
%TO.N,AC_L*%
X113500000Y-126160000D03*
%TD*%
D18*
%TO.N,VOUT*%
%TO.C,C4*%
X140272300Y-108400000D03*
D12*
%TO.N,GND*%
X143772300Y-108400000D03*
%TD*%
D17*
%TO.N,AC_L*%
%TO.C,D3*%
X113500000Y-131000000D03*
D11*
%TO.N,GND*%
X113500000Y-141160000D03*
%TD*%
D19*
%TO.N,GND*%
%TO.C,D7*%
X140000000Y-144000000D03*
D20*
%TO.N,LED_A*%
X142540000Y-144000000D03*
%TD*%
D21*
%TO.N,ADJ_NODE*%
%TO.C,U1*%
X144700000Y-117650000D03*
D22*
%TO.N,VOUT*%
X142160000Y-117650000D03*
%TO.N,VRECT_POS*%
X139620000Y-117650000D03*
%TD*%
D12*
%TO.N,VRECT_POS*%
%TO.C,C2*%
X135425000Y-138400000D03*
%TO.N,GND*%
X130425000Y-138400000D03*
%TD*%
D23*
%TO.N,VRECT_POS*%
%TO.C,C1*%
X127325000Y-121025000D03*
D24*
%TO.N,GND*%
X132325000Y-121025000D03*
%TD*%
D17*
%TO.N,AC_N*%
%TO.C,D4*%
X119000000Y-131000000D03*
D11*
%TO.N,GND*%
X119000000Y-141160000D03*
%TD*%
D20*
%TO.N,AC_L*%
%TO.C,RV_MOV1*%
X107125000Y-128450000D03*
%TO.N,AC_N*%
X105225000Y-135950000D03*
%TD*%
D12*
%TO.N,VOUT*%
%TO.C,C5*%
X146800000Y-141700000D03*
%TO.N,GND*%
X146800000Y-146700000D03*
%TD*%
D18*
%TO.N,ADJ_NODE*%
%TO.C,C3*%
X131017600Y-131925000D03*
D12*
%TO.N,GND*%
X133517600Y-131925000D03*
%TD*%
D10*
%TO.N,VOUT*%
%TO.C,D6*%
X138870000Y-137075000D03*
D11*
%TO.N,ADJ_NODE*%
X149030000Y-137075000D03*
%TD*%
M02*
