M48
; DRILL file for PCBWay / JLCPCB
METRIC,TZ
T1C0.300
T2C0.500
T3C0.600
T4C0.800
T5C1.000
T6C1.300
T7C3.200
%
T1
X187019Y120491
X193266Y125822
X195681Y125982
X178800Y106675
X173025Y120075
X173775Y128375
X184300Y125150
X170200Y101725
X175975Y120500
X177650Y115000
X168825Y121900
X184925Y108400
X183700Y121275
X183700Y112950
X171525Y112254
X186840Y123236
X189102Y121053
T2
X193600Y104025
X194303Y102328
X194303Y105722
X196000Y101625
X196000Y106425
X197697Y102328
X197697Y105722
X198400Y104025
X101100Y126500
X101803Y124803
X101803Y128197
X103500Y124100
X103500Y128900
X105197Y124803
X105197Y128197
X105900Y126500
T3
X120825Y101650
X119025Y96650
T4
X172000Y124500
X175500Y124500
T5
X129778Y113000
X129778Y119000
X163378Y107000
X163378Y125000
X122000Y119925
X122000Y129925
X118375Y126925
X123375Y126925
X173970Y102225
X171430Y102225
X168890Y102225
T6
X105700Y105365
X105700Y100285
X105700Y95205
X113350Y101900
X113350Y79400
T7
X196000Y104025
X103500Y126500
M30
