G04 Gerber RS-274X Generated for PCBWay / JLCPCB*
%FSLAX46Y46*%
%MOMM*%
%LPD*%
%ADD10C,0.1200*%
%ADD11C,0.1500*%
D10*
X191110000Y124588748D02*
X191110000Y125111252D01*
D10*
X189640000Y124588748D02*
X189640000Y125111252D01*
D11*
X191555000Y124850000D02*
X192555000Y124850000D01*
D11*
X192055000Y124350000D02*
X192055000Y125350000D01*
D10*
X125967500Y103140000D02*
X167187500Y103140000D01*
D10*
X125967500Y112704000D02*
X125967500Y103140000D01*
D10*
X125967500Y128860000D02*
X125967500Y113296000D01*
D10*
X167187500Y103140000D02*
X167187500Y128860000D01*
D10*
X167187500Y128860000D02*
X125967500Y128860000D01*
D11*
X146077500Y102300000D02*
X147077500Y102300000D01*
D11*
X146577500Y101800000D02*
X146577500Y102800000D01*
D10*
X191110000Y120063748D02*
X191110000Y120586252D01*
D10*
X189640000Y120063748D02*
X189640000Y120586252D01*
D11*
X191555000Y120325000D02*
X192555000Y120325000D01*
D11*
X192055000Y119825000D02*
X192055000Y120825000D01*
D11*
X193000000Y106525000D02*
X194000000Y106525000D01*
D11*
X193500000Y106025000D02*
X193500000Y107025000D01*
D10*
X124620000Y131545000D02*
X119380000Y131545000D01*
D10*
X124620000Y118305000D02*
X124620000Y131545000D01*
D10*
X119380000Y131545000D02*
X119380000Y118305000D01*
D10*
X119380000Y118305000D02*
X124620000Y118305000D01*
D11*
X125250000Y124925000D02*
X126250000Y124925000D01*
D11*
X125750000Y124425000D02*
X125750000Y125425000D01*
D10*
X116255000Y124305000D02*
X125495000Y124305000D01*
D10*
X116255000Y129545000D02*
X116255000Y124305000D01*
D10*
X125495000Y124305000D02*
X125495000Y129545000D01*
D10*
X125495000Y129545000D02*
X116255000Y129545000D01*
D11*
X120375000Y123175000D02*
X121375000Y123175000D01*
D11*
X120875000Y122675000D02*
X120875000Y123675000D01*
D10*
X174490000Y109850000D02*
X174490000Y113150000D01*
D10*
X174490000Y109850000D02*
X180000000Y109850000D01*
D10*
X174490000Y113150000D02*
X180000000Y113150000D01*
D11*
X177500000Y109000000D02*
X178500000Y109000000D01*
D11*
X178000000Y108500000D02*
X178000000Y109500000D01*
D10*
X191435000Y113422500D02*
X191435000Y110737500D01*
D10*
X189515000Y113422500D02*
X191435000Y113422500D01*
D10*
X189515000Y110737500D02*
X189515000Y113422500D01*
D11*
X188325000Y111737500D02*
X189325000Y111737500D01*
D11*
X188825000Y111237500D02*
X188825000Y112237500D01*
D10*
X170735000Y110772936D02*
X170735000Y111227064D01*
D10*
X169265000Y110772936D02*
X169265000Y111227064D01*
D11*
X171150000Y111000000D02*
X172150000Y111000000D01*
D11*
X171650000Y110500000D02*
X171650000Y111500000D01*
D10*
X176735000Y118261252D02*
X176735000Y117738748D01*
D10*
X175265000Y118261252D02*
X175265000Y117738748D01*
D11*
X173820000Y118000000D02*
X174820000Y118000000D01*
D11*
X174320000Y117500000D02*
X174320000Y118500000D01*
D10*
X170960000Y107185000D02*
X170960000Y104500000D01*
D10*
X169040000Y107185000D02*
X170960000Y107185000D01*
D10*
X169040000Y104500000D02*
X169040000Y107185000D01*
D11*
X167850000Y105500000D02*
X168850000Y105500000D01*
D11*
X168350000Y105000000D02*
X168350000Y106000000D01*
D10*
X181650000Y114590000D02*
X185410000Y114590000D01*
D10*
X181650000Y121410000D02*
X185410000Y121410000D01*
D10*
X185410000Y114590000D02*
X185410000Y115850000D01*
D10*
X185410000Y121410000D02*
X185410000Y120150000D01*
D11*
X183000000Y113500000D02*
X184000000Y113500000D01*
D11*
X183500000Y113000000D02*
X183500000Y114000000D01*
D10*
X110420000Y108025000D02*
X100380000Y108025000D01*
D10*
X110420000Y105665000D02*
X110420000Y108025000D01*
D10*
X110420000Y92545000D02*
X110420000Y105065000D01*
D10*
X109800000Y108025000D02*
X109800000Y92545000D01*
D10*
X108300000Y108025000D02*
X108300000Y92545000D01*
D10*
X103400000Y108025000D02*
X103400000Y92545000D01*
D10*
X100380000Y108025000D02*
X100380000Y92545000D01*
D10*
X100380000Y92545000D02*
X110420000Y92545000D01*
D11*
X98880000Y100285000D02*
X99880000Y100285000D01*
D11*
X99380000Y99785000D02*
X99380000Y100785000D01*
D11*
X105500000Y124000000D02*
X106500000Y124000000D01*
D11*
X106000000Y123500000D02*
X106000000Y124500000D01*
D10*
X169340302Y122185000D02*
X170140302Y122185000D01*
D10*
X169740302Y121785000D02*
X169740302Y122585000D01*
D10*
X173750000Y120420000D02*
X173750000Y128580000D01*
D10*
X173790000Y120420000D02*
X173790000Y128580000D01*
D10*
X173830000Y120421000D02*
X173830000Y128579000D01*
D10*
X173870000Y120422000D02*
X173870000Y128578000D01*
D10*
X173910000Y120423000D02*
X173910000Y128577000D01*
D10*
X173950000Y120425000D02*
X173950000Y128575000D01*
D10*
X173990000Y120427000D02*
X173990000Y128573000D01*
D10*
X174030000Y120430000D02*
X174030000Y128570000D01*
D10*
X174070000Y120432000D02*
X174070000Y128568000D01*
D10*
X174110000Y120436000D02*
X174110000Y128564000D01*
D10*
X174150000Y120439000D02*
X174150000Y128561000D01*
D10*
X174190000Y120444000D02*
X174190000Y128556000D01*
D10*
X174230000Y120448000D02*
X174230000Y128552000D01*
D10*
X174270000Y120453000D02*
X174270000Y128547000D01*
D10*
X174310000Y120458000D02*
X174310000Y128542000D01*
D10*
X174350000Y120464000D02*
X174350000Y128536000D01*
D10*
X174390000Y120470000D02*
X174390000Y128530000D01*
D10*
X174430000Y120477000D02*
X174430000Y128523000D01*
D10*
X174470000Y120483000D02*
X174470000Y123460000D01*
D10*
X174470000Y125540000D02*
X174470000Y128517000D01*
D10*
X174510000Y120491000D02*
X174510000Y123460000D01*
D10*
X174510000Y125540000D02*
X174510000Y128509000D01*
D10*
X174550000Y120498000D02*
X174550000Y123460000D01*
D10*
X174550000Y125540000D02*
X174550000Y128502000D01*
D10*
X174590000Y120507000D02*
X174590000Y123460000D01*
D10*
X174590000Y125540000D02*
X174590000Y128493000D01*
D10*
X174630000Y120515000D02*
X174630000Y123460000D01*
D10*
X174630000Y125540000D02*
X174630000Y128485000D01*
D10*
X174670000Y120524000D02*
X174670000Y123460000D01*
D10*
X174670000Y125540000D02*
X174670000Y128476000D01*
D10*
X174710000Y120533000D02*
X174710000Y123460000D01*
D10*
X174710000Y125540000D02*
X174710000Y128467000D01*
D10*
X174750000Y120543000D02*
X174750000Y123460000D01*
D10*
X174750000Y125540000D02*
X174750000Y128457000D01*
D10*
X174790000Y120553000D02*
X174790000Y123460000D01*
D10*
X174790000Y125540000D02*
X174790000Y128447000D01*
D10*
X174830000Y120564000D02*
X174830000Y123460000D01*
D10*
X174830000Y125540000D02*
X174830000Y128436000D01*
D10*
X174870000Y120575000D02*
X174870000Y123460000D01*
D10*
X174870000Y125540000D02*
X174870000Y128425000D01*
D10*
X174910000Y120587000D02*
X174910000Y123460000D01*
D10*
X174910000Y125540000D02*
X174910000Y128413000D01*
D10*
X174950000Y120599000D02*
X174950000Y123460000D01*
D10*
X174950000Y125540000D02*
X174950000Y128401000D01*
D10*
X174990000Y120611000D02*
X174990000Y123460000D01*
D10*
X174990000Y125540000D02*
X174990000Y128389000D01*
D10*
X175030000Y120624000D02*
X175030000Y123460000D01*
D10*
X175030000Y125540000D02*
X175030000Y128376000D01*
D10*
X175070000Y120637000D02*
X175070000Y123460000D01*
D10*
X175070000Y125540000D02*
X175070000Y128363000D01*
D10*
X175110000Y120651000D02*
X175110000Y123460000D01*
D10*
X175110000Y125540000D02*
X175110000Y128349000D01*
D10*
X175150000Y120665000D02*
X175150000Y123460000D01*
D10*
X175150000Y125540000D02*
X175150000Y128335000D01*
D10*
X175190000Y120680000D02*
X175190000Y123460000D01*
D10*
X175190000Y125540000D02*
X175190000Y128320000D01*
D10*
X175230000Y120695000D02*
X175230000Y123460000D01*
D10*
X175230000Y125540000D02*
X175230000Y128305000D01*
D10*
X175270000Y120711000D02*
X175270000Y123460000D01*
D10*
X175270000Y125540000D02*
X175270000Y128289000D01*
D10*
X175310000Y120727000D02*
X175310000Y123460000D01*
D10*
X175310000Y125540000D02*
X175310000Y128273000D01*
D10*
X175350000Y120743000D02*
X175350000Y123460000D01*
D10*
X175350000Y125540000D02*
X175350000Y128257000D01*
D10*
X175390000Y120760000D02*
X175390000Y123460000D01*
D10*
X175390000Y125540000D02*
X175390000Y128240000D01*
D10*
X175430000Y120778000D02*
X175430000Y123460000D01*
D10*
X175430000Y125540000D02*
X175430000Y128222000D01*
D10*
X175470000Y120796000D02*
X175470000Y123460000D01*
D10*
X175470000Y125540000D02*
X175470000Y128204000D01*
D10*
X175510000Y120815000D02*
X175510000Y123460000D01*
D10*
X175510000Y125540000D02*
X175510000Y128185000D01*
D10*
X175550000Y120834000D02*
X175550000Y123460000D01*
D10*
X175550000Y125540000D02*
X175550000Y128166000D01*
D10*
X175590000Y120854000D02*
X175590000Y123460000D01*
D10*
X175590000Y125540000D02*
X175590000Y128146000D01*
D10*
X175630000Y120874000D02*
X175630000Y123460000D01*
D10*
X175630000Y125540000D02*
X175630000Y128126000D01*
D10*
X175670000Y120895000D02*
X175670000Y123460000D01*
D10*
X175670000Y125540000D02*
X175670000Y128105000D01*
D10*
X175710000Y120916000D02*
X175710000Y123460000D01*
D10*
X175710000Y125540000D02*
X175710000Y128084000D01*
D10*
X175750000Y120938000D02*
X175750000Y123460000D01*
D10*
X175750000Y125540000D02*
X175750000Y128062000D01*
D10*
X175790000Y120961000D02*
X175790000Y123460000D01*
D10*
X175790000Y125540000D02*
X175790000Y128039000D01*
D10*
X175830000Y120984000D02*
X175830000Y123460000D01*
D10*
X175830000Y125540000D02*
X175830000Y128016000D01*
D10*
X175870000Y121007000D02*
X175870000Y123460000D01*
D10*
X175870000Y125540000D02*
X175870000Y127993000D01*
D10*
X175910000Y121032000D02*
X175910000Y123460000D01*
D10*
X175910000Y125540000D02*
X175910000Y127968000D01*
D10*
X175950000Y121057000D02*
X175950000Y123460000D01*
D10*
X175950000Y125540000D02*
X175950000Y127943000D01*
D10*
X175990000Y121082000D02*
X175990000Y123460000D01*
D10*
X175990000Y125540000D02*
X175990000Y127918000D01*
D10*
X176030000Y121108000D02*
X176030000Y123460000D01*
D10*
X176030000Y125540000D02*
X176030000Y127892000D01*
D10*
X176070000Y121135000D02*
X176070000Y123460000D01*
D10*
X176070000Y125540000D02*
X176070000Y127865000D01*
D10*
X176110000Y121163000D02*
X176110000Y123460000D01*
D10*
X176110000Y125540000D02*
X176110000Y127837000D01*
D10*
X176150000Y121191000D02*
X176150000Y123460000D01*
D10*
X176150000Y125540000D02*
X176150000Y127809000D01*
D10*
X176190000Y121220000D02*
X176190000Y123460000D01*
D10*
X176190000Y125540000D02*
X176190000Y127780000D01*
D10*
X176230000Y121250000D02*
X176230000Y123460000D01*
D10*
X176230000Y125540000D02*
X176230000Y127750000D01*
D10*
X176270000Y121281000D02*
X176270000Y123460000D01*
D10*
X176270000Y125540000D02*
X176270000Y127719000D01*
D10*
X176310000Y121312000D02*
X176310000Y123460000D01*
D10*
X176310000Y125540000D02*
X176310000Y127688000D01*
D10*
X176350000Y121344000D02*
X176350000Y123460000D01*
D10*
X176350000Y125540000D02*
X176350000Y127656000D01*
D10*
X176390000Y121377000D02*
X176390000Y123460000D01*
D10*
X176390000Y125540000D02*
X176390000Y127623000D01*
D10*
X176430000Y121411000D02*
X176430000Y123460000D01*
D10*
X176430000Y125540000D02*
X176430000Y127589000D01*
D10*
X176470000Y121445000D02*
X176470000Y123460000D01*
D10*
X176470000Y125540000D02*
X176470000Y127555000D01*
D10*
X176510000Y121481000D02*
X176510000Y123460000D01*
D10*
X176510000Y125540000D02*
X176510000Y127519000D01*
D10*
X176550000Y121518000D02*
X176550000Y127482000D01*
D10*
X176590000Y121555000D02*
X176590000Y127445000D01*
D10*
X176630000Y121594000D02*
X176630000Y127406000D01*
D10*
X176670000Y121633000D02*
X176670000Y127367000D01*
D10*
X176710000Y121674000D02*
X176710000Y127326000D01*
D10*
X176750000Y121716000D02*
X176750000Y127284000D01*
D10*
X176790000Y121759000D02*
X176790000Y127241000D01*
D10*
X176830000Y121804000D02*
X176830000Y127196000D01*
D10*
X176870000Y121849000D02*
X176870000Y127151000D01*
D10*
X176910000Y121896000D02*
X176910000Y127104000D01*
D10*
X176950000Y121945000D02*
X176950000Y127055000D01*
D10*
X176990000Y121995000D02*
X176990000Y127005000D01*
D10*
X177030000Y122047000D02*
X177030000Y126953000D01*
D10*
X177070000Y122100000D02*
X177070000Y126900000D01*
D10*
X177110000Y122156000D02*
X177110000Y126844000D01*
D10*
X177150000Y122213000D02*
X177150000Y126787000D01*
D10*
X177190000Y122273000D02*
X177190000Y126727000D01*
D10*
X177230000Y122335000D02*
X177230000Y126665000D01*
D10*
X177270000Y122399000D02*
X177270000Y126601000D01*
D10*
X177310000Y122466000D02*
X177310000Y126534000D01*
D10*
X177350000Y122536000D02*
X177350000Y126464000D01*
D10*
X177390000Y122610000D02*
X177390000Y126390000D01*
D10*
X177430000Y122687000D02*
X177430000Y126313000D01*
D10*
X177470000Y122769000D02*
X177470000Y126231000D01*
D10*
X177510000Y122856000D02*
X177510000Y126144000D01*
D10*
X177550000Y122948000D02*
X177550000Y126052000D01*
D10*
X177590000Y123047000D02*
X177590000Y125953000D01*
D10*
X177630000Y123154000D02*
X177630000Y125846000D01*
D10*
X177670000Y123272000D02*
X177670000Y125728000D01*
D10*
X177710000Y123403000D02*
X177710000Y125597000D01*
D10*
X177750000Y123553000D02*
X177750000Y125447000D01*
D10*
X177790000Y123732000D02*
X177790000Y125268000D01*
D10*
X177830000Y123967000D02*
X177830000Y125033000D01*
D11*
X173250000Y119250000D02*
X174250000Y119250000D01*
D11*
X173750000Y118750000D02*
X173750000Y119750000D01*
D10*
X191085000Y115710436D02*
X191085000Y116164564D01*
D10*
X189615000Y115710436D02*
X189615000Y116164564D01*
D11*
X188200000Y115937500D02*
X189200000Y115937500D01*
D11*
X188700000Y115437500D02*
X188700000Y116437500D01*
D10*
X170735000Y117261252D02*
X170735000Y116738748D01*
D10*
X169265000Y117261252D02*
X169265000Y116738748D01*
D11*
X167820000Y117000000D02*
X168820000Y117000000D01*
D11*
X168320000Y116500000D02*
X168320000Y117500000D01*
M02*
