G04 Gerber RS-274X Generated for PCBWay / JLCPCB*
%FSLAX46Y46*%
%MOMM*%
%LPD*%
%ADD10O,1.0250X1.4000*%
%ADD11O,0.8000X2.0000*%
%ADD12R,0.7000X0.7000*%
%ADD13R,1.5000X0.9000*%
%ADD14O,2.5000X1.8000*%
%ADD15O,1.4500X1.0000*%
%ADD16O,0.4000X1.3500*%
%ADD17O,1.6000X1.4000*%
%ADD18O,1.9000X1.9000*%
%ADD19O,1.0000X1.4500*%
D10*
X182200000Y111500000D03*
D10*
X184025000Y111500000D03*
D11*
X181025000Y121125000D03*
D11*
X185225000Y121125000D03*
D12*
X194575000Y118995000D03*
D12*
X193475000Y118995000D03*
D12*
X192375000Y118995000D03*
D12*
X194575000Y120095000D03*
D12*
X193475000Y120095000D03*
D12*
X192375000Y120095000D03*
D12*
X194575000Y121195000D03*
D12*
X193475000Y121195000D03*
D12*
X192375000Y121195000D03*
D13*
X187275000Y110385000D03*
D13*
X188775000Y110385000D03*
D13*
X190275000Y110385000D03*
D13*
X191775000Y110385000D03*
D13*
X193275000Y110385000D03*
D13*
X194775000Y110385000D03*
D13*
X196275000Y110385000D03*
D13*
X197775000Y110385000D03*
D13*
X199275000Y110385000D03*
D13*
X199275000Y127885000D03*
D13*
X197775000Y127885000D03*
D13*
X196275000Y127885000D03*
D13*
X194775000Y127885000D03*
D13*
X193275000Y127885000D03*
D13*
X191775000Y127885000D03*
D13*
X190275000Y127885000D03*
D13*
X188775000Y127885000D03*
D13*
X187275000Y127885000D03*
D14*
X177250000Y112650000D03*
D14*
X173250000Y112650000D03*
D15*
X173025000Y120075000D03*
D15*
X173025000Y121975000D03*
D10*
X179300000Y124700000D03*
D10*
X181125000Y124700000D03*
D11*
X181025000Y115125000D03*
D11*
X185225000Y115125000D03*
D16*
X186150000Y104230000D03*
D16*
X186800000Y104230000D03*
D16*
X187450000Y104230000D03*
D16*
X188100000Y104230000D03*
D16*
X188750000Y104230000D03*
D17*
X184250000Y104005000D03*
D18*
X186250000Y101555000D03*
D18*
X188650000Y101555000D03*
D17*
X190650000Y104005000D03*
D15*
X173025000Y116200000D03*
D15*
X173025000Y118100000D03*
D19*
X179262500Y127700000D03*
D19*
X181162500Y127700000D03*
M02*
