G04 Gerber RS-274X Generated for PCBWay / JLCPCB*
%FSLAX46Y46*%
%MOMM*%
%LPD*%
%ADD10C,0.1000*%
%ADD11C,0.5000*%
%ADD12C,0.3750*%
%ADD13C,1.0000*%
%ADD14C,0.2000*%
%ADD15C,0.2500*%
%ADD16C,0.6000*%
%ADD17O,1.0250X1.4000*%
%ADD18O,0.8000X2.0000*%
%ADD19R,0.7000X0.7000*%
%ADD20R,1.5000X0.9000*%
%ADD21O,2.5000X1.8000*%
%ADD22O,1.4500X1.0000*%
%ADD23O,0.4000X1.3500*%
%ADD24O,1.6000X1.4000*%
%ADD25O,1.9000X1.9000*%
%ADD26O,1.0000X1.4500*%
%ADD27O,1.7000X2.0000*%
%ADD28C,0.8000*%
%ADD29C,6.4000*%
%ADD30C,2.0000*%
%ADD31O,2.6000X2.6000*%
%ADD32C,2.6000*%
%ADD33O,1.6000X1.6000*%
%ADD34C,1.6000*%
%ADD35C,3.0000*%
%ADD36R,1.7000X1.7000*%
%ADD37C,1.7000*%
D10*
X100000000Y128000000D02*
X100000000Y102000000D01*
D10*
X102000000Y100000000D02*
X198000000Y100000000D01*
D10*
X198000000Y130000000D02*
X102000000Y130000000D01*
D10*
X200000000Y102000000D02*
X200000000Y128000000D01*
G36*
X183675581Y100170185D02*
X183721336Y100222989D01*
X183731280Y100292147D01*
X183702255Y100355703D01*
X183677433Y100377602D01*
X183544092Y100466697D01*
X183544088Y100466700D01*
X183411700Y100599088D01*
X183411697Y100599092D01*
X183307681Y100754762D01*
X183307676Y100754771D01*
X183236027Y100927748D01*
X183236025Y100927756D01*
X183199500Y101111379D01*
X183199500Y101998620D01*
X183236025Y102182243D01*
X183236027Y102182251D01*
X183307676Y102355228D01*
X183307681Y102355237D01*
X183411697Y102510907D01*
X183411700Y102510911D01*
X183544088Y102643299D01*
X183544092Y102643302D01*
X183699762Y102747318D01*
X183699768Y102747321D01*
X183699769Y102747322D01*
X183872749Y102818973D01*
X184056379Y102855499D01*
X184056383Y102855500D01*
X184056384Y102855500D01*
X184243617Y102855500D01*
X184243618Y102855499D01*
X184427251Y102818973D01*
X184600231Y102747322D01*
X184755908Y102643302D01*
X184888302Y102510908D01*
X184992322Y102355231D01*
X185063973Y102182251D01*
X185100500Y101998616D01*
X185100500Y101111384D01*
X185063973Y100927749D01*
X184992322Y100754769D01*
X184992321Y100754768D01*
X184992318Y100754762D01*
X184888302Y100599092D01*
X184888299Y100599088D01*
X184755911Y100466700D01*
X184755907Y100466697D01*
X184622567Y100377602D01*
X184577762Y100323990D01*
X184569055Y100254665D01*
X184599209Y100191637D01*
X184658652Y100154918D01*
X184691458Y100150500D01*
X190208542Y100150500D01*
X190275581Y100170185D01*
X190321336Y100222989D01*
X190331280Y100292147D01*
X190302255Y100355703D01*
X190277433Y100377602D01*
X190144092Y100466697D01*
X190144088Y100466700D01*
X190011700Y100599088D01*
X190011697Y100599092D01*
X189907681Y100754762D01*
X189907676Y100754771D01*
X189836027Y100927748D01*
X189836025Y100927756D01*
X189799500Y101111379D01*
X189799500Y101998620D01*
X189836025Y102182243D01*
X189836027Y102182251D01*
X189907676Y102355228D01*
X189907681Y102355237D01*
X190011697Y102510907D01*
X190011700Y102510911D01*
X190144088Y102643299D01*
X190144092Y102643302D01*
X190299762Y102747318D01*
X190299768Y102747321D01*
X190299769Y102747322D01*
X190472749Y102818973D01*
X190656379Y102855499D01*
X190656383Y102855500D01*
X190656384Y102855500D01*
X190843617Y102855500D01*
X190843618Y102855499D01*
X191027251Y102818973D01*
X191200231Y102747322D01*
X191355908Y102643302D01*
X191488302Y102510908D01*
X191592322Y102355231D01*
X191663973Y102182251D01*
X191700500Y101998616D01*
X191700500Y101111384D01*
X191663973Y100927749D01*
X191592322Y100754769D01*
X191592321Y100754768D01*
X191592318Y100754762D01*
X191488302Y100599092D01*
X191488299Y100599088D01*
X191355911Y100466700D01*
X191355907Y100466697D01*
X191222567Y100377602D01*
X191177762Y100323990D01*
X191169055Y100254665D01*
X191199209Y100191637D01*
X191258652Y100154918D01*
X191291458Y100150500D01*
X197965650Y100150500D01*
X197995948Y100150500D01*
X198004028Y100150764D01*
X198233317Y100165792D01*
X198249373Y100167907D01*
X198470722Y100211935D01*
X198486376Y100216130D01*
X198700075Y100288671D01*
X198715059Y100294877D01*
X198917460Y100394691D01*
X198931506Y100402801D01*
X199119146Y100528177D01*
X199132015Y100538051D01*
X199301683Y100686847D01*
X199313152Y100698316D01*
X199461948Y100867984D01*
X199471822Y100880853D01*
X199597198Y101068493D01*
X199605308Y101082539D01*
X199705122Y101284940D01*
X199711329Y101299926D01*
X199783867Y101513617D01*
X199788065Y101529284D01*
X199832091Y101750621D01*
X199834208Y101766702D01*
X199849234Y101995941D01*
X199849500Y102004051D01*
X199849500Y127995948D01*
X199849234Y128004058D01*
X199834208Y128233297D01*
X199832091Y128249378D01*
X199788065Y128470715D01*
X199783867Y128486382D01*
X199711329Y128700073D01*
X199705122Y128715059D01*
X199605308Y128917460D01*
X199597198Y128931506D01*
X199471822Y129119146D01*
X199461948Y129132015D01*
X199313152Y129301683D01*
X199301683Y129313152D01*
X199132015Y129461948D01*
X199119146Y129471822D01*
X198931506Y129597198D01*
X198917460Y129605308D01*
X198715059Y129705122D01*
X198700073Y129711329D01*
X198486382Y129783867D01*
X198470715Y129788065D01*
X198249378Y129832091D01*
X198233297Y129834208D01*
X198004058Y129849234D01*
X197995948Y129849500D01*
X159931555Y129849500D01*
X159864516Y129829815D01*
X159818761Y129777011D01*
X159807555Y129725228D01*
X159818463Y124743713D01*
X162027000Y124743713D01*
X162027000Y125256287D01*
X162031836Y125286819D01*
X162044904Y125369331D01*
X162060254Y125466243D01*
X162112229Y125626206D01*
X162125944Y125668414D01*
X162222451Y125857820D01*
X162347390Y126029786D01*
X162497713Y126180109D01*
X162669679Y126305048D01*
X162669681Y126305049D01*
X162669684Y126305051D01*
X162859088Y126401557D01*
X163061257Y126467246D01*
X163271213Y126500500D01*
X163271214Y126500500D01*
X163483786Y126500500D01*
X163483787Y126500500D01*
X163693743Y126467246D01*
X163895912Y126401557D01*
X164085316Y126305051D01*
X164208985Y126215201D01*
X164257286Y126180109D01*
X164257288Y126180106D01*
X164257292Y126180104D01*
X164407604Y126029792D01*
X164407606Y126029788D01*
X164407609Y126029786D01*
X164499830Y125902853D01*
X164532551Y125857816D01*
X164532849Y125857230D01*
X164552735Y125818205D01*
X164600709Y125767409D01*
X164663219Y125750500D01*
X165403120Y125750500D01*
X165500662Y125731096D01*
X165548113Y125721658D01*
X165676656Y125668414D01*
X165684693Y125665085D01*
X165684693Y125665084D01*
X165684695Y125665084D01*
X165742882Y125626205D01*
X165807616Y125582952D01*
X166103749Y125286819D01*
X166165072Y125253334D01*
X166191430Y125250500D01*
X170636267Y125250500D01*
X170703306Y125270185D01*
X170749061Y125322989D01*
X170753972Y125335494D01*
X170762064Y125359913D01*
X170765186Y125369334D01*
X170857288Y125518656D01*
X170981344Y125642712D01*
X171130666Y125734814D01*
X171297203Y125789999D01*
X171399991Y125800500D01*
X172600008Y125800499D01*
X172702797Y125789999D01*
X172869334Y125734814D01*
X173018656Y125642712D01*
X173142712Y125518656D01*
X173234814Y125369334D01*
X173289999Y125202797D01*
X173300500Y125100009D01*
X173300499Y124397682D01*
X174200000Y124397682D01*
X174200000Y124602317D01*
X174232009Y124804417D01*
X174295244Y124999031D01*
X174388141Y125181350D01*
X174388147Y125181359D01*
X174420523Y125225921D01*
X174420524Y125225922D01*
X175100000Y124546446D01*
X175100000Y124552661D01*
X175127259Y124654394D01*
X175179920Y124745606D01*
X175254394Y124820080D01*
X175345606Y124872741D01*
X175447339Y124900000D01*
X175453553Y124900000D01*
X174774076Y125579474D01*
X174818650Y125611859D01*
X175000968Y125704755D01*
X175195582Y125767990D01*
X175397683Y125800000D01*
X175602317Y125800000D01*
X175804417Y125767990D01*
X175999031Y125704755D01*
X176181349Y125611859D01*
X176225921Y125579474D01*
X175921430Y125274983D01*
X189374500Y125274983D01*
X189374500Y126325001D01*
X189374501Y126325019D01*
X189385000Y126427796D01*
X189385001Y126427799D01*
X189440185Y126594331D01*
X189440186Y126594334D01*
X189532288Y126743656D01*
X189656344Y126867712D01*
X189805666Y126959814D01*
X189972203Y127014999D01*
X190074991Y127025500D01*
X190675008Y127025499D01*
X190675016Y127025498D01*
X190675019Y127025498D01*
X190731302Y127019748D01*
X190777797Y127014999D01*
X190944334Y126959814D01*
X191093656Y126867712D01*
X191217712Y126743656D01*
X191286949Y126631403D01*
X191338897Y126584679D01*
X191392488Y126572500D01*
X192921515Y126572500D01*
X192988554Y126592185D01*
X192990405Y126593397D01*
X193005507Y126603488D01*
X193005508Y126603488D01*
X193005509Y126603489D01*
X193070305Y126646784D01*
X193206887Y126703358D01*
X193206891Y126703358D01*
X193206892Y126703359D01*
X193351879Y126732200D01*
X193351882Y126732200D01*
X193351883Y126732200D01*
X193499717Y126732200D01*
X195376196Y126732200D01*
X195423644Y126741637D01*
X195447303Y126751437D01*
X195447308Y126751438D01*
X195447311Y126751439D01*
X195601953Y126782199D01*
X195601956Y126782200D01*
X195601958Y126782200D01*
X195759644Y126782200D01*
X195759645Y126782199D01*
X195914297Y126751437D01*
X196059979Y126691094D01*
X196191089Y126603489D01*
X196302589Y126491989D01*
X196390194Y126360879D01*
X196450537Y126215197D01*
X196481300Y126060542D01*
X196481300Y125902858D01*
X196481300Y125902855D01*
X196481299Y125902853D01*
X196472341Y125857820D01*
X196450537Y125748203D01*
X196439541Y125721656D01*
X196390197Y125602527D01*
X196390190Y125602514D01*
X196302589Y125471411D01*
X196302586Y125471407D01*
X196191092Y125359913D01*
X196191088Y125359910D01*
X196059985Y125272309D01*
X196059972Y125272302D01*
X195914301Y125211964D01*
X195914289Y125211961D01*
X195759645Y125181200D01*
X195759642Y125181200D01*
X195601958Y125181200D01*
X195601955Y125181200D01*
X195447311Y125211960D01*
X195447306Y125211962D01*
X195447304Y125211962D01*
X195447303Y125211963D01*
X195423644Y125221762D01*
X195376196Y125231200D01*
X193858518Y125231200D01*
X193791479Y125211515D01*
X193779856Y125203056D01*
X193776387Y125200209D01*
X193645285Y125112609D01*
X193645272Y125112602D01*
X193499601Y125052264D01*
X193499589Y125052261D01*
X193344945Y125021500D01*
X193344942Y125021500D01*
X193187258Y125021500D01*
X193187255Y125021500D01*
X193032611Y125052260D01*
X193032606Y125052262D01*
X193032604Y125052262D01*
X193032603Y125052263D01*
X193008944Y125062062D01*
X192961496Y125071500D01*
X191419510Y125071500D01*
X191352471Y125051815D01*
X191316145Y125010246D01*
X191313606Y125011813D01*
X191253657Y124914621D01*
X191235216Y124847229D01*
X191253657Y124784426D01*
X191309355Y124694126D01*
X191309358Y124694119D01*
X191364505Y124527697D01*
X191364506Y124527690D01*
X191374999Y124424986D01*
X191375000Y124424973D01*
X191375000Y124150000D01*
X189375001Y124150000D01*
X189375001Y124424986D01*
X189385494Y124527697D01*
X189440641Y124694119D01*
X189440645Y124694128D01*
X189496342Y124784427D01*
X189514782Y124851819D01*
X189496343Y124914618D01*
X189440189Y125005661D01*
X189440185Y125005668D01*
X189424745Y125052263D01*
X189385001Y125172203D01*
X189385001Y125172204D01*
X189385000Y125172204D01*
X189374500Y125274983D01*
X175921430Y125274983D01*
X175546447Y124900000D01*
X175552661Y124900000D01*
X175654394Y124872741D01*
X175745606Y124820080D01*
X175820080Y124745606D01*
X175872741Y124654394D01*
X175900000Y124552661D01*
X175900000Y124546448D01*
X176579474Y125225922D01*
X176579474Y125225921D01*
X176599074Y125198947D01*
X176611860Y125181348D01*
X176704755Y124999031D01*
X176767990Y124804417D01*
X176800000Y124602317D01*
X176800000Y124397682D01*
X176767990Y124195582D01*
X176704755Y124000968D01*
X176611859Y123818650D01*
X176579474Y123774077D01*
X176579474Y123774076D01*
X175900000Y124453551D01*
X175900000Y124447339D01*
X175872741Y124345606D01*
X175820080Y124254394D01*
X175745606Y124179920D01*
X175654394Y124127259D01*
X175552661Y124100000D01*
X175546446Y124100000D01*
X176225922Y123420524D01*
X176225921Y123420523D01*
X176181359Y123388147D01*
X176181350Y123388141D01*
X175999031Y123295244D01*
X175804417Y123232009D01*
X175602317Y123200000D01*
X175397683Y123200000D01*
X175195582Y123232009D01*
X175000968Y123295244D01*
X174818644Y123388143D01*
X174774077Y123420523D01*
X174774077Y123420524D01*
X175453554Y124100000D01*
X175447339Y124100000D01*
X175345606Y124127259D01*
X175254394Y124179920D01*
X175179920Y124254394D01*
X175127259Y124345606D01*
X175100000Y124447339D01*
X175100000Y124453553D01*
X174420524Y123774077D01*
X174420523Y123774077D01*
X174388143Y123818644D01*
X174295244Y124000968D01*
X174232009Y124195582D01*
X174200000Y124397682D01*
X173300499Y124397682D01*
X173300499Y123899992D01*
X173292316Y123819890D01*
X173289999Y123797203D01*
X173289998Y123797200D01*
X173274192Y123749500D01*
X173234814Y123630666D01*
X173214939Y123598444D01*
X173174500Y123532881D01*
X173174499Y123532880D01*
X173142712Y123481344D01*
X173018656Y123357288D01*
X172918066Y123295244D01*
X172869336Y123265187D01*
X172869331Y123265185D01*
X172826101Y123250860D01*
X172702797Y123210001D01*
X172702795Y123210000D01*
X172600010Y123199500D01*
X171399998Y123199500D01*
X171399981Y123199501D01*
X171297203Y123210000D01*
X171297200Y123210001D01*
X171130668Y123265185D01*
X171130663Y123265187D01*
X170981342Y123357289D01*
X170857289Y123481342D01*
X170765187Y123630663D01*
X170765184Y123630671D01*
X170753972Y123664506D01*
X170714199Y123721950D01*
X170649683Y123748772D01*
X170636267Y123749500D01*
X165755280Y123749500D01*
X165610292Y123778340D01*
X165610286Y123778342D01*
X165473708Y123834914D01*
X165473696Y123834921D01*
X165424469Y123867813D01*
X165350788Y123917044D01*
X165350780Y123917050D01*
X165054651Y124213181D01*
X164993328Y124246666D01*
X164966970Y124249500D01*
X164663219Y124249500D01*
X164596180Y124229815D01*
X164552735Y124181795D01*
X164532552Y124142185D01*
X164532551Y124142184D01*
X164407609Y123970213D01*
X164257286Y123819890D01*
X164085320Y123694951D01*
X163895914Y123598444D01*
X163895913Y123598443D01*
X163895912Y123598443D01*
X163693743Y123532754D01*
X163693741Y123532753D01*
X163693740Y123532753D01*
X163532457Y123507208D01*
X163483787Y123499500D01*
X163271213Y123499500D01*
X163222542Y123507208D01*
X163061260Y123532753D01*
X162859085Y123598444D01*
X162669679Y123694951D01*
X162497713Y123819890D01*
X162347390Y123970213D01*
X162222451Y124142179D01*
X162125944Y124331585D01*
X162060253Y124533760D01*
X162028810Y124732288D01*
X162027000Y124743713D01*
X159818463Y124743713D01*
X159830493Y119249986D01*
X174775001Y119249986D01*
X174785494Y119352697D01*
X174840641Y119519119D01*
X174840643Y119519124D01*
X174932684Y119668345D01*
X175056654Y119792315D01*
X175205875Y119884356D01*
X175205880Y119884358D01*
X175372302Y119939505D01*
X175372309Y119939506D01*
X175475019Y119949999D01*
X175749999Y119949999D01*
X176250000Y119949999D01*
X176524972Y119949999D01*
X176524986Y119949998D01*
X176627697Y119939505D01*
X176794119Y119884358D01*
X176794124Y119884356D01*
X176943345Y119792315D01*
X177067315Y119668345D01*
X177159356Y119519124D01*
X177159358Y119519119D01*
X177214505Y119352697D01*
X177214506Y119352690D01*
X177224999Y119249986D01*
X177225000Y119249973D01*
X177225000Y119200000D01*
X176250000Y119200000D01*
X176250000Y119949999D01*
X175749999Y119949999D01*
X175750000Y119949998D01*
X175750000Y119200000D01*
X174775001Y119200000D01*
X174775001Y119249986D01*
X159830493Y119249986D01*
X159832683Y118249986D01*
X168775001Y118249986D01*
X168785494Y118352697D01*
X168840641Y118519119D01*
X168840643Y118519124D01*
X168932684Y118668345D01*
X169056654Y118792315D01*
X169205875Y118884356D01*
X169205880Y118884358D01*
X169372302Y118939505D01*
X169372309Y118939506D01*
X169475019Y118949999D01*
X169749999Y118949999D01*
X170250000Y118949999D01*
X170524972Y118949999D01*
X170524986Y118949998D01*
X170627697Y118939505D01*
X170794119Y118884358D01*
X170794124Y118884356D01*
X170943345Y118792315D01*
X171067315Y118668345D01*
X171159356Y118519124D01*
X171159358Y118519119D01*
X171214505Y118352697D01*
X171214506Y118352690D01*
X171224999Y118249986D01*
X171225000Y118249973D01*
X171225000Y118200000D01*
X170250000Y118200000D01*
X170250000Y118949999D01*
X169749999Y118949999D01*
X169750000Y118949998D01*
X169750000Y118200000D01*
X168775001Y118200000D01*
X168775001Y118249986D01*
X159832683Y118249986D01*
X159838157Y115749983D01*
X168774500Y115749983D01*
X168774500Y116350001D01*
X168774501Y116350019D01*
X168785000Y116452796D01*
X168785001Y116452799D01*
X168840185Y116619331D01*
X168840187Y116619336D01*
X168845854Y116628523D01*
X168932288Y116768656D01*
X169056344Y116892712D01*
X169059628Y116894737D01*
X169059653Y116894753D01*
X169061445Y116896746D01*
X169062011Y116897193D01*
X169061934Y116897289D01*
X169106379Y116946699D01*
X169117603Y117015661D01*
X169089761Y117079744D01*
X169059665Y117105826D01*
X169056660Y117107679D01*
X169056655Y117107683D01*
X168932684Y117231654D01*
X168840643Y117380875D01*
X168840641Y117380880D01*
X168785494Y117547302D01*
X168785493Y117547309D01*
X168775000Y117650013D01*
X168775000Y117700000D01*
X171224999Y117700000D01*
X171224999Y117650028D01*
X171224998Y117650013D01*
X171214505Y117547302D01*
X171159358Y117380880D01*
X171159356Y117380875D01*
X171067315Y117231654D01*
X170943344Y117107683D01*
X170943341Y117107681D01*
X170940339Y117105829D01*
X170938713Y117104021D01*
X170937677Y117103202D01*
X170937817Y117103024D01*
X170893617Y117053880D01*
X170882397Y116984917D01*
X170910243Y116920836D01*
X170940344Y116894754D01*
X170943656Y116892712D01*
X170999549Y116836819D01*
X171060872Y116803334D01*
X171087230Y116800500D01*
X173311482Y116800500D01*
X173459318Y116800500D01*
X174637769Y116800500D01*
X174704808Y116820185D01*
X174725447Y116836815D01*
X174738178Y116849545D01*
X174771665Y116910867D01*
X174774500Y116937230D01*
X174774500Y117350001D01*
X174774501Y117350019D01*
X174785000Y117452796D01*
X174785001Y117452799D01*
X174816317Y117547302D01*
X174840186Y117619334D01*
X174932288Y117768656D01*
X175056344Y117892712D01*
X175059628Y117894737D01*
X175059653Y117894753D01*
X175061445Y117896746D01*
X175062011Y117897193D01*
X175061934Y117897289D01*
X175106379Y117946699D01*
X175117603Y118015661D01*
X175089761Y118079744D01*
X175059665Y118105826D01*
X175056660Y118107679D01*
X175056655Y118107683D01*
X174932684Y118231654D01*
X174840643Y118380875D01*
X174840641Y118380880D01*
X174785494Y118547302D01*
X174785493Y118547309D01*
X174775000Y118650013D01*
X174775000Y118700000D01*
X177224999Y118700000D01*
X177224999Y118650028D01*
X177224998Y118650013D01*
X177214505Y118547302D01*
X177175975Y118431026D01*
X177173573Y118361198D01*
X177209305Y118301156D01*
X177271825Y118269963D01*
X177341284Y118277523D01*
X177381362Y118304341D01*
X178785416Y119708395D01*
X178812296Y119748623D01*
X178836514Y119807092D01*
X178877582Y119868555D01*
X178918648Y119930016D01*
X179063182Y120074550D01*
X179096666Y120135871D01*
X179099500Y120162230D01*
X179099500Y121001122D01*
X179099501Y121001125D01*
X179102399Y121043886D01*
X179102399Y121043887D01*
X179119459Y121112486D01*
X179141247Y121200097D01*
X179148360Y121228696D01*
X179232967Y121399292D01*
X179232969Y121399295D01*
X179352277Y121547721D01*
X179352278Y121547722D01*
X179500704Y121667030D01*
X179500707Y121667032D01*
X179671302Y121751639D01*
X179671303Y121751639D01*
X179671307Y121751641D01*
X179856111Y121797600D01*
X179898877Y121800500D01*
X180801122Y121800499D01*
X180843889Y121797600D01*
X181028693Y121751641D01*
X181199296Y121667030D01*
X181347722Y121547722D01*
X181467030Y121399296D01*
X181551641Y121228693D01*
X181597600Y121043889D01*
X181600500Y121001123D01*
X181600499Y119598878D01*
X181597600Y119556111D01*
X181551641Y119371307D01*
X181469206Y119205092D01*
X181457055Y119136290D01*
X181469205Y119094908D01*
X181551641Y118928693D01*
X181572561Y118844572D01*
X181607842Y118784267D01*
X181670128Y118752608D01*
X181692895Y118750500D01*
X184187529Y118750500D01*
X184254568Y118770185D01*
X184300323Y118822989D01*
X184306744Y118840387D01*
X184316088Y118873043D01*
X184316090Y118873048D01*
X184316091Y118873049D01*
X184410302Y119053407D01*
X184410304Y119053409D01*
X184538890Y119211109D01*
X184632803Y119287684D01*
X184696593Y119339698D01*
X184876951Y119433909D01*
X185072582Y119489886D01*
X185191963Y119500500D01*
X186648870Y119500499D01*
X186715909Y119520184D01*
X186761664Y119572987D01*
X186771608Y119642146D01*
X186742583Y119705702D01*
X186736560Y119712170D01*
X186706571Y119742159D01*
X186704102Y119744629D01*
X186663880Y119771505D01*
X186640219Y119781306D01*
X186640218Y119781307D01*
X186509115Y119868907D01*
X186509107Y119868913D01*
X186397613Y119980407D01*
X186397610Y119980411D01*
X186310009Y120111514D01*
X186310002Y120111527D01*
X186249664Y120257198D01*
X186249661Y120257210D01*
X186218900Y120411853D01*
X186218900Y120569546D01*
X186249661Y120724189D01*
X186249664Y120724201D01*
X186310002Y120869872D01*
X186310009Y120869885D01*
X186397610Y121000988D01*
X186397613Y121000992D01*
X186509107Y121112486D01*
X186509111Y121112489D01*
X186640214Y121200090D01*
X186640227Y121200097D01*
X186709275Y121228697D01*
X186785903Y121260437D01*
X186940553Y121291199D01*
X186940556Y121291200D01*
X186940558Y121291200D01*
X187098244Y121291200D01*
X187098245Y121291199D01*
X187252897Y121260437D01*
X187398579Y121200094D01*
X187529689Y121112489D01*
X187641189Y121000989D01*
X187728794Y120869879D01*
X187738591Y120846224D01*
X187765470Y120805996D01*
X187992383Y120579082D01*
X188053706Y120545598D01*
X188123398Y120550582D01*
X188167750Y120579088D01*
X188298141Y120709494D01*
X188331623Y120770819D01*
X188332072Y120821361D01*
X188321277Y120875632D01*
X188288893Y120937543D01*
X188287341Y120939122D01*
X186824839Y122401625D01*
X186763516Y122435110D01*
X186761350Y122435561D01*
X186606008Y122466461D01*
X186605998Y122466464D01*
X186460327Y122526802D01*
X186460314Y122526809D01*
X186329211Y122614410D01*
X186329207Y122614413D01*
X186217713Y122725907D01*
X186217710Y122725911D01*
X186130109Y122857014D01*
X186130102Y122857027D01*
X186069764Y123002698D01*
X186069761Y123002710D01*
X186039000Y123157353D01*
X186039000Y123315046D01*
X186069761Y123469689D01*
X186069764Y123469701D01*
X186130102Y123615372D01*
X186130109Y123615385D01*
X186217710Y123746488D01*
X186217713Y123746492D01*
X186329207Y123857986D01*
X186329211Y123857989D01*
X186460314Y123945590D01*
X186460327Y123945597D01*
X186605998Y124005935D01*
X186606003Y124005937D01*
X186760653Y124036699D01*
X186760656Y124036700D01*
X186760658Y124036700D01*
X186918344Y124036700D01*
X186918345Y124036699D01*
X187072997Y124005937D01*
X187218679Y123945594D01*
X187349789Y123857989D01*
X187461289Y123746489D01*
X187548894Y123615379D01*
X187609237Y123469697D01*
X187628613Y123372285D01*
X187640138Y123314350D01*
X187672523Y123252439D01*
X187674018Y123250916D01*
X189034716Y121890219D01*
X189096039Y121856734D01*
X189122397Y121853900D01*
X189180943Y121853900D01*
X189221987Y121845735D01*
X189249740Y121840215D01*
X189319331Y121846442D01*
X189374509Y121889304D01*
X189391638Y121922827D01*
X189440186Y122069334D01*
X189532288Y122218656D01*
X189656344Y122342712D01*
X189805666Y122434814D01*
X189912024Y122470057D01*
X189969467Y122509828D01*
X189996291Y122574344D01*
X189983976Y122643120D01*
X189936434Y122694320D01*
X189912024Y122705468D01*
X189805878Y122740642D01*
X189805875Y122740643D01*
X189656654Y122832684D01*
X189532684Y122956654D01*
X189440643Y123105875D01*
X189440641Y123105880D01*
X189385494Y123272302D01*
X189385493Y123272309D01*
X189375000Y123375013D01*
X189375000Y123650000D01*
X191374999Y123650000D01*
X191374999Y123375028D01*
X191374998Y123375013D01*
X191364505Y123272302D01*
X191309358Y123105880D01*
X191309356Y123105875D01*
X191217315Y122956654D01*
X191093345Y122832684D01*
X190944124Y122740643D01*
X190944119Y122740641D01*
X190837976Y122705469D01*
X190780531Y122665696D01*
X190753708Y122601180D01*
X190766023Y122532405D01*
X190813566Y122481205D01*
X190837971Y122470059D01*
X190944334Y122434814D01*
X191093656Y122342712D01*
X191217712Y122218656D01*
X191309814Y122069334D01*
X191364999Y121902797D01*
X191375500Y121800009D01*
X191375499Y120749992D01*
X191372864Y120724201D01*
X191364999Y120647203D01*
X191364998Y120647200D01*
X191339266Y120569546D01*
X191309814Y120480666D01*
X191309810Y120480660D01*
X191309809Y120480657D01*
X191253657Y120389621D01*
X191235216Y120322229D01*
X191253657Y120259426D01*
X191309355Y120169126D01*
X191309358Y120169119D01*
X191364505Y120002697D01*
X191364506Y120002690D01*
X191374999Y119899986D01*
X191375000Y119899973D01*
X191375000Y119625000D01*
X189765616Y119625000D01*
X189718164Y119615561D01*
X189632413Y119580042D01*
X189632407Y119580040D01*
X189487420Y119551200D01*
X189487418Y119551200D01*
X189313958Y119551200D01*
X189246919Y119531515D01*
X189226272Y119514876D01*
X188911236Y119199803D01*
X188877754Y119138478D01*
X188882743Y119068787D01*
X188889014Y119054715D01*
X188889695Y119053409D01*
X188889698Y119053407D01*
X188983909Y118873049D01*
X189039886Y118677418D01*
X189050500Y118558037D01*
X189050499Y117724499D01*
X189070183Y117657461D01*
X189122987Y117611706D01*
X189174499Y117600500D01*
X189321862Y117600500D01*
X189388901Y117620185D01*
X189427399Y117659401D01*
X189494788Y117768656D01*
X189618844Y117892712D01*
X189768166Y117984814D01*
X189783722Y117989968D01*
X189841166Y118029739D01*
X189867990Y118094255D01*
X189855676Y118163031D01*
X189809815Y118213212D01*
X189656659Y118307680D01*
X189656655Y118307683D01*
X189532684Y118431654D01*
X189440643Y118580875D01*
X189440641Y118580880D01*
X189385494Y118747302D01*
X189385493Y118747309D01*
X189375000Y118850013D01*
X189375000Y119125000D01*
X191374999Y119125000D01*
X191374999Y118850028D01*
X191374998Y118850013D01*
X191364505Y118747302D01*
X191309358Y118580880D01*
X191309356Y118580875D01*
X191217315Y118431654D01*
X191093345Y118307684D01*
X190944124Y118215643D01*
X190944119Y118215641D01*
X190943843Y118215550D01*
X190943678Y118215435D01*
X190937579Y118212592D01*
X190938065Y118211549D01*
X190886398Y118175777D01*
X190859575Y118111261D01*
X190871890Y118042485D01*
X190919433Y117991286D01*
X190930455Y117985456D01*
X190931826Y117984816D01*
X190931834Y117984814D01*
X191081156Y117892712D01*
X191205212Y117768656D01*
X191297314Y117619334D01*
X191352499Y117452797D01*
X191363000Y117350009D01*
X191362999Y116349992D01*
X191360787Y116328342D01*
X191352499Y116247203D01*
X191352498Y116247200D01*
X191323541Y116159814D01*
X191297314Y116080666D01*
X191249159Y116002594D01*
X191230720Y115935205D01*
X191249159Y115872405D01*
X191297314Y115794334D01*
X191352499Y115627797D01*
X191363000Y115525009D01*
X191362999Y114524992D01*
X191355607Y114452633D01*
X191352499Y114422203D01*
X191352498Y114422200D01*
X191323069Y114333390D01*
X191297314Y114255666D01*
X191205212Y114106344D01*
X191111819Y114012951D01*
X191078334Y113951628D01*
X191075500Y113925270D01*
X191075500Y113854849D01*
X191095185Y113787810D01*
X191134402Y113749311D01*
X191183503Y113719026D01*
X191306526Y113596003D01*
X191397862Y113447925D01*
X191452587Y113282775D01*
X191463000Y113180848D01*
X191463000Y112169152D01*
X191452587Y112067225D01*
X191397862Y111902075D01*
X191397858Y111902069D01*
X191397857Y111902066D01*
X191336209Y111802120D01*
X191317768Y111734728D01*
X191336209Y111671926D01*
X191397400Y111572720D01*
X191397405Y111572709D01*
X191452092Y111407673D01*
X191462499Y111305815D01*
X191462500Y111305802D01*
X191462500Y111050000D01*
X189487500Y111050000D01*
X189487500Y111305815D01*
X189497907Y111407673D01*
X189552594Y111572709D01*
X189552596Y111572714D01*
X189613791Y111671926D01*
X189632231Y111739319D01*
X189613791Y111802120D01*
X189552139Y111902072D01*
X189552137Y111902077D01*
X189497413Y112067223D01*
X189487000Y112169144D01*
X189487000Y113180855D01*
X189497413Y113282776D01*
X189552137Y113447922D01*
X189552142Y113447933D01*
X189643471Y113595999D01*
X189643474Y113596003D01*
X189762105Y113714634D01*
X189795590Y113775957D01*
X189790606Y113845649D01*
X189748734Y113901582D01*
X189739521Y113907854D01*
X189618842Y113982289D01*
X189494789Y114106342D01*
X189402687Y114255663D01*
X189402686Y114255666D01*
X189347501Y114422203D01*
X189347501Y114422204D01*
X189347500Y114422204D01*
X189337000Y114524983D01*
X189337000Y115525001D01*
X189337001Y115525019D01*
X189347500Y115627796D01*
X189347501Y115627799D01*
X189402686Y115794333D01*
X189402688Y115794338D01*
X189450839Y115872405D01*
X189469279Y115939797D01*
X189450839Y116002596D01*
X189427401Y116040596D01*
X189375454Y116087321D01*
X189321862Y116099500D01*
X187726076Y116099500D01*
X187697242Y116105234D01*
X187697243Y116105235D01*
X187581092Y116128339D01*
X187581086Y116128341D01*
X187505106Y116159814D01*
X187444508Y116184914D01*
X187444499Y116184919D01*
X187411024Y116207287D01*
X187321586Y116267047D01*
X187321582Y116267050D01*
X187125451Y116463181D01*
X187064128Y116496666D01*
X187037770Y116499500D01*
X185191971Y116499500D01*
X185191965Y116499500D01*
X185191964Y116499501D01*
X185180316Y116500536D01*
X185072584Y116510113D01*
X184876954Y116566089D01*
X184786772Y116613196D01*
X184696593Y116660302D01*
X184696591Y116660303D01*
X184696590Y116660304D01*
X184538890Y116788890D01*
X184410304Y116946590D01*
X184410302Y116946593D01*
X184374224Y117015661D01*
X184316088Y117126956D01*
X184306744Y117159613D01*
X184269376Y117218651D01*
X184206022Y117248113D01*
X184187529Y117249500D01*
X181692895Y117249500D01*
X181625856Y117229815D01*
X181580101Y117177011D01*
X181572562Y117155432D01*
X181551641Y117071307D01*
X181508745Y116984814D01*
X181468929Y116904532D01*
X181456777Y116835728D01*
X181468929Y116794343D01*
X181551169Y116628521D01*
X181597102Y116443824D01*
X181600000Y116401096D01*
X181600000Y115950000D01*
X179100000Y115950000D01*
X179100000Y116401096D01*
X179102897Y116443824D01*
X179148831Y116628523D01*
X179231070Y116794345D01*
X179243222Y116863150D01*
X179231070Y116904533D01*
X179148360Y117071302D01*
X179102400Y117256107D01*
X179099500Y117298879D01*
X179099500Y117777159D01*
X179079815Y117844198D01*
X179027011Y117889953D01*
X178957853Y117899897D01*
X178894297Y117870872D01*
X178887819Y117864840D01*
X177935329Y116912351D01*
X177901844Y116851028D01*
X177901392Y116848856D01*
X177897859Y116831091D01*
X177897856Y116831082D01*
X177841287Y116694511D01*
X177841280Y116694498D01*
X177759151Y116571584D01*
X177759148Y116571580D01*
X177654619Y116467051D01*
X177654615Y116467048D01*
X177531701Y116384919D01*
X177531688Y116384912D01*
X177395117Y116328343D01*
X177395107Y116328340D01*
X177250120Y116299500D01*
X177250118Y116299500D01*
X177087230Y116299500D01*
X177020191Y116279815D01*
X176999549Y116263181D01*
X176943657Y116207289D01*
X176943656Y116207288D01*
X176794334Y116115186D01*
X176627797Y116060001D01*
X176627795Y116060000D01*
X176525016Y116049500D01*
X176525009Y116049500D01*
X176112229Y116049500D01*
X176045190Y116029815D01*
X176024548Y116013181D01*
X175478421Y115467052D01*
X175478414Y115467046D01*
X175404729Y115417812D01*
X175404729Y115417813D01*
X175355491Y115384913D01*
X175218917Y115328343D01*
X175218907Y115328340D01*
X175073920Y115299500D01*
X175073918Y115299500D01*
X174259900Y115299500D01*
X174251214Y115296949D01*
X174242253Y115298238D01*
X174218212Y115287259D01*
X174192861Y115279815D01*
X174186933Y115272974D01*
X174178697Y115269213D01*
X174164407Y115246978D01*
X174147106Y115227011D01*
X174144818Y115216496D01*
X174140923Y115210435D01*
X174135900Y115175500D01*
X174135900Y114998903D01*
X179100000Y114998903D01*
X179100000Y115450000D01*
X180100000Y115450000D01*
X180600000Y115450000D01*
X181600000Y115450000D01*
X181600000Y114998903D01*
X181597102Y114956175D01*
X181551168Y114771476D01*
X181466609Y114600977D01*
X181466607Y114600974D01*
X181347367Y114452633D01*
X181347366Y114452632D01*
X181199025Y114333392D01*
X181199022Y114333390D01*
X181028523Y114248831D01*
X180843824Y114202897D01*
X180801097Y114200000D01*
X180600000Y114200000D01*
X180600000Y115450000D01*
X180100000Y115450000D01*
X180100000Y114200000D01*
X179898903Y114200000D01*
X179856175Y114202897D01*
X179671476Y114248831D01*
X179500977Y114333390D01*
X179500974Y114333392D01*
X179352633Y114452632D01*
X179352632Y114452633D01*
X179233392Y114600974D01*
X179233390Y114600977D01*
X179148831Y114771476D01*
X179102897Y114956175D01*
X179100000Y114998903D01*
X174135900Y114998903D01*
X174135900Y113128700D01*
X174155585Y113061661D01*
X174208389Y113015906D01*
X174259900Y113004700D01*
X174741970Y113004700D01*
X174809009Y113024385D01*
X174829651Y113041019D01*
X174881344Y113092712D01*
X175030666Y113184814D01*
X175197203Y113239999D01*
X175299991Y113250500D01*
X176700008Y113250499D01*
X176802797Y113239999D01*
X176969334Y113184814D01*
X177118656Y113092712D01*
X177242712Y112968656D01*
X177334814Y112819334D01*
X177389999Y112652797D01*
X177400500Y112550009D01*
X177400500Y112549986D01*
X178600001Y112549986D01*
X178610494Y112652697D01*
X178665641Y112819119D01*
X178665643Y112819124D01*
X178757684Y112968345D01*
X178881654Y113092315D01*
X179030875Y113184356D01*
X179030880Y113184358D01*
X179197302Y113239505D01*
X179197309Y113239506D01*
X179300019Y113249999D01*
X179749999Y113249999D01*
X180250000Y113249999D01*
X180699972Y113249999D01*
X180699986Y113249998D01*
X180802697Y113239505D01*
X180969119Y113184358D01*
X180969124Y113184356D01*
X181118345Y113092315D01*
X181242315Y112968345D01*
X181334356Y112819124D01*
X181334358Y112819119D01*
X181389505Y112652697D01*
X181389506Y112652690D01*
X181399999Y112549986D01*
X181400000Y112549973D01*
X181400000Y111750000D01*
X180250000Y111750000D01*
X180250000Y113249999D01*
X179749999Y113249999D01*
X179750000Y113249998D01*
X179750000Y111750000D01*
X178600001Y111750000D01*
X178600001Y112549986D01*
X177400500Y112549986D01*
X177400499Y111497204D01*
X177400499Y110450013D01*
X178600000Y110450013D01*
X178600000Y111250000D01*
X179750000Y111250000D01*
X180250000Y111250000D01*
X181399999Y111250000D01*
X181399999Y110450028D01*
X181399998Y110450013D01*
X181389506Y110347304D01*
X181383785Y110330040D01*
X181383784Y110330038D01*
X181371903Y110294184D01*
X189487500Y110294184D01*
X189487500Y110550000D01*
X190225000Y110550000D01*
X190725000Y110550000D01*
X191462500Y110550000D01*
X191462500Y110294197D01*
X191462499Y110294184D01*
X191452092Y110192326D01*
X191397405Y110027290D01*
X191397403Y110027285D01*
X191306129Y109879308D01*
X191183191Y109756370D01*
X191035214Y109665096D01*
X191035209Y109665094D01*
X190870173Y109610407D01*
X190768315Y109600000D01*
X190725000Y109600000D01*
X190725000Y110550000D01*
X190225000Y110550000D01*
X190225000Y109600000D01*
X190181684Y109600000D01*
X190079826Y109610407D01*
X189914790Y109665094D01*
X189914785Y109665096D01*
X189766808Y109756370D01*
X189643870Y109879308D01*
X189552596Y110027285D01*
X189552594Y110027290D01*
X189497907Y110192326D01*
X189487500Y110294184D01*
X181371903Y110294184D01*
X181334358Y110180880D01*
X181334356Y110180875D01*
X181242315Y110031654D01*
X181118345Y109907684D01*
X180969124Y109815643D01*
X180969119Y109815641D01*
X180802697Y109760494D01*
X180802690Y109760493D01*
X180699986Y109750000D01*
X180250000Y109750000D01*
X180250000Y111250000D01*
X179750000Y111250000D01*
X179750000Y109750000D01*
X179300028Y109750000D01*
X179300012Y109750001D01*
X179197302Y109760494D01*
X179030880Y109815641D01*
X179030875Y109815643D01*
X178881654Y109907684D01*
X178757684Y110031654D01*
X178665643Y110180875D01*
X178665641Y110180880D01*
X178610494Y110347302D01*
X178610493Y110347309D01*
X178600000Y110450013D01*
X177400499Y110450013D01*
X177400499Y110449998D01*
X177400498Y110449981D01*
X177389999Y110347203D01*
X177389998Y110347200D01*
X177384311Y110330038D01*
X177334814Y110180666D01*
X177242712Y110031344D01*
X177118656Y109907288D01*
X176969334Y109815186D01*
X176802797Y109760001D01*
X176802795Y109760000D01*
X176700010Y109749500D01*
X175299998Y109749500D01*
X175299981Y109749501D01*
X175197203Y109760000D01*
X175197200Y109760001D01*
X175030668Y109815185D01*
X175030663Y109815187D01*
X174881342Y109907289D01*
X174757289Y110031342D01*
X174665187Y110180663D01*
X174665185Y110180668D01*
X174665115Y110180880D01*
X174610001Y110347203D01*
X174610001Y110347204D01*
X174610000Y110347204D01*
X174599500Y110449983D01*
X174599500Y110449991D01*
X174599500Y110973642D01*
X174599501Y111379700D01*
X174579817Y111446739D01*
X174527013Y111492494D01*
X174475501Y111503700D01*
X171829604Y111503700D01*
X171782155Y111494262D01*
X171758497Y111484463D01*
X171758493Y111484462D01*
X171758488Y111484460D01*
X171603845Y111453700D01*
X171603842Y111453700D01*
X171446158Y111453700D01*
X171446155Y111453700D01*
X171299754Y111482821D01*
X171230163Y111476594D01*
X171174985Y111433731D01*
X171157858Y111400210D01*
X171134814Y111330666D01*
X171042712Y111181344D01*
X170949049Y111087681D01*
X170915564Y111026358D01*
X170920548Y110956666D01*
X170949049Y110912319D01*
X171042712Y110818656D01*
X171134814Y110669334D01*
X171189999Y110502797D01*
X171200500Y110400009D01*
X171200499Y109774992D01*
X171189999Y109672203D01*
X171134814Y109505666D01*
X171042712Y109356344D01*
X170918656Y109232288D01*
X170769334Y109140186D01*
X170685495Y109112404D01*
X170628051Y109072632D01*
X170601228Y109008116D01*
X170600500Y108994699D01*
X170600500Y107507038D01*
X170620185Y107439999D01*
X170672989Y107394244D01*
X170685486Y107389335D01*
X170772925Y107360362D01*
X170921003Y107269026D01*
X171044026Y107146003D01*
X171135362Y106997925D01*
X171190087Y106832775D01*
X171200500Y106730848D01*
X171200500Y106144152D01*
X171190087Y106042225D01*
X171135362Y105877075D01*
X171135358Y105877069D01*
X171135357Y105877066D01*
X171044028Y105729000D01*
X171044025Y105728996D01*
X170921003Y105605974D01*
X170920995Y105605968D01*
X170919812Y105605238D01*
X170919171Y105604525D01*
X170915336Y105601493D01*
X170915854Y105600837D01*
X170873091Y105553287D01*
X170861875Y105484323D01*
X170889723Y105420243D01*
X170915123Y105398238D01*
X170915023Y105398112D01*
X170917842Y105395882D01*
X170919832Y105394159D01*
X170920692Y105393628D01*
X171043629Y105270691D01*
X171134903Y105122714D01*
X171134905Y105122709D01*
X171189592Y104957673D01*
X171199999Y104855815D01*
X171200000Y104855802D01*
X171200000Y104812500D01*
X168800000Y104812500D01*
X168800000Y104855815D01*
X168810407Y104957673D01*
X168865094Y105122709D01*
X168865096Y105122714D01*
X168956370Y105270691D01*
X169079309Y105393630D01*
X169080173Y105394163D01*
X169080641Y105394683D01*
X169084977Y105398112D01*
X169084391Y105398852D01*
X169126901Y105446108D01*
X169138126Y105515070D01*
X169110286Y105579154D01*
X169084601Y105601414D01*
X169084664Y105601493D01*
X169082912Y105602878D01*
X169080194Y105605234D01*
X169079005Y105605967D01*
X169078996Y105605974D01*
X168955974Y105728996D01*
X168955971Y105729000D01*
X168864642Y105877066D01*
X168864637Y105877077D01*
X168809913Y106042223D01*
X168799500Y106144144D01*
X168799500Y106730855D01*
X168809913Y106832776D01*
X168864637Y106997922D01*
X168864642Y106997933D01*
X168955971Y107145999D01*
X168955974Y107146003D01*
X169078996Y107269025D01*
X169079000Y107269028D01*
X169227066Y107360357D01*
X169227069Y107360358D01*
X169227075Y107360362D01*
X169314504Y107389333D01*
X169371948Y107429104D01*
X169398772Y107493620D01*
X169399500Y107507038D01*
X169399500Y108994699D01*
X169379815Y109061738D01*
X169327011Y109107493D01*
X169314507Y109112403D01*
X169281962Y109123188D01*
X169230668Y109140185D01*
X169230663Y109140187D01*
X169081342Y109232289D01*
X168957289Y109356342D01*
X168865187Y109505663D01*
X168865186Y109505666D01*
X168810001Y109672203D01*
X168810001Y109672204D01*
X168810000Y109672204D01*
X168799500Y109774983D01*
X168799500Y110400001D01*
X168799501Y110400019D01*
X168810000Y110502796D01*
X168810001Y110502799D01*
X168865185Y110669331D01*
X168865187Y110669336D01*
X168957289Y110818657D01*
X169050951Y110912319D01*
X169084436Y110973642D01*
X169079452Y111043334D01*
X169050951Y111087681D01*
X168957289Y111181342D01*
X168865187Y111330663D01*
X168865185Y111330668D01*
X168848938Y111379700D01*
X168810001Y111497203D01*
X168810001Y111497204D01*
X168810000Y111497204D01*
X168799500Y111599983D01*
X168799500Y112225001D01*
X168799501Y112225019D01*
X168810000Y112327796D01*
X168810001Y112327799D01*
X168865185Y112494331D01*
X168865186Y112494334D01*
X168957288Y112643656D01*
X169081344Y112767712D01*
X169230666Y112859814D01*
X169397203Y112914999D01*
X169499991Y112925500D01*
X169976544Y112925499D01*
X170023996Y112934938D01*
X170105402Y112968657D01*
X170122787Y112975858D01*
X170122791Y112975858D01*
X170122792Y112975859D01*
X170267779Y113004700D01*
X170267782Y113004700D01*
X170267783Y113004700D01*
X170415618Y113004700D01*
X171220396Y113004700D01*
X171267844Y113014137D01*
X171291503Y113023937D01*
X171291508Y113023938D01*
X171291511Y113023939D01*
X171446153Y113054699D01*
X171446156Y113054700D01*
X171446158Y113054700D01*
X171603844Y113054700D01*
X171603845Y113054699D01*
X171680152Y113039520D01*
X171758488Y113023939D01*
X171758489Y113023938D01*
X171758497Y113023937D01*
X171782155Y113014137D01*
X171829604Y113004700D01*
X172510900Y113004700D01*
X172577939Y113024385D01*
X172623694Y113077189D01*
X172634900Y113128700D01*
X172634900Y115175500D01*
X172615215Y115242539D01*
X172562411Y115288294D01*
X172510900Y115299500D01*
X171087230Y115299500D01*
X171020191Y115279815D01*
X170999549Y115263181D01*
X170943657Y115207289D01*
X170943656Y115207288D01*
X170794334Y115115186D01*
X170627797Y115060001D01*
X170627795Y115060000D01*
X170525010Y115049500D01*
X169474998Y115049500D01*
X169474980Y115049501D01*
X169372203Y115060000D01*
X169372200Y115060001D01*
X169205668Y115115185D01*
X169205663Y115115187D01*
X169056342Y115207289D01*
X168932289Y115331342D01*
X168840187Y115480663D01*
X168840186Y115480666D01*
X168785001Y115647203D01*
X168785001Y115647204D01*
X168785000Y115647204D01*
X168774500Y115749983D01*
X159838157Y115749983D01*
X159857878Y106743753D01*
X162027500Y106743753D01*
X162027500Y106750000D01*
X162944488Y106750000D01*
X162911575Y106807007D01*
X162877500Y106934174D01*
X162877500Y107065826D01*
X162911575Y107192993D01*
X162944488Y107250000D01*
X162027500Y107250000D01*
X162027500Y107256246D01*
X162060742Y107466127D01*
X162060742Y107466130D01*
X162126404Y107668217D01*
X162222879Y107857557D01*
X162347772Y108029459D01*
X162347776Y108029464D01*
X162498035Y108179723D01*
X162498040Y108179727D01*
X162669942Y108304620D01*
X162859282Y108401095D01*
X163061371Y108466757D01*
X163127500Y108477231D01*
X163127500Y107433012D01*
X163184507Y107465925D01*
X163311674Y107500000D01*
X163443326Y107500000D01*
X163570493Y107465925D01*
X163627500Y107433012D01*
X163627500Y108477230D01*
X163693626Y108466757D01*
X163693629Y108466757D01*
X163895717Y108401095D01*
X164085057Y108304620D01*
X164256959Y108179727D01*
X164256964Y108179723D01*
X164407223Y108029464D01*
X164407227Y108029459D01*
X164532120Y107857557D01*
X164628595Y107668217D01*
X164694257Y107466130D01*
X164694257Y107466127D01*
X164727500Y107256246D01*
X164727500Y107250000D01*
X163810512Y107250000D01*
X163843425Y107192993D01*
X163877500Y107065826D01*
X163877500Y106934174D01*
X163843425Y106807007D01*
X163810512Y106750000D01*
X164727500Y106750000D01*
X164727500Y106743753D01*
X164694257Y106533872D01*
X164694257Y106533869D01*
X164628595Y106331782D01*
X164532120Y106142442D01*
X164407227Y105970540D01*
X164407223Y105970535D01*
X164256964Y105820276D01*
X164256959Y105820272D01*
X164085057Y105695379D01*
X163895715Y105598903D01*
X163693624Y105533241D01*
X163627500Y105522768D01*
X163627500Y106566988D01*
X163570493Y106534075D01*
X163443326Y106500000D01*
X163311674Y106500000D01*
X163184507Y106534075D01*
X163127500Y106566988D01*
X163127500Y105522768D01*
X163127499Y105522768D01*
X163061375Y105533241D01*
X162859284Y105598903D01*
X162669942Y105695379D01*
X162498040Y105820272D01*
X162498035Y105820276D01*
X162347776Y105970535D01*
X162347772Y105970540D01*
X162222879Y106142442D01*
X162126404Y106331782D01*
X162060742Y106533869D01*
X162060742Y106533872D01*
X162027500Y106743753D01*
X159857878Y106743753D01*
X159863297Y104269184D01*
X168800000Y104269184D01*
X168800000Y104312500D01*
X169750000Y104312500D01*
X170250000Y104312500D01*
X171200000Y104312500D01*
X171200000Y104269197D01*
X171199999Y104269184D01*
X171189592Y104167326D01*
X171134905Y104002290D01*
X171134903Y104002285D01*
X171043629Y103854308D01*
X170920691Y103731370D01*
X170772714Y103640096D01*
X170772709Y103640094D01*
X170607673Y103585407D01*
X170505815Y103575000D01*
X170250000Y103575000D01*
X170250000Y104312500D01*
X169750000Y104312500D01*
X169750000Y103575000D01*
X169494184Y103575000D01*
X169392326Y103585407D01*
X169227290Y103640094D01*
X169227285Y103640096D01*
X169079308Y103731370D01*
X168956370Y103854308D01*
X168865096Y104002285D01*
X168865094Y104002290D01*
X168810407Y104167326D01*
X168800000Y104269184D01*
X159863297Y104269184D01*
X159869739Y101327135D01*
X172619500Y101327135D01*
X172619500Y103122870D01*
X172619501Y103122876D01*
X172625908Y103182483D01*
X172676202Y103317328D01*
X172676206Y103317335D01*
X172762452Y103432544D01*
X172762455Y103432547D01*
X172877664Y103518793D01*
X172877671Y103518797D01*
X173012517Y103569091D01*
X173012516Y103569091D01*
X173019444Y103569835D01*
X173072127Y103575500D01*
X174867872Y103575499D01*
X174927483Y103569091D01*
X175062331Y103518796D01*
X175177546Y103432546D01*
X175263796Y103317331D01*
X175314091Y103182483D01*
X175320500Y103122873D01*
X175320499Y103098979D01*
X175323330Y103085963D01*
X175333940Y103066525D01*
X175340179Y103045275D01*
X175356803Y103024643D01*
X175356808Y103024636D01*
X175356811Y103024634D01*
X175356818Y103024626D01*
X176027037Y102354408D01*
X176044075Y102417993D01*
X176109901Y102532007D01*
X176202993Y102625099D01*
X176317007Y102690925D01*
X176380590Y102707962D01*
X175748282Y103340269D01*
X175748282Y103340270D01*
X175802449Y103379624D01*
X175991782Y103476095D01*
X176193870Y103541757D01*
X176403754Y103575000D01*
X176616246Y103575000D01*
X176826127Y103541757D01*
X176826130Y103541757D01*
X177028217Y103476095D01*
X177217554Y103379622D01*
X177271716Y103340270D01*
X177271717Y103340270D01*
X176639408Y102707962D01*
X176702993Y102690925D01*
X176817007Y102625099D01*
X176910099Y102532007D01*
X176975925Y102417993D01*
X176992962Y102354408D01*
X177625270Y102986717D01*
X177625270Y102986716D01*
X177664622Y102932555D01*
X177669232Y102923507D01*
X177717205Y102872709D01*
X177785025Y102855912D01*
X177851161Y102878447D01*
X177890204Y102923504D01*
X177894949Y102932817D01*
X178019890Y103104786D01*
X178170213Y103255109D01*
X178342179Y103380048D01*
X178342181Y103380049D01*
X178342184Y103380051D01*
X178531588Y103476557D01*
X178733757Y103542246D01*
X178943713Y103575500D01*
X178943714Y103575500D01*
X179156286Y103575500D01*
X179156287Y103575500D01*
X179366243Y103542246D01*
X179568412Y103476557D01*
X179757816Y103380051D01*
X179844138Y103317335D01*
X179929786Y103255109D01*
X179929788Y103255106D01*
X179929792Y103255104D01*
X180080104Y103104792D01*
X180080106Y103104788D01*
X180080109Y103104786D01*
X180205048Y102932820D01*
X180205050Y102932817D01*
X180205051Y102932816D01*
X180301557Y102743412D01*
X180367246Y102541243D01*
X180400500Y102331287D01*
X180400500Y102118713D01*
X180367246Y101908757D01*
X180301557Y101706588D01*
X180205051Y101517184D01*
X180205049Y101517181D01*
X180205048Y101517179D01*
X180080109Y101345213D01*
X179929786Y101194890D01*
X179757820Y101069951D01*
X179568414Y100973444D01*
X179568413Y100973443D01*
X179568412Y100973443D01*
X179366243Y100907754D01*
X179366241Y100907753D01*
X179366240Y100907753D01*
X179204957Y100882208D01*
X179156287Y100874500D01*
X178943713Y100874500D01*
X178895042Y100882208D01*
X178733760Y100907753D01*
X178531585Y100973444D01*
X178342179Y101069951D01*
X178170213Y101194890D01*
X178019890Y101345213D01*
X177894949Y101517182D01*
X177890202Y101526499D01*
X177842227Y101577293D01*
X177774405Y101594087D01*
X177708271Y101571548D01*
X177669234Y101526495D01*
X177664626Y101517452D01*
X177625270Y101463282D01*
X177625269Y101463282D01*
X176992962Y102095590D01*
X176975925Y102032007D01*
X176910099Y101917993D01*
X176817007Y101824901D01*
X176702993Y101759075D01*
X176639409Y101742037D01*
X177271716Y101109728D01*
X177217550Y101070375D01*
X177028217Y100973904D01*
X176826129Y100908242D01*
X176616246Y100875000D01*
X176403754Y100875000D01*
X176193872Y100908242D01*
X176193869Y100908242D01*
X175991782Y100973904D01*
X175802439Y101070380D01*
X175748282Y101109727D01*
X175748282Y101109728D01*
X176380591Y101742037D01*
X176317007Y101759075D01*
X176202993Y101824901D01*
X176109901Y101917993D01*
X176044075Y102032007D01*
X176027037Y102095591D01*
X175356818Y101425372D01*
X175323333Y101364049D01*
X175323330Y101364036D01*
X175320499Y101351015D01*
X175320499Y101327128D01*
X175314091Y101267517D01*
X175285926Y101192002D01*
X175263798Y101132673D01*
X175263793Y101132664D01*
X175177547Y101017455D01*
X175177544Y101017452D01*
X175062335Y100931206D01*
X175062328Y100931202D01*
X174927482Y100880908D01*
X174927483Y100880908D01*
X174867883Y100874501D01*
X174867881Y100874500D01*
X174867873Y100874500D01*
X174867864Y100874500D01*
X173072129Y100874500D01*
X173072123Y100874501D01*
X173012516Y100880908D01*
X172877671Y100931202D01*
X172877664Y100931206D01*
X172762455Y101017452D01*
X172762452Y101017455D01*
X172676206Y101132664D01*
X172676202Y101132671D01*
X172625908Y101267517D01*
X172619501Y101327116D01*
X172619500Y101327135D01*
X159869739Y101327135D01*
X159872045Y100274226D01*
X159891877Y100207232D01*
X159944781Y100161593D01*
X159996045Y100150500D01*
X183675581Y100170185D01*
G37*
G36*
X183675581Y100170185D02*
X183721336Y100222989D01*
X183731280Y100292147D01*
X183702255Y100355703D01*
X183677433Y100377602D01*
X183544092Y100466697D01*
X183544088Y100466700D01*
X183411700Y100599088D01*
X183411697Y100599092D01*
X183307681Y100754762D01*
X183307676Y100754771D01*
X183236027Y100927748D01*
X183236025Y100927756D01*
X183199500Y101111379D01*
X183199500Y101998620D01*
X183236025Y102182243D01*
X183236027Y102182251D01*
X183307676Y102355228D01*
X183307681Y102355237D01*
X183411697Y102510907D01*
X183411700Y102510911D01*
X183531677Y102630888D01*
X183565162Y102692211D01*
X183560178Y102761903D01*
X183518306Y102817836D01*
X183483001Y102836275D01*
X183380666Y102870186D01*
X183380663Y102870187D01*
X183231342Y102962289D01*
X183107289Y103086342D01*
X183015187Y103235663D01*
X183015186Y103235666D01*
X182960001Y103402203D01*
X182960001Y103402204D01*
X182960000Y103402204D01*
X182949500Y103504983D01*
X182949500Y104505001D01*
X182949501Y104505019D01*
X182960000Y104607796D01*
X182960001Y104607799D01*
X183015185Y104774331D01*
X183015186Y104774334D01*
X183107288Y104923656D01*
X183231344Y105047712D01*
X183380666Y105139814D01*
X183547203Y105194999D01*
X183649991Y105205500D01*
X183920902Y105205499D01*
X183987940Y105225183D01*
X184033695Y105277987D01*
X184043639Y105347146D01*
X184014614Y105410701D01*
X184008582Y105417180D01*
X178212582Y111213181D01*
X178151259Y111246666D01*
X178124901Y111249500D01*
X176199998Y111249500D01*
X176199981Y111249501D01*
X176097203Y111260000D01*
X176097200Y111260001D01*
X175930668Y111315185D01*
X175930663Y111315187D01*
X175781342Y111407289D01*
X175738381Y111450251D01*
X175677058Y111483736D01*
X175607366Y111478752D01*
X175551433Y111436880D01*
X175527016Y111371416D01*
X175526700Y111362570D01*
X175526700Y106648896D01*
X175546385Y106581857D01*
X175563014Y106561220D01*
X178565478Y103558755D01*
X178626799Y103525272D01*
X178691473Y103528506D01*
X178733757Y103542246D01*
X178943713Y103575500D01*
X178943714Y103575500D01*
X179156286Y103575500D01*
X179156287Y103575500D01*
X179366243Y103542246D01*
X179568412Y103476557D01*
X179757816Y103380051D01*
X179844138Y103317335D01*
X179929786Y103255109D01*
X179929788Y103255106D01*
X179929792Y103255104D01*
X180080104Y103104792D01*
X180080106Y103104788D01*
X180080109Y103104786D01*
X180205048Y102932820D01*
X180205047Y102932820D01*
X180205051Y102932816D01*
X180301557Y102743412D01*
X180367246Y102541243D01*
X180400500Y102331287D01*
X180400500Y102118713D01*
X180367246Y101908757D01*
X180301557Y101706588D01*
X180205051Y101517184D01*
X180205049Y101517181D01*
X180205048Y101517179D01*
X180080109Y101345213D01*
X179929786Y101194890D01*
X179757820Y101069951D01*
X179568414Y100973444D01*
X179568413Y100973443D01*
X179568412Y100973443D01*
X179366243Y100907754D01*
X179366241Y100907753D01*
X179366240Y100907753D01*
X179204957Y100882208D01*
X179156287Y100874500D01*
X178943713Y100874500D01*
X178895042Y100882208D01*
X178733760Y100907753D01*
X178531585Y100973444D01*
X178342179Y101069951D01*
X178170213Y101194890D01*
X178019890Y101345213D01*
X177894949Y101517182D01*
X177890202Y101526499D01*
X177842227Y101577293D01*
X177774405Y101594087D01*
X177708271Y101571548D01*
X177669234Y101526495D01*
X177664626Y101517452D01*
X177625270Y101463282D01*
X177625269Y101463282D01*
X176992962Y102095590D01*
X176975925Y102032007D01*
X176910099Y101917993D01*
X176817007Y101824901D01*
X176702993Y101759075D01*
X176639409Y101742037D01*
X177271716Y101109728D01*
X177217550Y101070375D01*
X177028217Y100973904D01*
X176826129Y100908242D01*
X176616246Y100875000D01*
X176403754Y100875000D01*
X176193872Y100908242D01*
X176193869Y100908242D01*
X175991782Y100973904D01*
X175802439Y101070380D01*
X175748282Y101109727D01*
X175748282Y101109728D01*
X176380591Y101742037D01*
X176317007Y101759075D01*
X176202993Y101824901D01*
X176109901Y101917993D01*
X176044075Y102032007D01*
X176027037Y102095591D01*
X175356818Y101425372D01*
X175323333Y101364049D01*
X175323330Y101364036D01*
X175320499Y101351015D01*
X175320499Y101327128D01*
X175314091Y101267517D01*
X175285926Y101192002D01*
X175263798Y101132673D01*
X175263793Y101132664D01*
X175177547Y101017455D01*
X175177544Y101017452D01*
X175062335Y100931206D01*
X175062328Y100931202D01*
X174927482Y100880908D01*
X174927483Y100880908D01*
X174867883Y100874501D01*
X174867881Y100874500D01*
X174867873Y100874500D01*
X174867864Y100874500D01*
X173072129Y100874500D01*
X173072123Y100874501D01*
X173012516Y100880908D01*
X172877671Y100931202D01*
X172877664Y100931206D01*
X172762455Y101017452D01*
X172762452Y101017455D01*
X172676206Y101132664D01*
X172676202Y101132671D01*
X172625908Y101267517D01*
X172619501Y101327116D01*
X172619500Y101327135D01*
X172619500Y103122870D01*
X172619501Y103122876D01*
X172625908Y103182483D01*
X172676202Y103317328D01*
X172676206Y103317335D01*
X172723154Y103380048D01*
X172762454Y103432546D01*
X172785338Y103449677D01*
X172827208Y103505608D01*
X172832192Y103575299D01*
X172798708Y103636623D01*
X172798707Y103636623D01*
X172271249Y104164081D01*
X172222012Y104237771D01*
X172189121Y104286996D01*
X172189114Y104287008D01*
X172132542Y104423586D01*
X172132540Y104423592D01*
X172103700Y104568579D01*
X172103700Y111168307D01*
X172084015Y111235346D01*
X172031211Y111281101D01*
X172018709Y111286011D01*
X171930669Y111315185D01*
X171930666Y111315186D01*
X171930663Y111315187D01*
X171853844Y111362570D01*
X171781344Y111407288D01*
X171781342Y111407289D01*
X171781340Y111407291D01*
X171760047Y111428584D01*
X171698723Y111462068D01*
X171648176Y111462518D01*
X171603846Y111453700D01*
X171603842Y111453700D01*
X171446158Y111453700D01*
X171446155Y111453700D01*
X171291510Y111484461D01*
X171291498Y111484464D01*
X171145827Y111544802D01*
X171145814Y111544809D01*
X171014711Y111632410D01*
X171014707Y111632413D01*
X170903213Y111743907D01*
X170903210Y111743911D01*
X170815609Y111875014D01*
X170815603Y111875026D01*
X170805806Y111898678D01*
X170778927Y111938904D01*
X170467045Y112250786D01*
X170437837Y112294503D01*
X170437835Y112294506D01*
X170384919Y112373698D01*
X170384912Y112373711D01*
X170328343Y112510282D01*
X170328340Y112510292D01*
X170299500Y112655279D01*
X170299500Y112655282D01*
X170299500Y123623918D01*
X170299500Y123623920D01*
X170299499Y123623920D01*
X170328340Y123768907D01*
X170328343Y123768917D01*
X170384913Y123905490D01*
X170384916Y123905495D01*
X170398591Y123925960D01*
X170398592Y123925965D01*
X170398594Y123925965D01*
X170452028Y124005937D01*
X170467051Y124028420D01*
X170467052Y124028421D01*
X170663181Y124224549D01*
X170696666Y124285872D01*
X170699500Y124312230D01*
X170699500Y125100001D01*
X170699501Y125100019D01*
X170710000Y125202796D01*
X170710001Y125202799D01*
X170765185Y125369331D01*
X170765187Y125369336D01*
X170783329Y125398749D01*
X170857288Y125518656D01*
X170981344Y125642712D01*
X171130666Y125734814D01*
X171297203Y125789999D01*
X171399991Y125800500D01*
X172600008Y125800499D01*
X172702797Y125789999D01*
X172869334Y125734814D01*
X173018656Y125642712D01*
X173142712Y125518656D01*
X173234814Y125369334D01*
X173289999Y125202797D01*
X173300500Y125100009D01*
X173300499Y125064351D01*
X173320182Y124997315D01*
X173372985Y124951559D01*
X173442143Y124941614D01*
X173505699Y124970637D01*
X173512180Y124976671D01*
X177974883Y129439374D01*
X177974893Y129439385D01*
X177979223Y129443715D01*
X177979224Y129443716D01*
X178091028Y129555520D01*
X178171039Y129601714D01*
X178171040Y129601715D01*
X178199443Y129618114D01*
X178247658Y129668681D01*
X178260880Y129737289D01*
X178234912Y129802153D01*
X178177997Y129842681D01*
X178137442Y129849500D01*
X159924000Y129849500D01*
X159856961Y129829815D01*
X159811206Y129777011D01*
X159800000Y129725500D01*
X159800000Y124743713D01*
X162027000Y124743713D01*
X162027000Y125256287D01*
X162027595Y125260042D01*
X162052998Y125420435D01*
X162060254Y125466243D01*
X162119188Y125647623D01*
X162125944Y125668414D01*
X162222451Y125857820D01*
X162347390Y126029786D01*
X162497713Y126180109D01*
X162669679Y126305048D01*
X162669681Y126305049D01*
X162669684Y126305051D01*
X162859088Y126401557D01*
X163061257Y126467246D01*
X163271213Y126500500D01*
X163271214Y126500500D01*
X163483786Y126500500D01*
X163483787Y126500500D01*
X163693743Y126467246D01*
X163895912Y126401557D01*
X164085316Y126305051D01*
X164107289Y126289086D01*
X164257286Y126180109D01*
X164257288Y126180106D01*
X164257292Y126180104D01*
X164407604Y126029792D01*
X164407606Y126029788D01*
X164407609Y126029786D01*
X164532548Y125857820D01*
X164532547Y125857820D01*
X164532551Y125857816D01*
X164629057Y125668412D01*
X164694746Y125466243D01*
X164728000Y125256287D01*
X164728000Y124743713D01*
X164694746Y124533757D01*
X164629057Y124331588D01*
X164532551Y124142184D01*
X164532549Y124142181D01*
X164532548Y124142179D01*
X164407609Y123970213D01*
X164257286Y123819890D01*
X164085320Y123694951D01*
X163895914Y123598444D01*
X163895913Y123598443D01*
X163895912Y123598443D01*
X163693743Y123532754D01*
X163693741Y123532753D01*
X163693740Y123532753D01*
X163532457Y123507208D01*
X163483787Y123499500D01*
X163271213Y123499500D01*
X163222542Y123507208D01*
X163061260Y123532753D01*
X162859085Y123598444D01*
X162669679Y123694951D01*
X162497713Y123819890D01*
X162347390Y123970213D01*
X162222451Y124142179D01*
X162125944Y124331585D01*
X162060253Y124533760D01*
X162049395Y124602317D01*
X162027000Y124743713D01*
X159800000Y124743713D01*
X159800000Y106743753D01*
X162027500Y106743753D01*
X162027500Y106750000D01*
X162944488Y106750000D01*
X162911575Y106807007D01*
X162877500Y106934174D01*
X162877500Y107065826D01*
X162911575Y107192993D01*
X162944488Y107250000D01*
X162027500Y107250000D01*
X162027500Y107256246D01*
X162060742Y107466127D01*
X162060742Y107466130D01*
X162126404Y107668217D01*
X162222879Y107857557D01*
X162347772Y108029459D01*
X162347776Y108029464D01*
X162498035Y108179723D01*
X162498040Y108179727D01*
X162669942Y108304620D01*
X162859282Y108401095D01*
X163061371Y108466757D01*
X163127500Y108477231D01*
X163127500Y107433012D01*
X163184507Y107465925D01*
X163311674Y107500000D01*
X163443326Y107500000D01*
X163570493Y107465925D01*
X163627500Y107433012D01*
X163627500Y108477230D01*
X163693626Y108466757D01*
X163693629Y108466757D01*
X163895717Y108401095D01*
X164085057Y108304620D01*
X164256959Y108179727D01*
X164256964Y108179723D01*
X164407223Y108029464D01*
X164407227Y108029459D01*
X164532120Y107857557D01*
X164628595Y107668217D01*
X164694257Y107466130D01*
X164694257Y107466127D01*
X164727500Y107256246D01*
X164727500Y107250000D01*
X163810512Y107250000D01*
X163843425Y107192993D01*
X163877500Y107065826D01*
X163877500Y106934174D01*
X163843425Y106807007D01*
X163810512Y106750000D01*
X164727500Y106750000D01*
X164727500Y106743753D01*
X164694257Y106533872D01*
X164694257Y106533869D01*
X164628595Y106331782D01*
X164532120Y106142442D01*
X164407227Y105970540D01*
X164407223Y105970535D01*
X164256964Y105820276D01*
X164256959Y105820272D01*
X164085057Y105695379D01*
X163895715Y105598903D01*
X163693624Y105533241D01*
X163627500Y105522768D01*
X163627500Y106566988D01*
X163570493Y106534075D01*
X163443326Y106500000D01*
X163311674Y106500000D01*
X163184507Y106534075D01*
X163127500Y106566988D01*
X163127500Y105522768D01*
X163127499Y105522768D01*
X163061375Y105533241D01*
X162859284Y105598903D01*
X162669942Y105695379D01*
X162498040Y105820272D01*
X162498035Y105820276D01*
X162347776Y105970535D01*
X162347772Y105970540D01*
X162222879Y106142442D01*
X162126404Y106331782D01*
X162060742Y106533869D01*
X162060742Y106533872D01*
X162027500Y106743753D01*
X159800000Y106743753D01*
X159800000Y100274500D01*
X159819685Y100207461D01*
X159872489Y100161706D01*
X159924000Y100150500D01*
X183675581Y100170185D01*
G37*
D11*
X177414700Y122700500D02*
X175673100Y122700500D01*
D11*
X173025000Y118100000D02*
X173400000Y118100000D01*
D11*
X175673100Y122700500D02*
X173986300Y121013700D01*
D11*
X177414700Y122814700D02*
X177414700Y122700500D01*
D12*
X198675200Y125981700D02*
X198675200Y126146000D01*
D11*
X177414700Y122700500D02*
X183072400Y117042800D01*
D11*
X173400000Y118100000D02*
X173986300Y118686300D01*
D11*
X192350700Y125822000D02*
X193266100Y125822000D01*
D12*
X198675200Y126146000D02*
X199275000Y126745800D01*
D11*
X183072400Y117042800D02*
X183571500Y117042800D01*
D11*
X182200000Y116170400D02*
X183072400Y117042800D01*
D11*
X173986300Y121013700D02*
X173025000Y121975000D01*
D11*
X179300000Y124700000D02*
X177414700Y122814700D01*
D12*
X199275000Y127885000D02*
X199275000Y126745800D01*
D11*
X173986300Y118686300D02*
X173986300Y121013700D01*
D11*
X187019400Y120490700D02*
X192350700Y125822000D01*
D11*
X183571500Y117042800D02*
X187019400Y120490700D01*
D11*
X182200000Y111500000D02*
X182200000Y116170400D01*
D11*
X195680800Y125981700D02*
X198675200Y125981700D01*
D11*
X172854200Y112254200D02*
X172854200Y104642500D01*
D11*
X172854200Y104642500D02*
X173970000Y103526700D01*
D11*
X171525000Y112254200D02*
X172854200Y112254200D01*
D11*
X172854200Y112254200D02*
X173250000Y112650000D01*
D11*
X171525000Y112254200D02*
X171050000Y112729200D01*
D11*
X171050000Y112729200D02*
X171050000Y123550000D01*
D11*
X171050000Y123550000D02*
X172000000Y124500000D01*
D11*
X173970000Y102225000D02*
X173970000Y103526700D01*
D13*
X104202900Y124802900D02*
X103500000Y124100000D01*
D13*
X105197100Y124802900D02*
X104202900Y124802900D01*
D13*
X105197100Y128197100D02*
X105197100Y127202900D01*
D13*
X102797100Y128197100D02*
X101802900Y128197100D01*
D13*
X101802900Y127202900D02*
X101100000Y126500000D01*
D13*
X102391400Y124803000D02*
X102391400Y125208600D01*
D13*
X105900000Y126500000D02*
X105197100Y125797100D01*
D13*
X101802900Y124802900D02*
X102391300Y124802900D01*
D13*
X101802900Y128197100D02*
X101802900Y127202900D01*
D13*
X105197100Y125797100D02*
X105197100Y124802900D01*
D13*
X105197100Y127202900D02*
X105900000Y126500000D01*
D13*
X102391400Y125208600D02*
X101100000Y126500000D01*
D13*
X102391300Y124802900D02*
X102391400Y124803000D01*
D13*
X103500000Y128900000D02*
X102797100Y128197100D01*
D14*
X178459744Y129075000D02*
X196275000Y129075000D01*
D14*
X172784744Y123400000D02*
X178459744Y129075000D01*
D14*
X174926200Y113408544D02*
X174334744Y114000000D01*
D14*
X174334744Y114000000D02*
X171700000Y114000000D01*
D14*
X172782200Y123400000D02*
X172784744Y123400000D01*
D14*
X171600000Y114100000D02*
X171600000Y122217800D01*
D14*
X196275000Y129075000D02*
X196275000Y127885000D01*
D14*
X179050000Y102225000D02*
X174926200Y106348800D01*
D14*
X171600000Y122217800D02*
X172782200Y123400000D01*
D14*
X174926200Y106348800D02*
X174926200Y113408544D01*
D14*
X171700000Y114000000D02*
X171600000Y114100000D01*
D14*
X181025000Y111106200D02*
X181636100Y110495100D01*
D14*
X186839500Y123236200D02*
X188775000Y125171700D01*
D14*
X189102100Y121053400D02*
X189102100Y116577100D01*
D14*
X183020100Y110495100D02*
X184025000Y111500000D01*
D14*
X188775000Y125171700D02*
X188775000Y127885000D01*
D14*
X189102100Y116577100D02*
X184025000Y111500000D01*
D14*
X181636100Y110495100D02*
X183020100Y110495100D01*
D14*
X181025000Y115125000D02*
X181025000Y111106200D01*
D14*
X179262500Y126812500D02*
X181125000Y124950000D01*
D14*
X181125000Y122631400D02*
X188294600Y122631400D01*
D14*
X197775000Y127885000D02*
X197775000Y126833300D01*
D14*
X181125000Y124950000D02*
X181125000Y124700000D01*
D14*
X192496500Y126833300D02*
X197775000Y126833300D01*
D14*
X181125000Y121225000D02*
X181125000Y122631400D01*
D14*
X188294600Y122631400D02*
X192496500Y126833300D01*
D14*
X181125000Y122631400D02*
X181125000Y124700000D01*
D14*
X179262500Y127700000D02*
X179262500Y126812500D01*
D14*
X181025000Y121125000D02*
X181125000Y121225000D01*
D15*
X187701000Y107425000D02*
X186900000Y106624000D01*
D15*
X191682000Y107425000D02*
X187701000Y107425000D01*
D15*
X186900000Y106624000D02*
X186900000Y105238000D01*
D15*
X192300000Y108043000D02*
X191682000Y107425000D01*
D15*
X191775000Y110385000D02*
X191775000Y109260000D01*
D15*
X191775000Y109260000D02*
X192300000Y108735000D01*
D15*
X186800000Y105138000D02*
X186800000Y104125000D01*
D15*
X192300000Y108735000D02*
X192300000Y108043000D01*
D15*
X186900000Y105238000D02*
X186800000Y105138000D01*
D15*
X193275000Y109260000D02*
X192750000Y108735000D01*
D15*
X193275000Y110385000D02*
X193275000Y109260000D01*
D15*
X187450000Y105138000D02*
X187450000Y104125000D01*
D15*
X187350000Y105238000D02*
X187450000Y105138000D01*
D15*
X187350000Y106438000D02*
X187350000Y105238000D01*
D15*
X191868000Y106975000D02*
X187887000Y106975000D01*
D15*
X192750000Y107857000D02*
X191868000Y106975000D01*
D15*
X187887000Y106975000D02*
X187350000Y106438000D01*
D15*
X192750000Y108735000D02*
X192750000Y107857000D01*
D14*
X186150000Y104125000D02*
X177625000Y112650000D01*
D14*
X177625000Y112650000D02*
X177250000Y112650000D01*
D16*
X187019400Y120490700D03*
D16*
X193266100Y125822000D03*
D16*
X195680800Y125981700D03*
D16*
X178800000Y106675000D03*
D16*
X173025000Y120075000D03*
D16*
X173775000Y128375000D03*
D16*
X184300000Y125150000D03*
D16*
X170200000Y101725000D03*
D16*
X175975000Y120500000D03*
D16*
X177650000Y115000000D03*
D16*
X168825000Y121900000D03*
D16*
X184925000Y108400000D03*
D16*
X183700000Y121275000D03*
D16*
X183700000Y112950000D03*
D16*
X171525000Y112254200D03*
D16*
X186839500Y123236200D03*
D16*
X189102100Y121053400D03*
D17*
X182200000Y111500000D03*
D17*
X184025000Y111500000D03*
D18*
X181025000Y121125000D03*
D18*
X185225000Y121125000D03*
D19*
X194575000Y118995000D03*
D19*
X193475000Y118995000D03*
D19*
X192375000Y118995000D03*
D19*
X194575000Y120095000D03*
D19*
X193475000Y120095000D03*
D19*
X192375000Y120095000D03*
D19*
X194575000Y121195000D03*
D19*
X193475000Y121195000D03*
D19*
X192375000Y121195000D03*
D20*
X187275000Y110385000D03*
D20*
X188775000Y110385000D03*
D20*
X190275000Y110385000D03*
D20*
X191775000Y110385000D03*
D20*
X193275000Y110385000D03*
D20*
X194775000Y110385000D03*
D20*
X196275000Y110385000D03*
D20*
X197775000Y110385000D03*
D20*
X199275000Y110385000D03*
D20*
X199275000Y127885000D03*
D20*
X197775000Y127885000D03*
D20*
X196275000Y127885000D03*
D20*
X194775000Y127885000D03*
D20*
X193275000Y127885000D03*
D20*
X191775000Y127885000D03*
D20*
X190275000Y127885000D03*
D20*
X188775000Y127885000D03*
D20*
X187275000Y127885000D03*
D21*
X177250000Y112650000D03*
D21*
X173250000Y112650000D03*
D22*
X173025000Y120075000D03*
D22*
X173025000Y121975000D03*
D17*
X179300000Y124700000D03*
D17*
X181125000Y124700000D03*
D18*
X181025000Y115125000D03*
D18*
X185225000Y115125000D03*
D23*
X186150000Y104230000D03*
D23*
X186800000Y104230000D03*
D23*
X187450000Y104230000D03*
D23*
X188100000Y104230000D03*
D23*
X188750000Y104230000D03*
D24*
X184250000Y104005000D03*
D25*
X186250000Y101555000D03*
D25*
X188650000Y101555000D03*
D24*
X190650000Y104005000D03*
D22*
X173025000Y116200000D03*
D22*
X173025000Y118100000D03*
D26*
X179262500Y127700000D03*
D26*
X181162500Y127700000D03*
D27*
X129777500Y113000000D03*
D27*
X129777500Y119000000D03*
D27*
X163377500Y107000000D03*
D27*
X163377500Y125000000D03*
D28*
X193600000Y104025000D03*
D28*
X194302944Y102327944D03*
D28*
X194302944Y105722056D03*
D28*
X196000000Y101625000D03*
D29*
X196000000Y104025000D03*
D28*
X196000000Y106425000D03*
D28*
X197697056Y102327944D03*
D28*
X197697056Y105722056D03*
D28*
X198400000Y104025000D03*
D30*
X122000000Y119925000D03*
D30*
X122000000Y129925000D03*
D30*
X118375000Y126925000D03*
D30*
X123375000Y126925000D03*
D31*
X105700000Y105365000D03*
D32*
X105700000Y100285000D03*
D32*
X105700000Y95205000D03*
D28*
X101100000Y126500000D03*
D28*
X101802944Y124802944D03*
D28*
X101802944Y128197056D03*
D28*
X103500000Y124100000D03*
D29*
X103500000Y126500000D03*
D28*
X103500000Y128900000D03*
D28*
X105197056Y124802944D03*
D28*
X105197056Y128197056D03*
D28*
X105900000Y126500000D03*
D33*
X172000000Y124500000D03*
D34*
X175500000Y124500000D03*
D35*
X113350000Y101900000D03*
D35*
X113350000Y79400000D03*
D36*
X173970000Y102225000D03*
D37*
X171430000Y102225000D03*
D37*
X168890000Y102225000D03*
D34*
X120825000Y101650000D03*
D34*
X119025000Y96650000D03*
M02*
