G04 Gerber RS-274X Generated for PCBWay / JLCPCB*
%FSLAX46Y46*%
%MOMM*%
%LPD*%
%ADD10O,1.1250X1.5000*%
%ADD11O,0.9000X2.1000*%
%ADD12R,0.8000X0.8000*%
%ADD13R,1.6000X1.0000*%
%ADD14O,2.6000X1.9000*%
%ADD15O,1.5500X1.1000*%
%ADD16O,0.5000X1.4500*%
%ADD17O,1.7000X1.5000*%
%ADD18O,2.0000X2.0000*%
%ADD19O,1.1000X1.5500*%
%ADD20O,1.8000X2.1000*%
%ADD21C,0.9000*%
%ADD22C,6.5000*%
%ADD23C,2.1000*%
%ADD24O,2.7000X2.7000*%
%ADD25C,2.7000*%
%ADD26O,1.7000X1.7000*%
%ADD27C,1.7000*%
%ADD28C,3.1000*%
%ADD29R,1.8000X1.8000*%
%ADD30C,1.8000*%
D10*
X182200000Y111500000D03*
D10*
X184025000Y111500000D03*
D11*
X181025000Y121125000D03*
D11*
X185225000Y121125000D03*
D12*
X194575000Y118995000D03*
D12*
X193475000Y118995000D03*
D12*
X192375000Y118995000D03*
D12*
X194575000Y120095000D03*
D12*
X193475000Y120095000D03*
D12*
X192375000Y120095000D03*
D12*
X194575000Y121195000D03*
D12*
X193475000Y121195000D03*
D12*
X192375000Y121195000D03*
D13*
X187275000Y110385000D03*
D13*
X188775000Y110385000D03*
D13*
X190275000Y110385000D03*
D13*
X191775000Y110385000D03*
D13*
X193275000Y110385000D03*
D13*
X194775000Y110385000D03*
D13*
X196275000Y110385000D03*
D13*
X197775000Y110385000D03*
D13*
X199275000Y110385000D03*
D13*
X199275000Y127885000D03*
D13*
X197775000Y127885000D03*
D13*
X196275000Y127885000D03*
D13*
X194775000Y127885000D03*
D13*
X193275000Y127885000D03*
D13*
X191775000Y127885000D03*
D13*
X190275000Y127885000D03*
D13*
X188775000Y127885000D03*
D13*
X187275000Y127885000D03*
D14*
X177250000Y112650000D03*
D14*
X173250000Y112650000D03*
D15*
X173025000Y120075000D03*
D15*
X173025000Y121975000D03*
D10*
X179300000Y124700000D03*
D10*
X181125000Y124700000D03*
D11*
X181025000Y115125000D03*
D11*
X185225000Y115125000D03*
D16*
X186150000Y104230000D03*
D16*
X186800000Y104230000D03*
D16*
X187450000Y104230000D03*
D16*
X188100000Y104230000D03*
D16*
X188750000Y104230000D03*
D17*
X184250000Y104005000D03*
D18*
X186250000Y101555000D03*
D18*
X188650000Y101555000D03*
D17*
X190650000Y104005000D03*
D15*
X173025000Y116200000D03*
D15*
X173025000Y118100000D03*
D19*
X179262500Y127700000D03*
D19*
X181162500Y127700000D03*
D20*
X129777500Y113000000D03*
D20*
X129777500Y119000000D03*
D20*
X163377500Y107000000D03*
D20*
X163377500Y125000000D03*
D21*
X193600000Y104025000D03*
D21*
X194302944Y102327944D03*
D21*
X194302944Y105722056D03*
D21*
X196000000Y101625000D03*
D22*
X196000000Y104025000D03*
D21*
X196000000Y106425000D03*
D21*
X197697056Y102327944D03*
D21*
X197697056Y105722056D03*
D21*
X198400000Y104025000D03*
D23*
X122000000Y119925000D03*
D23*
X122000000Y129925000D03*
D23*
X118375000Y126925000D03*
D23*
X123375000Y126925000D03*
D24*
X105700000Y105365000D03*
D25*
X105700000Y100285000D03*
D25*
X105700000Y95205000D03*
D21*
X101100000Y126500000D03*
D21*
X101802944Y124802944D03*
D21*
X101802944Y128197056D03*
D21*
X103500000Y124100000D03*
D22*
X103500000Y126500000D03*
D21*
X103500000Y128900000D03*
D21*
X105197056Y124802944D03*
D21*
X105197056Y128197056D03*
D21*
X105900000Y126500000D03*
D26*
X172000000Y124500000D03*
D27*
X175500000Y124500000D03*
D28*
X113350000Y101900000D03*
D28*
X113350000Y79400000D03*
D29*
X173970000Y102225000D03*
D30*
X171430000Y102225000D03*
D30*
X168890000Y102225000D03*
D27*
X120825000Y101650000D03*
D27*
X119025000Y96650000D03*
M02*
