%TF.GenerationSoftware,KiCad,Pcbnew,10.0.6*%
%TF.CreationDate,2026-09-16T13:07:35+05:30*%
%TF.ProjectId,Binary_Counter_8Bit,42696e61-7279-45f4-936f-756e7465725f,rev?*%
%TF.SameCoordinates,Original*%
%TF.FileFunction,Copper,L1,Top*%
%TF.FilePolarity,Positive*%
%FSLAX46Y46*%
G04 Gerber Fmt 4.6, Leading zero omitted, Abs format (unit mm)*
G04 Created by KiCad (PCBNEW 10.0.6) date 2026-09-16 13:07:35*
%MOMM*%
%LPD*%
G01*
G04 APERTURE LIST*
G04 Aperture macros list*
%AMRoundRect*
0 Rectangle with rounded corners*
0 $1 Rounding radius*
0 $2 $3 $4 $5 $6 $7 $8 $9 X,Y pos of 4 corners*
0 Add a 4 corners polygon primitive as box body*
4,1,4,$2,$3,$4,$5,$6,$7,$8,$9,$2,$3,0*
0 Add four circle primitives for the rounded corners*
1,1,$1+$1,$2,$3*
1,1,$1+$1,$4,$5*
1,1,$1+$1,$6,$7*
1,1,$1+$1,$8,$9*
0 Add four rect primitives between the rounded corners*
20,1,$1+$1,$2,$3,$4,$5,0*
20,1,$1+$1,$4,$5,$6,$7,0*
20,1,$1+$1,$6,$7,$8,$9,0*
20,1,$1+$1,$8,$9,$2,$3,0*%
G04 Aperture macros list end*
%TA.AperFunction,SMDPad,CuDef*%
%ADD10RoundRect,0.112500X-0.112500X-0.577500X0.112500X-0.577500X0.112500X0.577500X-0.112500X0.577500X0*%
%TD*%
%TA.AperFunction,SMDPad,CuDef*%
%ADD11RoundRect,0.250000X-0.575000X-0.400000X0.575000X-0.400000X0.575000X0.400000X-0.575000X0.400000X0*%
%TD*%
%TA.AperFunction,SMDPad,CuDef*%
%ADD12RoundRect,0.250000X-0.462500X-0.525000X0.462500X-0.525000X0.462500X0.525000X-0.462500X0.525000X0*%
%TD*%
%TA.AperFunction,SMDPad,CuDef*%
%ADD13RoundRect,0.250000X-0.650000X-0.700000X0.650000X-0.700000X0.650000X0.700000X-0.650000X0.700000X0*%
%TD*%
%TA.AperFunction,SMDPad,CuDef*%
%ADD14RoundRect,0.250000X-0.250000X-0.700000X0.250000X-0.700000X0.250000X0.700000X-0.250000X0.700000X0*%
%TD*%
%TA.AperFunction,SMDPad,CuDef*%
%ADD15RoundRect,0.250000X-0.262500X-0.450000X0.262500X-0.450000X0.262500X0.450000X-0.262500X0.450000X0*%
%TD*%
%TA.AperFunction,SMDPad,CuDef*%
%ADD16RoundRect,0.250000X-1.000000X-0.650000X1.000000X-0.650000X1.000000X0.650000X-1.000000X0.650000X0*%
%TD*%
%TA.AperFunction,ComponentPad*%
%ADD17C,1.440000*%
%TD*%
%TA.AperFunction,SMDPad,CuDef*%
%ADD18RoundRect,0.250000X0.650000X-0.325000X0.650000X0.325000X-0.650000X0.325000X-0.650000X-0.325000X0*%
%TD*%
%TA.AperFunction,SMDPad,CuDef*%
%ADD19RoundRect,0.243750X-0.243750X-0.456250X0.243750X-0.456250X0.243750X0.456250X-0.243750X0.456250X0*%
%TD*%
%TA.AperFunction,SMDPad,CuDef*%
%ADD20RoundRect,0.250000X-0.250000X-0.475000X0.250000X-0.475000X0.250000X0.475000X-0.250000X0.475000X0*%
%TD*%
%TA.AperFunction,SMDPad,CuDef*%
%ADD21RoundRect,0.250000X0.450000X-0.262500X0.450000X0.262500X-0.450000X0.262500X-0.450000X-0.262500X0*%
%TD*%
%TA.AperFunction,SMDPad,CuDef*%
%ADD22RoundRect,0.250000X-0.525000X-0.400000X0.525000X-0.400000X0.525000X0.400000X-0.525000X0.400000X0*%
%TD*%
%TA.AperFunction,SMDPad,CuDef*%
%ADD23RoundRect,0.150000X-0.825000X-0.150000X0.825000X-0.150000X0.825000X0.150000X-0.825000X0.150000X0*%
%TD*%
%TA.AperFunction,SMDPad,CuDef*%
%ADD24RoundRect,0.250000X-0.375000X-0.625000X0.375000X-0.625000X0.375000X0.625000X-0.375000X0.625000X0*%
%TD*%
%TA.AperFunction,SMDPad,CuDef*%
%ADD25RoundRect,0.250000X0.475000X-0.250000X0.475000X0.250000X-0.475000X0.250000X-0.475000X-0.250000X0*%
%TD*%
%TA.AperFunction,Conductor*%
%ADD26C,0.500000*%
%TD*%
%TA.AperFunction,Conductor*%
%ADD27C,0.250000*%
%TD*%
%TA.AperFunction,Conductor*%
%ADD28C,0.300000*%
%TD*%
%TA.AperFunction,Conductor*%
%ADD29C,0.400000*%
%TD*%
G04 APERTURE END LIST*
D10*
%TO.P,J1,1*%
%TO.N,VBUS*%
X103700000Y-121040000D03*
%TO.P,J1,2*%
%TO.N,N/C*%
X104350000Y-121040000D03*
%TO.P,J1,3*%
X105000000Y-121040000D03*
%TO.P,J1,4*%
X105650000Y-121040000D03*
%TO.P,J1,5*%
%TO.N,GND*%
X106300000Y-121040000D03*
D11*
%TO.P,J1,SH*%
%TO.N,N/C*%
X101625000Y-123700000D03*
D12*
X102512500Y-121125000D03*
D13*
X103850000Y-123700000D03*
D14*
X106550000Y-123700000D03*
D12*
X107487500Y-121125000D03*
D11*
X108375000Y-123700000D03*
%TD*%
D15*
%TO.P,R7,1*%
%TO.N,Q4*%
X154587500Y-124000000D03*
%TO.P,R7,2*%
%TO.N,NET_LED4*%
X156412500Y-124000000D03*
%TD*%
%TO.P,R4,1*%
%TO.N,Q1*%
X154587500Y-113500000D03*
%TO.P,R4,2*%
%TO.N,NET_LED1*%
X156412500Y-113500000D03*
%TD*%
D16*
%TO.P,D2,1*%
%TO.N,VBUS_FUSED*%
X109000000Y-129000000D03*
%TO.P,D2,2*%
%TO.N,GND*%
X113000000Y-129000000D03*
%TD*%
D17*
%TO.P,RV1,1*%
%TO.N,555_DIS*%
X138000000Y-112000000D03*
%TO.P,RV1,2*%
%TO.N,555_POT_WIPER*%
X140540000Y-109460000D03*
%TO.P,RV1,3*%
X138000000Y-106920000D03*
%TD*%
D18*
%TO.P,C3,1*%
%TO.N,555_TIMING*%
X125000000Y-125475000D03*
%TO.P,C3,2*%
%TO.N,GND*%
X125000000Y-122525000D03*
%TD*%
D19*
%TO.P,D5,1*%
%TO.N,GND*%
X160062500Y-117000000D03*
%TO.P,D5,2*%
%TO.N,NET_LED2*%
X161937500Y-117000000D03*
%TD*%
D18*
%TO.P,C1,1*%
%TO.N,+5V*%
X116500000Y-130475000D03*
%TO.P,C1,2*%
%TO.N,GND*%
X116500000Y-127525000D03*
%TD*%
D20*
%TO.P,C4,1*%
%TO.N,555_CV*%
X127050000Y-120000000D03*
%TO.P,C4,2*%
%TO.N,GND*%
X128950000Y-120000000D03*
%TD*%
D21*
%TO.P,R1,1*%
%TO.N,+5V*%
X123000000Y-108912500D03*
%TO.P,R1,2*%
%TO.N,555_DIS*%
X123000000Y-107087500D03*
%TD*%
D22*
%TO.P,SW_RST,1*%
%TO.N,RST_N*%
X124020000Y-131750000D03*
X131980000Y-131750000D03*
%TO.P,SW_RST,2*%
%TO.N,GND*%
X124020000Y-136250000D03*
X131980000Y-136250000D03*
%TD*%
D21*
%TO.P,R2,1*%
%TO.N,555_POT_WIPER*%
X123000000Y-114912500D03*
%TO.P,R2,2*%
%TO.N,555_TIMING*%
X123000000Y-113087500D03*
%TD*%
D19*
%TO.P,D7,1*%
%TO.N,GND*%
X160062500Y-124000000D03*
%TO.P,D7,2*%
%TO.N,NET_LED4*%
X161937500Y-124000000D03*
%TD*%
D15*
%TO.P,R3,1*%
%TO.N,Q0*%
X154587500Y-110000000D03*
%TO.P,R3,2*%
%TO.N,NET_LED0*%
X156412500Y-110000000D03*
%TD*%
%TO.P,R8,1*%
%TO.N,Q5*%
X154587500Y-127500000D03*
%TO.P,R8,2*%
%TO.N,NET_LED5*%
X156412500Y-127500000D03*
%TD*%
D19*
%TO.P,D9,1*%
%TO.N,GND*%
X160062500Y-131000000D03*
%TO.P,D9,2*%
%TO.N,NET_LED6*%
X161937500Y-131000000D03*
%TD*%
%TO.P,D4,1*%
%TO.N,GND*%
X160062500Y-113500000D03*
%TO.P,D4,2*%
%TO.N,NET_LED1*%
X161937500Y-113500000D03*
%TD*%
%TO.P,D_PWR,1*%
%TO.N,GND*%
X115562500Y-106000000D03*
%TO.P,D_PWR,2*%
%TO.N,NET_PWR_LED*%
X117437500Y-106000000D03*
%TD*%
D23*
%TO.P,U1,1*%
%TO.N,GND*%
X125525000Y-112095000D03*
%TO.P,U1,2*%
%TO.N,555_TIMING*%
X125525000Y-113365000D03*
%TO.P,U1,3*%
%TO.N,CLK*%
X125525000Y-114635000D03*
%TO.P,U1,4*%
%TO.N,+5V*%
X125525000Y-115905000D03*
%TO.P,U1,5*%
%TO.N,555_CV*%
X130475000Y-115905000D03*
%TO.P,U1,6*%
%TO.N,555_TIMING*%
X130475000Y-114635000D03*
%TO.P,U1,7*%
%TO.N,555_DIS*%
X130475000Y-113365000D03*
%TO.P,U1,8*%
%TO.N,+5V*%
X130475000Y-112095000D03*
%TD*%
D19*
%TO.P,D8,1*%
%TO.N,GND*%
X160062500Y-127500000D03*
%TO.P,D8,2*%
%TO.N,NET_LED5*%
X161937500Y-127500000D03*
%TD*%
D24*
%TO.P,F1,1*%
%TO.N,VBUS*%
X109600000Y-116000000D03*
%TO.P,F1,2*%
%TO.N,VBUS_FUSED*%
X112400000Y-116000000D03*
%TD*%
D21*
%TO.P,R_PULL_RST,1*%
%TO.N,+5V*%
X136000000Y-134912500D03*
%TO.P,R_PULL_RST,2*%
%TO.N,RST_N*%
X136000000Y-133087500D03*
%TD*%
D19*
%TO.P,D_CLK,1*%
%TO.N,GND*%
X135062500Y-126000000D03*
%TO.P,D_CLK,2*%
%TO.N,NET_CLK_LED*%
X136937500Y-126000000D03*
%TD*%
%TO.P,D6,1*%
%TO.N,GND*%
X160062500Y-120500000D03*
%TO.P,D6,2*%
%TO.N,NET_LED3*%
X161937500Y-120500000D03*
%TD*%
D15*
%TO.P,R9,1*%
%TO.N,Q6*%
X154587500Y-131000000D03*
%TO.P,R9,2*%
%TO.N,NET_LED6*%
X156412500Y-131000000D03*
%TD*%
D25*
%TO.P,C2,1*%
%TO.N,+5V*%
X120000000Y-129950000D03*
%TO.P,C2,2*%
%TO.N,GND*%
X120000000Y-128050000D03*
%TD*%
D16*
%TO.P,D1,1*%
%TO.N,+5V*%
X115000000Y-116000000D03*
%TO.P,D1,2*%
%TO.N,VBUS_FUSED*%
X119000000Y-116000000D03*
%TD*%
D23*
%TO.P,U2,1*%
%TO.N,Q1*%
X144525000Y-118055000D03*
%TO.P,U2,2*%
%TO.N,Q2*%
X144525000Y-119325000D03*
%TO.P,U2,3*%
%TO.N,Q3*%
X144525000Y-120595000D03*
%TO.P,U2,4*%
%TO.N,Q4*%
X144525000Y-121865000D03*
%TO.P,U2,5*%
%TO.N,Q5*%
X144525000Y-123135000D03*
%TO.P,U2,6*%
%TO.N,Q6*%
X144525000Y-124405000D03*
%TO.P,U2,7*%
%TO.N,Q7*%
X144525000Y-125675000D03*
%TO.P,U2,8*%
%TO.N,GND*%
X144525000Y-126945000D03*
%TO.P,U2,9*%
%TO.N,N/C*%
X149475000Y-126945000D03*
%TO.P,U2,10*%
%TO.N,RST_N*%
X149475000Y-125675000D03*
%TO.P,U2,11*%
%TO.N,CLK*%
X149475000Y-124405000D03*
%TO.P,U2,12*%
%TO.N,GND*%
X149475000Y-123135000D03*
%TO.P,U2,13*%
%TO.N,CLK*%
X149475000Y-121865000D03*
%TO.P,U2,14*%
%TO.N,GND*%
X149475000Y-120595000D03*
%TO.P,U2,15*%
%TO.N,Q0*%
X149475000Y-119325000D03*
%TO.P,U2,16*%
%TO.N,+5V*%
X149475000Y-118055000D03*
%TD*%
D19*
%TO.P,D3,1*%
%TO.N,GND*%
X160062500Y-110000000D03*
%TO.P,D3,2*%
%TO.N,NET_LED0*%
X161937500Y-110000000D03*
%TD*%
D15*
%TO.P,R_PWR,1*%
%TO.N,+5V*%
X115587500Y-110000000D03*
%TO.P,R_PWR,2*%
%TO.N,NET_PWR_LED*%
X117412500Y-110000000D03*
%TD*%
%TO.P,R5,1*%
%TO.N,Q2*%
X154587500Y-117000000D03*
%TO.P,R5,2*%
%TO.N,NET_LED2*%
X156412500Y-117000000D03*
%TD*%
%TO.P,R6,1*%
%TO.N,Q3*%
X154587500Y-120500000D03*
%TO.P,R6,2*%
%TO.N,NET_LED3*%
X156412500Y-120500000D03*
%TD*%
D20*
%TO.P,C_DEC2,1*%
%TO.N,+5V*%
X146050000Y-112000000D03*
%TO.P,C_DEC2,2*%
%TO.N,GND*%
X147950000Y-112000000D03*
%TD*%
D19*
%TO.P,D10,1*%
%TO.N,GND*%
X160062500Y-134500000D03*
%TO.P,D10,2*%
%TO.N,NET_LED7*%
X161937500Y-134500000D03*
%TD*%
D20*
%TO.P,C_DEC1,1*%
%TO.N,+5V*%
X127050000Y-108000000D03*
%TO.P,C_DEC1,2*%
%TO.N,GND*%
X128950000Y-108000000D03*
%TD*%
D15*
%TO.P,R10,1*%
%TO.N,Q7*%
X154587500Y-134500000D03*
%TO.P,R10,2*%
%TO.N,NET_LED7*%
X156412500Y-134500000D03*
%TD*%
%TO.P,R_CLK,1*%
%TO.N,CLK*%
X135087500Y-122000000D03*
%TO.P,R_CLK,2*%
%TO.N,NET_CLK_LED*%
X136912500Y-122000000D03*
%TD*%
%TO.N,VBUS*%
D26*
X103700000Y-121040000D02*
X109600000Y-116000000D01*
%TO.N,NET_LED4*%
D27*
X156412500Y-124000000D02*
X161937500Y-124000000D01*
%TO.N,NET_LED1*%
X156412500Y-113500000D02*
X161937500Y-113500000D01*
%TO.N,VBUS_FUSED*%
D26*
X112400000Y-116000000D02*
X119000000Y-116000000D01*
%TO.N,555_DIS*%
D28*
X130475000Y-113365000D02*
X123000000Y-107087500D01*
X130475000Y-113365000D02*
X138000000Y-112000000D01*
%TO.N,555_POT_WIPER*%
X140540000Y-109460000D02*
X138000000Y-106920000D01*
%TO.N,555_TIMING*%
X125525000Y-113365000D02*
X125000000Y-125475000D01*
X123000000Y-113087500D02*
X125525000Y-113365000D01*
%TO.N,NET_LED2*%
D27*
X156412500Y-117000000D02*
X161937500Y-117000000D01*
%TO.N,+5V*%
D29*
X127050000Y-108000000D02*
X130475000Y-112095000D01*
D26*
X116500000Y-130475000D02*
X120000000Y-129949999D01*
D29*
X123000000Y-108912500D02*
X127050000Y-108000000D01*
X115000000Y-116000000D02*
X115587500Y-110000000D01*
X146050000Y-112000000D02*
X149475000Y-118055000D01*
%TO.N,555_CV*%
D28*
X130475000Y-115905000D02*
X127050000Y-120000000D01*
%TO.N,RST_N*%
X124020000Y-131750000D02*
X136000000Y-133087500D01*
X136000000Y-133087500D02*
X149475000Y-125675000D01*
%TO.N,Q0*%
D27*
X149475000Y-119325000D02*
X154587500Y-110000000D01*
%TO.N,NET_LED0*%
X156412500Y-110000000D02*
X161937500Y-110000000D01*
%TO.N,NET_LED5*%
X156412500Y-127500000D02*
X161937500Y-127500000D01*
%TO.N,NET_LED6*%
X156412500Y-131000000D02*
X161937500Y-131000000D01*
%TO.N,NET_PWR_LED*%
D28*
X117412500Y-110000000D02*
X117437500Y-106000000D01*
%TO.N,CLK*%
X149475000Y-121865000D02*
X149475000Y-124405000D01*
X135087500Y-122000000D02*
X149475000Y-121865000D01*
X125525000Y-114635000D02*
X135087500Y-122000000D01*
%TO.N,NET_CLK_LED*%
X136912500Y-122000000D02*
X136937500Y-126000000D01*
%TO.N,NET_LED3*%
D27*
X156412500Y-120500000D02*
X161937500Y-120500000D01*
%TO.N,NET_LED7*%
X156412500Y-134500000D02*
X161937500Y-134500000D01*
%TD*%
M02*
