%TF.GenerationSoftware,KiCad,Pcbnew,10.0.6*%
%TF.CreationDate,2026-09-16T13:07:36+05:30*%
%TF.ProjectId,Binary_Counter_8Bit,42696e61-7279-45f4-936f-756e7465725f,rev?*%
%TF.SameCoordinates,Original*%
%TF.FileFunction,AssemblyDrawing,Top*%
%FSLAX46Y46*%
G04 Gerber Fmt 4.6, Leading zero omitted, Abs format (unit mm)*
G04 Created by KiCad (PCBNEW 10.0.6) date 2026-09-16 13:07:36*
%MOMM*%
%LPD*%
G01*
G04 APERTURE LIST*
%ADD10C,0.150000*%
%ADD11C,0.158750*%
%ADD12C,0.080000*%
%ADD13C,0.120000*%
%ADD14C,0.100000*%
G04 APERTURE END LIST*
D10*
X100476190Y-126554819D02*
X100476190Y-127364342D01*
X100476190Y-127364342D02*
X100523809Y-127459580D01*
X100523809Y-127459580D02*
X100571428Y-127507200D01*
X100571428Y-127507200D02*
X100666666Y-127554819D01*
X100666666Y-127554819D02*
X100857142Y-127554819D01*
X100857142Y-127554819D02*
X100952380Y-127507200D01*
X100952380Y-127507200D02*
X100999999Y-127459580D01*
X100999999Y-127459580D02*
X101047618Y-127364342D01*
X101047618Y-127364342D02*
X101047618Y-126554819D01*
X101476190Y-127507200D02*
X101619047Y-127554819D01*
X101619047Y-127554819D02*
X101857142Y-127554819D01*
X101857142Y-127554819D02*
X101952380Y-127507200D01*
X101952380Y-127507200D02*
X101999999Y-127459580D01*
X101999999Y-127459580D02*
X102047618Y-127364342D01*
X102047618Y-127364342D02*
X102047618Y-127269104D01*
X102047618Y-127269104D02*
X101999999Y-127173866D01*
X101999999Y-127173866D02*
X101952380Y-127126247D01*
X101952380Y-127126247D02*
X101857142Y-127078628D01*
X101857142Y-127078628D02*
X101666666Y-127031009D01*
X101666666Y-127031009D02*
X101571428Y-126983390D01*
X101571428Y-126983390D02*
X101523809Y-126935771D01*
X101523809Y-126935771D02*
X101476190Y-126840533D01*
X101476190Y-126840533D02*
X101476190Y-126745295D01*
X101476190Y-126745295D02*
X101523809Y-126650057D01*
X101523809Y-126650057D02*
X101571428Y-126602438D01*
X101571428Y-126602438D02*
X101666666Y-126554819D01*
X101666666Y-126554819D02*
X101904761Y-126554819D01*
X101904761Y-126554819D02*
X102047618Y-126602438D01*
X102809523Y-127031009D02*
X102952380Y-127078628D01*
X102952380Y-127078628D02*
X102999999Y-127126247D01*
X102999999Y-127126247D02*
X103047618Y-127221485D01*
X103047618Y-127221485D02*
X103047618Y-127364342D01*
X103047618Y-127364342D02*
X102999999Y-127459580D01*
X102999999Y-127459580D02*
X102952380Y-127507200D01*
X102952380Y-127507200D02*
X102857142Y-127554819D01*
X102857142Y-127554819D02*
X102476190Y-127554819D01*
X102476190Y-127554819D02*
X102476190Y-126554819D01*
X102476190Y-126554819D02*
X102809523Y-126554819D01*
X102809523Y-126554819D02*
X102904761Y-126602438D01*
X102904761Y-126602438D02*
X102952380Y-126650057D01*
X102952380Y-126650057D02*
X102999999Y-126745295D01*
X102999999Y-126745295D02*
X102999999Y-126840533D01*
X102999999Y-126840533D02*
X102952380Y-126935771D01*
X102952380Y-126935771D02*
X102904761Y-126983390D01*
X102904761Y-126983390D02*
X102809523Y-127031009D01*
X102809523Y-127031009D02*
X102476190Y-127031009D01*
X103238095Y-127650057D02*
X103999999Y-127650057D01*
X104571428Y-127031009D02*
X104714285Y-127078628D01*
X104714285Y-127078628D02*
X104761904Y-127126247D01*
X104761904Y-127126247D02*
X104809523Y-127221485D01*
X104809523Y-127221485D02*
X104809523Y-127364342D01*
X104809523Y-127364342D02*
X104761904Y-127459580D01*
X104761904Y-127459580D02*
X104714285Y-127507200D01*
X104714285Y-127507200D02*
X104619047Y-127554819D01*
X104619047Y-127554819D02*
X104238095Y-127554819D01*
X104238095Y-127554819D02*
X104238095Y-126554819D01*
X104238095Y-126554819D02*
X104571428Y-126554819D01*
X104571428Y-126554819D02*
X104666666Y-126602438D01*
X104666666Y-126602438D02*
X104714285Y-126650057D01*
X104714285Y-126650057D02*
X104761904Y-126745295D01*
X104761904Y-126745295D02*
X104761904Y-126840533D01*
X104761904Y-126840533D02*
X104714285Y-126935771D01*
X104714285Y-126935771D02*
X104666666Y-126983390D01*
X104666666Y-126983390D02*
X104571428Y-127031009D01*
X104571428Y-127031009D02*
X104238095Y-127031009D01*
X105000000Y-127650057D02*
X105761904Y-127650057D01*
X106000000Y-127554819D02*
X106000000Y-126554819D01*
X106000000Y-126554819D02*
X106333333Y-127269104D01*
X106333333Y-127269104D02*
X106666666Y-126554819D01*
X106666666Y-126554819D02*
X106666666Y-127554819D01*
X107142857Y-127554819D02*
X107142857Y-126888152D01*
X107142857Y-126554819D02*
X107095238Y-126602438D01*
X107095238Y-126602438D02*
X107142857Y-126650057D01*
X107142857Y-126650057D02*
X107190476Y-126602438D01*
X107190476Y-126602438D02*
X107142857Y-126554819D01*
X107142857Y-126554819D02*
X107142857Y-126650057D01*
X108047618Y-127507200D02*
X107952380Y-127554819D01*
X107952380Y-127554819D02*
X107761904Y-127554819D01*
X107761904Y-127554819D02*
X107666666Y-127507200D01*
X107666666Y-127507200D02*
X107619047Y-127459580D01*
X107619047Y-127459580D02*
X107571428Y-127364342D01*
X107571428Y-127364342D02*
X107571428Y-127078628D01*
X107571428Y-127078628D02*
X107619047Y-126983390D01*
X107619047Y-126983390D02*
X107666666Y-126935771D01*
X107666666Y-126935771D02*
X107761904Y-126888152D01*
X107761904Y-126888152D02*
X107952380Y-126888152D01*
X107952380Y-126888152D02*
X108047618Y-126935771D01*
X108476190Y-127554819D02*
X108476190Y-126888152D01*
X108476190Y-127078628D02*
X108523809Y-126983390D01*
X108523809Y-126983390D02*
X108571428Y-126935771D01*
X108571428Y-126935771D02*
X108666666Y-126888152D01*
X108666666Y-126888152D02*
X108761904Y-126888152D01*
X109238095Y-127554819D02*
X109142857Y-127507200D01*
X109142857Y-127507200D02*
X109095238Y-127459580D01*
X109095238Y-127459580D02*
X109047619Y-127364342D01*
X109047619Y-127364342D02*
X109047619Y-127078628D01*
X109047619Y-127078628D02*
X109095238Y-126983390D01*
X109095238Y-126983390D02*
X109142857Y-126935771D01*
X109142857Y-126935771D02*
X109238095Y-126888152D01*
X109238095Y-126888152D02*
X109380952Y-126888152D01*
X109380952Y-126888152D02*
X109476190Y-126935771D01*
X109476190Y-126935771D02*
X109523809Y-126983390D01*
X109523809Y-126983390D02*
X109571428Y-127078628D01*
X109571428Y-127078628D02*
X109571428Y-127364342D01*
X109571428Y-127364342D02*
X109523809Y-127459580D01*
X109523809Y-127459580D02*
X109476190Y-127507200D01*
X109476190Y-127507200D02*
X109380952Y-127554819D01*
X109380952Y-127554819D02*
X109238095Y-127554819D01*
X104666666Y-123154819D02*
X104666666Y-123869104D01*
X104666666Y-123869104D02*
X104619047Y-124011961D01*
X104619047Y-124011961D02*
X104523809Y-124107200D01*
X104523809Y-124107200D02*
X104380952Y-124154819D01*
X104380952Y-124154819D02*
X104285714Y-124154819D01*
X105666666Y-124154819D02*
X105095238Y-124154819D01*
X105380952Y-124154819D02*
X105380952Y-123154819D01*
X105380952Y-123154819D02*
X105285714Y-123297676D01*
X105285714Y-123297676D02*
X105190476Y-123392914D01*
X105190476Y-123392914D02*
X105095238Y-123440533D01*
D11*
X93733094Y-104079271D02*
X93733094Y-102809271D01*
X93733094Y-102809271D02*
X94156428Y-103716414D01*
X94156428Y-103716414D02*
X94579761Y-102809271D01*
X94579761Y-102809271D02*
X94579761Y-104079271D01*
X95365952Y-104079271D02*
X95245000Y-104018795D01*
X95245000Y-104018795D02*
X95184523Y-103958318D01*
X95184523Y-103958318D02*
X95124047Y-103837366D01*
X95124047Y-103837366D02*
X95124047Y-103474509D01*
X95124047Y-103474509D02*
X95184523Y-103353556D01*
X95184523Y-103353556D02*
X95245000Y-103293080D01*
X95245000Y-103293080D02*
X95365952Y-103232604D01*
X95365952Y-103232604D02*
X95547381Y-103232604D01*
X95547381Y-103232604D02*
X95668333Y-103293080D01*
X95668333Y-103293080D02*
X95728809Y-103353556D01*
X95728809Y-103353556D02*
X95789285Y-103474509D01*
X95789285Y-103474509D02*
X95789285Y-103837366D01*
X95789285Y-103837366D02*
X95728809Y-103958318D01*
X95728809Y-103958318D02*
X95668333Y-104018795D01*
X95668333Y-104018795D02*
X95547381Y-104079271D01*
X95547381Y-104079271D02*
X95365952Y-104079271D01*
X96877857Y-103232604D02*
X96877857Y-104079271D01*
X96333571Y-103232604D02*
X96333571Y-103897842D01*
X96333571Y-103897842D02*
X96394048Y-104018795D01*
X96394048Y-104018795D02*
X96515000Y-104079271D01*
X96515000Y-104079271D02*
X96696429Y-104079271D01*
X96696429Y-104079271D02*
X96817381Y-104018795D01*
X96817381Y-104018795D02*
X96877857Y-103958318D01*
X97482619Y-103232604D02*
X97482619Y-104079271D01*
X97482619Y-103353556D02*
X97543096Y-103293080D01*
X97543096Y-103293080D02*
X97664048Y-103232604D01*
X97664048Y-103232604D02*
X97845477Y-103232604D01*
X97845477Y-103232604D02*
X97966429Y-103293080D01*
X97966429Y-103293080D02*
X98026905Y-103414033D01*
X98026905Y-103414033D02*
X98026905Y-104079271D01*
X98450239Y-103232604D02*
X98934048Y-103232604D01*
X98631667Y-102809271D02*
X98631667Y-103897842D01*
X98631667Y-103897842D02*
X98692144Y-104018795D01*
X98692144Y-104018795D02*
X98813096Y-104079271D01*
X98813096Y-104079271D02*
X98934048Y-104079271D01*
X99357381Y-104079271D02*
X99357381Y-103232604D01*
X99357381Y-102809271D02*
X99296905Y-102869747D01*
X99296905Y-102869747D02*
X99357381Y-102930223D01*
X99357381Y-102930223D02*
X99417858Y-102869747D01*
X99417858Y-102869747D02*
X99357381Y-102809271D01*
X99357381Y-102809271D02*
X99357381Y-102930223D01*
X99962143Y-103232604D02*
X99962143Y-104079271D01*
X99962143Y-103353556D02*
X100022620Y-103293080D01*
X100022620Y-103293080D02*
X100143572Y-103232604D01*
X100143572Y-103232604D02*
X100325001Y-103232604D01*
X100325001Y-103232604D02*
X100445953Y-103293080D01*
X100445953Y-103293080D02*
X100506429Y-103414033D01*
X100506429Y-103414033D02*
X100506429Y-104079271D01*
X101655477Y-103232604D02*
X101655477Y-104260699D01*
X101655477Y-104260699D02*
X101595001Y-104381652D01*
X101595001Y-104381652D02*
X101534525Y-104442128D01*
X101534525Y-104442128D02*
X101413572Y-104502604D01*
X101413572Y-104502604D02*
X101232144Y-104502604D01*
X101232144Y-104502604D02*
X101111191Y-104442128D01*
X101655477Y-104018795D02*
X101534525Y-104079271D01*
X101534525Y-104079271D02*
X101292620Y-104079271D01*
X101292620Y-104079271D02*
X101171668Y-104018795D01*
X101171668Y-104018795D02*
X101111191Y-103958318D01*
X101111191Y-103958318D02*
X101050715Y-103837366D01*
X101050715Y-103837366D02*
X101050715Y-103474509D01*
X101050715Y-103474509D02*
X101111191Y-103353556D01*
X101111191Y-103353556D02*
X101171668Y-103293080D01*
X101171668Y-103293080D02*
X101292620Y-103232604D01*
X101292620Y-103232604D02*
X101534525Y-103232604D01*
X101534525Y-103232604D02*
X101655477Y-103293080D01*
X102260239Y-104079271D02*
X102260239Y-102809271D01*
X102260239Y-103414033D02*
X102985954Y-103414033D01*
X102985954Y-104079271D02*
X102985954Y-102809271D01*
X103772144Y-104079271D02*
X103651192Y-104018795D01*
X103651192Y-104018795D02*
X103590715Y-103958318D01*
X103590715Y-103958318D02*
X103530239Y-103837366D01*
X103530239Y-103837366D02*
X103530239Y-103474509D01*
X103530239Y-103474509D02*
X103590715Y-103353556D01*
X103590715Y-103353556D02*
X103651192Y-103293080D01*
X103651192Y-103293080D02*
X103772144Y-103232604D01*
X103772144Y-103232604D02*
X103953573Y-103232604D01*
X103953573Y-103232604D02*
X104074525Y-103293080D01*
X104074525Y-103293080D02*
X104135001Y-103353556D01*
X104135001Y-103353556D02*
X104195477Y-103474509D01*
X104195477Y-103474509D02*
X104195477Y-103837366D01*
X104195477Y-103837366D02*
X104135001Y-103958318D01*
X104135001Y-103958318D02*
X104074525Y-104018795D01*
X104074525Y-104018795D02*
X103953573Y-104079271D01*
X103953573Y-104079271D02*
X103772144Y-104079271D01*
X104921192Y-104079271D02*
X104800240Y-104018795D01*
X104800240Y-104018795D02*
X104739763Y-103897842D01*
X104739763Y-103897842D02*
X104739763Y-102809271D01*
X105888811Y-104018795D02*
X105767859Y-104079271D01*
X105767859Y-104079271D02*
X105525954Y-104079271D01*
X105525954Y-104079271D02*
X105405001Y-104018795D01*
X105405001Y-104018795D02*
X105344525Y-103897842D01*
X105344525Y-103897842D02*
X105344525Y-103414033D01*
X105344525Y-103414033D02*
X105405001Y-103293080D01*
X105405001Y-103293080D02*
X105525954Y-103232604D01*
X105525954Y-103232604D02*
X105767859Y-103232604D01*
X105767859Y-103232604D02*
X105888811Y-103293080D01*
X105888811Y-103293080D02*
X105949287Y-103414033D01*
X105949287Y-103414033D02*
X105949287Y-103534985D01*
X105949287Y-103534985D02*
X105344525Y-103655937D01*
X106191192Y-104200223D02*
X107158811Y-104200223D01*
X107340239Y-102809271D02*
X108126430Y-102809271D01*
X108126430Y-102809271D02*
X107703096Y-103293080D01*
X107703096Y-103293080D02*
X107884525Y-103293080D01*
X107884525Y-103293080D02*
X108005477Y-103353556D01*
X108005477Y-103353556D02*
X108065953Y-103414033D01*
X108065953Y-103414033D02*
X108126430Y-103534985D01*
X108126430Y-103534985D02*
X108126430Y-103837366D01*
X108126430Y-103837366D02*
X108065953Y-103958318D01*
X108065953Y-103958318D02*
X108005477Y-104018795D01*
X108005477Y-104018795D02*
X107884525Y-104079271D01*
X107884525Y-104079271D02*
X107521668Y-104079271D01*
X107521668Y-104079271D02*
X107400715Y-104018795D01*
X107400715Y-104018795D02*
X107340239Y-103958318D01*
X108670715Y-103958318D02*
X108731192Y-104018795D01*
X108731192Y-104018795D02*
X108670715Y-104079271D01*
X108670715Y-104079271D02*
X108610239Y-104018795D01*
X108610239Y-104018795D02*
X108670715Y-103958318D01*
X108670715Y-103958318D02*
X108670715Y-104079271D01*
X109215001Y-102930223D02*
X109275477Y-102869747D01*
X109275477Y-102869747D02*
X109396430Y-102809271D01*
X109396430Y-102809271D02*
X109698811Y-102809271D01*
X109698811Y-102809271D02*
X109819763Y-102869747D01*
X109819763Y-102869747D02*
X109880239Y-102930223D01*
X109880239Y-102930223D02*
X109940716Y-103051175D01*
X109940716Y-103051175D02*
X109940716Y-103172128D01*
X109940716Y-103172128D02*
X109880239Y-103353556D01*
X109880239Y-103353556D02*
X109154525Y-104079271D01*
X109154525Y-104079271D02*
X109940716Y-104079271D01*
X110485001Y-104079271D02*
X110485001Y-103232604D01*
X110485001Y-103353556D02*
X110545478Y-103293080D01*
X110545478Y-103293080D02*
X110666430Y-103232604D01*
X110666430Y-103232604D02*
X110847859Y-103232604D01*
X110847859Y-103232604D02*
X110968811Y-103293080D01*
X110968811Y-103293080D02*
X111029287Y-103414033D01*
X111029287Y-103414033D02*
X111029287Y-104079271D01*
X111029287Y-103414033D02*
X111089763Y-103293080D01*
X111089763Y-103293080D02*
X111210716Y-103232604D01*
X111210716Y-103232604D02*
X111392144Y-103232604D01*
X111392144Y-103232604D02*
X111513097Y-103293080D01*
X111513097Y-103293080D02*
X111573573Y-103414033D01*
X111573573Y-103414033D02*
X111573573Y-104079271D01*
X112178334Y-104079271D02*
X112178334Y-103232604D01*
X112178334Y-103353556D02*
X112238811Y-103293080D01*
X112238811Y-103293080D02*
X112359763Y-103232604D01*
X112359763Y-103232604D02*
X112541192Y-103232604D01*
X112541192Y-103232604D02*
X112662144Y-103293080D01*
X112662144Y-103293080D02*
X112722620Y-103414033D01*
X112722620Y-103414033D02*
X112722620Y-104079271D01*
X112722620Y-103414033D02*
X112783096Y-103293080D01*
X112783096Y-103293080D02*
X112904049Y-103232604D01*
X112904049Y-103232604D02*
X113085477Y-103232604D01*
X113085477Y-103232604D02*
X113206430Y-103293080D01*
X113206430Y-103293080D02*
X113266906Y-103414033D01*
X113266906Y-103414033D02*
X113266906Y-104079271D01*
D10*
X154214286Y-125104819D02*
X154833333Y-125104819D01*
X154833333Y-125104819D02*
X154500000Y-125485771D01*
X154500000Y-125485771D02*
X154642857Y-125485771D01*
X154642857Y-125485771D02*
X154738095Y-125533390D01*
X154738095Y-125533390D02*
X154785714Y-125581009D01*
X154785714Y-125581009D02*
X154833333Y-125676247D01*
X154833333Y-125676247D02*
X154833333Y-125914342D01*
X154833333Y-125914342D02*
X154785714Y-126009580D01*
X154785714Y-126009580D02*
X154738095Y-126057200D01*
X154738095Y-126057200D02*
X154642857Y-126104819D01*
X154642857Y-126104819D02*
X154357143Y-126104819D01*
X154357143Y-126104819D02*
X154261905Y-126057200D01*
X154261905Y-126057200D02*
X154214286Y-126009580D01*
X155166667Y-125104819D02*
X155785714Y-125104819D01*
X155785714Y-125104819D02*
X155452381Y-125485771D01*
X155452381Y-125485771D02*
X155595238Y-125485771D01*
X155595238Y-125485771D02*
X155690476Y-125533390D01*
X155690476Y-125533390D02*
X155738095Y-125581009D01*
X155738095Y-125581009D02*
X155785714Y-125676247D01*
X155785714Y-125676247D02*
X155785714Y-125914342D01*
X155785714Y-125914342D02*
X155738095Y-126009580D01*
X155738095Y-126009580D02*
X155690476Y-126057200D01*
X155690476Y-126057200D02*
X155595238Y-126104819D01*
X155595238Y-126104819D02*
X155309524Y-126104819D01*
X155309524Y-126104819D02*
X155214286Y-126057200D01*
X155214286Y-126057200D02*
X155166667Y-126009580D01*
X156404762Y-125104819D02*
X156500000Y-125104819D01*
X156500000Y-125104819D02*
X156595238Y-125152438D01*
X156595238Y-125152438D02*
X156642857Y-125200057D01*
X156642857Y-125200057D02*
X156690476Y-125295295D01*
X156690476Y-125295295D02*
X156738095Y-125485771D01*
X156738095Y-125485771D02*
X156738095Y-125723866D01*
X156738095Y-125723866D02*
X156690476Y-125914342D01*
X156690476Y-125914342D02*
X156642857Y-126009580D01*
X156642857Y-126009580D02*
X156595238Y-126057200D01*
X156595238Y-126057200D02*
X156500000Y-126104819D01*
X156500000Y-126104819D02*
X156404762Y-126104819D01*
X156404762Y-126104819D02*
X156309524Y-126057200D01*
X156309524Y-126057200D02*
X156261905Y-126009580D01*
X156261905Y-126009580D02*
X156214286Y-125914342D01*
X156214286Y-125914342D02*
X156166667Y-125723866D01*
X156166667Y-125723866D02*
X156166667Y-125485771D01*
X156166667Y-125485771D02*
X156214286Y-125295295D01*
X156214286Y-125295295D02*
X156261905Y-125200057D01*
X156261905Y-125200057D02*
X156309524Y-125152438D01*
X156309524Y-125152438D02*
X156404762Y-125104819D01*
D12*
X155416666Y-124227149D02*
X155250000Y-123989054D01*
X155130952Y-124227149D02*
X155130952Y-123727149D01*
X155130952Y-123727149D02*
X155321428Y-123727149D01*
X155321428Y-123727149D02*
X155369047Y-123750959D01*
X155369047Y-123750959D02*
X155392857Y-123774768D01*
X155392857Y-123774768D02*
X155416666Y-123822387D01*
X155416666Y-123822387D02*
X155416666Y-123893816D01*
X155416666Y-123893816D02*
X155392857Y-123941435D01*
X155392857Y-123941435D02*
X155369047Y-123965244D01*
X155369047Y-123965244D02*
X155321428Y-123989054D01*
X155321428Y-123989054D02*
X155130952Y-123989054D01*
X155583333Y-123727149D02*
X155916666Y-123727149D01*
X155916666Y-123727149D02*
X155702381Y-124227149D01*
D10*
X154214286Y-114604819D02*
X154833333Y-114604819D01*
X154833333Y-114604819D02*
X154500000Y-114985771D01*
X154500000Y-114985771D02*
X154642857Y-114985771D01*
X154642857Y-114985771D02*
X154738095Y-115033390D01*
X154738095Y-115033390D02*
X154785714Y-115081009D01*
X154785714Y-115081009D02*
X154833333Y-115176247D01*
X154833333Y-115176247D02*
X154833333Y-115414342D01*
X154833333Y-115414342D02*
X154785714Y-115509580D01*
X154785714Y-115509580D02*
X154738095Y-115557200D01*
X154738095Y-115557200D02*
X154642857Y-115604819D01*
X154642857Y-115604819D02*
X154357143Y-115604819D01*
X154357143Y-115604819D02*
X154261905Y-115557200D01*
X154261905Y-115557200D02*
X154214286Y-115509580D01*
X155166667Y-114604819D02*
X155785714Y-114604819D01*
X155785714Y-114604819D02*
X155452381Y-114985771D01*
X155452381Y-114985771D02*
X155595238Y-114985771D01*
X155595238Y-114985771D02*
X155690476Y-115033390D01*
X155690476Y-115033390D02*
X155738095Y-115081009D01*
X155738095Y-115081009D02*
X155785714Y-115176247D01*
X155785714Y-115176247D02*
X155785714Y-115414342D01*
X155785714Y-115414342D02*
X155738095Y-115509580D01*
X155738095Y-115509580D02*
X155690476Y-115557200D01*
X155690476Y-115557200D02*
X155595238Y-115604819D01*
X155595238Y-115604819D02*
X155309524Y-115604819D01*
X155309524Y-115604819D02*
X155214286Y-115557200D01*
X155214286Y-115557200D02*
X155166667Y-115509580D01*
X156404762Y-114604819D02*
X156500000Y-114604819D01*
X156500000Y-114604819D02*
X156595238Y-114652438D01*
X156595238Y-114652438D02*
X156642857Y-114700057D01*
X156642857Y-114700057D02*
X156690476Y-114795295D01*
X156690476Y-114795295D02*
X156738095Y-114985771D01*
X156738095Y-114985771D02*
X156738095Y-115223866D01*
X156738095Y-115223866D02*
X156690476Y-115414342D01*
X156690476Y-115414342D02*
X156642857Y-115509580D01*
X156642857Y-115509580D02*
X156595238Y-115557200D01*
X156595238Y-115557200D02*
X156500000Y-115604819D01*
X156500000Y-115604819D02*
X156404762Y-115604819D01*
X156404762Y-115604819D02*
X156309524Y-115557200D01*
X156309524Y-115557200D02*
X156261905Y-115509580D01*
X156261905Y-115509580D02*
X156214286Y-115414342D01*
X156214286Y-115414342D02*
X156166667Y-115223866D01*
X156166667Y-115223866D02*
X156166667Y-114985771D01*
X156166667Y-114985771D02*
X156214286Y-114795295D01*
X156214286Y-114795295D02*
X156261905Y-114700057D01*
X156261905Y-114700057D02*
X156309524Y-114652438D01*
X156309524Y-114652438D02*
X156404762Y-114604819D01*
D12*
X155416666Y-113727149D02*
X155250000Y-113489054D01*
X155130952Y-113727149D02*
X155130952Y-113227149D01*
X155130952Y-113227149D02*
X155321428Y-113227149D01*
X155321428Y-113227149D02*
X155369047Y-113250959D01*
X155369047Y-113250959D02*
X155392857Y-113274768D01*
X155392857Y-113274768D02*
X155416666Y-113322387D01*
X155416666Y-113322387D02*
X155416666Y-113393816D01*
X155416666Y-113393816D02*
X155392857Y-113441435D01*
X155392857Y-113441435D02*
X155369047Y-113465244D01*
X155369047Y-113465244D02*
X155321428Y-113489054D01*
X155321428Y-113489054D02*
X155130952Y-113489054D01*
X155845238Y-113393816D02*
X155845238Y-113727149D01*
X155726190Y-113203340D02*
X155607143Y-113560482D01*
X155607143Y-113560482D02*
X155916666Y-113560482D01*
D10*
X107714286Y-132007200D02*
X107857143Y-132054819D01*
X107857143Y-132054819D02*
X108095238Y-132054819D01*
X108095238Y-132054819D02*
X108190476Y-132007200D01*
X108190476Y-132007200D02*
X108238095Y-131959580D01*
X108238095Y-131959580D02*
X108285714Y-131864342D01*
X108285714Y-131864342D02*
X108285714Y-131769104D01*
X108285714Y-131769104D02*
X108238095Y-131673866D01*
X108238095Y-131673866D02*
X108190476Y-131626247D01*
X108190476Y-131626247D02*
X108095238Y-131578628D01*
X108095238Y-131578628D02*
X107904762Y-131531009D01*
X107904762Y-131531009D02*
X107809524Y-131483390D01*
X107809524Y-131483390D02*
X107761905Y-131435771D01*
X107761905Y-131435771D02*
X107714286Y-131340533D01*
X107714286Y-131340533D02*
X107714286Y-131245295D01*
X107714286Y-131245295D02*
X107761905Y-131150057D01*
X107761905Y-131150057D02*
X107809524Y-131102438D01*
X107809524Y-131102438D02*
X107904762Y-131054819D01*
X107904762Y-131054819D02*
X108142857Y-131054819D01*
X108142857Y-131054819D02*
X108285714Y-131102438D01*
X108714286Y-132054819D02*
X108714286Y-131054819D01*
X108714286Y-131054819D02*
X109047619Y-131769104D01*
X109047619Y-131769104D02*
X109380952Y-131054819D01*
X109380952Y-131054819D02*
X109380952Y-132054819D01*
X109809524Y-131769104D02*
X110285714Y-131769104D01*
X109714286Y-132054819D02*
X110047619Y-131054819D01*
X110047619Y-131054819D02*
X110380952Y-132054819D01*
X111000000Y-131054819D02*
X111000000Y-131769104D01*
X111000000Y-131769104D02*
X110952381Y-131911961D01*
X110952381Y-131911961D02*
X110857143Y-132007200D01*
X110857143Y-132007200D02*
X110714286Y-132054819D01*
X110714286Y-132054819D02*
X110619048Y-132054819D01*
X111952381Y-131054819D02*
X111476191Y-131054819D01*
X111476191Y-131054819D02*
X111428572Y-131531009D01*
X111428572Y-131531009D02*
X111476191Y-131483390D01*
X111476191Y-131483390D02*
X111571429Y-131435771D01*
X111571429Y-131435771D02*
X111809524Y-131435771D01*
X111809524Y-131435771D02*
X111904762Y-131483390D01*
X111904762Y-131483390D02*
X111952381Y-131531009D01*
X111952381Y-131531009D02*
X112000000Y-131626247D01*
X112000000Y-131626247D02*
X112000000Y-131864342D01*
X112000000Y-131864342D02*
X111952381Y-131959580D01*
X111952381Y-131959580D02*
X111904762Y-132007200D01*
X111904762Y-132007200D02*
X111809524Y-132054819D01*
X111809524Y-132054819D02*
X111571429Y-132054819D01*
X111571429Y-132054819D02*
X111476191Y-132007200D01*
X111476191Y-132007200D02*
X111428572Y-131959580D01*
X112428572Y-131959580D02*
X112476191Y-132007200D01*
X112476191Y-132007200D02*
X112428572Y-132054819D01*
X112428572Y-132054819D02*
X112380953Y-132007200D01*
X112380953Y-132007200D02*
X112428572Y-131959580D01*
X112428572Y-131959580D02*
X112428572Y-132054819D01*
X113095238Y-131054819D02*
X113190476Y-131054819D01*
X113190476Y-131054819D02*
X113285714Y-131102438D01*
X113285714Y-131102438D02*
X113333333Y-131150057D01*
X113333333Y-131150057D02*
X113380952Y-131245295D01*
X113380952Y-131245295D02*
X113428571Y-131435771D01*
X113428571Y-131435771D02*
X113428571Y-131673866D01*
X113428571Y-131673866D02*
X113380952Y-131864342D01*
X113380952Y-131864342D02*
X113333333Y-131959580D01*
X113333333Y-131959580D02*
X113285714Y-132007200D01*
X113285714Y-132007200D02*
X113190476Y-132054819D01*
X113190476Y-132054819D02*
X113095238Y-132054819D01*
X113095238Y-132054819D02*
X113000000Y-132007200D01*
X113000000Y-132007200D02*
X112952381Y-131959580D01*
X112952381Y-131959580D02*
X112904762Y-131864342D01*
X112904762Y-131864342D02*
X112857143Y-131673866D01*
X112857143Y-131673866D02*
X112857143Y-131435771D01*
X112857143Y-131435771D02*
X112904762Y-131245295D01*
X112904762Y-131245295D02*
X112952381Y-131150057D01*
X112952381Y-131150057D02*
X113000000Y-131102438D01*
X113000000Y-131102438D02*
X113095238Y-131054819D01*
X113809524Y-131769104D02*
X114285714Y-131769104D01*
X113714286Y-132054819D02*
X114047619Y-131054819D01*
X114047619Y-131054819D02*
X114380952Y-132054819D01*
X110261905Y-126954819D02*
X110261905Y-125954819D01*
X110261905Y-125954819D02*
X110500000Y-125954819D01*
X110500000Y-125954819D02*
X110642857Y-126002438D01*
X110642857Y-126002438D02*
X110738095Y-126097676D01*
X110738095Y-126097676D02*
X110785714Y-126192914D01*
X110785714Y-126192914D02*
X110833333Y-126383390D01*
X110833333Y-126383390D02*
X110833333Y-126526247D01*
X110833333Y-126526247D02*
X110785714Y-126716723D01*
X110785714Y-126716723D02*
X110738095Y-126811961D01*
X110738095Y-126811961D02*
X110642857Y-126907200D01*
X110642857Y-126907200D02*
X110500000Y-126954819D01*
X110500000Y-126954819D02*
X110261905Y-126954819D01*
X111214286Y-126050057D02*
X111261905Y-126002438D01*
X111261905Y-126002438D02*
X111357143Y-125954819D01*
X111357143Y-125954819D02*
X111595238Y-125954819D01*
X111595238Y-125954819D02*
X111690476Y-126002438D01*
X111690476Y-126002438D02*
X111738095Y-126050057D01*
X111738095Y-126050057D02*
X111785714Y-126145295D01*
X111785714Y-126145295D02*
X111785714Y-126240533D01*
X111785714Y-126240533D02*
X111738095Y-126383390D01*
X111738095Y-126383390D02*
X111166667Y-126954819D01*
X111166667Y-126954819D02*
X111785714Y-126954819D01*
X137389761Y-115929819D02*
X136818333Y-115929819D01*
X137104047Y-115929819D02*
X137104047Y-114929819D01*
X137104047Y-114929819D02*
X137008809Y-115072676D01*
X137008809Y-115072676D02*
X136913571Y-115167914D01*
X136913571Y-115167914D02*
X136818333Y-115215533D01*
X138008809Y-114929819D02*
X138104047Y-114929819D01*
X138104047Y-114929819D02*
X138199285Y-114977438D01*
X138199285Y-114977438D02*
X138246904Y-115025057D01*
X138246904Y-115025057D02*
X138294523Y-115120295D01*
X138294523Y-115120295D02*
X138342142Y-115310771D01*
X138342142Y-115310771D02*
X138342142Y-115548866D01*
X138342142Y-115548866D02*
X138294523Y-115739342D01*
X138294523Y-115739342D02*
X138246904Y-115834580D01*
X138246904Y-115834580D02*
X138199285Y-115882200D01*
X138199285Y-115882200D02*
X138104047Y-115929819D01*
X138104047Y-115929819D02*
X138008809Y-115929819D01*
X138008809Y-115929819D02*
X137913571Y-115882200D01*
X137913571Y-115882200D02*
X137865952Y-115834580D01*
X137865952Y-115834580D02*
X137818333Y-115739342D01*
X137818333Y-115739342D02*
X137770714Y-115548866D01*
X137770714Y-115548866D02*
X137770714Y-115310771D01*
X137770714Y-115310771D02*
X137818333Y-115120295D01*
X137818333Y-115120295D02*
X137865952Y-115025057D01*
X137865952Y-115025057D02*
X137913571Y-114977438D01*
X137913571Y-114977438D02*
X138008809Y-114929819D01*
X138770714Y-115929819D02*
X138770714Y-114929819D01*
X138865952Y-115548866D02*
X139151666Y-115929819D01*
X139151666Y-115263152D02*
X138770714Y-115644104D01*
X134674819Y-110055238D02*
X134198628Y-110388571D01*
X134674819Y-110626666D02*
X133674819Y-110626666D01*
X133674819Y-110626666D02*
X133674819Y-110245714D01*
X133674819Y-110245714D02*
X133722438Y-110150476D01*
X133722438Y-110150476D02*
X133770057Y-110102857D01*
X133770057Y-110102857D02*
X133865295Y-110055238D01*
X133865295Y-110055238D02*
X134008152Y-110055238D01*
X134008152Y-110055238D02*
X134103390Y-110102857D01*
X134103390Y-110102857D02*
X134151009Y-110150476D01*
X134151009Y-110150476D02*
X134198628Y-110245714D01*
X134198628Y-110245714D02*
X134198628Y-110626666D01*
X133674819Y-109769523D02*
X134674819Y-109436190D01*
X134674819Y-109436190D02*
X133674819Y-109102857D01*
X134674819Y-108245714D02*
X134674819Y-108817142D01*
X134674819Y-108531428D02*
X133674819Y-108531428D01*
X133674819Y-108531428D02*
X133817676Y-108626666D01*
X133817676Y-108626666D02*
X133912914Y-108721904D01*
X133912914Y-108721904D02*
X133960533Y-108817142D01*
X127304819Y-125071428D02*
X127304819Y-125642856D01*
X127304819Y-125357142D02*
X126304819Y-125357142D01*
X126304819Y-125357142D02*
X126447676Y-125452380D01*
X126447676Y-125452380D02*
X126542914Y-125547618D01*
X126542914Y-125547618D02*
X126590533Y-125642856D01*
X126304819Y-124452380D02*
X126304819Y-124357142D01*
X126304819Y-124357142D02*
X126352438Y-124261904D01*
X126352438Y-124261904D02*
X126400057Y-124214285D01*
X126400057Y-124214285D02*
X126495295Y-124166666D01*
X126495295Y-124166666D02*
X126685771Y-124119047D01*
X126685771Y-124119047D02*
X126923866Y-124119047D01*
X126923866Y-124119047D02*
X127114342Y-124166666D01*
X127114342Y-124166666D02*
X127209580Y-124214285D01*
X127209580Y-124214285D02*
X127257200Y-124261904D01*
X127257200Y-124261904D02*
X127304819Y-124357142D01*
X127304819Y-124357142D02*
X127304819Y-124452380D01*
X127304819Y-124452380D02*
X127257200Y-124547618D01*
X127257200Y-124547618D02*
X127209580Y-124595237D01*
X127209580Y-124595237D02*
X127114342Y-124642856D01*
X127114342Y-124642856D02*
X126923866Y-124690475D01*
X126923866Y-124690475D02*
X126685771Y-124690475D01*
X126685771Y-124690475D02*
X126495295Y-124642856D01*
X126495295Y-124642856D02*
X126400057Y-124595237D01*
X126400057Y-124595237D02*
X126352438Y-124547618D01*
X126352438Y-124547618D02*
X126304819Y-124452380D01*
X126638152Y-123261904D02*
X127304819Y-123261904D01*
X126638152Y-123690475D02*
X127161961Y-123690475D01*
X127161961Y-123690475D02*
X127257200Y-123642856D01*
X127257200Y-123642856D02*
X127304819Y-123547618D01*
X127304819Y-123547618D02*
X127304819Y-123404761D01*
X127304819Y-123404761D02*
X127257200Y-123309523D01*
X127257200Y-123309523D02*
X127209580Y-123261904D01*
X126781009Y-122452380D02*
X126781009Y-122785713D01*
X127304819Y-122785713D02*
X126304819Y-122785713D01*
X126304819Y-122785713D02*
X126304819Y-122309523D01*
D13*
X125287664Y-124133332D02*
X125325760Y-124171428D01*
X125325760Y-124171428D02*
X125363855Y-124285713D01*
X125363855Y-124285713D02*
X125363855Y-124361904D01*
X125363855Y-124361904D02*
X125325760Y-124476190D01*
X125325760Y-124476190D02*
X125249569Y-124552380D01*
X125249569Y-124552380D02*
X125173379Y-124590475D01*
X125173379Y-124590475D02*
X125020998Y-124628571D01*
X125020998Y-124628571D02*
X124906712Y-124628571D01*
X124906712Y-124628571D02*
X124754331Y-124590475D01*
X124754331Y-124590475D02*
X124678140Y-124552380D01*
X124678140Y-124552380D02*
X124601950Y-124476190D01*
X124601950Y-124476190D02*
X124563855Y-124361904D01*
X124563855Y-124361904D02*
X124563855Y-124285713D01*
X124563855Y-124285713D02*
X124601950Y-124171428D01*
X124601950Y-124171428D02*
X124640045Y-124133332D01*
X124563855Y-123866666D02*
X124563855Y-123371428D01*
X124563855Y-123371428D02*
X124868617Y-123638094D01*
X124868617Y-123638094D02*
X124868617Y-123523809D01*
X124868617Y-123523809D02*
X124906712Y-123447618D01*
X124906712Y-123447618D02*
X124944807Y-123409523D01*
X124944807Y-123409523D02*
X125020998Y-123371428D01*
X125020998Y-123371428D02*
X125211474Y-123371428D01*
X125211474Y-123371428D02*
X125287664Y-123409523D01*
X125287664Y-123409523D02*
X125325760Y-123447618D01*
X125325760Y-123447618D02*
X125363855Y-123523809D01*
X125363855Y-123523809D02*
X125363855Y-123752380D01*
X125363855Y-123752380D02*
X125325760Y-123828571D01*
X125325760Y-123828571D02*
X125287664Y-123866666D01*
D10*
X160071428Y-118581009D02*
X160214285Y-118628628D01*
X160214285Y-118628628D02*
X160261904Y-118676247D01*
X160261904Y-118676247D02*
X160309523Y-118771485D01*
X160309523Y-118771485D02*
X160309523Y-118914342D01*
X160309523Y-118914342D02*
X160261904Y-119009580D01*
X160261904Y-119009580D02*
X160214285Y-119057200D01*
X160214285Y-119057200D02*
X160119047Y-119104819D01*
X160119047Y-119104819D02*
X159738095Y-119104819D01*
X159738095Y-119104819D02*
X159738095Y-118104819D01*
X159738095Y-118104819D02*
X160071428Y-118104819D01*
X160071428Y-118104819D02*
X160166666Y-118152438D01*
X160166666Y-118152438D02*
X160214285Y-118200057D01*
X160214285Y-118200057D02*
X160261904Y-118295295D01*
X160261904Y-118295295D02*
X160261904Y-118390533D01*
X160261904Y-118390533D02*
X160214285Y-118485771D01*
X160214285Y-118485771D02*
X160166666Y-118533390D01*
X160166666Y-118533390D02*
X160071428Y-118581009D01*
X160071428Y-118581009D02*
X159738095Y-118581009D01*
X160738095Y-119104819D02*
X160738095Y-118438152D01*
X160738095Y-118104819D02*
X160690476Y-118152438D01*
X160690476Y-118152438D02*
X160738095Y-118200057D01*
X160738095Y-118200057D02*
X160785714Y-118152438D01*
X160785714Y-118152438D02*
X160738095Y-118104819D01*
X160738095Y-118104819D02*
X160738095Y-118200057D01*
X161071428Y-118438152D02*
X161452380Y-118438152D01*
X161214285Y-118104819D02*
X161214285Y-118961961D01*
X161214285Y-118961961D02*
X161261904Y-119057200D01*
X161261904Y-119057200D02*
X161357142Y-119104819D01*
X161357142Y-119104819D02*
X161452380Y-119104819D01*
X161738095Y-118200057D02*
X161785714Y-118152438D01*
X161785714Y-118152438D02*
X161880952Y-118104819D01*
X161880952Y-118104819D02*
X162119047Y-118104819D01*
X162119047Y-118104819D02*
X162214285Y-118152438D01*
X162214285Y-118152438D02*
X162261904Y-118200057D01*
X162261904Y-118200057D02*
X162309523Y-118295295D01*
X162309523Y-118295295D02*
X162309523Y-118390533D01*
X162309523Y-118390533D02*
X162261904Y-118533390D01*
X162261904Y-118533390D02*
X161690476Y-119104819D01*
X161690476Y-119104819D02*
X162309523Y-119104819D01*
D12*
X160630952Y-117227149D02*
X160630952Y-116727149D01*
X160630952Y-116727149D02*
X160750000Y-116727149D01*
X160750000Y-116727149D02*
X160821428Y-116750959D01*
X160821428Y-116750959D02*
X160869047Y-116798578D01*
X160869047Y-116798578D02*
X160892857Y-116846197D01*
X160892857Y-116846197D02*
X160916666Y-116941435D01*
X160916666Y-116941435D02*
X160916666Y-117012863D01*
X160916666Y-117012863D02*
X160892857Y-117108101D01*
X160892857Y-117108101D02*
X160869047Y-117155720D01*
X160869047Y-117155720D02*
X160821428Y-117203340D01*
X160821428Y-117203340D02*
X160750000Y-117227149D01*
X160750000Y-117227149D02*
X160630952Y-117227149D01*
X161369047Y-116727149D02*
X161130952Y-116727149D01*
X161130952Y-116727149D02*
X161107143Y-116965244D01*
X161107143Y-116965244D02*
X161130952Y-116941435D01*
X161130952Y-116941435D02*
X161178571Y-116917625D01*
X161178571Y-116917625D02*
X161297619Y-116917625D01*
X161297619Y-116917625D02*
X161345238Y-116941435D01*
X161345238Y-116941435D02*
X161369047Y-116965244D01*
X161369047Y-116965244D02*
X161392857Y-117012863D01*
X161392857Y-117012863D02*
X161392857Y-117131911D01*
X161392857Y-117131911D02*
X161369047Y-117179530D01*
X161369047Y-117179530D02*
X161345238Y-117203340D01*
X161345238Y-117203340D02*
X161297619Y-117227149D01*
X161297619Y-117227149D02*
X161178571Y-117227149D01*
X161178571Y-117227149D02*
X161130952Y-117203340D01*
X161130952Y-117203340D02*
X161107143Y-117179530D01*
D10*
X118804819Y-130071428D02*
X118804819Y-130642856D01*
X118804819Y-130357142D02*
X117804819Y-130357142D01*
X117804819Y-130357142D02*
X117947676Y-130452380D01*
X117947676Y-130452380D02*
X118042914Y-130547618D01*
X118042914Y-130547618D02*
X118090533Y-130642856D01*
X117804819Y-129452380D02*
X117804819Y-129357142D01*
X117804819Y-129357142D02*
X117852438Y-129261904D01*
X117852438Y-129261904D02*
X117900057Y-129214285D01*
X117900057Y-129214285D02*
X117995295Y-129166666D01*
X117995295Y-129166666D02*
X118185771Y-129119047D01*
X118185771Y-129119047D02*
X118423866Y-129119047D01*
X118423866Y-129119047D02*
X118614342Y-129166666D01*
X118614342Y-129166666D02*
X118709580Y-129214285D01*
X118709580Y-129214285D02*
X118757200Y-129261904D01*
X118757200Y-129261904D02*
X118804819Y-129357142D01*
X118804819Y-129357142D02*
X118804819Y-129452380D01*
X118804819Y-129452380D02*
X118757200Y-129547618D01*
X118757200Y-129547618D02*
X118709580Y-129595237D01*
X118709580Y-129595237D02*
X118614342Y-129642856D01*
X118614342Y-129642856D02*
X118423866Y-129690475D01*
X118423866Y-129690475D02*
X118185771Y-129690475D01*
X118185771Y-129690475D02*
X117995295Y-129642856D01*
X117995295Y-129642856D02*
X117900057Y-129595237D01*
X117900057Y-129595237D02*
X117852438Y-129547618D01*
X117852438Y-129547618D02*
X117804819Y-129452380D01*
X118138152Y-128261904D02*
X118804819Y-128261904D01*
X118138152Y-128690475D02*
X118661961Y-128690475D01*
X118661961Y-128690475D02*
X118757200Y-128642856D01*
X118757200Y-128642856D02*
X118804819Y-128547618D01*
X118804819Y-128547618D02*
X118804819Y-128404761D01*
X118804819Y-128404761D02*
X118757200Y-128309523D01*
X118757200Y-128309523D02*
X118709580Y-128261904D01*
X118281009Y-127452380D02*
X118281009Y-127785713D01*
X118804819Y-127785713D02*
X117804819Y-127785713D01*
X117804819Y-127785713D02*
X117804819Y-127309523D01*
D13*
X116787664Y-129133332D02*
X116825760Y-129171428D01*
X116825760Y-129171428D02*
X116863855Y-129285713D01*
X116863855Y-129285713D02*
X116863855Y-129361904D01*
X116863855Y-129361904D02*
X116825760Y-129476190D01*
X116825760Y-129476190D02*
X116749569Y-129552380D01*
X116749569Y-129552380D02*
X116673379Y-129590475D01*
X116673379Y-129590475D02*
X116520998Y-129628571D01*
X116520998Y-129628571D02*
X116406712Y-129628571D01*
X116406712Y-129628571D02*
X116254331Y-129590475D01*
X116254331Y-129590475D02*
X116178140Y-129552380D01*
X116178140Y-129552380D02*
X116101950Y-129476190D01*
X116101950Y-129476190D02*
X116063855Y-129361904D01*
X116063855Y-129361904D02*
X116063855Y-129285713D01*
X116063855Y-129285713D02*
X116101950Y-129171428D01*
X116101950Y-129171428D02*
X116140045Y-129133332D01*
X116863855Y-128371428D02*
X116863855Y-128828571D01*
X116863855Y-128599999D02*
X116063855Y-128599999D01*
X116063855Y-128599999D02*
X116178140Y-128676190D01*
X116178140Y-128676190D02*
X116254331Y-128752380D01*
X116254331Y-128752380D02*
X116292426Y-128828571D01*
D10*
X126928571Y-122134819D02*
X126357143Y-122134819D01*
X126642857Y-122134819D02*
X126642857Y-121134819D01*
X126642857Y-121134819D02*
X126547619Y-121277676D01*
X126547619Y-121277676D02*
X126452381Y-121372914D01*
X126452381Y-121372914D02*
X126357143Y-121420533D01*
X127547619Y-121134819D02*
X127642857Y-121134819D01*
X127642857Y-121134819D02*
X127738095Y-121182438D01*
X127738095Y-121182438D02*
X127785714Y-121230057D01*
X127785714Y-121230057D02*
X127833333Y-121325295D01*
X127833333Y-121325295D02*
X127880952Y-121515771D01*
X127880952Y-121515771D02*
X127880952Y-121753866D01*
X127880952Y-121753866D02*
X127833333Y-121944342D01*
X127833333Y-121944342D02*
X127785714Y-122039580D01*
X127785714Y-122039580D02*
X127738095Y-122087200D01*
X127738095Y-122087200D02*
X127642857Y-122134819D01*
X127642857Y-122134819D02*
X127547619Y-122134819D01*
X127547619Y-122134819D02*
X127452381Y-122087200D01*
X127452381Y-122087200D02*
X127404762Y-122039580D01*
X127404762Y-122039580D02*
X127357143Y-121944342D01*
X127357143Y-121944342D02*
X127309524Y-121753866D01*
X127309524Y-121753866D02*
X127309524Y-121515771D01*
X127309524Y-121515771D02*
X127357143Y-121325295D01*
X127357143Y-121325295D02*
X127404762Y-121230057D01*
X127404762Y-121230057D02*
X127452381Y-121182438D01*
X127452381Y-121182438D02*
X127547619Y-121134819D01*
X128309524Y-121468152D02*
X128309524Y-122134819D01*
X128309524Y-121563390D02*
X128357143Y-121515771D01*
X128357143Y-121515771D02*
X128452381Y-121468152D01*
X128452381Y-121468152D02*
X128595238Y-121468152D01*
X128595238Y-121468152D02*
X128690476Y-121515771D01*
X128690476Y-121515771D02*
X128738095Y-121611009D01*
X128738095Y-121611009D02*
X128738095Y-122134819D01*
X129547619Y-121611009D02*
X129214286Y-121611009D01*
X129214286Y-122134819D02*
X129214286Y-121134819D01*
X129214286Y-121134819D02*
X129690476Y-121134819D01*
D12*
X127916666Y-120179530D02*
X127892857Y-120203340D01*
X127892857Y-120203340D02*
X127821428Y-120227149D01*
X127821428Y-120227149D02*
X127773809Y-120227149D01*
X127773809Y-120227149D02*
X127702381Y-120203340D01*
X127702381Y-120203340D02*
X127654762Y-120155720D01*
X127654762Y-120155720D02*
X127630952Y-120108101D01*
X127630952Y-120108101D02*
X127607143Y-120012863D01*
X127607143Y-120012863D02*
X127607143Y-119941435D01*
X127607143Y-119941435D02*
X127630952Y-119846197D01*
X127630952Y-119846197D02*
X127654762Y-119798578D01*
X127654762Y-119798578D02*
X127702381Y-119750959D01*
X127702381Y-119750959D02*
X127773809Y-119727149D01*
X127773809Y-119727149D02*
X127821428Y-119727149D01*
X127821428Y-119727149D02*
X127892857Y-119750959D01*
X127892857Y-119750959D02*
X127916666Y-119774768D01*
X128345238Y-119893816D02*
X128345238Y-120227149D01*
X128226190Y-119703340D02*
X128107143Y-120060482D01*
X128107143Y-120060482D02*
X128416666Y-120060482D01*
D10*
X125104819Y-108119047D02*
X125104819Y-108690475D01*
X125104819Y-108404761D02*
X124104819Y-108404761D01*
X124104819Y-108404761D02*
X124247676Y-108499999D01*
X124247676Y-108499999D02*
X124342914Y-108595237D01*
X124342914Y-108595237D02*
X124390533Y-108690475D01*
X125104819Y-107690475D02*
X124104819Y-107690475D01*
X124723866Y-107595237D02*
X125104819Y-107309523D01*
X124438152Y-107309523D02*
X124819104Y-107690475D01*
D12*
X123227149Y-108083333D02*
X122989054Y-108249999D01*
X123227149Y-108369047D02*
X122727149Y-108369047D01*
X122727149Y-108369047D02*
X122727149Y-108178571D01*
X122727149Y-108178571D02*
X122750959Y-108130952D01*
X122750959Y-108130952D02*
X122774768Y-108107142D01*
X122774768Y-108107142D02*
X122822387Y-108083333D01*
X122822387Y-108083333D02*
X122893816Y-108083333D01*
X122893816Y-108083333D02*
X122941435Y-108107142D01*
X122941435Y-108107142D02*
X122965244Y-108130952D01*
X122965244Y-108130952D02*
X122989054Y-108178571D01*
X122989054Y-108178571D02*
X122989054Y-108369047D01*
X123227149Y-107607142D02*
X123227149Y-107892856D01*
X123227149Y-107749999D02*
X122727149Y-107749999D01*
X122727149Y-107749999D02*
X122798578Y-107797618D01*
X122798578Y-107797618D02*
X122846197Y-107845237D01*
X122846197Y-107845237D02*
X122870006Y-107892856D01*
D10*
X126547618Y-138604819D02*
X126214285Y-138128628D01*
X125976190Y-138604819D02*
X125976190Y-137604819D01*
X125976190Y-137604819D02*
X126357142Y-137604819D01*
X126357142Y-137604819D02*
X126452380Y-137652438D01*
X126452380Y-137652438D02*
X126499999Y-137700057D01*
X126499999Y-137700057D02*
X126547618Y-137795295D01*
X126547618Y-137795295D02*
X126547618Y-137938152D01*
X126547618Y-137938152D02*
X126499999Y-138033390D01*
X126499999Y-138033390D02*
X126452380Y-138081009D01*
X126452380Y-138081009D02*
X126357142Y-138128628D01*
X126357142Y-138128628D02*
X125976190Y-138128628D01*
X126976190Y-138081009D02*
X127309523Y-138081009D01*
X127452380Y-138604819D02*
X126976190Y-138604819D01*
X126976190Y-138604819D02*
X126976190Y-137604819D01*
X126976190Y-137604819D02*
X127452380Y-137604819D01*
X127833333Y-138557200D02*
X127976190Y-138604819D01*
X127976190Y-138604819D02*
X128214285Y-138604819D01*
X128214285Y-138604819D02*
X128309523Y-138557200D01*
X128309523Y-138557200D02*
X128357142Y-138509580D01*
X128357142Y-138509580D02*
X128404761Y-138414342D01*
X128404761Y-138414342D02*
X128404761Y-138319104D01*
X128404761Y-138319104D02*
X128357142Y-138223866D01*
X128357142Y-138223866D02*
X128309523Y-138176247D01*
X128309523Y-138176247D02*
X128214285Y-138128628D01*
X128214285Y-138128628D02*
X128023809Y-138081009D01*
X128023809Y-138081009D02*
X127928571Y-138033390D01*
X127928571Y-138033390D02*
X127880952Y-137985771D01*
X127880952Y-137985771D02*
X127833333Y-137890533D01*
X127833333Y-137890533D02*
X127833333Y-137795295D01*
X127833333Y-137795295D02*
X127880952Y-137700057D01*
X127880952Y-137700057D02*
X127928571Y-137652438D01*
X127928571Y-137652438D02*
X128023809Y-137604819D01*
X128023809Y-137604819D02*
X128261904Y-137604819D01*
X128261904Y-137604819D02*
X128404761Y-137652438D01*
X128833333Y-138081009D02*
X129166666Y-138081009D01*
X129309523Y-138604819D02*
X128833333Y-138604819D01*
X128833333Y-138604819D02*
X128833333Y-137604819D01*
X128833333Y-137604819D02*
X129309523Y-137604819D01*
X129595238Y-137604819D02*
X130166666Y-137604819D01*
X129880952Y-138604819D02*
X129880952Y-137604819D01*
X125404762Y-130357200D02*
X125547619Y-130404819D01*
X125547619Y-130404819D02*
X125785714Y-130404819D01*
X125785714Y-130404819D02*
X125880952Y-130357200D01*
X125880952Y-130357200D02*
X125928571Y-130309580D01*
X125928571Y-130309580D02*
X125976190Y-130214342D01*
X125976190Y-130214342D02*
X125976190Y-130119104D01*
X125976190Y-130119104D02*
X125928571Y-130023866D01*
X125928571Y-130023866D02*
X125880952Y-129976247D01*
X125880952Y-129976247D02*
X125785714Y-129928628D01*
X125785714Y-129928628D02*
X125595238Y-129881009D01*
X125595238Y-129881009D02*
X125500000Y-129833390D01*
X125500000Y-129833390D02*
X125452381Y-129785771D01*
X125452381Y-129785771D02*
X125404762Y-129690533D01*
X125404762Y-129690533D02*
X125404762Y-129595295D01*
X125404762Y-129595295D02*
X125452381Y-129500057D01*
X125452381Y-129500057D02*
X125500000Y-129452438D01*
X125500000Y-129452438D02*
X125595238Y-129404819D01*
X125595238Y-129404819D02*
X125833333Y-129404819D01*
X125833333Y-129404819D02*
X125976190Y-129452438D01*
X126309524Y-129404819D02*
X126547619Y-130404819D01*
X126547619Y-130404819D02*
X126738095Y-129690533D01*
X126738095Y-129690533D02*
X126928571Y-130404819D01*
X126928571Y-130404819D02*
X127166667Y-129404819D01*
X127309524Y-130500057D02*
X128071428Y-130500057D01*
X128880952Y-130404819D02*
X128547619Y-129928628D01*
X128309524Y-130404819D02*
X128309524Y-129404819D01*
X128309524Y-129404819D02*
X128690476Y-129404819D01*
X128690476Y-129404819D02*
X128785714Y-129452438D01*
X128785714Y-129452438D02*
X128833333Y-129500057D01*
X128833333Y-129500057D02*
X128880952Y-129595295D01*
X128880952Y-129595295D02*
X128880952Y-129738152D01*
X128880952Y-129738152D02*
X128833333Y-129833390D01*
X128833333Y-129833390D02*
X128785714Y-129881009D01*
X128785714Y-129881009D02*
X128690476Y-129928628D01*
X128690476Y-129928628D02*
X128309524Y-129928628D01*
X129261905Y-130357200D02*
X129404762Y-130404819D01*
X129404762Y-130404819D02*
X129642857Y-130404819D01*
X129642857Y-130404819D02*
X129738095Y-130357200D01*
X129738095Y-130357200D02*
X129785714Y-130309580D01*
X129785714Y-130309580D02*
X129833333Y-130214342D01*
X129833333Y-130214342D02*
X129833333Y-130119104D01*
X129833333Y-130119104D02*
X129785714Y-130023866D01*
X129785714Y-130023866D02*
X129738095Y-129976247D01*
X129738095Y-129976247D02*
X129642857Y-129928628D01*
X129642857Y-129928628D02*
X129452381Y-129881009D01*
X129452381Y-129881009D02*
X129357143Y-129833390D01*
X129357143Y-129833390D02*
X129309524Y-129785771D01*
X129309524Y-129785771D02*
X129261905Y-129690533D01*
X129261905Y-129690533D02*
X129261905Y-129595295D01*
X129261905Y-129595295D02*
X129309524Y-129500057D01*
X129309524Y-129500057D02*
X129357143Y-129452438D01*
X129357143Y-129452438D02*
X129452381Y-129404819D01*
X129452381Y-129404819D02*
X129690476Y-129404819D01*
X129690476Y-129404819D02*
X129833333Y-129452438D01*
X130119048Y-129404819D02*
X130690476Y-129404819D01*
X130404762Y-130404819D02*
X130404762Y-129404819D01*
D11*
X156733094Y-104079271D02*
X156733094Y-102809271D01*
X156733094Y-102809271D02*
X157156428Y-103716414D01*
X157156428Y-103716414D02*
X157579761Y-102809271D01*
X157579761Y-102809271D02*
X157579761Y-104079271D01*
X158365952Y-104079271D02*
X158245000Y-104018795D01*
X158245000Y-104018795D02*
X158184523Y-103958318D01*
X158184523Y-103958318D02*
X158124047Y-103837366D01*
X158124047Y-103837366D02*
X158124047Y-103474509D01*
X158124047Y-103474509D02*
X158184523Y-103353556D01*
X158184523Y-103353556D02*
X158245000Y-103293080D01*
X158245000Y-103293080D02*
X158365952Y-103232604D01*
X158365952Y-103232604D02*
X158547381Y-103232604D01*
X158547381Y-103232604D02*
X158668333Y-103293080D01*
X158668333Y-103293080D02*
X158728809Y-103353556D01*
X158728809Y-103353556D02*
X158789285Y-103474509D01*
X158789285Y-103474509D02*
X158789285Y-103837366D01*
X158789285Y-103837366D02*
X158728809Y-103958318D01*
X158728809Y-103958318D02*
X158668333Y-104018795D01*
X158668333Y-104018795D02*
X158547381Y-104079271D01*
X158547381Y-104079271D02*
X158365952Y-104079271D01*
X159877857Y-103232604D02*
X159877857Y-104079271D01*
X159333571Y-103232604D02*
X159333571Y-103897842D01*
X159333571Y-103897842D02*
X159394048Y-104018795D01*
X159394048Y-104018795D02*
X159515000Y-104079271D01*
X159515000Y-104079271D02*
X159696429Y-104079271D01*
X159696429Y-104079271D02*
X159817381Y-104018795D01*
X159817381Y-104018795D02*
X159877857Y-103958318D01*
X160482619Y-103232604D02*
X160482619Y-104079271D01*
X160482619Y-103353556D02*
X160543096Y-103293080D01*
X160543096Y-103293080D02*
X160664048Y-103232604D01*
X160664048Y-103232604D02*
X160845477Y-103232604D01*
X160845477Y-103232604D02*
X160966429Y-103293080D01*
X160966429Y-103293080D02*
X161026905Y-103414033D01*
X161026905Y-103414033D02*
X161026905Y-104079271D01*
X161450239Y-103232604D02*
X161934048Y-103232604D01*
X161631667Y-102809271D02*
X161631667Y-103897842D01*
X161631667Y-103897842D02*
X161692144Y-104018795D01*
X161692144Y-104018795D02*
X161813096Y-104079271D01*
X161813096Y-104079271D02*
X161934048Y-104079271D01*
X162357381Y-104079271D02*
X162357381Y-103232604D01*
X162357381Y-102809271D02*
X162296905Y-102869747D01*
X162296905Y-102869747D02*
X162357381Y-102930223D01*
X162357381Y-102930223D02*
X162417858Y-102869747D01*
X162417858Y-102869747D02*
X162357381Y-102809271D01*
X162357381Y-102809271D02*
X162357381Y-102930223D01*
X162962143Y-103232604D02*
X162962143Y-104079271D01*
X162962143Y-103353556D02*
X163022620Y-103293080D01*
X163022620Y-103293080D02*
X163143572Y-103232604D01*
X163143572Y-103232604D02*
X163325001Y-103232604D01*
X163325001Y-103232604D02*
X163445953Y-103293080D01*
X163445953Y-103293080D02*
X163506429Y-103414033D01*
X163506429Y-103414033D02*
X163506429Y-104079271D01*
X164655477Y-103232604D02*
X164655477Y-104260699D01*
X164655477Y-104260699D02*
X164595001Y-104381652D01*
X164595001Y-104381652D02*
X164534525Y-104442128D01*
X164534525Y-104442128D02*
X164413572Y-104502604D01*
X164413572Y-104502604D02*
X164232144Y-104502604D01*
X164232144Y-104502604D02*
X164111191Y-104442128D01*
X164655477Y-104018795D02*
X164534525Y-104079271D01*
X164534525Y-104079271D02*
X164292620Y-104079271D01*
X164292620Y-104079271D02*
X164171668Y-104018795D01*
X164171668Y-104018795D02*
X164111191Y-103958318D01*
X164111191Y-103958318D02*
X164050715Y-103837366D01*
X164050715Y-103837366D02*
X164050715Y-103474509D01*
X164050715Y-103474509D02*
X164111191Y-103353556D01*
X164111191Y-103353556D02*
X164171668Y-103293080D01*
X164171668Y-103293080D02*
X164292620Y-103232604D01*
X164292620Y-103232604D02*
X164534525Y-103232604D01*
X164534525Y-103232604D02*
X164655477Y-103293080D01*
X165260239Y-104079271D02*
X165260239Y-102809271D01*
X165260239Y-103414033D02*
X165985954Y-103414033D01*
X165985954Y-104079271D02*
X165985954Y-102809271D01*
X166772144Y-104079271D02*
X166651192Y-104018795D01*
X166651192Y-104018795D02*
X166590715Y-103958318D01*
X166590715Y-103958318D02*
X166530239Y-103837366D01*
X166530239Y-103837366D02*
X166530239Y-103474509D01*
X166530239Y-103474509D02*
X166590715Y-103353556D01*
X166590715Y-103353556D02*
X166651192Y-103293080D01*
X166651192Y-103293080D02*
X166772144Y-103232604D01*
X166772144Y-103232604D02*
X166953573Y-103232604D01*
X166953573Y-103232604D02*
X167074525Y-103293080D01*
X167074525Y-103293080D02*
X167135001Y-103353556D01*
X167135001Y-103353556D02*
X167195477Y-103474509D01*
X167195477Y-103474509D02*
X167195477Y-103837366D01*
X167195477Y-103837366D02*
X167135001Y-103958318D01*
X167135001Y-103958318D02*
X167074525Y-104018795D01*
X167074525Y-104018795D02*
X166953573Y-104079271D01*
X166953573Y-104079271D02*
X166772144Y-104079271D01*
X167921192Y-104079271D02*
X167800240Y-104018795D01*
X167800240Y-104018795D02*
X167739763Y-103897842D01*
X167739763Y-103897842D02*
X167739763Y-102809271D01*
X168888811Y-104018795D02*
X168767859Y-104079271D01*
X168767859Y-104079271D02*
X168525954Y-104079271D01*
X168525954Y-104079271D02*
X168405001Y-104018795D01*
X168405001Y-104018795D02*
X168344525Y-103897842D01*
X168344525Y-103897842D02*
X168344525Y-103414033D01*
X168344525Y-103414033D02*
X168405001Y-103293080D01*
X168405001Y-103293080D02*
X168525954Y-103232604D01*
X168525954Y-103232604D02*
X168767859Y-103232604D01*
X168767859Y-103232604D02*
X168888811Y-103293080D01*
X168888811Y-103293080D02*
X168949287Y-103414033D01*
X168949287Y-103414033D02*
X168949287Y-103534985D01*
X168949287Y-103534985D02*
X168344525Y-103655937D01*
X169191192Y-104200223D02*
X170158811Y-104200223D01*
X170340239Y-102809271D02*
X171126430Y-102809271D01*
X171126430Y-102809271D02*
X170703096Y-103293080D01*
X170703096Y-103293080D02*
X170884525Y-103293080D01*
X170884525Y-103293080D02*
X171005477Y-103353556D01*
X171005477Y-103353556D02*
X171065953Y-103414033D01*
X171065953Y-103414033D02*
X171126430Y-103534985D01*
X171126430Y-103534985D02*
X171126430Y-103837366D01*
X171126430Y-103837366D02*
X171065953Y-103958318D01*
X171065953Y-103958318D02*
X171005477Y-104018795D01*
X171005477Y-104018795D02*
X170884525Y-104079271D01*
X170884525Y-104079271D02*
X170521668Y-104079271D01*
X170521668Y-104079271D02*
X170400715Y-104018795D01*
X170400715Y-104018795D02*
X170340239Y-103958318D01*
X171670715Y-103958318D02*
X171731192Y-104018795D01*
X171731192Y-104018795D02*
X171670715Y-104079271D01*
X171670715Y-104079271D02*
X171610239Y-104018795D01*
X171610239Y-104018795D02*
X171670715Y-103958318D01*
X171670715Y-103958318D02*
X171670715Y-104079271D01*
X172215001Y-102930223D02*
X172275477Y-102869747D01*
X172275477Y-102869747D02*
X172396430Y-102809271D01*
X172396430Y-102809271D02*
X172698811Y-102809271D01*
X172698811Y-102809271D02*
X172819763Y-102869747D01*
X172819763Y-102869747D02*
X172880239Y-102930223D01*
X172880239Y-102930223D02*
X172940716Y-103051175D01*
X172940716Y-103051175D02*
X172940716Y-103172128D01*
X172940716Y-103172128D02*
X172880239Y-103353556D01*
X172880239Y-103353556D02*
X172154525Y-104079271D01*
X172154525Y-104079271D02*
X172940716Y-104079271D01*
X173485001Y-104079271D02*
X173485001Y-103232604D01*
X173485001Y-103353556D02*
X173545478Y-103293080D01*
X173545478Y-103293080D02*
X173666430Y-103232604D01*
X173666430Y-103232604D02*
X173847859Y-103232604D01*
X173847859Y-103232604D02*
X173968811Y-103293080D01*
X173968811Y-103293080D02*
X174029287Y-103414033D01*
X174029287Y-103414033D02*
X174029287Y-104079271D01*
X174029287Y-103414033D02*
X174089763Y-103293080D01*
X174089763Y-103293080D02*
X174210716Y-103232604D01*
X174210716Y-103232604D02*
X174392144Y-103232604D01*
X174392144Y-103232604D02*
X174513097Y-103293080D01*
X174513097Y-103293080D02*
X174573573Y-103414033D01*
X174573573Y-103414033D02*
X174573573Y-104079271D01*
X175178334Y-104079271D02*
X175178334Y-103232604D01*
X175178334Y-103353556D02*
X175238811Y-103293080D01*
X175238811Y-103293080D02*
X175359763Y-103232604D01*
X175359763Y-103232604D02*
X175541192Y-103232604D01*
X175541192Y-103232604D02*
X175662144Y-103293080D01*
X175662144Y-103293080D02*
X175722620Y-103414033D01*
X175722620Y-103414033D02*
X175722620Y-104079271D01*
X175722620Y-103414033D02*
X175783096Y-103293080D01*
X175783096Y-103293080D02*
X175904049Y-103232604D01*
X175904049Y-103232604D02*
X176085477Y-103232604D01*
X176085477Y-103232604D02*
X176206430Y-103293080D01*
X176206430Y-103293080D02*
X176266906Y-103414033D01*
X176266906Y-103414033D02*
X176266906Y-104079271D01*
D10*
X125104819Y-114119047D02*
X125104819Y-114690475D01*
X125104819Y-114404761D02*
X124104819Y-114404761D01*
X124104819Y-114404761D02*
X124247676Y-114499999D01*
X124247676Y-114499999D02*
X124342914Y-114595237D01*
X124342914Y-114595237D02*
X124390533Y-114690475D01*
X125104819Y-113690475D02*
X124104819Y-113690475D01*
X124723866Y-113595237D02*
X125104819Y-113309523D01*
X124438152Y-113309523D02*
X124819104Y-113690475D01*
D12*
X123227149Y-114083333D02*
X122989054Y-114249999D01*
X123227149Y-114369047D02*
X122727149Y-114369047D01*
X122727149Y-114369047D02*
X122727149Y-114178571D01*
X122727149Y-114178571D02*
X122750959Y-114130952D01*
X122750959Y-114130952D02*
X122774768Y-114107142D01*
X122774768Y-114107142D02*
X122822387Y-114083333D01*
X122822387Y-114083333D02*
X122893816Y-114083333D01*
X122893816Y-114083333D02*
X122941435Y-114107142D01*
X122941435Y-114107142D02*
X122965244Y-114130952D01*
X122965244Y-114130952D02*
X122989054Y-114178571D01*
X122989054Y-114178571D02*
X122989054Y-114369047D01*
X122774768Y-113892856D02*
X122750959Y-113869047D01*
X122750959Y-113869047D02*
X122727149Y-113821428D01*
X122727149Y-113821428D02*
X122727149Y-113702380D01*
X122727149Y-113702380D02*
X122750959Y-113654761D01*
X122750959Y-113654761D02*
X122774768Y-113630952D01*
X122774768Y-113630952D02*
X122822387Y-113607142D01*
X122822387Y-113607142D02*
X122870006Y-113607142D01*
X122870006Y-113607142D02*
X122941435Y-113630952D01*
X122941435Y-113630952D02*
X123227149Y-113916666D01*
X123227149Y-113916666D02*
X123227149Y-113607142D01*
D10*
X160071428Y-125581009D02*
X160214285Y-125628628D01*
X160214285Y-125628628D02*
X160261904Y-125676247D01*
X160261904Y-125676247D02*
X160309523Y-125771485D01*
X160309523Y-125771485D02*
X160309523Y-125914342D01*
X160309523Y-125914342D02*
X160261904Y-126009580D01*
X160261904Y-126009580D02*
X160214285Y-126057200D01*
X160214285Y-126057200D02*
X160119047Y-126104819D01*
X160119047Y-126104819D02*
X159738095Y-126104819D01*
X159738095Y-126104819D02*
X159738095Y-125104819D01*
X159738095Y-125104819D02*
X160071428Y-125104819D01*
X160071428Y-125104819D02*
X160166666Y-125152438D01*
X160166666Y-125152438D02*
X160214285Y-125200057D01*
X160214285Y-125200057D02*
X160261904Y-125295295D01*
X160261904Y-125295295D02*
X160261904Y-125390533D01*
X160261904Y-125390533D02*
X160214285Y-125485771D01*
X160214285Y-125485771D02*
X160166666Y-125533390D01*
X160166666Y-125533390D02*
X160071428Y-125581009D01*
X160071428Y-125581009D02*
X159738095Y-125581009D01*
X160738095Y-126104819D02*
X160738095Y-125438152D01*
X160738095Y-125104819D02*
X160690476Y-125152438D01*
X160690476Y-125152438D02*
X160738095Y-125200057D01*
X160738095Y-125200057D02*
X160785714Y-125152438D01*
X160785714Y-125152438D02*
X160738095Y-125104819D01*
X160738095Y-125104819D02*
X160738095Y-125200057D01*
X161071428Y-125438152D02*
X161452380Y-125438152D01*
X161214285Y-125104819D02*
X161214285Y-125961961D01*
X161214285Y-125961961D02*
X161261904Y-126057200D01*
X161261904Y-126057200D02*
X161357142Y-126104819D01*
X161357142Y-126104819D02*
X161452380Y-126104819D01*
X162214285Y-125438152D02*
X162214285Y-126104819D01*
X161976190Y-125057200D02*
X161738095Y-125771485D01*
X161738095Y-125771485D02*
X162357142Y-125771485D01*
D12*
X160630952Y-124227149D02*
X160630952Y-123727149D01*
X160630952Y-123727149D02*
X160750000Y-123727149D01*
X160750000Y-123727149D02*
X160821428Y-123750959D01*
X160821428Y-123750959D02*
X160869047Y-123798578D01*
X160869047Y-123798578D02*
X160892857Y-123846197D01*
X160892857Y-123846197D02*
X160916666Y-123941435D01*
X160916666Y-123941435D02*
X160916666Y-124012863D01*
X160916666Y-124012863D02*
X160892857Y-124108101D01*
X160892857Y-124108101D02*
X160869047Y-124155720D01*
X160869047Y-124155720D02*
X160821428Y-124203340D01*
X160821428Y-124203340D02*
X160750000Y-124227149D01*
X160750000Y-124227149D02*
X160630952Y-124227149D01*
X161083333Y-123727149D02*
X161416666Y-123727149D01*
X161416666Y-123727149D02*
X161202381Y-124227149D01*
D10*
X154214286Y-111104819D02*
X154833333Y-111104819D01*
X154833333Y-111104819D02*
X154500000Y-111485771D01*
X154500000Y-111485771D02*
X154642857Y-111485771D01*
X154642857Y-111485771D02*
X154738095Y-111533390D01*
X154738095Y-111533390D02*
X154785714Y-111581009D01*
X154785714Y-111581009D02*
X154833333Y-111676247D01*
X154833333Y-111676247D02*
X154833333Y-111914342D01*
X154833333Y-111914342D02*
X154785714Y-112009580D01*
X154785714Y-112009580D02*
X154738095Y-112057200D01*
X154738095Y-112057200D02*
X154642857Y-112104819D01*
X154642857Y-112104819D02*
X154357143Y-112104819D01*
X154357143Y-112104819D02*
X154261905Y-112057200D01*
X154261905Y-112057200D02*
X154214286Y-112009580D01*
X155166667Y-111104819D02*
X155785714Y-111104819D01*
X155785714Y-111104819D02*
X155452381Y-111485771D01*
X155452381Y-111485771D02*
X155595238Y-111485771D01*
X155595238Y-111485771D02*
X155690476Y-111533390D01*
X155690476Y-111533390D02*
X155738095Y-111581009D01*
X155738095Y-111581009D02*
X155785714Y-111676247D01*
X155785714Y-111676247D02*
X155785714Y-111914342D01*
X155785714Y-111914342D02*
X155738095Y-112009580D01*
X155738095Y-112009580D02*
X155690476Y-112057200D01*
X155690476Y-112057200D02*
X155595238Y-112104819D01*
X155595238Y-112104819D02*
X155309524Y-112104819D01*
X155309524Y-112104819D02*
X155214286Y-112057200D01*
X155214286Y-112057200D02*
X155166667Y-112009580D01*
X156404762Y-111104819D02*
X156500000Y-111104819D01*
X156500000Y-111104819D02*
X156595238Y-111152438D01*
X156595238Y-111152438D02*
X156642857Y-111200057D01*
X156642857Y-111200057D02*
X156690476Y-111295295D01*
X156690476Y-111295295D02*
X156738095Y-111485771D01*
X156738095Y-111485771D02*
X156738095Y-111723866D01*
X156738095Y-111723866D02*
X156690476Y-111914342D01*
X156690476Y-111914342D02*
X156642857Y-112009580D01*
X156642857Y-112009580D02*
X156595238Y-112057200D01*
X156595238Y-112057200D02*
X156500000Y-112104819D01*
X156500000Y-112104819D02*
X156404762Y-112104819D01*
X156404762Y-112104819D02*
X156309524Y-112057200D01*
X156309524Y-112057200D02*
X156261905Y-112009580D01*
X156261905Y-112009580D02*
X156214286Y-111914342D01*
X156214286Y-111914342D02*
X156166667Y-111723866D01*
X156166667Y-111723866D02*
X156166667Y-111485771D01*
X156166667Y-111485771D02*
X156214286Y-111295295D01*
X156214286Y-111295295D02*
X156261905Y-111200057D01*
X156261905Y-111200057D02*
X156309524Y-111152438D01*
X156309524Y-111152438D02*
X156404762Y-111104819D01*
D12*
X155416666Y-110227149D02*
X155250000Y-109989054D01*
X155130952Y-110227149D02*
X155130952Y-109727149D01*
X155130952Y-109727149D02*
X155321428Y-109727149D01*
X155321428Y-109727149D02*
X155369047Y-109750959D01*
X155369047Y-109750959D02*
X155392857Y-109774768D01*
X155392857Y-109774768D02*
X155416666Y-109822387D01*
X155416666Y-109822387D02*
X155416666Y-109893816D01*
X155416666Y-109893816D02*
X155392857Y-109941435D01*
X155392857Y-109941435D02*
X155369047Y-109965244D01*
X155369047Y-109965244D02*
X155321428Y-109989054D01*
X155321428Y-109989054D02*
X155130952Y-109989054D01*
X155583333Y-109727149D02*
X155892857Y-109727149D01*
X155892857Y-109727149D02*
X155726190Y-109917625D01*
X155726190Y-109917625D02*
X155797619Y-109917625D01*
X155797619Y-109917625D02*
X155845238Y-109941435D01*
X155845238Y-109941435D02*
X155869047Y-109965244D01*
X155869047Y-109965244D02*
X155892857Y-110012863D01*
X155892857Y-110012863D02*
X155892857Y-110131911D01*
X155892857Y-110131911D02*
X155869047Y-110179530D01*
X155869047Y-110179530D02*
X155845238Y-110203340D01*
X155845238Y-110203340D02*
X155797619Y-110227149D01*
X155797619Y-110227149D02*
X155654762Y-110227149D01*
X155654762Y-110227149D02*
X155607143Y-110203340D01*
X155607143Y-110203340D02*
X155583333Y-110179530D01*
D10*
X154214286Y-128604819D02*
X154833333Y-128604819D01*
X154833333Y-128604819D02*
X154500000Y-128985771D01*
X154500000Y-128985771D02*
X154642857Y-128985771D01*
X154642857Y-128985771D02*
X154738095Y-129033390D01*
X154738095Y-129033390D02*
X154785714Y-129081009D01*
X154785714Y-129081009D02*
X154833333Y-129176247D01*
X154833333Y-129176247D02*
X154833333Y-129414342D01*
X154833333Y-129414342D02*
X154785714Y-129509580D01*
X154785714Y-129509580D02*
X154738095Y-129557200D01*
X154738095Y-129557200D02*
X154642857Y-129604819D01*
X154642857Y-129604819D02*
X154357143Y-129604819D01*
X154357143Y-129604819D02*
X154261905Y-129557200D01*
X154261905Y-129557200D02*
X154214286Y-129509580D01*
X155166667Y-128604819D02*
X155785714Y-128604819D01*
X155785714Y-128604819D02*
X155452381Y-128985771D01*
X155452381Y-128985771D02*
X155595238Y-128985771D01*
X155595238Y-128985771D02*
X155690476Y-129033390D01*
X155690476Y-129033390D02*
X155738095Y-129081009D01*
X155738095Y-129081009D02*
X155785714Y-129176247D01*
X155785714Y-129176247D02*
X155785714Y-129414342D01*
X155785714Y-129414342D02*
X155738095Y-129509580D01*
X155738095Y-129509580D02*
X155690476Y-129557200D01*
X155690476Y-129557200D02*
X155595238Y-129604819D01*
X155595238Y-129604819D02*
X155309524Y-129604819D01*
X155309524Y-129604819D02*
X155214286Y-129557200D01*
X155214286Y-129557200D02*
X155166667Y-129509580D01*
X156404762Y-128604819D02*
X156500000Y-128604819D01*
X156500000Y-128604819D02*
X156595238Y-128652438D01*
X156595238Y-128652438D02*
X156642857Y-128700057D01*
X156642857Y-128700057D02*
X156690476Y-128795295D01*
X156690476Y-128795295D02*
X156738095Y-128985771D01*
X156738095Y-128985771D02*
X156738095Y-129223866D01*
X156738095Y-129223866D02*
X156690476Y-129414342D01*
X156690476Y-129414342D02*
X156642857Y-129509580D01*
X156642857Y-129509580D02*
X156595238Y-129557200D01*
X156595238Y-129557200D02*
X156500000Y-129604819D01*
X156500000Y-129604819D02*
X156404762Y-129604819D01*
X156404762Y-129604819D02*
X156309524Y-129557200D01*
X156309524Y-129557200D02*
X156261905Y-129509580D01*
X156261905Y-129509580D02*
X156214286Y-129414342D01*
X156214286Y-129414342D02*
X156166667Y-129223866D01*
X156166667Y-129223866D02*
X156166667Y-128985771D01*
X156166667Y-128985771D02*
X156214286Y-128795295D01*
X156214286Y-128795295D02*
X156261905Y-128700057D01*
X156261905Y-128700057D02*
X156309524Y-128652438D01*
X156309524Y-128652438D02*
X156404762Y-128604819D01*
D12*
X155416666Y-127727149D02*
X155250000Y-127489054D01*
X155130952Y-127727149D02*
X155130952Y-127227149D01*
X155130952Y-127227149D02*
X155321428Y-127227149D01*
X155321428Y-127227149D02*
X155369047Y-127250959D01*
X155369047Y-127250959D02*
X155392857Y-127274768D01*
X155392857Y-127274768D02*
X155416666Y-127322387D01*
X155416666Y-127322387D02*
X155416666Y-127393816D01*
X155416666Y-127393816D02*
X155392857Y-127441435D01*
X155392857Y-127441435D02*
X155369047Y-127465244D01*
X155369047Y-127465244D02*
X155321428Y-127489054D01*
X155321428Y-127489054D02*
X155130952Y-127489054D01*
X155702381Y-127441435D02*
X155654762Y-127417625D01*
X155654762Y-127417625D02*
X155630952Y-127393816D01*
X155630952Y-127393816D02*
X155607143Y-127346197D01*
X155607143Y-127346197D02*
X155607143Y-127322387D01*
X155607143Y-127322387D02*
X155630952Y-127274768D01*
X155630952Y-127274768D02*
X155654762Y-127250959D01*
X155654762Y-127250959D02*
X155702381Y-127227149D01*
X155702381Y-127227149D02*
X155797619Y-127227149D01*
X155797619Y-127227149D02*
X155845238Y-127250959D01*
X155845238Y-127250959D02*
X155869047Y-127274768D01*
X155869047Y-127274768D02*
X155892857Y-127322387D01*
X155892857Y-127322387D02*
X155892857Y-127346197D01*
X155892857Y-127346197D02*
X155869047Y-127393816D01*
X155869047Y-127393816D02*
X155845238Y-127417625D01*
X155845238Y-127417625D02*
X155797619Y-127441435D01*
X155797619Y-127441435D02*
X155702381Y-127441435D01*
X155702381Y-127441435D02*
X155654762Y-127465244D01*
X155654762Y-127465244D02*
X155630952Y-127489054D01*
X155630952Y-127489054D02*
X155607143Y-127536673D01*
X155607143Y-127536673D02*
X155607143Y-127631911D01*
X155607143Y-127631911D02*
X155630952Y-127679530D01*
X155630952Y-127679530D02*
X155654762Y-127703340D01*
X155654762Y-127703340D02*
X155702381Y-127727149D01*
X155702381Y-127727149D02*
X155797619Y-127727149D01*
X155797619Y-127727149D02*
X155845238Y-127703340D01*
X155845238Y-127703340D02*
X155869047Y-127679530D01*
X155869047Y-127679530D02*
X155892857Y-127631911D01*
X155892857Y-127631911D02*
X155892857Y-127536673D01*
X155892857Y-127536673D02*
X155869047Y-127489054D01*
X155869047Y-127489054D02*
X155845238Y-127465244D01*
X155845238Y-127465244D02*
X155797619Y-127441435D01*
D10*
X160071428Y-132581009D02*
X160214285Y-132628628D01*
X160214285Y-132628628D02*
X160261904Y-132676247D01*
X160261904Y-132676247D02*
X160309523Y-132771485D01*
X160309523Y-132771485D02*
X160309523Y-132914342D01*
X160309523Y-132914342D02*
X160261904Y-133009580D01*
X160261904Y-133009580D02*
X160214285Y-133057200D01*
X160214285Y-133057200D02*
X160119047Y-133104819D01*
X160119047Y-133104819D02*
X159738095Y-133104819D01*
X159738095Y-133104819D02*
X159738095Y-132104819D01*
X159738095Y-132104819D02*
X160071428Y-132104819D01*
X160071428Y-132104819D02*
X160166666Y-132152438D01*
X160166666Y-132152438D02*
X160214285Y-132200057D01*
X160214285Y-132200057D02*
X160261904Y-132295295D01*
X160261904Y-132295295D02*
X160261904Y-132390533D01*
X160261904Y-132390533D02*
X160214285Y-132485771D01*
X160214285Y-132485771D02*
X160166666Y-132533390D01*
X160166666Y-132533390D02*
X160071428Y-132581009D01*
X160071428Y-132581009D02*
X159738095Y-132581009D01*
X160738095Y-133104819D02*
X160738095Y-132438152D01*
X160738095Y-132104819D02*
X160690476Y-132152438D01*
X160690476Y-132152438D02*
X160738095Y-132200057D01*
X160738095Y-132200057D02*
X160785714Y-132152438D01*
X160785714Y-132152438D02*
X160738095Y-132104819D01*
X160738095Y-132104819D02*
X160738095Y-132200057D01*
X161071428Y-132438152D02*
X161452380Y-132438152D01*
X161214285Y-132104819D02*
X161214285Y-132961961D01*
X161214285Y-132961961D02*
X161261904Y-133057200D01*
X161261904Y-133057200D02*
X161357142Y-133104819D01*
X161357142Y-133104819D02*
X161452380Y-133104819D01*
X162214285Y-132104819D02*
X162023809Y-132104819D01*
X162023809Y-132104819D02*
X161928571Y-132152438D01*
X161928571Y-132152438D02*
X161880952Y-132200057D01*
X161880952Y-132200057D02*
X161785714Y-132342914D01*
X161785714Y-132342914D02*
X161738095Y-132533390D01*
X161738095Y-132533390D02*
X161738095Y-132914342D01*
X161738095Y-132914342D02*
X161785714Y-133009580D01*
X161785714Y-133009580D02*
X161833333Y-133057200D01*
X161833333Y-133057200D02*
X161928571Y-133104819D01*
X161928571Y-133104819D02*
X162119047Y-133104819D01*
X162119047Y-133104819D02*
X162214285Y-133057200D01*
X162214285Y-133057200D02*
X162261904Y-133009580D01*
X162261904Y-133009580D02*
X162309523Y-132914342D01*
X162309523Y-132914342D02*
X162309523Y-132676247D01*
X162309523Y-132676247D02*
X162261904Y-132581009D01*
X162261904Y-132581009D02*
X162214285Y-132533390D01*
X162214285Y-132533390D02*
X162119047Y-132485771D01*
X162119047Y-132485771D02*
X161928571Y-132485771D01*
X161928571Y-132485771D02*
X161833333Y-132533390D01*
X161833333Y-132533390D02*
X161785714Y-132581009D01*
X161785714Y-132581009D02*
X161738095Y-132676247D01*
D12*
X160630952Y-131227149D02*
X160630952Y-130727149D01*
X160630952Y-130727149D02*
X160750000Y-130727149D01*
X160750000Y-130727149D02*
X160821428Y-130750959D01*
X160821428Y-130750959D02*
X160869047Y-130798578D01*
X160869047Y-130798578D02*
X160892857Y-130846197D01*
X160892857Y-130846197D02*
X160916666Y-130941435D01*
X160916666Y-130941435D02*
X160916666Y-131012863D01*
X160916666Y-131012863D02*
X160892857Y-131108101D01*
X160892857Y-131108101D02*
X160869047Y-131155720D01*
X160869047Y-131155720D02*
X160821428Y-131203340D01*
X160821428Y-131203340D02*
X160750000Y-131227149D01*
X160750000Y-131227149D02*
X160630952Y-131227149D01*
X161154762Y-131227149D02*
X161250000Y-131227149D01*
X161250000Y-131227149D02*
X161297619Y-131203340D01*
X161297619Y-131203340D02*
X161321428Y-131179530D01*
X161321428Y-131179530D02*
X161369047Y-131108101D01*
X161369047Y-131108101D02*
X161392857Y-131012863D01*
X161392857Y-131012863D02*
X161392857Y-130822387D01*
X161392857Y-130822387D02*
X161369047Y-130774768D01*
X161369047Y-130774768D02*
X161345238Y-130750959D01*
X161345238Y-130750959D02*
X161297619Y-130727149D01*
X161297619Y-130727149D02*
X161202381Y-130727149D01*
X161202381Y-130727149D02*
X161154762Y-130750959D01*
X161154762Y-130750959D02*
X161130952Y-130774768D01*
X161130952Y-130774768D02*
X161107143Y-130822387D01*
X161107143Y-130822387D02*
X161107143Y-130941435D01*
X161107143Y-130941435D02*
X161130952Y-130989054D01*
X161130952Y-130989054D02*
X161154762Y-131012863D01*
X161154762Y-131012863D02*
X161202381Y-131036673D01*
X161202381Y-131036673D02*
X161297619Y-131036673D01*
X161297619Y-131036673D02*
X161345238Y-131012863D01*
X161345238Y-131012863D02*
X161369047Y-130989054D01*
X161369047Y-130989054D02*
X161392857Y-130941435D01*
D10*
X160071428Y-115081009D02*
X160214285Y-115128628D01*
X160214285Y-115128628D02*
X160261904Y-115176247D01*
X160261904Y-115176247D02*
X160309523Y-115271485D01*
X160309523Y-115271485D02*
X160309523Y-115414342D01*
X160309523Y-115414342D02*
X160261904Y-115509580D01*
X160261904Y-115509580D02*
X160214285Y-115557200D01*
X160214285Y-115557200D02*
X160119047Y-115604819D01*
X160119047Y-115604819D02*
X159738095Y-115604819D01*
X159738095Y-115604819D02*
X159738095Y-114604819D01*
X159738095Y-114604819D02*
X160071428Y-114604819D01*
X160071428Y-114604819D02*
X160166666Y-114652438D01*
X160166666Y-114652438D02*
X160214285Y-114700057D01*
X160214285Y-114700057D02*
X160261904Y-114795295D01*
X160261904Y-114795295D02*
X160261904Y-114890533D01*
X160261904Y-114890533D02*
X160214285Y-114985771D01*
X160214285Y-114985771D02*
X160166666Y-115033390D01*
X160166666Y-115033390D02*
X160071428Y-115081009D01*
X160071428Y-115081009D02*
X159738095Y-115081009D01*
X160738095Y-115604819D02*
X160738095Y-114938152D01*
X160738095Y-114604819D02*
X160690476Y-114652438D01*
X160690476Y-114652438D02*
X160738095Y-114700057D01*
X160738095Y-114700057D02*
X160785714Y-114652438D01*
X160785714Y-114652438D02*
X160738095Y-114604819D01*
X160738095Y-114604819D02*
X160738095Y-114700057D01*
X161071428Y-114938152D02*
X161452380Y-114938152D01*
X161214285Y-114604819D02*
X161214285Y-115461961D01*
X161214285Y-115461961D02*
X161261904Y-115557200D01*
X161261904Y-115557200D02*
X161357142Y-115604819D01*
X161357142Y-115604819D02*
X161452380Y-115604819D01*
X162309523Y-115604819D02*
X161738095Y-115604819D01*
X162023809Y-115604819D02*
X162023809Y-114604819D01*
X162023809Y-114604819D02*
X161928571Y-114747676D01*
X161928571Y-114747676D02*
X161833333Y-114842914D01*
X161833333Y-114842914D02*
X161738095Y-114890533D01*
D12*
X160630952Y-113727149D02*
X160630952Y-113227149D01*
X160630952Y-113227149D02*
X160750000Y-113227149D01*
X160750000Y-113227149D02*
X160821428Y-113250959D01*
X160821428Y-113250959D02*
X160869047Y-113298578D01*
X160869047Y-113298578D02*
X160892857Y-113346197D01*
X160892857Y-113346197D02*
X160916666Y-113441435D01*
X160916666Y-113441435D02*
X160916666Y-113512863D01*
X160916666Y-113512863D02*
X160892857Y-113608101D01*
X160892857Y-113608101D02*
X160869047Y-113655720D01*
X160869047Y-113655720D02*
X160821428Y-113703340D01*
X160821428Y-113703340D02*
X160750000Y-113727149D01*
X160750000Y-113727149D02*
X160630952Y-113727149D01*
X161345238Y-113393816D02*
X161345238Y-113727149D01*
X161226190Y-113203340D02*
X161107143Y-113560482D01*
X161107143Y-113560482D02*
X161416666Y-113560482D01*
D10*
X113428571Y-108104819D02*
X113428571Y-107104819D01*
X113428571Y-107104819D02*
X113809523Y-107104819D01*
X113809523Y-107104819D02*
X113904761Y-107152438D01*
X113904761Y-107152438D02*
X113952380Y-107200057D01*
X113952380Y-107200057D02*
X113999999Y-107295295D01*
X113999999Y-107295295D02*
X113999999Y-107438152D01*
X113999999Y-107438152D02*
X113952380Y-107533390D01*
X113952380Y-107533390D02*
X113904761Y-107581009D01*
X113904761Y-107581009D02*
X113809523Y-107628628D01*
X113809523Y-107628628D02*
X113428571Y-107628628D01*
X114333333Y-107104819D02*
X114571428Y-108104819D01*
X114571428Y-108104819D02*
X114761904Y-107390533D01*
X114761904Y-107390533D02*
X114952380Y-108104819D01*
X114952380Y-108104819D02*
X115190476Y-107104819D01*
X116142856Y-108104819D02*
X115809523Y-107628628D01*
X115571428Y-108104819D02*
X115571428Y-107104819D01*
X115571428Y-107104819D02*
X115952380Y-107104819D01*
X115952380Y-107104819D02*
X116047618Y-107152438D01*
X116047618Y-107152438D02*
X116095237Y-107200057D01*
X116095237Y-107200057D02*
X116142856Y-107295295D01*
X116142856Y-107295295D02*
X116142856Y-107438152D01*
X116142856Y-107438152D02*
X116095237Y-107533390D01*
X116095237Y-107533390D02*
X116047618Y-107581009D01*
X116047618Y-107581009D02*
X115952380Y-107628628D01*
X115952380Y-107628628D02*
X115571428Y-107628628D01*
X116333333Y-108200057D02*
X117095237Y-108200057D01*
X117809523Y-108104819D02*
X117333333Y-108104819D01*
X117333333Y-108104819D02*
X117333333Y-107104819D01*
X118142857Y-107581009D02*
X118476190Y-107581009D01*
X118619047Y-108104819D02*
X118142857Y-108104819D01*
X118142857Y-108104819D02*
X118142857Y-107104819D01*
X118142857Y-107104819D02*
X118619047Y-107104819D01*
X119047619Y-108104819D02*
X119047619Y-107104819D01*
X119047619Y-107104819D02*
X119285714Y-107104819D01*
X119285714Y-107104819D02*
X119428571Y-107152438D01*
X119428571Y-107152438D02*
X119523809Y-107247676D01*
X119523809Y-107247676D02*
X119571428Y-107342914D01*
X119571428Y-107342914D02*
X119619047Y-107533390D01*
X119619047Y-107533390D02*
X119619047Y-107676247D01*
X119619047Y-107676247D02*
X119571428Y-107866723D01*
X119571428Y-107866723D02*
X119523809Y-107961961D01*
X119523809Y-107961961D02*
X119428571Y-108057200D01*
X119428571Y-108057200D02*
X119285714Y-108104819D01*
X119285714Y-108104819D02*
X119047619Y-108104819D01*
D12*
X115392857Y-106227149D02*
X115392857Y-105727149D01*
X115392857Y-105727149D02*
X115511905Y-105727149D01*
X115511905Y-105727149D02*
X115583333Y-105750959D01*
X115583333Y-105750959D02*
X115630952Y-105798578D01*
X115630952Y-105798578D02*
X115654762Y-105846197D01*
X115654762Y-105846197D02*
X115678571Y-105941435D01*
X115678571Y-105941435D02*
X115678571Y-106012863D01*
X115678571Y-106012863D02*
X115654762Y-106108101D01*
X115654762Y-106108101D02*
X115630952Y-106155720D01*
X115630952Y-106155720D02*
X115583333Y-106203340D01*
X115583333Y-106203340D02*
X115511905Y-106227149D01*
X115511905Y-106227149D02*
X115392857Y-106227149D01*
X115773810Y-106274768D02*
X116154762Y-106274768D01*
X116273809Y-106227149D02*
X116273809Y-105727149D01*
X116273809Y-105727149D02*
X116464285Y-105727149D01*
X116464285Y-105727149D02*
X116511904Y-105750959D01*
X116511904Y-105750959D02*
X116535714Y-105774768D01*
X116535714Y-105774768D02*
X116559523Y-105822387D01*
X116559523Y-105822387D02*
X116559523Y-105893816D01*
X116559523Y-105893816D02*
X116535714Y-105941435D01*
X116535714Y-105941435D02*
X116511904Y-105965244D01*
X116511904Y-105965244D02*
X116464285Y-105989054D01*
X116464285Y-105989054D02*
X116273809Y-105989054D01*
X116726190Y-105727149D02*
X116845238Y-106227149D01*
X116845238Y-106227149D02*
X116940476Y-105870006D01*
X116940476Y-105870006D02*
X117035714Y-106227149D01*
X117035714Y-106227149D02*
X117154762Y-105727149D01*
X117630952Y-106227149D02*
X117464286Y-105989054D01*
X117345238Y-106227149D02*
X117345238Y-105727149D01*
X117345238Y-105727149D02*
X117535714Y-105727149D01*
X117535714Y-105727149D02*
X117583333Y-105750959D01*
X117583333Y-105750959D02*
X117607143Y-105774768D01*
X117607143Y-105774768D02*
X117630952Y-105822387D01*
X117630952Y-105822387D02*
X117630952Y-105893816D01*
X117630952Y-105893816D02*
X117607143Y-105941435D01*
X117607143Y-105941435D02*
X117583333Y-105965244D01*
X117583333Y-105965244D02*
X117535714Y-105989054D01*
X117535714Y-105989054D02*
X117345238Y-105989054D01*
D10*
X125333333Y-117854819D02*
X125333333Y-116854819D01*
X125333333Y-116854819D02*
X125904761Y-117854819D01*
X125904761Y-117854819D02*
X125904761Y-116854819D01*
X126380952Y-117331009D02*
X126714285Y-117331009D01*
X126857142Y-117854819D02*
X126380952Y-117854819D01*
X126380952Y-117854819D02*
X126380952Y-116854819D01*
X126380952Y-116854819D02*
X126857142Y-116854819D01*
X127761904Y-116854819D02*
X127285714Y-116854819D01*
X127285714Y-116854819D02*
X127238095Y-117331009D01*
X127238095Y-117331009D02*
X127285714Y-117283390D01*
X127285714Y-117283390D02*
X127380952Y-117235771D01*
X127380952Y-117235771D02*
X127619047Y-117235771D01*
X127619047Y-117235771D02*
X127714285Y-117283390D01*
X127714285Y-117283390D02*
X127761904Y-117331009D01*
X127761904Y-117331009D02*
X127809523Y-117426247D01*
X127809523Y-117426247D02*
X127809523Y-117664342D01*
X127809523Y-117664342D02*
X127761904Y-117759580D01*
X127761904Y-117759580D02*
X127714285Y-117807200D01*
X127714285Y-117807200D02*
X127619047Y-117854819D01*
X127619047Y-117854819D02*
X127380952Y-117854819D01*
X127380952Y-117854819D02*
X127285714Y-117807200D01*
X127285714Y-117807200D02*
X127238095Y-117759580D01*
X128714285Y-116854819D02*
X128238095Y-116854819D01*
X128238095Y-116854819D02*
X128190476Y-117331009D01*
X128190476Y-117331009D02*
X128238095Y-117283390D01*
X128238095Y-117283390D02*
X128333333Y-117235771D01*
X128333333Y-117235771D02*
X128571428Y-117235771D01*
X128571428Y-117235771D02*
X128666666Y-117283390D01*
X128666666Y-117283390D02*
X128714285Y-117331009D01*
X128714285Y-117331009D02*
X128761904Y-117426247D01*
X128761904Y-117426247D02*
X128761904Y-117664342D01*
X128761904Y-117664342D02*
X128714285Y-117759580D01*
X128714285Y-117759580D02*
X128666666Y-117807200D01*
X128666666Y-117807200D02*
X128571428Y-117854819D01*
X128571428Y-117854819D02*
X128333333Y-117854819D01*
X128333333Y-117854819D02*
X128238095Y-117807200D01*
X128238095Y-117807200D02*
X128190476Y-117759580D01*
X129666666Y-116854819D02*
X129190476Y-116854819D01*
X129190476Y-116854819D02*
X129142857Y-117331009D01*
X129142857Y-117331009D02*
X129190476Y-117283390D01*
X129190476Y-117283390D02*
X129285714Y-117235771D01*
X129285714Y-117235771D02*
X129523809Y-117235771D01*
X129523809Y-117235771D02*
X129619047Y-117283390D01*
X129619047Y-117283390D02*
X129666666Y-117331009D01*
X129666666Y-117331009D02*
X129714285Y-117426247D01*
X129714285Y-117426247D02*
X129714285Y-117664342D01*
X129714285Y-117664342D02*
X129666666Y-117759580D01*
X129666666Y-117759580D02*
X129619047Y-117807200D01*
X129619047Y-117807200D02*
X129523809Y-117854819D01*
X129523809Y-117854819D02*
X129285714Y-117854819D01*
X129285714Y-117854819D02*
X129190476Y-117807200D01*
X129190476Y-117807200D02*
X129142857Y-117759580D01*
X130142857Y-117854819D02*
X130142857Y-116854819D01*
X130142857Y-116854819D02*
X130380952Y-116854819D01*
X130380952Y-116854819D02*
X130523809Y-116902438D01*
X130523809Y-116902438D02*
X130619047Y-116997676D01*
X130619047Y-116997676D02*
X130666666Y-117092914D01*
X130666666Y-117092914D02*
X130714285Y-117283390D01*
X130714285Y-117283390D02*
X130714285Y-117426247D01*
X130714285Y-117426247D02*
X130666666Y-117616723D01*
X130666666Y-117616723D02*
X130619047Y-117711961D01*
X130619047Y-117711961D02*
X130523809Y-117807200D01*
X130523809Y-117807200D02*
X130380952Y-117854819D01*
X130380952Y-117854819D02*
X130142857Y-117854819D01*
X127454819Y-114761904D02*
X128264342Y-114761904D01*
X128264342Y-114761904D02*
X128359580Y-114714285D01*
X128359580Y-114714285D02*
X128407200Y-114666666D01*
X128407200Y-114666666D02*
X128454819Y-114571428D01*
X128454819Y-114571428D02*
X128454819Y-114380952D01*
X128454819Y-114380952D02*
X128407200Y-114285714D01*
X128407200Y-114285714D02*
X128359580Y-114238095D01*
X128359580Y-114238095D02*
X128264342Y-114190476D01*
X128264342Y-114190476D02*
X127454819Y-114190476D01*
X128454819Y-113190476D02*
X128454819Y-113761904D01*
X128454819Y-113476190D02*
X127454819Y-113476190D01*
X127454819Y-113476190D02*
X127597676Y-113571428D01*
X127597676Y-113571428D02*
X127692914Y-113666666D01*
X127692914Y-113666666D02*
X127740533Y-113761904D01*
X160071428Y-129081009D02*
X160214285Y-129128628D01*
X160214285Y-129128628D02*
X160261904Y-129176247D01*
X160261904Y-129176247D02*
X160309523Y-129271485D01*
X160309523Y-129271485D02*
X160309523Y-129414342D01*
X160309523Y-129414342D02*
X160261904Y-129509580D01*
X160261904Y-129509580D02*
X160214285Y-129557200D01*
X160214285Y-129557200D02*
X160119047Y-129604819D01*
X160119047Y-129604819D02*
X159738095Y-129604819D01*
X159738095Y-129604819D02*
X159738095Y-128604819D01*
X159738095Y-128604819D02*
X160071428Y-128604819D01*
X160071428Y-128604819D02*
X160166666Y-128652438D01*
X160166666Y-128652438D02*
X160214285Y-128700057D01*
X160214285Y-128700057D02*
X160261904Y-128795295D01*
X160261904Y-128795295D02*
X160261904Y-128890533D01*
X160261904Y-128890533D02*
X160214285Y-128985771D01*
X160214285Y-128985771D02*
X160166666Y-129033390D01*
X160166666Y-129033390D02*
X160071428Y-129081009D01*
X160071428Y-129081009D02*
X159738095Y-129081009D01*
X160738095Y-129604819D02*
X160738095Y-128938152D01*
X160738095Y-128604819D02*
X160690476Y-128652438D01*
X160690476Y-128652438D02*
X160738095Y-128700057D01*
X160738095Y-128700057D02*
X160785714Y-128652438D01*
X160785714Y-128652438D02*
X160738095Y-128604819D01*
X160738095Y-128604819D02*
X160738095Y-128700057D01*
X161071428Y-128938152D02*
X161452380Y-128938152D01*
X161214285Y-128604819D02*
X161214285Y-129461961D01*
X161214285Y-129461961D02*
X161261904Y-129557200D01*
X161261904Y-129557200D02*
X161357142Y-129604819D01*
X161357142Y-129604819D02*
X161452380Y-129604819D01*
X162261904Y-128604819D02*
X161785714Y-128604819D01*
X161785714Y-128604819D02*
X161738095Y-129081009D01*
X161738095Y-129081009D02*
X161785714Y-129033390D01*
X161785714Y-129033390D02*
X161880952Y-128985771D01*
X161880952Y-128985771D02*
X162119047Y-128985771D01*
X162119047Y-128985771D02*
X162214285Y-129033390D01*
X162214285Y-129033390D02*
X162261904Y-129081009D01*
X162261904Y-129081009D02*
X162309523Y-129176247D01*
X162309523Y-129176247D02*
X162309523Y-129414342D01*
X162309523Y-129414342D02*
X162261904Y-129509580D01*
X162261904Y-129509580D02*
X162214285Y-129557200D01*
X162214285Y-129557200D02*
X162119047Y-129604819D01*
X162119047Y-129604819D02*
X161880952Y-129604819D01*
X161880952Y-129604819D02*
X161785714Y-129557200D01*
X161785714Y-129557200D02*
X161738095Y-129509580D01*
D12*
X160630952Y-127727149D02*
X160630952Y-127227149D01*
X160630952Y-127227149D02*
X160750000Y-127227149D01*
X160750000Y-127227149D02*
X160821428Y-127250959D01*
X160821428Y-127250959D02*
X160869047Y-127298578D01*
X160869047Y-127298578D02*
X160892857Y-127346197D01*
X160892857Y-127346197D02*
X160916666Y-127441435D01*
X160916666Y-127441435D02*
X160916666Y-127512863D01*
X160916666Y-127512863D02*
X160892857Y-127608101D01*
X160892857Y-127608101D02*
X160869047Y-127655720D01*
X160869047Y-127655720D02*
X160821428Y-127703340D01*
X160821428Y-127703340D02*
X160750000Y-127727149D01*
X160750000Y-127727149D02*
X160630952Y-127727149D01*
X161202381Y-127441435D02*
X161154762Y-127417625D01*
X161154762Y-127417625D02*
X161130952Y-127393816D01*
X161130952Y-127393816D02*
X161107143Y-127346197D01*
X161107143Y-127346197D02*
X161107143Y-127322387D01*
X161107143Y-127322387D02*
X161130952Y-127274768D01*
X161130952Y-127274768D02*
X161154762Y-127250959D01*
X161154762Y-127250959D02*
X161202381Y-127227149D01*
X161202381Y-127227149D02*
X161297619Y-127227149D01*
X161297619Y-127227149D02*
X161345238Y-127250959D01*
X161345238Y-127250959D02*
X161369047Y-127274768D01*
X161369047Y-127274768D02*
X161392857Y-127322387D01*
X161392857Y-127322387D02*
X161392857Y-127346197D01*
X161392857Y-127346197D02*
X161369047Y-127393816D01*
X161369047Y-127393816D02*
X161345238Y-127417625D01*
X161345238Y-127417625D02*
X161297619Y-127441435D01*
X161297619Y-127441435D02*
X161202381Y-127441435D01*
X161202381Y-127441435D02*
X161154762Y-127465244D01*
X161154762Y-127465244D02*
X161130952Y-127489054D01*
X161130952Y-127489054D02*
X161107143Y-127536673D01*
X161107143Y-127536673D02*
X161107143Y-127631911D01*
X161107143Y-127631911D02*
X161130952Y-127679530D01*
X161130952Y-127679530D02*
X161154762Y-127703340D01*
X161154762Y-127703340D02*
X161202381Y-127727149D01*
X161202381Y-127727149D02*
X161297619Y-127727149D01*
X161297619Y-127727149D02*
X161345238Y-127703340D01*
X161345238Y-127703340D02*
X161369047Y-127679530D01*
X161369047Y-127679530D02*
X161392857Y-127631911D01*
X161392857Y-127631911D02*
X161392857Y-127536673D01*
X161392857Y-127536673D02*
X161369047Y-127489054D01*
X161369047Y-127489054D02*
X161345238Y-127465244D01*
X161345238Y-127465244D02*
X161297619Y-127441435D01*
D10*
X109190476Y-117284819D02*
X108714286Y-117284819D01*
X108714286Y-117284819D02*
X108666667Y-117761009D01*
X108666667Y-117761009D02*
X108714286Y-117713390D01*
X108714286Y-117713390D02*
X108809524Y-117665771D01*
X108809524Y-117665771D02*
X109047619Y-117665771D01*
X109047619Y-117665771D02*
X109142857Y-117713390D01*
X109142857Y-117713390D02*
X109190476Y-117761009D01*
X109190476Y-117761009D02*
X109238095Y-117856247D01*
X109238095Y-117856247D02*
X109238095Y-118094342D01*
X109238095Y-118094342D02*
X109190476Y-118189580D01*
X109190476Y-118189580D02*
X109142857Y-118237200D01*
X109142857Y-118237200D02*
X109047619Y-118284819D01*
X109047619Y-118284819D02*
X108809524Y-118284819D01*
X108809524Y-118284819D02*
X108714286Y-118237200D01*
X108714286Y-118237200D02*
X108666667Y-118189580D01*
X109857143Y-117284819D02*
X109952381Y-117284819D01*
X109952381Y-117284819D02*
X110047619Y-117332438D01*
X110047619Y-117332438D02*
X110095238Y-117380057D01*
X110095238Y-117380057D02*
X110142857Y-117475295D01*
X110142857Y-117475295D02*
X110190476Y-117665771D01*
X110190476Y-117665771D02*
X110190476Y-117903866D01*
X110190476Y-117903866D02*
X110142857Y-118094342D01*
X110142857Y-118094342D02*
X110095238Y-118189580D01*
X110095238Y-118189580D02*
X110047619Y-118237200D01*
X110047619Y-118237200D02*
X109952381Y-118284819D01*
X109952381Y-118284819D02*
X109857143Y-118284819D01*
X109857143Y-118284819D02*
X109761905Y-118237200D01*
X109761905Y-118237200D02*
X109714286Y-118189580D01*
X109714286Y-118189580D02*
X109666667Y-118094342D01*
X109666667Y-118094342D02*
X109619048Y-117903866D01*
X109619048Y-117903866D02*
X109619048Y-117665771D01*
X109619048Y-117665771D02*
X109666667Y-117475295D01*
X109666667Y-117475295D02*
X109714286Y-117380057D01*
X109714286Y-117380057D02*
X109761905Y-117332438D01*
X109761905Y-117332438D02*
X109857143Y-117284819D01*
X110809524Y-117284819D02*
X110904762Y-117284819D01*
X110904762Y-117284819D02*
X111000000Y-117332438D01*
X111000000Y-117332438D02*
X111047619Y-117380057D01*
X111047619Y-117380057D02*
X111095238Y-117475295D01*
X111095238Y-117475295D02*
X111142857Y-117665771D01*
X111142857Y-117665771D02*
X111142857Y-117903866D01*
X111142857Y-117903866D02*
X111095238Y-118094342D01*
X111095238Y-118094342D02*
X111047619Y-118189580D01*
X111047619Y-118189580D02*
X111000000Y-118237200D01*
X111000000Y-118237200D02*
X110904762Y-118284819D01*
X110904762Y-118284819D02*
X110809524Y-118284819D01*
X110809524Y-118284819D02*
X110714286Y-118237200D01*
X110714286Y-118237200D02*
X110666667Y-118189580D01*
X110666667Y-118189580D02*
X110619048Y-118094342D01*
X110619048Y-118094342D02*
X110571429Y-117903866D01*
X110571429Y-117903866D02*
X110571429Y-117665771D01*
X110571429Y-117665771D02*
X110619048Y-117475295D01*
X110619048Y-117475295D02*
X110666667Y-117380057D01*
X110666667Y-117380057D02*
X110714286Y-117332438D01*
X110714286Y-117332438D02*
X110809524Y-117284819D01*
X111571429Y-118284819D02*
X111571429Y-117618152D01*
X111571429Y-117713390D02*
X111619048Y-117665771D01*
X111619048Y-117665771D02*
X111714286Y-117618152D01*
X111714286Y-117618152D02*
X111857143Y-117618152D01*
X111857143Y-117618152D02*
X111952381Y-117665771D01*
X111952381Y-117665771D02*
X112000000Y-117761009D01*
X112000000Y-117761009D02*
X112000000Y-118284819D01*
X112000000Y-117761009D02*
X112047619Y-117665771D01*
X112047619Y-117665771D02*
X112142857Y-117618152D01*
X112142857Y-117618152D02*
X112285714Y-117618152D01*
X112285714Y-117618152D02*
X112380953Y-117665771D01*
X112380953Y-117665771D02*
X112428572Y-117761009D01*
X112428572Y-117761009D02*
X112428572Y-118284819D01*
X112857143Y-117999104D02*
X113333333Y-117999104D01*
X112761905Y-118284819D02*
X113095238Y-117284819D01*
X113095238Y-117284819D02*
X113428571Y-118284819D01*
D13*
X110733333Y-115944807D02*
X110466667Y-115944807D01*
X110466667Y-116363855D02*
X110466667Y-115563855D01*
X110466667Y-115563855D02*
X110847619Y-115563855D01*
X111571428Y-116363855D02*
X111114285Y-116363855D01*
X111342857Y-116363855D02*
X111342857Y-115563855D01*
X111342857Y-115563855D02*
X111266666Y-115678140D01*
X111266666Y-115678140D02*
X111190476Y-115754331D01*
X111190476Y-115754331D02*
X111114285Y-115792426D01*
D10*
X138104819Y-134595238D02*
X138104819Y-135166666D01*
X138104819Y-134880952D02*
X137104819Y-134880952D01*
X137104819Y-134880952D02*
X137247676Y-134976190D01*
X137247676Y-134976190D02*
X137342914Y-135071428D01*
X137342914Y-135071428D02*
X137390533Y-135166666D01*
X137104819Y-133976190D02*
X137104819Y-133880952D01*
X137104819Y-133880952D02*
X137152438Y-133785714D01*
X137152438Y-133785714D02*
X137200057Y-133738095D01*
X137200057Y-133738095D02*
X137295295Y-133690476D01*
X137295295Y-133690476D02*
X137485771Y-133642857D01*
X137485771Y-133642857D02*
X137723866Y-133642857D01*
X137723866Y-133642857D02*
X137914342Y-133690476D01*
X137914342Y-133690476D02*
X138009580Y-133738095D01*
X138009580Y-133738095D02*
X138057200Y-133785714D01*
X138057200Y-133785714D02*
X138104819Y-133880952D01*
X138104819Y-133880952D02*
X138104819Y-133976190D01*
X138104819Y-133976190D02*
X138057200Y-134071428D01*
X138057200Y-134071428D02*
X138009580Y-134119047D01*
X138009580Y-134119047D02*
X137914342Y-134166666D01*
X137914342Y-134166666D02*
X137723866Y-134214285D01*
X137723866Y-134214285D02*
X137485771Y-134214285D01*
X137485771Y-134214285D02*
X137295295Y-134166666D01*
X137295295Y-134166666D02*
X137200057Y-134119047D01*
X137200057Y-134119047D02*
X137152438Y-134071428D01*
X137152438Y-134071428D02*
X137104819Y-133976190D01*
X138104819Y-133214285D02*
X137104819Y-133214285D01*
X137723866Y-133119047D02*
X138104819Y-132833333D01*
X137438152Y-132833333D02*
X137819104Y-133214285D01*
D12*
X136227149Y-135821428D02*
X135989054Y-135988094D01*
X136227149Y-136107142D02*
X135727149Y-136107142D01*
X135727149Y-136107142D02*
X135727149Y-135916666D01*
X135727149Y-135916666D02*
X135750959Y-135869047D01*
X135750959Y-135869047D02*
X135774768Y-135845237D01*
X135774768Y-135845237D02*
X135822387Y-135821428D01*
X135822387Y-135821428D02*
X135893816Y-135821428D01*
X135893816Y-135821428D02*
X135941435Y-135845237D01*
X135941435Y-135845237D02*
X135965244Y-135869047D01*
X135965244Y-135869047D02*
X135989054Y-135916666D01*
X135989054Y-135916666D02*
X135989054Y-136107142D01*
X136274768Y-135726190D02*
X136274768Y-135345237D01*
X136227149Y-135226190D02*
X135727149Y-135226190D01*
X135727149Y-135226190D02*
X135727149Y-135035714D01*
X135727149Y-135035714D02*
X135750959Y-134988095D01*
X135750959Y-134988095D02*
X135774768Y-134964285D01*
X135774768Y-134964285D02*
X135822387Y-134940476D01*
X135822387Y-134940476D02*
X135893816Y-134940476D01*
X135893816Y-134940476D02*
X135941435Y-134964285D01*
X135941435Y-134964285D02*
X135965244Y-134988095D01*
X135965244Y-134988095D02*
X135989054Y-135035714D01*
X135989054Y-135035714D02*
X135989054Y-135226190D01*
X135727149Y-134726190D02*
X136131911Y-134726190D01*
X136131911Y-134726190D02*
X136179530Y-134702380D01*
X136179530Y-134702380D02*
X136203340Y-134678571D01*
X136203340Y-134678571D02*
X136227149Y-134630952D01*
X136227149Y-134630952D02*
X136227149Y-134535714D01*
X136227149Y-134535714D02*
X136203340Y-134488095D01*
X136203340Y-134488095D02*
X136179530Y-134464285D01*
X136179530Y-134464285D02*
X136131911Y-134440476D01*
X136131911Y-134440476D02*
X135727149Y-134440476D01*
X136227149Y-133964285D02*
X136227149Y-134202380D01*
X136227149Y-134202380D02*
X135727149Y-134202380D01*
X136227149Y-133559523D02*
X136227149Y-133797618D01*
X136227149Y-133797618D02*
X135727149Y-133797618D01*
X136274768Y-133511904D02*
X136274768Y-133130951D01*
X136227149Y-132726190D02*
X135989054Y-132892856D01*
X136227149Y-133011904D02*
X135727149Y-133011904D01*
X135727149Y-133011904D02*
X135727149Y-132821428D01*
X135727149Y-132821428D02*
X135750959Y-132773809D01*
X135750959Y-132773809D02*
X135774768Y-132749999D01*
X135774768Y-132749999D02*
X135822387Y-132726190D01*
X135822387Y-132726190D02*
X135893816Y-132726190D01*
X135893816Y-132726190D02*
X135941435Y-132749999D01*
X135941435Y-132749999D02*
X135965244Y-132773809D01*
X135965244Y-132773809D02*
X135989054Y-132821428D01*
X135989054Y-132821428D02*
X135989054Y-133011904D01*
X136203340Y-132535713D02*
X136227149Y-132464285D01*
X136227149Y-132464285D02*
X136227149Y-132345237D01*
X136227149Y-132345237D02*
X136203340Y-132297618D01*
X136203340Y-132297618D02*
X136179530Y-132273809D01*
X136179530Y-132273809D02*
X136131911Y-132249999D01*
X136131911Y-132249999D02*
X136084292Y-132249999D01*
X136084292Y-132249999D02*
X136036673Y-132273809D01*
X136036673Y-132273809D02*
X136012863Y-132297618D01*
X136012863Y-132297618D02*
X135989054Y-132345237D01*
X135989054Y-132345237D02*
X135965244Y-132440475D01*
X135965244Y-132440475D02*
X135941435Y-132488094D01*
X135941435Y-132488094D02*
X135917625Y-132511904D01*
X135917625Y-132511904D02*
X135870006Y-132535713D01*
X135870006Y-132535713D02*
X135822387Y-132535713D01*
X135822387Y-132535713D02*
X135774768Y-132511904D01*
X135774768Y-132511904D02*
X135750959Y-132488094D01*
X135750959Y-132488094D02*
X135727149Y-132440475D01*
X135727149Y-132440475D02*
X135727149Y-132321428D01*
X135727149Y-132321428D02*
X135750959Y-132249999D01*
X135727149Y-132107142D02*
X135727149Y-131821428D01*
X136227149Y-131964285D02*
X135727149Y-131964285D01*
D11*
X156733094Y-142079271D02*
X156733094Y-140809271D01*
X156733094Y-140809271D02*
X157156428Y-141716414D01*
X157156428Y-141716414D02*
X157579761Y-140809271D01*
X157579761Y-140809271D02*
X157579761Y-142079271D01*
X158365952Y-142079271D02*
X158245000Y-142018795D01*
X158245000Y-142018795D02*
X158184523Y-141958318D01*
X158184523Y-141958318D02*
X158124047Y-141837366D01*
X158124047Y-141837366D02*
X158124047Y-141474509D01*
X158124047Y-141474509D02*
X158184523Y-141353556D01*
X158184523Y-141353556D02*
X158245000Y-141293080D01*
X158245000Y-141293080D02*
X158365952Y-141232604D01*
X158365952Y-141232604D02*
X158547381Y-141232604D01*
X158547381Y-141232604D02*
X158668333Y-141293080D01*
X158668333Y-141293080D02*
X158728809Y-141353556D01*
X158728809Y-141353556D02*
X158789285Y-141474509D01*
X158789285Y-141474509D02*
X158789285Y-141837366D01*
X158789285Y-141837366D02*
X158728809Y-141958318D01*
X158728809Y-141958318D02*
X158668333Y-142018795D01*
X158668333Y-142018795D02*
X158547381Y-142079271D01*
X158547381Y-142079271D02*
X158365952Y-142079271D01*
X159877857Y-141232604D02*
X159877857Y-142079271D01*
X159333571Y-141232604D02*
X159333571Y-141897842D01*
X159333571Y-141897842D02*
X159394048Y-142018795D01*
X159394048Y-142018795D02*
X159515000Y-142079271D01*
X159515000Y-142079271D02*
X159696429Y-142079271D01*
X159696429Y-142079271D02*
X159817381Y-142018795D01*
X159817381Y-142018795D02*
X159877857Y-141958318D01*
X160482619Y-141232604D02*
X160482619Y-142079271D01*
X160482619Y-141353556D02*
X160543096Y-141293080D01*
X160543096Y-141293080D02*
X160664048Y-141232604D01*
X160664048Y-141232604D02*
X160845477Y-141232604D01*
X160845477Y-141232604D02*
X160966429Y-141293080D01*
X160966429Y-141293080D02*
X161026905Y-141414033D01*
X161026905Y-141414033D02*
X161026905Y-142079271D01*
X161450239Y-141232604D02*
X161934048Y-141232604D01*
X161631667Y-140809271D02*
X161631667Y-141897842D01*
X161631667Y-141897842D02*
X161692144Y-142018795D01*
X161692144Y-142018795D02*
X161813096Y-142079271D01*
X161813096Y-142079271D02*
X161934048Y-142079271D01*
X162357381Y-142079271D02*
X162357381Y-141232604D01*
X162357381Y-140809271D02*
X162296905Y-140869747D01*
X162296905Y-140869747D02*
X162357381Y-140930223D01*
X162357381Y-140930223D02*
X162417858Y-140869747D01*
X162417858Y-140869747D02*
X162357381Y-140809271D01*
X162357381Y-140809271D02*
X162357381Y-140930223D01*
X162962143Y-141232604D02*
X162962143Y-142079271D01*
X162962143Y-141353556D02*
X163022620Y-141293080D01*
X163022620Y-141293080D02*
X163143572Y-141232604D01*
X163143572Y-141232604D02*
X163325001Y-141232604D01*
X163325001Y-141232604D02*
X163445953Y-141293080D01*
X163445953Y-141293080D02*
X163506429Y-141414033D01*
X163506429Y-141414033D02*
X163506429Y-142079271D01*
X164655477Y-141232604D02*
X164655477Y-142260699D01*
X164655477Y-142260699D02*
X164595001Y-142381652D01*
X164595001Y-142381652D02*
X164534525Y-142442128D01*
X164534525Y-142442128D02*
X164413572Y-142502604D01*
X164413572Y-142502604D02*
X164232144Y-142502604D01*
X164232144Y-142502604D02*
X164111191Y-142442128D01*
X164655477Y-142018795D02*
X164534525Y-142079271D01*
X164534525Y-142079271D02*
X164292620Y-142079271D01*
X164292620Y-142079271D02*
X164171668Y-142018795D01*
X164171668Y-142018795D02*
X164111191Y-141958318D01*
X164111191Y-141958318D02*
X164050715Y-141837366D01*
X164050715Y-141837366D02*
X164050715Y-141474509D01*
X164050715Y-141474509D02*
X164111191Y-141353556D01*
X164111191Y-141353556D02*
X164171668Y-141293080D01*
X164171668Y-141293080D02*
X164292620Y-141232604D01*
X164292620Y-141232604D02*
X164534525Y-141232604D01*
X164534525Y-141232604D02*
X164655477Y-141293080D01*
X165260239Y-142079271D02*
X165260239Y-140809271D01*
X165260239Y-141414033D02*
X165985954Y-141414033D01*
X165985954Y-142079271D02*
X165985954Y-140809271D01*
X166772144Y-142079271D02*
X166651192Y-142018795D01*
X166651192Y-142018795D02*
X166590715Y-141958318D01*
X166590715Y-141958318D02*
X166530239Y-141837366D01*
X166530239Y-141837366D02*
X166530239Y-141474509D01*
X166530239Y-141474509D02*
X166590715Y-141353556D01*
X166590715Y-141353556D02*
X166651192Y-141293080D01*
X166651192Y-141293080D02*
X166772144Y-141232604D01*
X166772144Y-141232604D02*
X166953573Y-141232604D01*
X166953573Y-141232604D02*
X167074525Y-141293080D01*
X167074525Y-141293080D02*
X167135001Y-141353556D01*
X167135001Y-141353556D02*
X167195477Y-141474509D01*
X167195477Y-141474509D02*
X167195477Y-141837366D01*
X167195477Y-141837366D02*
X167135001Y-141958318D01*
X167135001Y-141958318D02*
X167074525Y-142018795D01*
X167074525Y-142018795D02*
X166953573Y-142079271D01*
X166953573Y-142079271D02*
X166772144Y-142079271D01*
X167921192Y-142079271D02*
X167800240Y-142018795D01*
X167800240Y-142018795D02*
X167739763Y-141897842D01*
X167739763Y-141897842D02*
X167739763Y-140809271D01*
X168888811Y-142018795D02*
X168767859Y-142079271D01*
X168767859Y-142079271D02*
X168525954Y-142079271D01*
X168525954Y-142079271D02*
X168405001Y-142018795D01*
X168405001Y-142018795D02*
X168344525Y-141897842D01*
X168344525Y-141897842D02*
X168344525Y-141414033D01*
X168344525Y-141414033D02*
X168405001Y-141293080D01*
X168405001Y-141293080D02*
X168525954Y-141232604D01*
X168525954Y-141232604D02*
X168767859Y-141232604D01*
X168767859Y-141232604D02*
X168888811Y-141293080D01*
X168888811Y-141293080D02*
X168949287Y-141414033D01*
X168949287Y-141414033D02*
X168949287Y-141534985D01*
X168949287Y-141534985D02*
X168344525Y-141655937D01*
X169191192Y-142200223D02*
X170158811Y-142200223D01*
X170340239Y-140809271D02*
X171126430Y-140809271D01*
X171126430Y-140809271D02*
X170703096Y-141293080D01*
X170703096Y-141293080D02*
X170884525Y-141293080D01*
X170884525Y-141293080D02*
X171005477Y-141353556D01*
X171005477Y-141353556D02*
X171065953Y-141414033D01*
X171065953Y-141414033D02*
X171126430Y-141534985D01*
X171126430Y-141534985D02*
X171126430Y-141837366D01*
X171126430Y-141837366D02*
X171065953Y-141958318D01*
X171065953Y-141958318D02*
X171005477Y-142018795D01*
X171005477Y-142018795D02*
X170884525Y-142079271D01*
X170884525Y-142079271D02*
X170521668Y-142079271D01*
X170521668Y-142079271D02*
X170400715Y-142018795D01*
X170400715Y-142018795D02*
X170340239Y-141958318D01*
X171670715Y-141958318D02*
X171731192Y-142018795D01*
X171731192Y-142018795D02*
X171670715Y-142079271D01*
X171670715Y-142079271D02*
X171610239Y-142018795D01*
X171610239Y-142018795D02*
X171670715Y-141958318D01*
X171670715Y-141958318D02*
X171670715Y-142079271D01*
X172215001Y-140930223D02*
X172275477Y-140869747D01*
X172275477Y-140869747D02*
X172396430Y-140809271D01*
X172396430Y-140809271D02*
X172698811Y-140809271D01*
X172698811Y-140809271D02*
X172819763Y-140869747D01*
X172819763Y-140869747D02*
X172880239Y-140930223D01*
X172880239Y-140930223D02*
X172940716Y-141051175D01*
X172940716Y-141051175D02*
X172940716Y-141172128D01*
X172940716Y-141172128D02*
X172880239Y-141353556D01*
X172880239Y-141353556D02*
X172154525Y-142079271D01*
X172154525Y-142079271D02*
X172940716Y-142079271D01*
X173485001Y-142079271D02*
X173485001Y-141232604D01*
X173485001Y-141353556D02*
X173545478Y-141293080D01*
X173545478Y-141293080D02*
X173666430Y-141232604D01*
X173666430Y-141232604D02*
X173847859Y-141232604D01*
X173847859Y-141232604D02*
X173968811Y-141293080D01*
X173968811Y-141293080D02*
X174029287Y-141414033D01*
X174029287Y-141414033D02*
X174029287Y-142079271D01*
X174029287Y-141414033D02*
X174089763Y-141293080D01*
X174089763Y-141293080D02*
X174210716Y-141232604D01*
X174210716Y-141232604D02*
X174392144Y-141232604D01*
X174392144Y-141232604D02*
X174513097Y-141293080D01*
X174513097Y-141293080D02*
X174573573Y-141414033D01*
X174573573Y-141414033D02*
X174573573Y-142079271D01*
X175178334Y-142079271D02*
X175178334Y-141232604D01*
X175178334Y-141353556D02*
X175238811Y-141293080D01*
X175238811Y-141293080D02*
X175359763Y-141232604D01*
X175359763Y-141232604D02*
X175541192Y-141232604D01*
X175541192Y-141232604D02*
X175662144Y-141293080D01*
X175662144Y-141293080D02*
X175722620Y-141414033D01*
X175722620Y-141414033D02*
X175722620Y-142079271D01*
X175722620Y-141414033D02*
X175783096Y-141293080D01*
X175783096Y-141293080D02*
X175904049Y-141232604D01*
X175904049Y-141232604D02*
X176085477Y-141232604D01*
X176085477Y-141232604D02*
X176206430Y-141293080D01*
X176206430Y-141293080D02*
X176266906Y-141414033D01*
X176266906Y-141414033D02*
X176266906Y-142079271D01*
D10*
X133666666Y-128009580D02*
X133619047Y-128057200D01*
X133619047Y-128057200D02*
X133476190Y-128104819D01*
X133476190Y-128104819D02*
X133380952Y-128104819D01*
X133380952Y-128104819D02*
X133238095Y-128057200D01*
X133238095Y-128057200D02*
X133142857Y-127961961D01*
X133142857Y-127961961D02*
X133095238Y-127866723D01*
X133095238Y-127866723D02*
X133047619Y-127676247D01*
X133047619Y-127676247D02*
X133047619Y-127533390D01*
X133047619Y-127533390D02*
X133095238Y-127342914D01*
X133095238Y-127342914D02*
X133142857Y-127247676D01*
X133142857Y-127247676D02*
X133238095Y-127152438D01*
X133238095Y-127152438D02*
X133380952Y-127104819D01*
X133380952Y-127104819D02*
X133476190Y-127104819D01*
X133476190Y-127104819D02*
X133619047Y-127152438D01*
X133619047Y-127152438D02*
X133666666Y-127200057D01*
X134571428Y-128104819D02*
X134095238Y-128104819D01*
X134095238Y-128104819D02*
X134095238Y-127104819D01*
X134904762Y-128104819D02*
X134904762Y-127104819D01*
X135476190Y-128104819D02*
X135047619Y-127533390D01*
X135476190Y-127104819D02*
X134904762Y-127676247D01*
X135666667Y-128200057D02*
X136428571Y-128200057D01*
X137142857Y-128104819D02*
X136666667Y-128104819D01*
X136666667Y-128104819D02*
X136666667Y-127104819D01*
X137476191Y-127581009D02*
X137809524Y-127581009D01*
X137952381Y-128104819D02*
X137476191Y-128104819D01*
X137476191Y-128104819D02*
X137476191Y-127104819D01*
X137476191Y-127104819D02*
X137952381Y-127104819D01*
X138380953Y-128104819D02*
X138380953Y-127104819D01*
X138380953Y-127104819D02*
X138619048Y-127104819D01*
X138619048Y-127104819D02*
X138761905Y-127152438D01*
X138761905Y-127152438D02*
X138857143Y-127247676D01*
X138857143Y-127247676D02*
X138904762Y-127342914D01*
X138904762Y-127342914D02*
X138952381Y-127533390D01*
X138952381Y-127533390D02*
X138952381Y-127676247D01*
X138952381Y-127676247D02*
X138904762Y-127866723D01*
X138904762Y-127866723D02*
X138857143Y-127961961D01*
X138857143Y-127961961D02*
X138761905Y-128057200D01*
X138761905Y-128057200D02*
X138619048Y-128104819D01*
X138619048Y-128104819D02*
X138380953Y-128104819D01*
D12*
X134976190Y-126227149D02*
X134976190Y-125727149D01*
X134976190Y-125727149D02*
X135095238Y-125727149D01*
X135095238Y-125727149D02*
X135166666Y-125750959D01*
X135166666Y-125750959D02*
X135214285Y-125798578D01*
X135214285Y-125798578D02*
X135238095Y-125846197D01*
X135238095Y-125846197D02*
X135261904Y-125941435D01*
X135261904Y-125941435D02*
X135261904Y-126012863D01*
X135261904Y-126012863D02*
X135238095Y-126108101D01*
X135238095Y-126108101D02*
X135214285Y-126155720D01*
X135214285Y-126155720D02*
X135166666Y-126203340D01*
X135166666Y-126203340D02*
X135095238Y-126227149D01*
X135095238Y-126227149D02*
X134976190Y-126227149D01*
X135357143Y-126274768D02*
X135738095Y-126274768D01*
X136142856Y-126179530D02*
X136119047Y-126203340D01*
X136119047Y-126203340D02*
X136047618Y-126227149D01*
X136047618Y-126227149D02*
X135999999Y-126227149D01*
X135999999Y-126227149D02*
X135928571Y-126203340D01*
X135928571Y-126203340D02*
X135880952Y-126155720D01*
X135880952Y-126155720D02*
X135857142Y-126108101D01*
X135857142Y-126108101D02*
X135833333Y-126012863D01*
X135833333Y-126012863D02*
X135833333Y-125941435D01*
X135833333Y-125941435D02*
X135857142Y-125846197D01*
X135857142Y-125846197D02*
X135880952Y-125798578D01*
X135880952Y-125798578D02*
X135928571Y-125750959D01*
X135928571Y-125750959D02*
X135999999Y-125727149D01*
X135999999Y-125727149D02*
X136047618Y-125727149D01*
X136047618Y-125727149D02*
X136119047Y-125750959D01*
X136119047Y-125750959D02*
X136142856Y-125774768D01*
X136595237Y-126227149D02*
X136357142Y-126227149D01*
X136357142Y-126227149D02*
X136357142Y-125727149D01*
X136761904Y-126227149D02*
X136761904Y-125727149D01*
X137047618Y-126227149D02*
X136833333Y-125941435D01*
X137047618Y-125727149D02*
X136761904Y-126012863D01*
D10*
X160071428Y-122081009D02*
X160214285Y-122128628D01*
X160214285Y-122128628D02*
X160261904Y-122176247D01*
X160261904Y-122176247D02*
X160309523Y-122271485D01*
X160309523Y-122271485D02*
X160309523Y-122414342D01*
X160309523Y-122414342D02*
X160261904Y-122509580D01*
X160261904Y-122509580D02*
X160214285Y-122557200D01*
X160214285Y-122557200D02*
X160119047Y-122604819D01*
X160119047Y-122604819D02*
X159738095Y-122604819D01*
X159738095Y-122604819D02*
X159738095Y-121604819D01*
X159738095Y-121604819D02*
X160071428Y-121604819D01*
X160071428Y-121604819D02*
X160166666Y-121652438D01*
X160166666Y-121652438D02*
X160214285Y-121700057D01*
X160214285Y-121700057D02*
X160261904Y-121795295D01*
X160261904Y-121795295D02*
X160261904Y-121890533D01*
X160261904Y-121890533D02*
X160214285Y-121985771D01*
X160214285Y-121985771D02*
X160166666Y-122033390D01*
X160166666Y-122033390D02*
X160071428Y-122081009D01*
X160071428Y-122081009D02*
X159738095Y-122081009D01*
X160738095Y-122604819D02*
X160738095Y-121938152D01*
X160738095Y-121604819D02*
X160690476Y-121652438D01*
X160690476Y-121652438D02*
X160738095Y-121700057D01*
X160738095Y-121700057D02*
X160785714Y-121652438D01*
X160785714Y-121652438D02*
X160738095Y-121604819D01*
X160738095Y-121604819D02*
X160738095Y-121700057D01*
X161071428Y-121938152D02*
X161452380Y-121938152D01*
X161214285Y-121604819D02*
X161214285Y-122461961D01*
X161214285Y-122461961D02*
X161261904Y-122557200D01*
X161261904Y-122557200D02*
X161357142Y-122604819D01*
X161357142Y-122604819D02*
X161452380Y-122604819D01*
X161690476Y-121604819D02*
X162309523Y-121604819D01*
X162309523Y-121604819D02*
X161976190Y-121985771D01*
X161976190Y-121985771D02*
X162119047Y-121985771D01*
X162119047Y-121985771D02*
X162214285Y-122033390D01*
X162214285Y-122033390D02*
X162261904Y-122081009D01*
X162261904Y-122081009D02*
X162309523Y-122176247D01*
X162309523Y-122176247D02*
X162309523Y-122414342D01*
X162309523Y-122414342D02*
X162261904Y-122509580D01*
X162261904Y-122509580D02*
X162214285Y-122557200D01*
X162214285Y-122557200D02*
X162119047Y-122604819D01*
X162119047Y-122604819D02*
X161833333Y-122604819D01*
X161833333Y-122604819D02*
X161738095Y-122557200D01*
X161738095Y-122557200D02*
X161690476Y-122509580D01*
D12*
X160630952Y-120727149D02*
X160630952Y-120227149D01*
X160630952Y-120227149D02*
X160750000Y-120227149D01*
X160750000Y-120227149D02*
X160821428Y-120250959D01*
X160821428Y-120250959D02*
X160869047Y-120298578D01*
X160869047Y-120298578D02*
X160892857Y-120346197D01*
X160892857Y-120346197D02*
X160916666Y-120441435D01*
X160916666Y-120441435D02*
X160916666Y-120512863D01*
X160916666Y-120512863D02*
X160892857Y-120608101D01*
X160892857Y-120608101D02*
X160869047Y-120655720D01*
X160869047Y-120655720D02*
X160821428Y-120703340D01*
X160821428Y-120703340D02*
X160750000Y-120727149D01*
X160750000Y-120727149D02*
X160630952Y-120727149D01*
X161345238Y-120227149D02*
X161250000Y-120227149D01*
X161250000Y-120227149D02*
X161202381Y-120250959D01*
X161202381Y-120250959D02*
X161178571Y-120274768D01*
X161178571Y-120274768D02*
X161130952Y-120346197D01*
X161130952Y-120346197D02*
X161107143Y-120441435D01*
X161107143Y-120441435D02*
X161107143Y-120631911D01*
X161107143Y-120631911D02*
X161130952Y-120679530D01*
X161130952Y-120679530D02*
X161154762Y-120703340D01*
X161154762Y-120703340D02*
X161202381Y-120727149D01*
X161202381Y-120727149D02*
X161297619Y-120727149D01*
X161297619Y-120727149D02*
X161345238Y-120703340D01*
X161345238Y-120703340D02*
X161369047Y-120679530D01*
X161369047Y-120679530D02*
X161392857Y-120631911D01*
X161392857Y-120631911D02*
X161392857Y-120512863D01*
X161392857Y-120512863D02*
X161369047Y-120465244D01*
X161369047Y-120465244D02*
X161345238Y-120441435D01*
X161345238Y-120441435D02*
X161297619Y-120417625D01*
X161297619Y-120417625D02*
X161202381Y-120417625D01*
X161202381Y-120417625D02*
X161154762Y-120441435D01*
X161154762Y-120441435D02*
X161130952Y-120465244D01*
X161130952Y-120465244D02*
X161107143Y-120512863D01*
D10*
X154214286Y-132104819D02*
X154833333Y-132104819D01*
X154833333Y-132104819D02*
X154500000Y-132485771D01*
X154500000Y-132485771D02*
X154642857Y-132485771D01*
X154642857Y-132485771D02*
X154738095Y-132533390D01*
X154738095Y-132533390D02*
X154785714Y-132581009D01*
X154785714Y-132581009D02*
X154833333Y-132676247D01*
X154833333Y-132676247D02*
X154833333Y-132914342D01*
X154833333Y-132914342D02*
X154785714Y-133009580D01*
X154785714Y-133009580D02*
X154738095Y-133057200D01*
X154738095Y-133057200D02*
X154642857Y-133104819D01*
X154642857Y-133104819D02*
X154357143Y-133104819D01*
X154357143Y-133104819D02*
X154261905Y-133057200D01*
X154261905Y-133057200D02*
X154214286Y-133009580D01*
X155166667Y-132104819D02*
X155785714Y-132104819D01*
X155785714Y-132104819D02*
X155452381Y-132485771D01*
X155452381Y-132485771D02*
X155595238Y-132485771D01*
X155595238Y-132485771D02*
X155690476Y-132533390D01*
X155690476Y-132533390D02*
X155738095Y-132581009D01*
X155738095Y-132581009D02*
X155785714Y-132676247D01*
X155785714Y-132676247D02*
X155785714Y-132914342D01*
X155785714Y-132914342D02*
X155738095Y-133009580D01*
X155738095Y-133009580D02*
X155690476Y-133057200D01*
X155690476Y-133057200D02*
X155595238Y-133104819D01*
X155595238Y-133104819D02*
X155309524Y-133104819D01*
X155309524Y-133104819D02*
X155214286Y-133057200D01*
X155214286Y-133057200D02*
X155166667Y-133009580D01*
X156404762Y-132104819D02*
X156500000Y-132104819D01*
X156500000Y-132104819D02*
X156595238Y-132152438D01*
X156595238Y-132152438D02*
X156642857Y-132200057D01*
X156642857Y-132200057D02*
X156690476Y-132295295D01*
X156690476Y-132295295D02*
X156738095Y-132485771D01*
X156738095Y-132485771D02*
X156738095Y-132723866D01*
X156738095Y-132723866D02*
X156690476Y-132914342D01*
X156690476Y-132914342D02*
X156642857Y-133009580D01*
X156642857Y-133009580D02*
X156595238Y-133057200D01*
X156595238Y-133057200D02*
X156500000Y-133104819D01*
X156500000Y-133104819D02*
X156404762Y-133104819D01*
X156404762Y-133104819D02*
X156309524Y-133057200D01*
X156309524Y-133057200D02*
X156261905Y-133009580D01*
X156261905Y-133009580D02*
X156214286Y-132914342D01*
X156214286Y-132914342D02*
X156166667Y-132723866D01*
X156166667Y-132723866D02*
X156166667Y-132485771D01*
X156166667Y-132485771D02*
X156214286Y-132295295D01*
X156214286Y-132295295D02*
X156261905Y-132200057D01*
X156261905Y-132200057D02*
X156309524Y-132152438D01*
X156309524Y-132152438D02*
X156404762Y-132104819D01*
D12*
X155416666Y-131227149D02*
X155250000Y-130989054D01*
X155130952Y-131227149D02*
X155130952Y-130727149D01*
X155130952Y-130727149D02*
X155321428Y-130727149D01*
X155321428Y-130727149D02*
X155369047Y-130750959D01*
X155369047Y-130750959D02*
X155392857Y-130774768D01*
X155392857Y-130774768D02*
X155416666Y-130822387D01*
X155416666Y-130822387D02*
X155416666Y-130893816D01*
X155416666Y-130893816D02*
X155392857Y-130941435D01*
X155392857Y-130941435D02*
X155369047Y-130965244D01*
X155369047Y-130965244D02*
X155321428Y-130989054D01*
X155321428Y-130989054D02*
X155130952Y-130989054D01*
X155654762Y-131227149D02*
X155750000Y-131227149D01*
X155750000Y-131227149D02*
X155797619Y-131203340D01*
X155797619Y-131203340D02*
X155821428Y-131179530D01*
X155821428Y-131179530D02*
X155869047Y-131108101D01*
X155869047Y-131108101D02*
X155892857Y-131012863D01*
X155892857Y-131012863D02*
X155892857Y-130822387D01*
X155892857Y-130822387D02*
X155869047Y-130774768D01*
X155869047Y-130774768D02*
X155845238Y-130750959D01*
X155845238Y-130750959D02*
X155797619Y-130727149D01*
X155797619Y-130727149D02*
X155702381Y-130727149D01*
X155702381Y-130727149D02*
X155654762Y-130750959D01*
X155654762Y-130750959D02*
X155630952Y-130774768D01*
X155630952Y-130774768D02*
X155607143Y-130822387D01*
X155607143Y-130822387D02*
X155607143Y-130941435D01*
X155607143Y-130941435D02*
X155630952Y-130989054D01*
X155630952Y-130989054D02*
X155654762Y-131012863D01*
X155654762Y-131012863D02*
X155702381Y-131036673D01*
X155702381Y-131036673D02*
X155797619Y-131036673D01*
X155797619Y-131036673D02*
X155845238Y-131012863D01*
X155845238Y-131012863D02*
X155869047Y-130989054D01*
X155869047Y-130989054D02*
X155892857Y-130941435D01*
D10*
X122134819Y-130547619D02*
X122134819Y-131119047D01*
X122134819Y-130833333D02*
X121134819Y-130833333D01*
X121134819Y-130833333D02*
X121277676Y-130928571D01*
X121277676Y-130928571D02*
X121372914Y-131023809D01*
X121372914Y-131023809D02*
X121420533Y-131119047D01*
X121134819Y-129928571D02*
X121134819Y-129833333D01*
X121134819Y-129833333D02*
X121182438Y-129738095D01*
X121182438Y-129738095D02*
X121230057Y-129690476D01*
X121230057Y-129690476D02*
X121325295Y-129642857D01*
X121325295Y-129642857D02*
X121515771Y-129595238D01*
X121515771Y-129595238D02*
X121753866Y-129595238D01*
X121753866Y-129595238D02*
X121944342Y-129642857D01*
X121944342Y-129642857D02*
X122039580Y-129690476D01*
X122039580Y-129690476D02*
X122087200Y-129738095D01*
X122087200Y-129738095D02*
X122134819Y-129833333D01*
X122134819Y-129833333D02*
X122134819Y-129928571D01*
X122134819Y-129928571D02*
X122087200Y-130023809D01*
X122087200Y-130023809D02*
X122039580Y-130071428D01*
X122039580Y-130071428D02*
X121944342Y-130119047D01*
X121944342Y-130119047D02*
X121753866Y-130166666D01*
X121753866Y-130166666D02*
X121515771Y-130166666D01*
X121515771Y-130166666D02*
X121325295Y-130119047D01*
X121325295Y-130119047D02*
X121230057Y-130071428D01*
X121230057Y-130071428D02*
X121182438Y-130023809D01*
X121182438Y-130023809D02*
X121134819Y-129928571D01*
X121134819Y-128976190D02*
X121134819Y-128880952D01*
X121134819Y-128880952D02*
X121182438Y-128785714D01*
X121182438Y-128785714D02*
X121230057Y-128738095D01*
X121230057Y-128738095D02*
X121325295Y-128690476D01*
X121325295Y-128690476D02*
X121515771Y-128642857D01*
X121515771Y-128642857D02*
X121753866Y-128642857D01*
X121753866Y-128642857D02*
X121944342Y-128690476D01*
X121944342Y-128690476D02*
X122039580Y-128738095D01*
X122039580Y-128738095D02*
X122087200Y-128785714D01*
X122087200Y-128785714D02*
X122134819Y-128880952D01*
X122134819Y-128880952D02*
X122134819Y-128976190D01*
X122134819Y-128976190D02*
X122087200Y-129071428D01*
X122087200Y-129071428D02*
X122039580Y-129119047D01*
X122039580Y-129119047D02*
X121944342Y-129166666D01*
X121944342Y-129166666D02*
X121753866Y-129214285D01*
X121753866Y-129214285D02*
X121515771Y-129214285D01*
X121515771Y-129214285D02*
X121325295Y-129166666D01*
X121325295Y-129166666D02*
X121230057Y-129119047D01*
X121230057Y-129119047D02*
X121182438Y-129071428D01*
X121182438Y-129071428D02*
X121134819Y-128976190D01*
X121468152Y-128214285D02*
X122134819Y-128214285D01*
X121563390Y-128214285D02*
X121515771Y-128166666D01*
X121515771Y-128166666D02*
X121468152Y-128071428D01*
X121468152Y-128071428D02*
X121468152Y-127928571D01*
X121468152Y-127928571D02*
X121515771Y-127833333D01*
X121515771Y-127833333D02*
X121611009Y-127785714D01*
X121611009Y-127785714D02*
X122134819Y-127785714D01*
X121611009Y-126976190D02*
X121611009Y-127309523D01*
X122134819Y-127309523D02*
X121134819Y-127309523D01*
X121134819Y-127309523D02*
X121134819Y-126833333D01*
D12*
X120179530Y-129083333D02*
X120203340Y-129107142D01*
X120203340Y-129107142D02*
X120227149Y-129178571D01*
X120227149Y-129178571D02*
X120227149Y-129226190D01*
X120227149Y-129226190D02*
X120203340Y-129297618D01*
X120203340Y-129297618D02*
X120155720Y-129345237D01*
X120155720Y-129345237D02*
X120108101Y-129369047D01*
X120108101Y-129369047D02*
X120012863Y-129392856D01*
X120012863Y-129392856D02*
X119941435Y-129392856D01*
X119941435Y-129392856D02*
X119846197Y-129369047D01*
X119846197Y-129369047D02*
X119798578Y-129345237D01*
X119798578Y-129345237D02*
X119750959Y-129297618D01*
X119750959Y-129297618D02*
X119727149Y-129226190D01*
X119727149Y-129226190D02*
X119727149Y-129178571D01*
X119727149Y-129178571D02*
X119750959Y-129107142D01*
X119750959Y-129107142D02*
X119774768Y-129083333D01*
X119774768Y-128892856D02*
X119750959Y-128869047D01*
X119750959Y-128869047D02*
X119727149Y-128821428D01*
X119727149Y-128821428D02*
X119727149Y-128702380D01*
X119727149Y-128702380D02*
X119750959Y-128654761D01*
X119750959Y-128654761D02*
X119774768Y-128630952D01*
X119774768Y-128630952D02*
X119822387Y-128607142D01*
X119822387Y-128607142D02*
X119870006Y-128607142D01*
X119870006Y-128607142D02*
X119941435Y-128630952D01*
X119941435Y-128630952D02*
X120227149Y-128916666D01*
X120227149Y-128916666D02*
X120227149Y-128607142D01*
D11*
X93733094Y-142079271D02*
X93733094Y-140809271D01*
X93733094Y-140809271D02*
X94156428Y-141716414D01*
X94156428Y-141716414D02*
X94579761Y-140809271D01*
X94579761Y-140809271D02*
X94579761Y-142079271D01*
X95365952Y-142079271D02*
X95245000Y-142018795D01*
X95245000Y-142018795D02*
X95184523Y-141958318D01*
X95184523Y-141958318D02*
X95124047Y-141837366D01*
X95124047Y-141837366D02*
X95124047Y-141474509D01*
X95124047Y-141474509D02*
X95184523Y-141353556D01*
X95184523Y-141353556D02*
X95245000Y-141293080D01*
X95245000Y-141293080D02*
X95365952Y-141232604D01*
X95365952Y-141232604D02*
X95547381Y-141232604D01*
X95547381Y-141232604D02*
X95668333Y-141293080D01*
X95668333Y-141293080D02*
X95728809Y-141353556D01*
X95728809Y-141353556D02*
X95789285Y-141474509D01*
X95789285Y-141474509D02*
X95789285Y-141837366D01*
X95789285Y-141837366D02*
X95728809Y-141958318D01*
X95728809Y-141958318D02*
X95668333Y-142018795D01*
X95668333Y-142018795D02*
X95547381Y-142079271D01*
X95547381Y-142079271D02*
X95365952Y-142079271D01*
X96877857Y-141232604D02*
X96877857Y-142079271D01*
X96333571Y-141232604D02*
X96333571Y-141897842D01*
X96333571Y-141897842D02*
X96394048Y-142018795D01*
X96394048Y-142018795D02*
X96515000Y-142079271D01*
X96515000Y-142079271D02*
X96696429Y-142079271D01*
X96696429Y-142079271D02*
X96817381Y-142018795D01*
X96817381Y-142018795D02*
X96877857Y-141958318D01*
X97482619Y-141232604D02*
X97482619Y-142079271D01*
X97482619Y-141353556D02*
X97543096Y-141293080D01*
X97543096Y-141293080D02*
X97664048Y-141232604D01*
X97664048Y-141232604D02*
X97845477Y-141232604D01*
X97845477Y-141232604D02*
X97966429Y-141293080D01*
X97966429Y-141293080D02*
X98026905Y-141414033D01*
X98026905Y-141414033D02*
X98026905Y-142079271D01*
X98450239Y-141232604D02*
X98934048Y-141232604D01*
X98631667Y-140809271D02*
X98631667Y-141897842D01*
X98631667Y-141897842D02*
X98692144Y-142018795D01*
X98692144Y-142018795D02*
X98813096Y-142079271D01*
X98813096Y-142079271D02*
X98934048Y-142079271D01*
X99357381Y-142079271D02*
X99357381Y-141232604D01*
X99357381Y-140809271D02*
X99296905Y-140869747D01*
X99296905Y-140869747D02*
X99357381Y-140930223D01*
X99357381Y-140930223D02*
X99417858Y-140869747D01*
X99417858Y-140869747D02*
X99357381Y-140809271D01*
X99357381Y-140809271D02*
X99357381Y-140930223D01*
X99962143Y-141232604D02*
X99962143Y-142079271D01*
X99962143Y-141353556D02*
X100022620Y-141293080D01*
X100022620Y-141293080D02*
X100143572Y-141232604D01*
X100143572Y-141232604D02*
X100325001Y-141232604D01*
X100325001Y-141232604D02*
X100445953Y-141293080D01*
X100445953Y-141293080D02*
X100506429Y-141414033D01*
X100506429Y-141414033D02*
X100506429Y-142079271D01*
X101655477Y-141232604D02*
X101655477Y-142260699D01*
X101655477Y-142260699D02*
X101595001Y-142381652D01*
X101595001Y-142381652D02*
X101534525Y-142442128D01*
X101534525Y-142442128D02*
X101413572Y-142502604D01*
X101413572Y-142502604D02*
X101232144Y-142502604D01*
X101232144Y-142502604D02*
X101111191Y-142442128D01*
X101655477Y-142018795D02*
X101534525Y-142079271D01*
X101534525Y-142079271D02*
X101292620Y-142079271D01*
X101292620Y-142079271D02*
X101171668Y-142018795D01*
X101171668Y-142018795D02*
X101111191Y-141958318D01*
X101111191Y-141958318D02*
X101050715Y-141837366D01*
X101050715Y-141837366D02*
X101050715Y-141474509D01*
X101050715Y-141474509D02*
X101111191Y-141353556D01*
X101111191Y-141353556D02*
X101171668Y-141293080D01*
X101171668Y-141293080D02*
X101292620Y-141232604D01*
X101292620Y-141232604D02*
X101534525Y-141232604D01*
X101534525Y-141232604D02*
X101655477Y-141293080D01*
X102260239Y-142079271D02*
X102260239Y-140809271D01*
X102260239Y-141414033D02*
X102985954Y-141414033D01*
X102985954Y-142079271D02*
X102985954Y-140809271D01*
X103772144Y-142079271D02*
X103651192Y-142018795D01*
X103651192Y-142018795D02*
X103590715Y-141958318D01*
X103590715Y-141958318D02*
X103530239Y-141837366D01*
X103530239Y-141837366D02*
X103530239Y-141474509D01*
X103530239Y-141474509D02*
X103590715Y-141353556D01*
X103590715Y-141353556D02*
X103651192Y-141293080D01*
X103651192Y-141293080D02*
X103772144Y-141232604D01*
X103772144Y-141232604D02*
X103953573Y-141232604D01*
X103953573Y-141232604D02*
X104074525Y-141293080D01*
X104074525Y-141293080D02*
X104135001Y-141353556D01*
X104135001Y-141353556D02*
X104195477Y-141474509D01*
X104195477Y-141474509D02*
X104195477Y-141837366D01*
X104195477Y-141837366D02*
X104135001Y-141958318D01*
X104135001Y-141958318D02*
X104074525Y-142018795D01*
X104074525Y-142018795D02*
X103953573Y-142079271D01*
X103953573Y-142079271D02*
X103772144Y-142079271D01*
X104921192Y-142079271D02*
X104800240Y-142018795D01*
X104800240Y-142018795D02*
X104739763Y-141897842D01*
X104739763Y-141897842D02*
X104739763Y-140809271D01*
X105888811Y-142018795D02*
X105767859Y-142079271D01*
X105767859Y-142079271D02*
X105525954Y-142079271D01*
X105525954Y-142079271D02*
X105405001Y-142018795D01*
X105405001Y-142018795D02*
X105344525Y-141897842D01*
X105344525Y-141897842D02*
X105344525Y-141414033D01*
X105344525Y-141414033D02*
X105405001Y-141293080D01*
X105405001Y-141293080D02*
X105525954Y-141232604D01*
X105525954Y-141232604D02*
X105767859Y-141232604D01*
X105767859Y-141232604D02*
X105888811Y-141293080D01*
X105888811Y-141293080D02*
X105949287Y-141414033D01*
X105949287Y-141414033D02*
X105949287Y-141534985D01*
X105949287Y-141534985D02*
X105344525Y-141655937D01*
X106191192Y-142200223D02*
X107158811Y-142200223D01*
X107340239Y-140809271D02*
X108126430Y-140809271D01*
X108126430Y-140809271D02*
X107703096Y-141293080D01*
X107703096Y-141293080D02*
X107884525Y-141293080D01*
X107884525Y-141293080D02*
X108005477Y-141353556D01*
X108005477Y-141353556D02*
X108065953Y-141414033D01*
X108065953Y-141414033D02*
X108126430Y-141534985D01*
X108126430Y-141534985D02*
X108126430Y-141837366D01*
X108126430Y-141837366D02*
X108065953Y-141958318D01*
X108065953Y-141958318D02*
X108005477Y-142018795D01*
X108005477Y-142018795D02*
X107884525Y-142079271D01*
X107884525Y-142079271D02*
X107521668Y-142079271D01*
X107521668Y-142079271D02*
X107400715Y-142018795D01*
X107400715Y-142018795D02*
X107340239Y-141958318D01*
X108670715Y-141958318D02*
X108731192Y-142018795D01*
X108731192Y-142018795D02*
X108670715Y-142079271D01*
X108670715Y-142079271D02*
X108610239Y-142018795D01*
X108610239Y-142018795D02*
X108670715Y-141958318D01*
X108670715Y-141958318D02*
X108670715Y-142079271D01*
X109215001Y-140930223D02*
X109275477Y-140869747D01*
X109275477Y-140869747D02*
X109396430Y-140809271D01*
X109396430Y-140809271D02*
X109698811Y-140809271D01*
X109698811Y-140809271D02*
X109819763Y-140869747D01*
X109819763Y-140869747D02*
X109880239Y-140930223D01*
X109880239Y-140930223D02*
X109940716Y-141051175D01*
X109940716Y-141051175D02*
X109940716Y-141172128D01*
X109940716Y-141172128D02*
X109880239Y-141353556D01*
X109880239Y-141353556D02*
X109154525Y-142079271D01*
X109154525Y-142079271D02*
X109940716Y-142079271D01*
X110485001Y-142079271D02*
X110485001Y-141232604D01*
X110485001Y-141353556D02*
X110545478Y-141293080D01*
X110545478Y-141293080D02*
X110666430Y-141232604D01*
X110666430Y-141232604D02*
X110847859Y-141232604D01*
X110847859Y-141232604D02*
X110968811Y-141293080D01*
X110968811Y-141293080D02*
X111029287Y-141414033D01*
X111029287Y-141414033D02*
X111029287Y-142079271D01*
X111029287Y-141414033D02*
X111089763Y-141293080D01*
X111089763Y-141293080D02*
X111210716Y-141232604D01*
X111210716Y-141232604D02*
X111392144Y-141232604D01*
X111392144Y-141232604D02*
X111513097Y-141293080D01*
X111513097Y-141293080D02*
X111573573Y-141414033D01*
X111573573Y-141414033D02*
X111573573Y-142079271D01*
X112178334Y-142079271D02*
X112178334Y-141232604D01*
X112178334Y-141353556D02*
X112238811Y-141293080D01*
X112238811Y-141293080D02*
X112359763Y-141232604D01*
X112359763Y-141232604D02*
X112541192Y-141232604D01*
X112541192Y-141232604D02*
X112662144Y-141293080D01*
X112662144Y-141293080D02*
X112722620Y-141414033D01*
X112722620Y-141414033D02*
X112722620Y-142079271D01*
X112722620Y-141414033D02*
X112783096Y-141293080D01*
X112783096Y-141293080D02*
X112904049Y-141232604D01*
X112904049Y-141232604D02*
X113085477Y-141232604D01*
X113085477Y-141232604D02*
X113206430Y-141293080D01*
X113206430Y-141293080D02*
X113266906Y-141414033D01*
X113266906Y-141414033D02*
X113266906Y-142079271D01*
D10*
X115285714Y-119007200D02*
X115428571Y-119054819D01*
X115428571Y-119054819D02*
X115666666Y-119054819D01*
X115666666Y-119054819D02*
X115761904Y-119007200D01*
X115761904Y-119007200D02*
X115809523Y-118959580D01*
X115809523Y-118959580D02*
X115857142Y-118864342D01*
X115857142Y-118864342D02*
X115857142Y-118769104D01*
X115857142Y-118769104D02*
X115809523Y-118673866D01*
X115809523Y-118673866D02*
X115761904Y-118626247D01*
X115761904Y-118626247D02*
X115666666Y-118578628D01*
X115666666Y-118578628D02*
X115476190Y-118531009D01*
X115476190Y-118531009D02*
X115380952Y-118483390D01*
X115380952Y-118483390D02*
X115333333Y-118435771D01*
X115333333Y-118435771D02*
X115285714Y-118340533D01*
X115285714Y-118340533D02*
X115285714Y-118245295D01*
X115285714Y-118245295D02*
X115333333Y-118150057D01*
X115333333Y-118150057D02*
X115380952Y-118102438D01*
X115380952Y-118102438D02*
X115476190Y-118054819D01*
X115476190Y-118054819D02*
X115714285Y-118054819D01*
X115714285Y-118054819D02*
X115857142Y-118102438D01*
X116238095Y-119007200D02*
X116380952Y-119054819D01*
X116380952Y-119054819D02*
X116619047Y-119054819D01*
X116619047Y-119054819D02*
X116714285Y-119007200D01*
X116714285Y-119007200D02*
X116761904Y-118959580D01*
X116761904Y-118959580D02*
X116809523Y-118864342D01*
X116809523Y-118864342D02*
X116809523Y-118769104D01*
X116809523Y-118769104D02*
X116761904Y-118673866D01*
X116761904Y-118673866D02*
X116714285Y-118626247D01*
X116714285Y-118626247D02*
X116619047Y-118578628D01*
X116619047Y-118578628D02*
X116428571Y-118531009D01*
X116428571Y-118531009D02*
X116333333Y-118483390D01*
X116333333Y-118483390D02*
X116285714Y-118435771D01*
X116285714Y-118435771D02*
X116238095Y-118340533D01*
X116238095Y-118340533D02*
X116238095Y-118245295D01*
X116238095Y-118245295D02*
X116285714Y-118150057D01*
X116285714Y-118150057D02*
X116333333Y-118102438D01*
X116333333Y-118102438D02*
X116428571Y-118054819D01*
X116428571Y-118054819D02*
X116666666Y-118054819D01*
X116666666Y-118054819D02*
X116809523Y-118102438D01*
X117761904Y-119054819D02*
X117190476Y-119054819D01*
X117476190Y-119054819D02*
X117476190Y-118054819D01*
X117476190Y-118054819D02*
X117380952Y-118197676D01*
X117380952Y-118197676D02*
X117285714Y-118292914D01*
X117285714Y-118292914D02*
X117190476Y-118340533D01*
X118619047Y-118388152D02*
X118619047Y-119054819D01*
X118380952Y-118007200D02*
X118142857Y-118721485D01*
X118142857Y-118721485D02*
X118761904Y-118721485D01*
X116261905Y-113954819D02*
X116261905Y-112954819D01*
X116261905Y-112954819D02*
X116500000Y-112954819D01*
X116500000Y-112954819D02*
X116642857Y-113002438D01*
X116642857Y-113002438D02*
X116738095Y-113097676D01*
X116738095Y-113097676D02*
X116785714Y-113192914D01*
X116785714Y-113192914D02*
X116833333Y-113383390D01*
X116833333Y-113383390D02*
X116833333Y-113526247D01*
X116833333Y-113526247D02*
X116785714Y-113716723D01*
X116785714Y-113716723D02*
X116738095Y-113811961D01*
X116738095Y-113811961D02*
X116642857Y-113907200D01*
X116642857Y-113907200D02*
X116500000Y-113954819D01*
X116500000Y-113954819D02*
X116261905Y-113954819D01*
X117785714Y-113954819D02*
X117214286Y-113954819D01*
X117500000Y-113954819D02*
X117500000Y-112954819D01*
X117500000Y-112954819D02*
X117404762Y-113097676D01*
X117404762Y-113097676D02*
X117309524Y-113192914D01*
X117309524Y-113192914D02*
X117214286Y-113240533D01*
X143738095Y-127854819D02*
X144404761Y-127854819D01*
X144404761Y-127854819D02*
X143976190Y-128854819D01*
X145214285Y-128188152D02*
X145214285Y-128854819D01*
X144976190Y-127807200D02*
X144738095Y-128521485D01*
X144738095Y-128521485D02*
X145357142Y-128521485D01*
X145738095Y-128854819D02*
X145738095Y-127854819D01*
X145738095Y-128331009D02*
X146309523Y-128331009D01*
X146309523Y-128854819D02*
X146309523Y-127854819D01*
X147357142Y-128759580D02*
X147309523Y-128807200D01*
X147309523Y-128807200D02*
X147166666Y-128854819D01*
X147166666Y-128854819D02*
X147071428Y-128854819D01*
X147071428Y-128854819D02*
X146928571Y-128807200D01*
X146928571Y-128807200D02*
X146833333Y-128711961D01*
X146833333Y-128711961D02*
X146785714Y-128616723D01*
X146785714Y-128616723D02*
X146738095Y-128426247D01*
X146738095Y-128426247D02*
X146738095Y-128283390D01*
X146738095Y-128283390D02*
X146785714Y-128092914D01*
X146785714Y-128092914D02*
X146833333Y-127997676D01*
X146833333Y-127997676D02*
X146928571Y-127902438D01*
X146928571Y-127902438D02*
X147071428Y-127854819D01*
X147071428Y-127854819D02*
X147166666Y-127854819D01*
X147166666Y-127854819D02*
X147309523Y-127902438D01*
X147309523Y-127902438D02*
X147357142Y-127950057D01*
X148261904Y-127854819D02*
X147785714Y-127854819D01*
X147785714Y-127854819D02*
X147738095Y-128331009D01*
X147738095Y-128331009D02*
X147785714Y-128283390D01*
X147785714Y-128283390D02*
X147880952Y-128235771D01*
X147880952Y-128235771D02*
X148119047Y-128235771D01*
X148119047Y-128235771D02*
X148214285Y-128283390D01*
X148214285Y-128283390D02*
X148261904Y-128331009D01*
X148261904Y-128331009D02*
X148309523Y-128426247D01*
X148309523Y-128426247D02*
X148309523Y-128664342D01*
X148309523Y-128664342D02*
X148261904Y-128759580D01*
X148261904Y-128759580D02*
X148214285Y-128807200D01*
X148214285Y-128807200D02*
X148119047Y-128854819D01*
X148119047Y-128854819D02*
X147880952Y-128854819D01*
X147880952Y-128854819D02*
X147785714Y-128807200D01*
X147785714Y-128807200D02*
X147738095Y-128759580D01*
X148785714Y-128854819D02*
X148976190Y-128854819D01*
X148976190Y-128854819D02*
X149071428Y-128807200D01*
X149071428Y-128807200D02*
X149119047Y-128759580D01*
X149119047Y-128759580D02*
X149214285Y-128616723D01*
X149214285Y-128616723D02*
X149261904Y-128426247D01*
X149261904Y-128426247D02*
X149261904Y-128045295D01*
X149261904Y-128045295D02*
X149214285Y-127950057D01*
X149214285Y-127950057D02*
X149166666Y-127902438D01*
X149166666Y-127902438D02*
X149071428Y-127854819D01*
X149071428Y-127854819D02*
X148880952Y-127854819D01*
X148880952Y-127854819D02*
X148785714Y-127902438D01*
X148785714Y-127902438D02*
X148738095Y-127950057D01*
X148738095Y-127950057D02*
X148690476Y-128045295D01*
X148690476Y-128045295D02*
X148690476Y-128283390D01*
X148690476Y-128283390D02*
X148738095Y-128378628D01*
X148738095Y-128378628D02*
X148785714Y-128426247D01*
X148785714Y-128426247D02*
X148880952Y-128473866D01*
X148880952Y-128473866D02*
X149071428Y-128473866D01*
X149071428Y-128473866D02*
X149166666Y-128426247D01*
X149166666Y-128426247D02*
X149214285Y-128378628D01*
X149214285Y-128378628D02*
X149261904Y-128283390D01*
X149880952Y-127854819D02*
X149976190Y-127854819D01*
X149976190Y-127854819D02*
X150071428Y-127902438D01*
X150071428Y-127902438D02*
X150119047Y-127950057D01*
X150119047Y-127950057D02*
X150166666Y-128045295D01*
X150166666Y-128045295D02*
X150214285Y-128235771D01*
X150214285Y-128235771D02*
X150214285Y-128473866D01*
X150214285Y-128473866D02*
X150166666Y-128664342D01*
X150166666Y-128664342D02*
X150119047Y-128759580D01*
X150119047Y-128759580D02*
X150071428Y-128807200D01*
X150071428Y-128807200D02*
X149976190Y-128854819D01*
X149976190Y-128854819D02*
X149880952Y-128854819D01*
X149880952Y-128854819D02*
X149785714Y-128807200D01*
X149785714Y-128807200D02*
X149738095Y-128759580D01*
X149738095Y-128759580D02*
X149690476Y-128664342D01*
X149690476Y-128664342D02*
X149642857Y-128473866D01*
X149642857Y-128473866D02*
X149642857Y-128235771D01*
X149642857Y-128235771D02*
X149690476Y-128045295D01*
X149690476Y-128045295D02*
X149738095Y-127950057D01*
X149738095Y-127950057D02*
X149785714Y-127902438D01*
X149785714Y-127902438D02*
X149880952Y-127854819D01*
X146454819Y-123261904D02*
X147264342Y-123261904D01*
X147264342Y-123261904D02*
X147359580Y-123214285D01*
X147359580Y-123214285D02*
X147407200Y-123166666D01*
X147407200Y-123166666D02*
X147454819Y-123071428D01*
X147454819Y-123071428D02*
X147454819Y-122880952D01*
X147454819Y-122880952D02*
X147407200Y-122785714D01*
X147407200Y-122785714D02*
X147359580Y-122738095D01*
X147359580Y-122738095D02*
X147264342Y-122690476D01*
X147264342Y-122690476D02*
X146454819Y-122690476D01*
X146550057Y-122261904D02*
X146502438Y-122214285D01*
X146502438Y-122214285D02*
X146454819Y-122119047D01*
X146454819Y-122119047D02*
X146454819Y-121880952D01*
X146454819Y-121880952D02*
X146502438Y-121785714D01*
X146502438Y-121785714D02*
X146550057Y-121738095D01*
X146550057Y-121738095D02*
X146645295Y-121690476D01*
X146645295Y-121690476D02*
X146740533Y-121690476D01*
X146740533Y-121690476D02*
X146883390Y-121738095D01*
X146883390Y-121738095D02*
X147454819Y-122309523D01*
X147454819Y-122309523D02*
X147454819Y-121690476D01*
X160071428Y-111581009D02*
X160214285Y-111628628D01*
X160214285Y-111628628D02*
X160261904Y-111676247D01*
X160261904Y-111676247D02*
X160309523Y-111771485D01*
X160309523Y-111771485D02*
X160309523Y-111914342D01*
X160309523Y-111914342D02*
X160261904Y-112009580D01*
X160261904Y-112009580D02*
X160214285Y-112057200D01*
X160214285Y-112057200D02*
X160119047Y-112104819D01*
X160119047Y-112104819D02*
X159738095Y-112104819D01*
X159738095Y-112104819D02*
X159738095Y-111104819D01*
X159738095Y-111104819D02*
X160071428Y-111104819D01*
X160071428Y-111104819D02*
X160166666Y-111152438D01*
X160166666Y-111152438D02*
X160214285Y-111200057D01*
X160214285Y-111200057D02*
X160261904Y-111295295D01*
X160261904Y-111295295D02*
X160261904Y-111390533D01*
X160261904Y-111390533D02*
X160214285Y-111485771D01*
X160214285Y-111485771D02*
X160166666Y-111533390D01*
X160166666Y-111533390D02*
X160071428Y-111581009D01*
X160071428Y-111581009D02*
X159738095Y-111581009D01*
X160738095Y-112104819D02*
X160738095Y-111438152D01*
X160738095Y-111104819D02*
X160690476Y-111152438D01*
X160690476Y-111152438D02*
X160738095Y-111200057D01*
X160738095Y-111200057D02*
X160785714Y-111152438D01*
X160785714Y-111152438D02*
X160738095Y-111104819D01*
X160738095Y-111104819D02*
X160738095Y-111200057D01*
X161071428Y-111438152D02*
X161452380Y-111438152D01*
X161214285Y-111104819D02*
X161214285Y-111961961D01*
X161214285Y-111961961D02*
X161261904Y-112057200D01*
X161261904Y-112057200D02*
X161357142Y-112104819D01*
X161357142Y-112104819D02*
X161452380Y-112104819D01*
X161976190Y-111104819D02*
X162071428Y-111104819D01*
X162071428Y-111104819D02*
X162166666Y-111152438D01*
X162166666Y-111152438D02*
X162214285Y-111200057D01*
X162214285Y-111200057D02*
X162261904Y-111295295D01*
X162261904Y-111295295D02*
X162309523Y-111485771D01*
X162309523Y-111485771D02*
X162309523Y-111723866D01*
X162309523Y-111723866D02*
X162261904Y-111914342D01*
X162261904Y-111914342D02*
X162214285Y-112009580D01*
X162214285Y-112009580D02*
X162166666Y-112057200D01*
X162166666Y-112057200D02*
X162071428Y-112104819D01*
X162071428Y-112104819D02*
X161976190Y-112104819D01*
X161976190Y-112104819D02*
X161880952Y-112057200D01*
X161880952Y-112057200D02*
X161833333Y-112009580D01*
X161833333Y-112009580D02*
X161785714Y-111914342D01*
X161785714Y-111914342D02*
X161738095Y-111723866D01*
X161738095Y-111723866D02*
X161738095Y-111485771D01*
X161738095Y-111485771D02*
X161785714Y-111295295D01*
X161785714Y-111295295D02*
X161833333Y-111200057D01*
X161833333Y-111200057D02*
X161880952Y-111152438D01*
X161880952Y-111152438D02*
X161976190Y-111104819D01*
D12*
X160630952Y-110227149D02*
X160630952Y-109727149D01*
X160630952Y-109727149D02*
X160750000Y-109727149D01*
X160750000Y-109727149D02*
X160821428Y-109750959D01*
X160821428Y-109750959D02*
X160869047Y-109798578D01*
X160869047Y-109798578D02*
X160892857Y-109846197D01*
X160892857Y-109846197D02*
X160916666Y-109941435D01*
X160916666Y-109941435D02*
X160916666Y-110012863D01*
X160916666Y-110012863D02*
X160892857Y-110108101D01*
X160892857Y-110108101D02*
X160869047Y-110155720D01*
X160869047Y-110155720D02*
X160821428Y-110203340D01*
X160821428Y-110203340D02*
X160750000Y-110227149D01*
X160750000Y-110227149D02*
X160630952Y-110227149D01*
X161083333Y-109727149D02*
X161392857Y-109727149D01*
X161392857Y-109727149D02*
X161226190Y-109917625D01*
X161226190Y-109917625D02*
X161297619Y-109917625D01*
X161297619Y-109917625D02*
X161345238Y-109941435D01*
X161345238Y-109941435D02*
X161369047Y-109965244D01*
X161369047Y-109965244D02*
X161392857Y-110012863D01*
X161392857Y-110012863D02*
X161392857Y-110131911D01*
X161392857Y-110131911D02*
X161369047Y-110179530D01*
X161369047Y-110179530D02*
X161345238Y-110203340D01*
X161345238Y-110203340D02*
X161297619Y-110227149D01*
X161297619Y-110227149D02*
X161154762Y-110227149D01*
X161154762Y-110227149D02*
X161107143Y-110203340D01*
X161107143Y-110203340D02*
X161083333Y-110179530D01*
D10*
X116380952Y-112104819D02*
X115809524Y-112104819D01*
X116095238Y-112104819D02*
X116095238Y-111104819D01*
X116095238Y-111104819D02*
X116000000Y-111247676D01*
X116000000Y-111247676D02*
X115904762Y-111342914D01*
X115904762Y-111342914D02*
X115809524Y-111390533D01*
X116809524Y-112104819D02*
X116809524Y-111104819D01*
X116904762Y-111723866D02*
X117190476Y-112104819D01*
X117190476Y-111438152D02*
X116809524Y-111819104D01*
D12*
X115678571Y-110227149D02*
X115511905Y-109989054D01*
X115392857Y-110227149D02*
X115392857Y-109727149D01*
X115392857Y-109727149D02*
X115583333Y-109727149D01*
X115583333Y-109727149D02*
X115630952Y-109750959D01*
X115630952Y-109750959D02*
X115654762Y-109774768D01*
X115654762Y-109774768D02*
X115678571Y-109822387D01*
X115678571Y-109822387D02*
X115678571Y-109893816D01*
X115678571Y-109893816D02*
X115654762Y-109941435D01*
X115654762Y-109941435D02*
X115630952Y-109965244D01*
X115630952Y-109965244D02*
X115583333Y-109989054D01*
X115583333Y-109989054D02*
X115392857Y-109989054D01*
X115773810Y-110274768D02*
X116154762Y-110274768D01*
X116273809Y-110227149D02*
X116273809Y-109727149D01*
X116273809Y-109727149D02*
X116464285Y-109727149D01*
X116464285Y-109727149D02*
X116511904Y-109750959D01*
X116511904Y-109750959D02*
X116535714Y-109774768D01*
X116535714Y-109774768D02*
X116559523Y-109822387D01*
X116559523Y-109822387D02*
X116559523Y-109893816D01*
X116559523Y-109893816D02*
X116535714Y-109941435D01*
X116535714Y-109941435D02*
X116511904Y-109965244D01*
X116511904Y-109965244D02*
X116464285Y-109989054D01*
X116464285Y-109989054D02*
X116273809Y-109989054D01*
X116726190Y-109727149D02*
X116845238Y-110227149D01*
X116845238Y-110227149D02*
X116940476Y-109870006D01*
X116940476Y-109870006D02*
X117035714Y-110227149D01*
X117035714Y-110227149D02*
X117154762Y-109727149D01*
X117630952Y-110227149D02*
X117464286Y-109989054D01*
X117345238Y-110227149D02*
X117345238Y-109727149D01*
X117345238Y-109727149D02*
X117535714Y-109727149D01*
X117535714Y-109727149D02*
X117583333Y-109750959D01*
X117583333Y-109750959D02*
X117607143Y-109774768D01*
X117607143Y-109774768D02*
X117630952Y-109822387D01*
X117630952Y-109822387D02*
X117630952Y-109893816D01*
X117630952Y-109893816D02*
X117607143Y-109941435D01*
X117607143Y-109941435D02*
X117583333Y-109965244D01*
X117583333Y-109965244D02*
X117535714Y-109989054D01*
X117535714Y-109989054D02*
X117345238Y-109989054D01*
D10*
X154214286Y-118104819D02*
X154833333Y-118104819D01*
X154833333Y-118104819D02*
X154500000Y-118485771D01*
X154500000Y-118485771D02*
X154642857Y-118485771D01*
X154642857Y-118485771D02*
X154738095Y-118533390D01*
X154738095Y-118533390D02*
X154785714Y-118581009D01*
X154785714Y-118581009D02*
X154833333Y-118676247D01*
X154833333Y-118676247D02*
X154833333Y-118914342D01*
X154833333Y-118914342D02*
X154785714Y-119009580D01*
X154785714Y-119009580D02*
X154738095Y-119057200D01*
X154738095Y-119057200D02*
X154642857Y-119104819D01*
X154642857Y-119104819D02*
X154357143Y-119104819D01*
X154357143Y-119104819D02*
X154261905Y-119057200D01*
X154261905Y-119057200D02*
X154214286Y-119009580D01*
X155166667Y-118104819D02*
X155785714Y-118104819D01*
X155785714Y-118104819D02*
X155452381Y-118485771D01*
X155452381Y-118485771D02*
X155595238Y-118485771D01*
X155595238Y-118485771D02*
X155690476Y-118533390D01*
X155690476Y-118533390D02*
X155738095Y-118581009D01*
X155738095Y-118581009D02*
X155785714Y-118676247D01*
X155785714Y-118676247D02*
X155785714Y-118914342D01*
X155785714Y-118914342D02*
X155738095Y-119009580D01*
X155738095Y-119009580D02*
X155690476Y-119057200D01*
X155690476Y-119057200D02*
X155595238Y-119104819D01*
X155595238Y-119104819D02*
X155309524Y-119104819D01*
X155309524Y-119104819D02*
X155214286Y-119057200D01*
X155214286Y-119057200D02*
X155166667Y-119009580D01*
X156404762Y-118104819D02*
X156500000Y-118104819D01*
X156500000Y-118104819D02*
X156595238Y-118152438D01*
X156595238Y-118152438D02*
X156642857Y-118200057D01*
X156642857Y-118200057D02*
X156690476Y-118295295D01*
X156690476Y-118295295D02*
X156738095Y-118485771D01*
X156738095Y-118485771D02*
X156738095Y-118723866D01*
X156738095Y-118723866D02*
X156690476Y-118914342D01*
X156690476Y-118914342D02*
X156642857Y-119009580D01*
X156642857Y-119009580D02*
X156595238Y-119057200D01*
X156595238Y-119057200D02*
X156500000Y-119104819D01*
X156500000Y-119104819D02*
X156404762Y-119104819D01*
X156404762Y-119104819D02*
X156309524Y-119057200D01*
X156309524Y-119057200D02*
X156261905Y-119009580D01*
X156261905Y-119009580D02*
X156214286Y-118914342D01*
X156214286Y-118914342D02*
X156166667Y-118723866D01*
X156166667Y-118723866D02*
X156166667Y-118485771D01*
X156166667Y-118485771D02*
X156214286Y-118295295D01*
X156214286Y-118295295D02*
X156261905Y-118200057D01*
X156261905Y-118200057D02*
X156309524Y-118152438D01*
X156309524Y-118152438D02*
X156404762Y-118104819D01*
D12*
X155416666Y-117227149D02*
X155250000Y-116989054D01*
X155130952Y-117227149D02*
X155130952Y-116727149D01*
X155130952Y-116727149D02*
X155321428Y-116727149D01*
X155321428Y-116727149D02*
X155369047Y-116750959D01*
X155369047Y-116750959D02*
X155392857Y-116774768D01*
X155392857Y-116774768D02*
X155416666Y-116822387D01*
X155416666Y-116822387D02*
X155416666Y-116893816D01*
X155416666Y-116893816D02*
X155392857Y-116941435D01*
X155392857Y-116941435D02*
X155369047Y-116965244D01*
X155369047Y-116965244D02*
X155321428Y-116989054D01*
X155321428Y-116989054D02*
X155130952Y-116989054D01*
X155869047Y-116727149D02*
X155630952Y-116727149D01*
X155630952Y-116727149D02*
X155607143Y-116965244D01*
X155607143Y-116965244D02*
X155630952Y-116941435D01*
X155630952Y-116941435D02*
X155678571Y-116917625D01*
X155678571Y-116917625D02*
X155797619Y-116917625D01*
X155797619Y-116917625D02*
X155845238Y-116941435D01*
X155845238Y-116941435D02*
X155869047Y-116965244D01*
X155869047Y-116965244D02*
X155892857Y-117012863D01*
X155892857Y-117012863D02*
X155892857Y-117131911D01*
X155892857Y-117131911D02*
X155869047Y-117179530D01*
X155869047Y-117179530D02*
X155845238Y-117203340D01*
X155845238Y-117203340D02*
X155797619Y-117227149D01*
X155797619Y-117227149D02*
X155678571Y-117227149D01*
X155678571Y-117227149D02*
X155630952Y-117203340D01*
X155630952Y-117203340D02*
X155607143Y-117179530D01*
D10*
X154214286Y-121604819D02*
X154833333Y-121604819D01*
X154833333Y-121604819D02*
X154500000Y-121985771D01*
X154500000Y-121985771D02*
X154642857Y-121985771D01*
X154642857Y-121985771D02*
X154738095Y-122033390D01*
X154738095Y-122033390D02*
X154785714Y-122081009D01*
X154785714Y-122081009D02*
X154833333Y-122176247D01*
X154833333Y-122176247D02*
X154833333Y-122414342D01*
X154833333Y-122414342D02*
X154785714Y-122509580D01*
X154785714Y-122509580D02*
X154738095Y-122557200D01*
X154738095Y-122557200D02*
X154642857Y-122604819D01*
X154642857Y-122604819D02*
X154357143Y-122604819D01*
X154357143Y-122604819D02*
X154261905Y-122557200D01*
X154261905Y-122557200D02*
X154214286Y-122509580D01*
X155166667Y-121604819D02*
X155785714Y-121604819D01*
X155785714Y-121604819D02*
X155452381Y-121985771D01*
X155452381Y-121985771D02*
X155595238Y-121985771D01*
X155595238Y-121985771D02*
X155690476Y-122033390D01*
X155690476Y-122033390D02*
X155738095Y-122081009D01*
X155738095Y-122081009D02*
X155785714Y-122176247D01*
X155785714Y-122176247D02*
X155785714Y-122414342D01*
X155785714Y-122414342D02*
X155738095Y-122509580D01*
X155738095Y-122509580D02*
X155690476Y-122557200D01*
X155690476Y-122557200D02*
X155595238Y-122604819D01*
X155595238Y-122604819D02*
X155309524Y-122604819D01*
X155309524Y-122604819D02*
X155214286Y-122557200D01*
X155214286Y-122557200D02*
X155166667Y-122509580D01*
X156404762Y-121604819D02*
X156500000Y-121604819D01*
X156500000Y-121604819D02*
X156595238Y-121652438D01*
X156595238Y-121652438D02*
X156642857Y-121700057D01*
X156642857Y-121700057D02*
X156690476Y-121795295D01*
X156690476Y-121795295D02*
X156738095Y-121985771D01*
X156738095Y-121985771D02*
X156738095Y-122223866D01*
X156738095Y-122223866D02*
X156690476Y-122414342D01*
X156690476Y-122414342D02*
X156642857Y-122509580D01*
X156642857Y-122509580D02*
X156595238Y-122557200D01*
X156595238Y-122557200D02*
X156500000Y-122604819D01*
X156500000Y-122604819D02*
X156404762Y-122604819D01*
X156404762Y-122604819D02*
X156309524Y-122557200D01*
X156309524Y-122557200D02*
X156261905Y-122509580D01*
X156261905Y-122509580D02*
X156214286Y-122414342D01*
X156214286Y-122414342D02*
X156166667Y-122223866D01*
X156166667Y-122223866D02*
X156166667Y-121985771D01*
X156166667Y-121985771D02*
X156214286Y-121795295D01*
X156214286Y-121795295D02*
X156261905Y-121700057D01*
X156261905Y-121700057D02*
X156309524Y-121652438D01*
X156309524Y-121652438D02*
X156404762Y-121604819D01*
D12*
X155416666Y-120727149D02*
X155250000Y-120489054D01*
X155130952Y-120727149D02*
X155130952Y-120227149D01*
X155130952Y-120227149D02*
X155321428Y-120227149D01*
X155321428Y-120227149D02*
X155369047Y-120250959D01*
X155369047Y-120250959D02*
X155392857Y-120274768D01*
X155392857Y-120274768D02*
X155416666Y-120322387D01*
X155416666Y-120322387D02*
X155416666Y-120393816D01*
X155416666Y-120393816D02*
X155392857Y-120441435D01*
X155392857Y-120441435D02*
X155369047Y-120465244D01*
X155369047Y-120465244D02*
X155321428Y-120489054D01*
X155321428Y-120489054D02*
X155130952Y-120489054D01*
X155845238Y-120227149D02*
X155750000Y-120227149D01*
X155750000Y-120227149D02*
X155702381Y-120250959D01*
X155702381Y-120250959D02*
X155678571Y-120274768D01*
X155678571Y-120274768D02*
X155630952Y-120346197D01*
X155630952Y-120346197D02*
X155607143Y-120441435D01*
X155607143Y-120441435D02*
X155607143Y-120631911D01*
X155607143Y-120631911D02*
X155630952Y-120679530D01*
X155630952Y-120679530D02*
X155654762Y-120703340D01*
X155654762Y-120703340D02*
X155702381Y-120727149D01*
X155702381Y-120727149D02*
X155797619Y-120727149D01*
X155797619Y-120727149D02*
X155845238Y-120703340D01*
X155845238Y-120703340D02*
X155869047Y-120679530D01*
X155869047Y-120679530D02*
X155892857Y-120631911D01*
X155892857Y-120631911D02*
X155892857Y-120512863D01*
X155892857Y-120512863D02*
X155869047Y-120465244D01*
X155869047Y-120465244D02*
X155845238Y-120441435D01*
X155845238Y-120441435D02*
X155797619Y-120417625D01*
X155797619Y-120417625D02*
X155702381Y-120417625D01*
X155702381Y-120417625D02*
X155654762Y-120441435D01*
X155654762Y-120441435D02*
X155630952Y-120465244D01*
X155630952Y-120465244D02*
X155607143Y-120512863D01*
D10*
X145452380Y-114134819D02*
X144880952Y-114134819D01*
X145166666Y-114134819D02*
X145166666Y-113134819D01*
X145166666Y-113134819D02*
X145071428Y-113277676D01*
X145071428Y-113277676D02*
X144976190Y-113372914D01*
X144976190Y-113372914D02*
X144880952Y-113420533D01*
X146071428Y-113134819D02*
X146166666Y-113134819D01*
X146166666Y-113134819D02*
X146261904Y-113182438D01*
X146261904Y-113182438D02*
X146309523Y-113230057D01*
X146309523Y-113230057D02*
X146357142Y-113325295D01*
X146357142Y-113325295D02*
X146404761Y-113515771D01*
X146404761Y-113515771D02*
X146404761Y-113753866D01*
X146404761Y-113753866D02*
X146357142Y-113944342D01*
X146357142Y-113944342D02*
X146309523Y-114039580D01*
X146309523Y-114039580D02*
X146261904Y-114087200D01*
X146261904Y-114087200D02*
X146166666Y-114134819D01*
X146166666Y-114134819D02*
X146071428Y-114134819D01*
X146071428Y-114134819D02*
X145976190Y-114087200D01*
X145976190Y-114087200D02*
X145928571Y-114039580D01*
X145928571Y-114039580D02*
X145880952Y-113944342D01*
X145880952Y-113944342D02*
X145833333Y-113753866D01*
X145833333Y-113753866D02*
X145833333Y-113515771D01*
X145833333Y-113515771D02*
X145880952Y-113325295D01*
X145880952Y-113325295D02*
X145928571Y-113230057D01*
X145928571Y-113230057D02*
X145976190Y-113182438D01*
X145976190Y-113182438D02*
X146071428Y-113134819D01*
X147023809Y-113134819D02*
X147119047Y-113134819D01*
X147119047Y-113134819D02*
X147214285Y-113182438D01*
X147214285Y-113182438D02*
X147261904Y-113230057D01*
X147261904Y-113230057D02*
X147309523Y-113325295D01*
X147309523Y-113325295D02*
X147357142Y-113515771D01*
X147357142Y-113515771D02*
X147357142Y-113753866D01*
X147357142Y-113753866D02*
X147309523Y-113944342D01*
X147309523Y-113944342D02*
X147261904Y-114039580D01*
X147261904Y-114039580D02*
X147214285Y-114087200D01*
X147214285Y-114087200D02*
X147119047Y-114134819D01*
X147119047Y-114134819D02*
X147023809Y-114134819D01*
X147023809Y-114134819D02*
X146928571Y-114087200D01*
X146928571Y-114087200D02*
X146880952Y-114039580D01*
X146880952Y-114039580D02*
X146833333Y-113944342D01*
X146833333Y-113944342D02*
X146785714Y-113753866D01*
X146785714Y-113753866D02*
X146785714Y-113515771D01*
X146785714Y-113515771D02*
X146833333Y-113325295D01*
X146833333Y-113325295D02*
X146880952Y-113230057D01*
X146880952Y-113230057D02*
X146928571Y-113182438D01*
X146928571Y-113182438D02*
X147023809Y-113134819D01*
X147785714Y-113468152D02*
X147785714Y-114134819D01*
X147785714Y-113563390D02*
X147833333Y-113515771D01*
X147833333Y-113515771D02*
X147928571Y-113468152D01*
X147928571Y-113468152D02*
X148071428Y-113468152D01*
X148071428Y-113468152D02*
X148166666Y-113515771D01*
X148166666Y-113515771D02*
X148214285Y-113611009D01*
X148214285Y-113611009D02*
X148214285Y-114134819D01*
X149023809Y-113611009D02*
X148690476Y-113611009D01*
X148690476Y-114134819D02*
X148690476Y-113134819D01*
X148690476Y-113134819D02*
X149166666Y-113134819D01*
D12*
X146000000Y-112179530D02*
X145976191Y-112203340D01*
X145976191Y-112203340D02*
X145904762Y-112227149D01*
X145904762Y-112227149D02*
X145857143Y-112227149D01*
X145857143Y-112227149D02*
X145785715Y-112203340D01*
X145785715Y-112203340D02*
X145738096Y-112155720D01*
X145738096Y-112155720D02*
X145714286Y-112108101D01*
X145714286Y-112108101D02*
X145690477Y-112012863D01*
X145690477Y-112012863D02*
X145690477Y-111941435D01*
X145690477Y-111941435D02*
X145714286Y-111846197D01*
X145714286Y-111846197D02*
X145738096Y-111798578D01*
X145738096Y-111798578D02*
X145785715Y-111750959D01*
X145785715Y-111750959D02*
X145857143Y-111727149D01*
X145857143Y-111727149D02*
X145904762Y-111727149D01*
X145904762Y-111727149D02*
X145976191Y-111750959D01*
X145976191Y-111750959D02*
X146000000Y-111774768D01*
X146095239Y-112274768D02*
X146476191Y-112274768D01*
X146595238Y-112227149D02*
X146595238Y-111727149D01*
X146595238Y-111727149D02*
X146714286Y-111727149D01*
X146714286Y-111727149D02*
X146785714Y-111750959D01*
X146785714Y-111750959D02*
X146833333Y-111798578D01*
X146833333Y-111798578D02*
X146857143Y-111846197D01*
X146857143Y-111846197D02*
X146880952Y-111941435D01*
X146880952Y-111941435D02*
X146880952Y-112012863D01*
X146880952Y-112012863D02*
X146857143Y-112108101D01*
X146857143Y-112108101D02*
X146833333Y-112155720D01*
X146833333Y-112155720D02*
X146785714Y-112203340D01*
X146785714Y-112203340D02*
X146714286Y-112227149D01*
X146714286Y-112227149D02*
X146595238Y-112227149D01*
X147095238Y-111965244D02*
X147261905Y-111965244D01*
X147333333Y-112227149D02*
X147095238Y-112227149D01*
X147095238Y-112227149D02*
X147095238Y-111727149D01*
X147095238Y-111727149D02*
X147333333Y-111727149D01*
X147833333Y-112179530D02*
X147809524Y-112203340D01*
X147809524Y-112203340D02*
X147738095Y-112227149D01*
X147738095Y-112227149D02*
X147690476Y-112227149D01*
X147690476Y-112227149D02*
X147619048Y-112203340D01*
X147619048Y-112203340D02*
X147571429Y-112155720D01*
X147571429Y-112155720D02*
X147547619Y-112108101D01*
X147547619Y-112108101D02*
X147523810Y-112012863D01*
X147523810Y-112012863D02*
X147523810Y-111941435D01*
X147523810Y-111941435D02*
X147547619Y-111846197D01*
X147547619Y-111846197D02*
X147571429Y-111798578D01*
X147571429Y-111798578D02*
X147619048Y-111750959D01*
X147619048Y-111750959D02*
X147690476Y-111727149D01*
X147690476Y-111727149D02*
X147738095Y-111727149D01*
X147738095Y-111727149D02*
X147809524Y-111750959D01*
X147809524Y-111750959D02*
X147833333Y-111774768D01*
X148023810Y-111774768D02*
X148047619Y-111750959D01*
X148047619Y-111750959D02*
X148095238Y-111727149D01*
X148095238Y-111727149D02*
X148214286Y-111727149D01*
X148214286Y-111727149D02*
X148261905Y-111750959D01*
X148261905Y-111750959D02*
X148285714Y-111774768D01*
X148285714Y-111774768D02*
X148309524Y-111822387D01*
X148309524Y-111822387D02*
X148309524Y-111870006D01*
X148309524Y-111870006D02*
X148285714Y-111941435D01*
X148285714Y-111941435D02*
X148000000Y-112227149D01*
X148000000Y-112227149D02*
X148309524Y-112227149D01*
D10*
X160071428Y-136081009D02*
X160214285Y-136128628D01*
X160214285Y-136128628D02*
X160261904Y-136176247D01*
X160261904Y-136176247D02*
X160309523Y-136271485D01*
X160309523Y-136271485D02*
X160309523Y-136414342D01*
X160309523Y-136414342D02*
X160261904Y-136509580D01*
X160261904Y-136509580D02*
X160214285Y-136557200D01*
X160214285Y-136557200D02*
X160119047Y-136604819D01*
X160119047Y-136604819D02*
X159738095Y-136604819D01*
X159738095Y-136604819D02*
X159738095Y-135604819D01*
X159738095Y-135604819D02*
X160071428Y-135604819D01*
X160071428Y-135604819D02*
X160166666Y-135652438D01*
X160166666Y-135652438D02*
X160214285Y-135700057D01*
X160214285Y-135700057D02*
X160261904Y-135795295D01*
X160261904Y-135795295D02*
X160261904Y-135890533D01*
X160261904Y-135890533D02*
X160214285Y-135985771D01*
X160214285Y-135985771D02*
X160166666Y-136033390D01*
X160166666Y-136033390D02*
X160071428Y-136081009D01*
X160071428Y-136081009D02*
X159738095Y-136081009D01*
X160738095Y-136604819D02*
X160738095Y-135938152D01*
X160738095Y-135604819D02*
X160690476Y-135652438D01*
X160690476Y-135652438D02*
X160738095Y-135700057D01*
X160738095Y-135700057D02*
X160785714Y-135652438D01*
X160785714Y-135652438D02*
X160738095Y-135604819D01*
X160738095Y-135604819D02*
X160738095Y-135700057D01*
X161071428Y-135938152D02*
X161452380Y-135938152D01*
X161214285Y-135604819D02*
X161214285Y-136461961D01*
X161214285Y-136461961D02*
X161261904Y-136557200D01*
X161261904Y-136557200D02*
X161357142Y-136604819D01*
X161357142Y-136604819D02*
X161452380Y-136604819D01*
X161690476Y-135604819D02*
X162357142Y-135604819D01*
X162357142Y-135604819D02*
X161928571Y-136604819D01*
D12*
X160392857Y-134727149D02*
X160392857Y-134227149D01*
X160392857Y-134227149D02*
X160511905Y-134227149D01*
X160511905Y-134227149D02*
X160583333Y-134250959D01*
X160583333Y-134250959D02*
X160630952Y-134298578D01*
X160630952Y-134298578D02*
X160654762Y-134346197D01*
X160654762Y-134346197D02*
X160678571Y-134441435D01*
X160678571Y-134441435D02*
X160678571Y-134512863D01*
X160678571Y-134512863D02*
X160654762Y-134608101D01*
X160654762Y-134608101D02*
X160630952Y-134655720D01*
X160630952Y-134655720D02*
X160583333Y-134703340D01*
X160583333Y-134703340D02*
X160511905Y-134727149D01*
X160511905Y-134727149D02*
X160392857Y-134727149D01*
X161154762Y-134727149D02*
X160869048Y-134727149D01*
X161011905Y-134727149D02*
X161011905Y-134227149D01*
X161011905Y-134227149D02*
X160964286Y-134298578D01*
X160964286Y-134298578D02*
X160916667Y-134346197D01*
X160916667Y-134346197D02*
X160869048Y-134370006D01*
X161464285Y-134227149D02*
X161511904Y-134227149D01*
X161511904Y-134227149D02*
X161559523Y-134250959D01*
X161559523Y-134250959D02*
X161583333Y-134274768D01*
X161583333Y-134274768D02*
X161607142Y-134322387D01*
X161607142Y-134322387D02*
X161630952Y-134417625D01*
X161630952Y-134417625D02*
X161630952Y-134536673D01*
X161630952Y-134536673D02*
X161607142Y-134631911D01*
X161607142Y-134631911D02*
X161583333Y-134679530D01*
X161583333Y-134679530D02*
X161559523Y-134703340D01*
X161559523Y-134703340D02*
X161511904Y-134727149D01*
X161511904Y-134727149D02*
X161464285Y-134727149D01*
X161464285Y-134727149D02*
X161416666Y-134703340D01*
X161416666Y-134703340D02*
X161392857Y-134679530D01*
X161392857Y-134679530D02*
X161369047Y-134631911D01*
X161369047Y-134631911D02*
X161345238Y-134536673D01*
X161345238Y-134536673D02*
X161345238Y-134417625D01*
X161345238Y-134417625D02*
X161369047Y-134322387D01*
X161369047Y-134322387D02*
X161392857Y-134274768D01*
X161392857Y-134274768D02*
X161416666Y-134250959D01*
X161416666Y-134250959D02*
X161464285Y-134227149D01*
D10*
X126452380Y-110134819D02*
X125880952Y-110134819D01*
X126166666Y-110134819D02*
X126166666Y-109134819D01*
X126166666Y-109134819D02*
X126071428Y-109277676D01*
X126071428Y-109277676D02*
X125976190Y-109372914D01*
X125976190Y-109372914D02*
X125880952Y-109420533D01*
X127071428Y-109134819D02*
X127166666Y-109134819D01*
X127166666Y-109134819D02*
X127261904Y-109182438D01*
X127261904Y-109182438D02*
X127309523Y-109230057D01*
X127309523Y-109230057D02*
X127357142Y-109325295D01*
X127357142Y-109325295D02*
X127404761Y-109515771D01*
X127404761Y-109515771D02*
X127404761Y-109753866D01*
X127404761Y-109753866D02*
X127357142Y-109944342D01*
X127357142Y-109944342D02*
X127309523Y-110039580D01*
X127309523Y-110039580D02*
X127261904Y-110087200D01*
X127261904Y-110087200D02*
X127166666Y-110134819D01*
X127166666Y-110134819D02*
X127071428Y-110134819D01*
X127071428Y-110134819D02*
X126976190Y-110087200D01*
X126976190Y-110087200D02*
X126928571Y-110039580D01*
X126928571Y-110039580D02*
X126880952Y-109944342D01*
X126880952Y-109944342D02*
X126833333Y-109753866D01*
X126833333Y-109753866D02*
X126833333Y-109515771D01*
X126833333Y-109515771D02*
X126880952Y-109325295D01*
X126880952Y-109325295D02*
X126928571Y-109230057D01*
X126928571Y-109230057D02*
X126976190Y-109182438D01*
X126976190Y-109182438D02*
X127071428Y-109134819D01*
X128023809Y-109134819D02*
X128119047Y-109134819D01*
X128119047Y-109134819D02*
X128214285Y-109182438D01*
X128214285Y-109182438D02*
X128261904Y-109230057D01*
X128261904Y-109230057D02*
X128309523Y-109325295D01*
X128309523Y-109325295D02*
X128357142Y-109515771D01*
X128357142Y-109515771D02*
X128357142Y-109753866D01*
X128357142Y-109753866D02*
X128309523Y-109944342D01*
X128309523Y-109944342D02*
X128261904Y-110039580D01*
X128261904Y-110039580D02*
X128214285Y-110087200D01*
X128214285Y-110087200D02*
X128119047Y-110134819D01*
X128119047Y-110134819D02*
X128023809Y-110134819D01*
X128023809Y-110134819D02*
X127928571Y-110087200D01*
X127928571Y-110087200D02*
X127880952Y-110039580D01*
X127880952Y-110039580D02*
X127833333Y-109944342D01*
X127833333Y-109944342D02*
X127785714Y-109753866D01*
X127785714Y-109753866D02*
X127785714Y-109515771D01*
X127785714Y-109515771D02*
X127833333Y-109325295D01*
X127833333Y-109325295D02*
X127880952Y-109230057D01*
X127880952Y-109230057D02*
X127928571Y-109182438D01*
X127928571Y-109182438D02*
X128023809Y-109134819D01*
X128785714Y-109468152D02*
X128785714Y-110134819D01*
X128785714Y-109563390D02*
X128833333Y-109515771D01*
X128833333Y-109515771D02*
X128928571Y-109468152D01*
X128928571Y-109468152D02*
X129071428Y-109468152D01*
X129071428Y-109468152D02*
X129166666Y-109515771D01*
X129166666Y-109515771D02*
X129214285Y-109611009D01*
X129214285Y-109611009D02*
X129214285Y-110134819D01*
X130023809Y-109611009D02*
X129690476Y-109611009D01*
X129690476Y-110134819D02*
X129690476Y-109134819D01*
X129690476Y-109134819D02*
X130166666Y-109134819D01*
D12*
X127000000Y-108179530D02*
X126976191Y-108203340D01*
X126976191Y-108203340D02*
X126904762Y-108227149D01*
X126904762Y-108227149D02*
X126857143Y-108227149D01*
X126857143Y-108227149D02*
X126785715Y-108203340D01*
X126785715Y-108203340D02*
X126738096Y-108155720D01*
X126738096Y-108155720D02*
X126714286Y-108108101D01*
X126714286Y-108108101D02*
X126690477Y-108012863D01*
X126690477Y-108012863D02*
X126690477Y-107941435D01*
X126690477Y-107941435D02*
X126714286Y-107846197D01*
X126714286Y-107846197D02*
X126738096Y-107798578D01*
X126738096Y-107798578D02*
X126785715Y-107750959D01*
X126785715Y-107750959D02*
X126857143Y-107727149D01*
X126857143Y-107727149D02*
X126904762Y-107727149D01*
X126904762Y-107727149D02*
X126976191Y-107750959D01*
X126976191Y-107750959D02*
X127000000Y-107774768D01*
X127095239Y-108274768D02*
X127476191Y-108274768D01*
X127595238Y-108227149D02*
X127595238Y-107727149D01*
X127595238Y-107727149D02*
X127714286Y-107727149D01*
X127714286Y-107727149D02*
X127785714Y-107750959D01*
X127785714Y-107750959D02*
X127833333Y-107798578D01*
X127833333Y-107798578D02*
X127857143Y-107846197D01*
X127857143Y-107846197D02*
X127880952Y-107941435D01*
X127880952Y-107941435D02*
X127880952Y-108012863D01*
X127880952Y-108012863D02*
X127857143Y-108108101D01*
X127857143Y-108108101D02*
X127833333Y-108155720D01*
X127833333Y-108155720D02*
X127785714Y-108203340D01*
X127785714Y-108203340D02*
X127714286Y-108227149D01*
X127714286Y-108227149D02*
X127595238Y-108227149D01*
X128095238Y-107965244D02*
X128261905Y-107965244D01*
X128333333Y-108227149D02*
X128095238Y-108227149D01*
X128095238Y-108227149D02*
X128095238Y-107727149D01*
X128095238Y-107727149D02*
X128333333Y-107727149D01*
X128833333Y-108179530D02*
X128809524Y-108203340D01*
X128809524Y-108203340D02*
X128738095Y-108227149D01*
X128738095Y-108227149D02*
X128690476Y-108227149D01*
X128690476Y-108227149D02*
X128619048Y-108203340D01*
X128619048Y-108203340D02*
X128571429Y-108155720D01*
X128571429Y-108155720D02*
X128547619Y-108108101D01*
X128547619Y-108108101D02*
X128523810Y-108012863D01*
X128523810Y-108012863D02*
X128523810Y-107941435D01*
X128523810Y-107941435D02*
X128547619Y-107846197D01*
X128547619Y-107846197D02*
X128571429Y-107798578D01*
X128571429Y-107798578D02*
X128619048Y-107750959D01*
X128619048Y-107750959D02*
X128690476Y-107727149D01*
X128690476Y-107727149D02*
X128738095Y-107727149D01*
X128738095Y-107727149D02*
X128809524Y-107750959D01*
X128809524Y-107750959D02*
X128833333Y-107774768D01*
X129309524Y-108227149D02*
X129023810Y-108227149D01*
X129166667Y-108227149D02*
X129166667Y-107727149D01*
X129166667Y-107727149D02*
X129119048Y-107798578D01*
X129119048Y-107798578D02*
X129071429Y-107846197D01*
X129071429Y-107846197D02*
X129023810Y-107870006D01*
D10*
X154214286Y-135604819D02*
X154833333Y-135604819D01*
X154833333Y-135604819D02*
X154500000Y-135985771D01*
X154500000Y-135985771D02*
X154642857Y-135985771D01*
X154642857Y-135985771D02*
X154738095Y-136033390D01*
X154738095Y-136033390D02*
X154785714Y-136081009D01*
X154785714Y-136081009D02*
X154833333Y-136176247D01*
X154833333Y-136176247D02*
X154833333Y-136414342D01*
X154833333Y-136414342D02*
X154785714Y-136509580D01*
X154785714Y-136509580D02*
X154738095Y-136557200D01*
X154738095Y-136557200D02*
X154642857Y-136604819D01*
X154642857Y-136604819D02*
X154357143Y-136604819D01*
X154357143Y-136604819D02*
X154261905Y-136557200D01*
X154261905Y-136557200D02*
X154214286Y-136509580D01*
X155166667Y-135604819D02*
X155785714Y-135604819D01*
X155785714Y-135604819D02*
X155452381Y-135985771D01*
X155452381Y-135985771D02*
X155595238Y-135985771D01*
X155595238Y-135985771D02*
X155690476Y-136033390D01*
X155690476Y-136033390D02*
X155738095Y-136081009D01*
X155738095Y-136081009D02*
X155785714Y-136176247D01*
X155785714Y-136176247D02*
X155785714Y-136414342D01*
X155785714Y-136414342D02*
X155738095Y-136509580D01*
X155738095Y-136509580D02*
X155690476Y-136557200D01*
X155690476Y-136557200D02*
X155595238Y-136604819D01*
X155595238Y-136604819D02*
X155309524Y-136604819D01*
X155309524Y-136604819D02*
X155214286Y-136557200D01*
X155214286Y-136557200D02*
X155166667Y-136509580D01*
X156404762Y-135604819D02*
X156500000Y-135604819D01*
X156500000Y-135604819D02*
X156595238Y-135652438D01*
X156595238Y-135652438D02*
X156642857Y-135700057D01*
X156642857Y-135700057D02*
X156690476Y-135795295D01*
X156690476Y-135795295D02*
X156738095Y-135985771D01*
X156738095Y-135985771D02*
X156738095Y-136223866D01*
X156738095Y-136223866D02*
X156690476Y-136414342D01*
X156690476Y-136414342D02*
X156642857Y-136509580D01*
X156642857Y-136509580D02*
X156595238Y-136557200D01*
X156595238Y-136557200D02*
X156500000Y-136604819D01*
X156500000Y-136604819D02*
X156404762Y-136604819D01*
X156404762Y-136604819D02*
X156309524Y-136557200D01*
X156309524Y-136557200D02*
X156261905Y-136509580D01*
X156261905Y-136509580D02*
X156214286Y-136414342D01*
X156214286Y-136414342D02*
X156166667Y-136223866D01*
X156166667Y-136223866D02*
X156166667Y-135985771D01*
X156166667Y-135985771D02*
X156214286Y-135795295D01*
X156214286Y-135795295D02*
X156261905Y-135700057D01*
X156261905Y-135700057D02*
X156309524Y-135652438D01*
X156309524Y-135652438D02*
X156404762Y-135604819D01*
D12*
X155178571Y-134727149D02*
X155011905Y-134489054D01*
X154892857Y-134727149D02*
X154892857Y-134227149D01*
X154892857Y-134227149D02*
X155083333Y-134227149D01*
X155083333Y-134227149D02*
X155130952Y-134250959D01*
X155130952Y-134250959D02*
X155154762Y-134274768D01*
X155154762Y-134274768D02*
X155178571Y-134322387D01*
X155178571Y-134322387D02*
X155178571Y-134393816D01*
X155178571Y-134393816D02*
X155154762Y-134441435D01*
X155154762Y-134441435D02*
X155130952Y-134465244D01*
X155130952Y-134465244D02*
X155083333Y-134489054D01*
X155083333Y-134489054D02*
X154892857Y-134489054D01*
X155654762Y-134727149D02*
X155369048Y-134727149D01*
X155511905Y-134727149D02*
X155511905Y-134227149D01*
X155511905Y-134227149D02*
X155464286Y-134298578D01*
X155464286Y-134298578D02*
X155416667Y-134346197D01*
X155416667Y-134346197D02*
X155369048Y-134370006D01*
X155964285Y-134227149D02*
X156011904Y-134227149D01*
X156011904Y-134227149D02*
X156059523Y-134250959D01*
X156059523Y-134250959D02*
X156083333Y-134274768D01*
X156083333Y-134274768D02*
X156107142Y-134322387D01*
X156107142Y-134322387D02*
X156130952Y-134417625D01*
X156130952Y-134417625D02*
X156130952Y-134536673D01*
X156130952Y-134536673D02*
X156107142Y-134631911D01*
X156107142Y-134631911D02*
X156083333Y-134679530D01*
X156083333Y-134679530D02*
X156059523Y-134703340D01*
X156059523Y-134703340D02*
X156011904Y-134727149D01*
X156011904Y-134727149D02*
X155964285Y-134727149D01*
X155964285Y-134727149D02*
X155916666Y-134703340D01*
X155916666Y-134703340D02*
X155892857Y-134679530D01*
X155892857Y-134679530D02*
X155869047Y-134631911D01*
X155869047Y-134631911D02*
X155845238Y-134536673D01*
X155845238Y-134536673D02*
X155845238Y-134417625D01*
X155845238Y-134417625D02*
X155869047Y-134322387D01*
X155869047Y-134322387D02*
X155892857Y-134274768D01*
X155892857Y-134274768D02*
X155916666Y-134250959D01*
X155916666Y-134250959D02*
X155964285Y-134227149D01*
D10*
X135880952Y-124104819D02*
X135309524Y-124104819D01*
X135595238Y-124104819D02*
X135595238Y-123104819D01*
X135595238Y-123104819D02*
X135500000Y-123247676D01*
X135500000Y-123247676D02*
X135404762Y-123342914D01*
X135404762Y-123342914D02*
X135309524Y-123390533D01*
X136309524Y-124104819D02*
X136309524Y-123104819D01*
X136404762Y-123723866D02*
X136690476Y-124104819D01*
X136690476Y-123438152D02*
X136309524Y-123819104D01*
D12*
X135261904Y-122227149D02*
X135095238Y-121989054D01*
X134976190Y-122227149D02*
X134976190Y-121727149D01*
X134976190Y-121727149D02*
X135166666Y-121727149D01*
X135166666Y-121727149D02*
X135214285Y-121750959D01*
X135214285Y-121750959D02*
X135238095Y-121774768D01*
X135238095Y-121774768D02*
X135261904Y-121822387D01*
X135261904Y-121822387D02*
X135261904Y-121893816D01*
X135261904Y-121893816D02*
X135238095Y-121941435D01*
X135238095Y-121941435D02*
X135214285Y-121965244D01*
X135214285Y-121965244D02*
X135166666Y-121989054D01*
X135166666Y-121989054D02*
X134976190Y-121989054D01*
X135357143Y-122274768D02*
X135738095Y-122274768D01*
X136142856Y-122179530D02*
X136119047Y-122203340D01*
X136119047Y-122203340D02*
X136047618Y-122227149D01*
X136047618Y-122227149D02*
X135999999Y-122227149D01*
X135999999Y-122227149D02*
X135928571Y-122203340D01*
X135928571Y-122203340D02*
X135880952Y-122155720D01*
X135880952Y-122155720D02*
X135857142Y-122108101D01*
X135857142Y-122108101D02*
X135833333Y-122012863D01*
X135833333Y-122012863D02*
X135833333Y-121941435D01*
X135833333Y-121941435D02*
X135857142Y-121846197D01*
X135857142Y-121846197D02*
X135880952Y-121798578D01*
X135880952Y-121798578D02*
X135928571Y-121750959D01*
X135928571Y-121750959D02*
X135999999Y-121727149D01*
X135999999Y-121727149D02*
X136047618Y-121727149D01*
X136047618Y-121727149D02*
X136119047Y-121750959D01*
X136119047Y-121750959D02*
X136142856Y-121774768D01*
X136595237Y-122227149D02*
X136357142Y-122227149D01*
X136357142Y-122227149D02*
X136357142Y-121727149D01*
X136761904Y-122227149D02*
X136761904Y-121727149D01*
X137047618Y-122227149D02*
X136833333Y-121941435D01*
X137047618Y-121727149D02*
X136761904Y-122012863D01*
%TO.C,J1*%
D14*
X101250000Y-120850000D02*
X108750000Y-120850000D01*
X101250000Y-125850000D02*
X101250000Y-120850000D01*
X101750000Y-125150000D02*
X108250000Y-125150000D01*
X108750000Y-120850000D02*
X108750000Y-125850000D01*
X108750000Y-125850000D02*
X101250000Y-125850000D01*
%TO.C,R7*%
X154500000Y-123375000D02*
X156500000Y-123375000D01*
X156500000Y-124625000D01*
X154500000Y-124625000D01*
X154500000Y-123375000D01*
%TO.C,R4*%
X154500000Y-112875000D02*
X156500000Y-112875000D01*
X156500000Y-114125000D01*
X154500000Y-114125000D01*
X154500000Y-112875000D01*
%TO.C,D2*%
X108700000Y-130500000D02*
X108700000Y-127500000D01*
X110350560Y-128200920D02*
X110350560Y-129801120D01*
X110350560Y-129001020D02*
X109448860Y-129001020D01*
X110350560Y-129001020D02*
X111501180Y-128200920D01*
X110350560Y-129001020D02*
X111501180Y-129750320D01*
X111501180Y-129001020D02*
X112499400Y-129001020D01*
X111501180Y-129750320D02*
X111501180Y-128200920D01*
X113300000Y-127500000D02*
X108700000Y-127500000D01*
X113300000Y-127500000D02*
X113300000Y-130500000D01*
X113300000Y-130500000D02*
X108700000Y-130500000D01*
%TO.C,RV1*%
X138112000Y-108266000D02*
X135916000Y-110462000D01*
X138304000Y-108458000D02*
X136108000Y-110654000D01*
X133220000Y-104695000D02*
X142750000Y-104695000D01*
X142750000Y-114225000D01*
X133220000Y-114225000D01*
X133220000Y-104695000D01*
X138685000Y-109460000D02*
G75*
G02*
X135535000Y-109460000I-1575000J0D01*
G01*
X135535000Y-109460000D02*
G75*
G02*
X138685000Y-109460000I1575000J0D01*
G01*
%TO.C,C3*%
X124200000Y-122400000D02*
X125800000Y-122400000D01*
X125800000Y-125600000D01*
X124200000Y-125600000D01*
X124200000Y-122400000D01*
%TO.C,D5*%
X160000000Y-116700000D02*
X160000000Y-117600000D01*
X160000000Y-117600000D02*
X162000000Y-117600000D01*
X160300000Y-116400000D02*
X160000000Y-116700000D01*
X162000000Y-116400000D02*
X160300000Y-116400000D01*
X162000000Y-117600000D02*
X162000000Y-116400000D01*
%TO.C,C1*%
X115700000Y-127400000D02*
X117300000Y-127400000D01*
X117300000Y-130600000D01*
X115700000Y-130600000D01*
X115700000Y-127400000D01*
%TO.C,C4*%
X127000000Y-119375000D02*
X129000000Y-119375000D01*
X129000000Y-120625000D01*
X127000000Y-120625000D01*
X127000000Y-119375000D01*
%TO.C,R1*%
X122375000Y-107000000D02*
X123625000Y-107000000D01*
X123625000Y-109000000D01*
X122375000Y-109000000D01*
X122375000Y-107000000D01*
%TO.C,SW_RST*%
X125000000Y-131000000D02*
X125000000Y-137000000D01*
X125000000Y-137000000D02*
X131000000Y-137000000D01*
X131000000Y-131000000D02*
X125000000Y-131000000D01*
X131000000Y-137000000D02*
X131000000Y-131000000D01*
X129750000Y-134000000D02*
G75*
G02*
X126250000Y-134000000I-1750000J0D01*
G01*
X126250000Y-134000000D02*
G75*
G02*
X129750000Y-134000000I1750000J0D01*
G01*
%TO.C,R2*%
X122375000Y-113000000D02*
X123625000Y-113000000D01*
X123625000Y-115000000D01*
X122375000Y-115000000D01*
X122375000Y-113000000D01*
%TO.C,D7*%
X160000000Y-123700000D02*
X160000000Y-124600000D01*
X160000000Y-124600000D02*
X162000000Y-124600000D01*
X160300000Y-123400000D02*
X160000000Y-123700000D01*
X162000000Y-123400000D02*
X160300000Y-123400000D01*
X162000000Y-124600000D02*
X162000000Y-123400000D01*
%TO.C,R3*%
X154500000Y-109375000D02*
X156500000Y-109375000D01*
X156500000Y-110625000D01*
X154500000Y-110625000D01*
X154500000Y-109375000D01*
%TO.C,R8*%
X154500000Y-126875000D02*
X156500000Y-126875000D01*
X156500000Y-128125000D01*
X154500000Y-128125000D01*
X154500000Y-126875000D01*
%TO.C,D9*%
X160000000Y-130700000D02*
X160000000Y-131600000D01*
X160000000Y-131600000D02*
X162000000Y-131600000D01*
X160300000Y-130400000D02*
X160000000Y-130700000D01*
X162000000Y-130400000D02*
X160300000Y-130400000D01*
X162000000Y-131600000D02*
X162000000Y-130400000D01*
%TO.C,D4*%
X160000000Y-113200000D02*
X160000000Y-114100000D01*
X160000000Y-114100000D02*
X162000000Y-114100000D01*
X160300000Y-112900000D02*
X160000000Y-113200000D01*
X162000000Y-112900000D02*
X160300000Y-112900000D01*
X162000000Y-114100000D02*
X162000000Y-112900000D01*
%TO.C,D_PWR*%
X115500000Y-105700000D02*
X115500000Y-106600000D01*
X115500000Y-106600000D02*
X117500000Y-106600000D01*
X115800000Y-105400000D02*
X115500000Y-105700000D01*
X117500000Y-105400000D02*
X115800000Y-105400000D01*
X117500000Y-106600000D02*
X117500000Y-105400000D01*
%TO.C,U1*%
X127025000Y-111550000D02*
X129950000Y-111550000D01*
X129950000Y-116450000D01*
X126050000Y-116450000D01*
X126050000Y-112525000D01*
X127025000Y-111550000D01*
%TO.C,D8*%
X160000000Y-127200000D02*
X160000000Y-128100000D01*
X160000000Y-128100000D02*
X162000000Y-128100000D01*
X160300000Y-126900000D02*
X160000000Y-127200000D01*
X162000000Y-126900000D02*
X160300000Y-126900000D01*
X162000000Y-128100000D02*
X162000000Y-126900000D01*
%TO.C,F1*%
X109400000Y-115200000D02*
X112600000Y-115200000D01*
X112600000Y-116800000D01*
X109400000Y-116800000D01*
X109400000Y-115200000D01*
%TO.C,R_PULL_RST*%
X135375000Y-133000000D02*
X136625000Y-133000000D01*
X136625000Y-135000000D01*
X135375000Y-135000000D01*
X135375000Y-133000000D01*
%TO.C,D_CLK*%
X135000000Y-125700000D02*
X135000000Y-126600000D01*
X135000000Y-126600000D02*
X137000000Y-126600000D01*
X135300000Y-125400000D02*
X135000000Y-125700000D01*
X137000000Y-125400000D02*
X135300000Y-125400000D01*
X137000000Y-126600000D02*
X137000000Y-125400000D01*
%TO.C,D6*%
X160000000Y-120200000D02*
X160000000Y-121100000D01*
X160000000Y-121100000D02*
X162000000Y-121100000D01*
X160300000Y-119900000D02*
X160000000Y-120200000D01*
X162000000Y-119900000D02*
X160300000Y-119900000D01*
X162000000Y-121100000D02*
X162000000Y-119900000D01*
%TO.C,R9*%
X154500000Y-130375000D02*
X156500000Y-130375000D01*
X156500000Y-131625000D01*
X154500000Y-131625000D01*
X154500000Y-130375000D01*
%TO.C,C2*%
X119375000Y-128000000D02*
X120625000Y-128000000D01*
X120625000Y-130000000D01*
X119375000Y-130000000D01*
X119375000Y-128000000D01*
%TO.C,D1*%
X114700000Y-117500000D02*
X114700000Y-114500000D01*
X116350560Y-115200920D02*
X116350560Y-116801120D01*
X116350560Y-116001020D02*
X115448860Y-116001020D01*
X116350560Y-116001020D02*
X117501180Y-115200920D01*
X116350560Y-116001020D02*
X117501180Y-116750320D01*
X117501180Y-116001020D02*
X118499400Y-116001020D01*
X117501180Y-116750320D02*
X117501180Y-115200920D01*
X119300000Y-114500000D02*
X114700000Y-114500000D01*
X119300000Y-114500000D02*
X119300000Y-117500000D01*
X119300000Y-117500000D02*
X114700000Y-117500000D01*
%TO.C,U2*%
X146025000Y-117550000D02*
X148950000Y-117550000D01*
X148950000Y-127450000D01*
X145050000Y-127450000D01*
X145050000Y-118525000D01*
X146025000Y-117550000D01*
%TO.C,D3*%
X160000000Y-109700000D02*
X160000000Y-110600000D01*
X160000000Y-110600000D02*
X162000000Y-110600000D01*
X160300000Y-109400000D02*
X160000000Y-109700000D01*
X162000000Y-109400000D02*
X160300000Y-109400000D01*
X162000000Y-110600000D02*
X162000000Y-109400000D01*
%TO.C,R_PWR*%
X115500000Y-109375000D02*
X117500000Y-109375000D01*
X117500000Y-110625000D01*
X115500000Y-110625000D01*
X115500000Y-109375000D01*
%TO.C,R5*%
X154500000Y-116375000D02*
X156500000Y-116375000D01*
X156500000Y-117625000D01*
X154500000Y-117625000D01*
X154500000Y-116375000D01*
%TO.C,R6*%
X154500000Y-119875000D02*
X156500000Y-119875000D01*
X156500000Y-121125000D01*
X154500000Y-121125000D01*
X154500000Y-119875000D01*
%TO.C,C_DEC2*%
X146000000Y-111375000D02*
X148000000Y-111375000D01*
X148000000Y-112625000D01*
X146000000Y-112625000D01*
X146000000Y-111375000D01*
%TO.C,D10*%
X160000000Y-134200000D02*
X160000000Y-135100000D01*
X160000000Y-135100000D02*
X162000000Y-135100000D01*
X160300000Y-133900000D02*
X160000000Y-134200000D01*
X162000000Y-133900000D02*
X160300000Y-133900000D01*
X162000000Y-135100000D02*
X162000000Y-133900000D01*
%TO.C,C_DEC1*%
X127000000Y-107375000D02*
X129000000Y-107375000D01*
X129000000Y-108625000D01*
X127000000Y-108625000D01*
X127000000Y-107375000D01*
%TO.C,R10*%
X154500000Y-133875000D02*
X156500000Y-133875000D01*
X156500000Y-135125000D01*
X154500000Y-135125000D01*
X154500000Y-133875000D01*
%TO.C,R_CLK*%
X135000000Y-121375000D02*
X137000000Y-121375000D01*
X137000000Y-122625000D01*
X135000000Y-122625000D01*
X135000000Y-121375000D01*
%TD*%
M02*
