%TF.GenerationSoftware,KiCad,Pcbnew,10.0.6*%
%TF.CreationDate,2026-09-16T13:07:36+05:30*%
%TF.ProjectId,Binary_Counter_8Bit,42696e61-7279-45f4-936f-756e7465725f,rev?*%
%TF.SameCoordinates,Original*%
%TF.FileFunction,Other,User*%
%FSLAX46Y46*%
G04 Gerber Fmt 4.6, Leading zero omitted, Abs format (unit mm)*
G04 Created by KiCad (PCBNEW 10.0.6) date 2026-09-16 13:07:36*
%MOMM*%
%LPD*%
G01*
G04 APERTURE LIST*
%ADD10C,0.050000*%
G04 APERTURE END LIST*
%TO.C,J1*%
D10*
X100300000Y-119850000D02*
X109700000Y-119850000D01*
X100300000Y-126350000D02*
X100300000Y-119850000D01*
X109700000Y-119850000D02*
X109700000Y-126350000D01*
X109700000Y-126350000D02*
X100300000Y-126350000D01*
%TO.C,R7*%
X153820000Y-123050000D02*
X157180000Y-123050000D01*
X157180000Y-124950000D01*
X153820000Y-124950000D01*
X153820000Y-123050000D01*
%TO.C,R4*%
X153820000Y-112550000D02*
X157180000Y-112550000D01*
X157180000Y-114450000D01*
X153820000Y-114450000D01*
X153820000Y-112550000D01*
%TO.C,D2*%
X107500000Y-127250000D02*
X114500000Y-127250000D01*
X107500000Y-130750000D02*
X107500000Y-127250000D01*
X114500000Y-127250000D02*
X114500000Y-130750000D01*
X114500000Y-130750000D02*
X107500000Y-130750000D01*
%TO.C,RV1*%
X132970000Y-104440000D02*
X143000000Y-104440000D01*
X143000000Y-114480000D01*
X132970000Y-114480000D01*
X132970000Y-104440000D01*
%TO.C,C3*%
X123850000Y-121700000D02*
X126150000Y-121700000D01*
X126150000Y-126300000D01*
X123850000Y-126300000D01*
X123850000Y-121700000D01*
%TO.C,D5*%
X159320000Y-116050000D02*
X162680000Y-116050000D01*
X162680000Y-117950000D01*
X159320000Y-117950000D01*
X159320000Y-116050000D01*
%TO.C,C1*%
X115350000Y-126700000D02*
X117650000Y-126700000D01*
X117650000Y-131300000D01*
X115350000Y-131300000D01*
X115350000Y-126700000D01*
%TO.C,C4*%
X126300000Y-119020000D02*
X129700000Y-119020000D01*
X129700000Y-120980000D01*
X126300000Y-120980000D01*
X126300000Y-119020000D01*
%TO.C,R1*%
X122050000Y-106320000D02*
X123950000Y-106320000D01*
X123950000Y-109680000D01*
X122050000Y-109680000D01*
X122050000Y-106320000D01*
%TO.C,SW_RST*%
X122950000Y-130600000D02*
X122950000Y-137400000D01*
X122950000Y-130600000D02*
X133050000Y-130600000D01*
X122950000Y-137400000D02*
X133050000Y-137400000D01*
X133050000Y-137400000D02*
X133050000Y-130600000D01*
%TO.C,R2*%
X122050000Y-112320000D02*
X123950000Y-112320000D01*
X123950000Y-115680000D01*
X122050000Y-115680000D01*
X122050000Y-112320000D01*
%TO.C,D7*%
X159320000Y-123050000D02*
X162680000Y-123050000D01*
X162680000Y-124950000D01*
X159320000Y-124950000D01*
X159320000Y-123050000D01*
%TO.C,R3*%
X153820000Y-109050000D02*
X157180000Y-109050000D01*
X157180000Y-110950000D01*
X153820000Y-110950000D01*
X153820000Y-109050000D01*
%TO.C,R8*%
X153820000Y-126550000D02*
X157180000Y-126550000D01*
X157180000Y-128450000D01*
X153820000Y-128450000D01*
X153820000Y-126550000D01*
%TO.C,D9*%
X159320000Y-130050000D02*
X162680000Y-130050000D01*
X162680000Y-131950000D01*
X159320000Y-131950000D01*
X159320000Y-130050000D01*
%TO.C,D4*%
X159320000Y-112550000D02*
X162680000Y-112550000D01*
X162680000Y-114450000D01*
X159320000Y-114450000D01*
X159320000Y-112550000D01*
%TO.C,D_PWR*%
X114820000Y-105050000D02*
X118180000Y-105050000D01*
X118180000Y-106950000D01*
X114820000Y-106950000D01*
X114820000Y-105050000D01*
%TO.C,U1*%
X124300000Y-111540000D02*
X125800000Y-111540000D01*
X124300000Y-116460000D02*
X124300000Y-111540000D01*
X125800000Y-111300000D02*
X130200000Y-111300000D01*
X125800000Y-111540000D02*
X125800000Y-111300000D01*
X125800000Y-116460000D02*
X124300000Y-116460000D01*
X125800000Y-116700000D02*
X125800000Y-116460000D01*
X130200000Y-111300000D02*
X130200000Y-111540000D01*
X130200000Y-111540000D02*
X131700000Y-111540000D01*
X130200000Y-116460000D02*
X130200000Y-116700000D01*
X130200000Y-116700000D02*
X125800000Y-116700000D01*
X131700000Y-111540000D02*
X131700000Y-116460000D01*
X131700000Y-116460000D02*
X130200000Y-116460000D01*
%TO.C,D8*%
X159320000Y-126550000D02*
X162680000Y-126550000D01*
X162680000Y-128450000D01*
X159320000Y-128450000D01*
X159320000Y-126550000D01*
%TO.C,F1*%
X108720000Y-114870000D02*
X113280000Y-114870000D01*
X113280000Y-117130000D01*
X108720000Y-117130000D01*
X108720000Y-114870000D01*
%TO.C,R_PULL_RST*%
X135050000Y-132320000D02*
X136950000Y-132320000D01*
X136950000Y-135680000D01*
X135050000Y-135680000D01*
X135050000Y-132320000D01*
%TO.C,D_CLK*%
X134320000Y-125050000D02*
X137680000Y-125050000D01*
X137680000Y-126950000D01*
X134320000Y-126950000D01*
X134320000Y-125050000D01*
%TO.C,D6*%
X159320000Y-119550000D02*
X162680000Y-119550000D01*
X162680000Y-121450000D01*
X159320000Y-121450000D01*
X159320000Y-119550000D01*
%TO.C,R9*%
X153820000Y-130050000D02*
X157180000Y-130050000D01*
X157180000Y-131950000D01*
X153820000Y-131950000D01*
X153820000Y-130050000D01*
%TO.C,C2*%
X119020000Y-127300000D02*
X120980000Y-127300000D01*
X120980000Y-130700000D01*
X119020000Y-130700000D01*
X119020000Y-127300000D01*
%TO.C,D1*%
X113500000Y-114250000D02*
X120500000Y-114250000D01*
X113500000Y-117750000D02*
X113500000Y-114250000D01*
X120500000Y-114250000D02*
X120500000Y-117750000D01*
X120500000Y-117750000D02*
X113500000Y-117750000D01*
%TO.C,U2*%
X143300000Y-117500000D02*
X144800000Y-117500000D01*
X143300000Y-127500000D02*
X143300000Y-117500000D01*
X144800000Y-117300000D02*
X149200000Y-117300000D01*
X144800000Y-117500000D02*
X144800000Y-117300000D01*
X144800000Y-127500000D02*
X143300000Y-127500000D01*
X144800000Y-127700000D02*
X144800000Y-127500000D01*
X149200000Y-117300000D02*
X149200000Y-117500000D01*
X149200000Y-117500000D02*
X150700000Y-117500000D01*
X149200000Y-127500000D02*
X149200000Y-127700000D01*
X149200000Y-127700000D02*
X144800000Y-127700000D01*
X150700000Y-117500000D02*
X150700000Y-127500000D01*
X150700000Y-127500000D02*
X149200000Y-127500000D01*
%TO.C,D3*%
X159320000Y-109050000D02*
X162680000Y-109050000D01*
X162680000Y-110950000D01*
X159320000Y-110950000D01*
X159320000Y-109050000D01*
%TO.C,R_PWR*%
X114820000Y-109050000D02*
X118180000Y-109050000D01*
X118180000Y-110950000D01*
X114820000Y-110950000D01*
X114820000Y-109050000D01*
%TO.C,R5*%
X153820000Y-116050000D02*
X157180000Y-116050000D01*
X157180000Y-117950000D01*
X153820000Y-117950000D01*
X153820000Y-116050000D01*
%TO.C,R6*%
X153820000Y-119550000D02*
X157180000Y-119550000D01*
X157180000Y-121450000D01*
X153820000Y-121450000D01*
X153820000Y-119550000D01*
%TO.C,C_DEC2*%
X145300000Y-111020000D02*
X148700000Y-111020000D01*
X148700000Y-112980000D01*
X145300000Y-112980000D01*
X145300000Y-111020000D01*
%TO.C,D10*%
X159320000Y-133550000D02*
X162680000Y-133550000D01*
X162680000Y-135450000D01*
X159320000Y-135450000D01*
X159320000Y-133550000D01*
%TO.C,C_DEC1*%
X126300000Y-107020000D02*
X129700000Y-107020000D01*
X129700000Y-108980000D01*
X126300000Y-108980000D01*
X126300000Y-107020000D01*
%TO.C,R10*%
X153820000Y-133550000D02*
X157180000Y-133550000D01*
X157180000Y-135450000D01*
X153820000Y-135450000D01*
X153820000Y-133550000D01*
%TO.C,R_CLK*%
X134320000Y-121050000D02*
X137680000Y-121050000D01*
X137680000Y-122950000D01*
X134320000Y-122950000D01*
X134320000Y-121050000D01*
%TD*%
M02*
