%TF.GenerationSoftware,KiCad,Pcbnew,10.0.6*%
%TF.CreationDate,2026-09-27T11:53:46+05:30*%
%TF.ProjectId,LVDS,4c564453-2e6b-4696-9361-645f70636258,rev?*%
%TF.SameCoordinates,Original*%
%TF.FileFunction,Other,User*%
%FSLAX46Y46*%
G04 Gerber Fmt 4.6, Leading zero omitted, Abs format (unit mm)*
G04 Created by KiCad (PCBNEW 10.0.6) date 2026-09-27 11:53:46*
%MOMM*%
%LPD*%
G01*
G04 APERTURE LIST*
%ADD10C,0.050000*%
G04 APERTURE END LIST*
%TO.C,J1*%
D10*
X101065000Y-116305000D02*
X101065000Y-124425000D01*
X101065000Y-116305000D02*
X109185000Y-116305000D01*
X109185000Y-124425000D02*
X101065000Y-124425000D01*
X109185000Y-124425000D02*
X109185000Y-116305000D01*
%TO.C,C4*%
X144595000Y-114600000D02*
X146555000Y-114600000D01*
X146555000Y-118000000D01*
X144595000Y-118000000D01*
X144595000Y-114600000D01*
%TO.C,C5*%
X133625000Y-114070000D02*
X137025000Y-114070000D01*
X137025000Y-116030000D01*
X133625000Y-116030000D01*
X133625000Y-114070000D01*
%TO.C,U3*%
X141450000Y-118540000D02*
X142950000Y-118540000D01*
X141450000Y-123460000D02*
X141450000Y-118540000D01*
X142950000Y-118300000D02*
X147350000Y-118300000D01*
X142950000Y-118540000D02*
X142950000Y-118300000D01*
X142950000Y-123460000D02*
X141450000Y-123460000D01*
X142950000Y-123700000D02*
X142950000Y-123460000D01*
X147350000Y-118300000D02*
X147350000Y-118540000D01*
X147350000Y-118540000D02*
X148850000Y-118540000D01*
X147350000Y-123460000D02*
X147350000Y-123700000D01*
X147350000Y-123700000D02*
X142950000Y-123700000D01*
X148850000Y-118540000D02*
X148850000Y-123460000D01*
X148850000Y-123460000D02*
X147350000Y-123460000D01*
%TO.C,C1*%
X121770000Y-114575000D02*
X123730000Y-114575000D01*
X123730000Y-117975000D01*
X121770000Y-117975000D01*
X121770000Y-114575000D01*
%TO.C,J3*%
X132605000Y-106985000D02*
X138685000Y-106985000D01*
X138685000Y-113805000D01*
X132605000Y-113805000D01*
X132605000Y-106985000D01*
%TO.C,J2*%
X161065000Y-116305000D02*
X161065000Y-124425000D01*
X161065000Y-116305000D02*
X169185000Y-116305000D01*
X169185000Y-124425000D02*
X161065000Y-124425000D01*
X169185000Y-124425000D02*
X169185000Y-116305000D01*
%TO.C,U2*%
X121800000Y-118540000D02*
X123300000Y-118540000D01*
X121800000Y-123460000D02*
X121800000Y-118540000D01*
X123300000Y-118300000D02*
X127700000Y-118300000D01*
X123300000Y-118540000D02*
X123300000Y-118300000D01*
X123300000Y-123460000D02*
X121800000Y-123460000D01*
X123300000Y-123700000D02*
X123300000Y-123460000D01*
X127700000Y-118300000D02*
X127700000Y-118540000D01*
X127700000Y-118540000D02*
X129200000Y-118540000D01*
X127700000Y-123460000D02*
X127700000Y-123700000D01*
X127700000Y-123700000D02*
X123300000Y-123700000D01*
X129200000Y-118540000D02*
X129200000Y-123460000D01*
X129200000Y-123460000D02*
X127700000Y-123460000D01*
%TO.C,C3*%
X146870000Y-114600000D02*
X148830000Y-114600000D01*
X148830000Y-118000000D01*
X146870000Y-118000000D01*
X146870000Y-114600000D01*
%TO.C,C2*%
X123970000Y-114550000D02*
X125930000Y-114550000D01*
X125930000Y-117950000D01*
X123970000Y-117950000D01*
X123970000Y-114550000D01*
%TD*%
M02*
