%TF.GenerationSoftware,KiCad,Pcbnew,10.0.6*%
%TF.CreationDate,2026-09-27T11:53:45+05:30*%
%TF.ProjectId,LVDS,4c564453-2e6b-4696-9361-645f70636258,rev?*%
%TF.SameCoordinates,Original*%
%TF.FileFunction,Copper,L2,Inr*%
%TF.FilePolarity,Positive*%
%FSLAX46Y46*%
G04 Gerber Fmt 4.6, Leading zero omitted, Abs format (unit mm)*
G04 Created by KiCad (PCBNEW 10.0.6) date 2026-09-27 11:53:45*
%MOMM*%
%LPD*%
G01*
G04 APERTURE LIST*
%TA.AperFunction,ViaPad*%
%ADD10C,0.600000*%
%TD*%
G04 APERTURE END LIST*
D10*
%TO.N,GND*%
X105125000Y-130365000D03*
X135500000Y-126000000D03*
X144500000Y-149200000D03*
X105125000Y-110365000D03*
X161450000Y-136450000D03*
X111450000Y-126450000D03*
X141450000Y-131450000D03*
X120000000Y-100800000D03*
X116450000Y-131450000D03*
X156450000Y-101450000D03*
X161450000Y-111450000D03*
X169200000Y-116500000D03*
X111450000Y-106450000D03*
X141450000Y-111450000D03*
X106450000Y-146450000D03*
X101450000Y-136450000D03*
X146450000Y-146450000D03*
X169200000Y-134000000D03*
X109500000Y-100800000D03*
X156450000Y-136450000D03*
X127000000Y-149200000D03*
X111450000Y-116450000D03*
X156450000Y-126450000D03*
X141000000Y-149200000D03*
X161450000Y-126450000D03*
X101450000Y-131450000D03*
X151450000Y-101450000D03*
X151450000Y-106450000D03*
X100800000Y-137500000D03*
X116450000Y-141450000D03*
X141450000Y-126450000D03*
X106000000Y-100800000D03*
X116450000Y-146450000D03*
X120500000Y-111000000D03*
X115575000Y-123600000D03*
X126450000Y-111450000D03*
X126450000Y-141450000D03*
X111450000Y-136450000D03*
X113000000Y-100800000D03*
X116450000Y-126450000D03*
X166450000Y-141450000D03*
X105125000Y-125365000D03*
X121450000Y-146450000D03*
X140225000Y-115925000D03*
X141450000Y-141450000D03*
X100725000Y-115000000D03*
X125500000Y-126000000D03*
X156450000Y-111450000D03*
X156450000Y-141450000D03*
X126450000Y-126450000D03*
X115500000Y-126000000D03*
X125500000Y-131000000D03*
X121450000Y-101450000D03*
X126450000Y-131450000D03*
X120500000Y-126000000D03*
X100800000Y-130500000D03*
X101450000Y-111450000D03*
X121450000Y-141450000D03*
X116450000Y-116450000D03*
X121450000Y-131450000D03*
X151500000Y-149200000D03*
X165125000Y-125365000D03*
X110125000Y-110365000D03*
X116450000Y-111450000D03*
X115500000Y-116000000D03*
X160125000Y-125365000D03*
X131450000Y-101450000D03*
X151450000Y-146450000D03*
X165500000Y-100800000D03*
X106000000Y-149200000D03*
X100800000Y-134000000D03*
X169200000Y-141000000D03*
X131450000Y-111450000D03*
X151450000Y-126450000D03*
X131450000Y-141450000D03*
X122750000Y-114025000D03*
X100800000Y-113000000D03*
X131450000Y-106450000D03*
X115500000Y-111000000D03*
X136450000Y-131450000D03*
X110125000Y-115365000D03*
X169200000Y-137500000D03*
X100800000Y-127000000D03*
X126450000Y-101450000D03*
X123500000Y-100800000D03*
X141450000Y-106450000D03*
X158500000Y-100800000D03*
X161450000Y-146450000D03*
X166450000Y-116450000D03*
X131450000Y-146450000D03*
X146450000Y-106450000D03*
X109500000Y-149200000D03*
X169200000Y-144500000D03*
X151500000Y-100800000D03*
X169200000Y-102500000D03*
X100800000Y-120000000D03*
X110125000Y-130365000D03*
X106450000Y-126450000D03*
X102500000Y-149200000D03*
X169200000Y-127000000D03*
X146450000Y-131450000D03*
X116450000Y-106450000D03*
X155125000Y-125365000D03*
X136450000Y-126450000D03*
X121450000Y-111450000D03*
X130500000Y-149200000D03*
X141000000Y-100800000D03*
X134000000Y-149200000D03*
X106450000Y-101450000D03*
X120500000Y-131000000D03*
X161450000Y-106450000D03*
X115500000Y-131000000D03*
X136450000Y-141450000D03*
X137500000Y-100800000D03*
X146450000Y-136450000D03*
X161450000Y-116450000D03*
X100800000Y-102500000D03*
X131450000Y-136450000D03*
X111450000Y-146450000D03*
X100850000Y-123550000D03*
X151525000Y-116100000D03*
X131450000Y-126450000D03*
X155125000Y-115365000D03*
X121450000Y-106450000D03*
X135500000Y-131000000D03*
X100800000Y-109500000D03*
X155125000Y-110365000D03*
X165500000Y-149200000D03*
X110125000Y-125365000D03*
X130500000Y-126000000D03*
X137500000Y-149200000D03*
X161450000Y-101450000D03*
X102500000Y-100800000D03*
X158500000Y-149200000D03*
X120000000Y-149200000D03*
X151450000Y-131450000D03*
X111450000Y-101450000D03*
X111450000Y-111450000D03*
X169200000Y-123500000D03*
X166450000Y-136450000D03*
X111450000Y-141450000D03*
X130500000Y-131000000D03*
X116450000Y-101450000D03*
X169200000Y-109500000D03*
X136450000Y-101450000D03*
X126450000Y-146450000D03*
X165125000Y-130365000D03*
X156450000Y-146450000D03*
X141450000Y-136450000D03*
X166450000Y-111450000D03*
X101450000Y-141450000D03*
X144500000Y-100800000D03*
X161450000Y-141450000D03*
X100800000Y-141000000D03*
X147850000Y-114100000D03*
X134000000Y-100800000D03*
X169200000Y-106000000D03*
X156450000Y-116450000D03*
X125500000Y-111000000D03*
X166450000Y-131450000D03*
X116500000Y-149200000D03*
X156450000Y-131450000D03*
X123500000Y-149200000D03*
X113000000Y-149200000D03*
X141450000Y-101450000D03*
X106450000Y-131450000D03*
X100800000Y-106000000D03*
X160125000Y-130365000D03*
X106450000Y-106450000D03*
X106450000Y-111450000D03*
X100800000Y-144500000D03*
X116500000Y-100800000D03*
X116450000Y-136450000D03*
X136450000Y-136450000D03*
X136450000Y-146450000D03*
X100850000Y-121525000D03*
X136925000Y-106575000D03*
X169200000Y-113000000D03*
X146450000Y-101450000D03*
X155000000Y-149200000D03*
X130500000Y-100800000D03*
X169200000Y-130500000D03*
X166450000Y-106450000D03*
X121450000Y-126450000D03*
X165125000Y-115365000D03*
X106450000Y-141450000D03*
X100800000Y-116500000D03*
X141450000Y-146450000D03*
X162000000Y-100800000D03*
X111450000Y-131450000D03*
X101450000Y-101450000D03*
X105125000Y-115365000D03*
X126450000Y-136450000D03*
X106450000Y-116450000D03*
X161450000Y-131450000D03*
X127000000Y-100800000D03*
X156450000Y-106450000D03*
X148000000Y-100800000D03*
X162000000Y-149200000D03*
X169200000Y-120000000D03*
X130500000Y-111000000D03*
X101450000Y-126450000D03*
X106450000Y-136450000D03*
X151450000Y-136450000D03*
X146450000Y-141450000D03*
X146450000Y-111450000D03*
X101450000Y-146450000D03*
X160125000Y-115365000D03*
X155125000Y-130365000D03*
X131450000Y-131450000D03*
X154975000Y-100925000D03*
X148000000Y-149200000D03*
X101450000Y-106450000D03*
X121450000Y-136450000D03*
X126450000Y-106450000D03*
X166450000Y-146450000D03*
X160125000Y-110365000D03*
X166450000Y-101450000D03*
X146450000Y-126450000D03*
X166450000Y-126450000D03*
X165125000Y-110365000D03*
X151450000Y-141450000D03*
X151450000Y-111450000D03*
%TO.N,3V3*%
X133175000Y-115050000D03*
X126325000Y-117200000D03*
X144150000Y-117250000D03*
%TD*%
%TA.AperFunction,Conductor*%
%TO.N,GND*%
G36*
X169642539Y-100320185D02*
G01*
X169688294Y-100372989D01*
X169699500Y-100424500D01*
X169699500Y-149575500D01*
X169679815Y-149642539D01*
X169627011Y-149688294D01*
X169575500Y-149699500D01*
X100424500Y-149699500D01*
X100357461Y-149679815D01*
X100311706Y-149627011D01*
X100300500Y-149575500D01*
X100300500Y-117121153D01*
X125524500Y-117121153D01*
X125524500Y-117278846D01*
X125555261Y-117433489D01*
X125555264Y-117433501D01*
X125615602Y-117579172D01*
X125615609Y-117579185D01*
X125703210Y-117710288D01*
X125703213Y-117710292D01*
X125814707Y-117821786D01*
X125814711Y-117821789D01*
X125945814Y-117909390D01*
X125945827Y-117909397D01*
X126091498Y-117969735D01*
X126091503Y-117969737D01*
X126246153Y-118000499D01*
X126246156Y-118000500D01*
X126246158Y-118000500D01*
X126403844Y-118000500D01*
X126403845Y-118000499D01*
X126558497Y-117969737D01*
X126704179Y-117909394D01*
X126835289Y-117821789D01*
X126946789Y-117710289D01*
X127034394Y-117579179D01*
X127094737Y-117433497D01*
X127125500Y-117278842D01*
X127125500Y-117171153D01*
X143349500Y-117171153D01*
X143349500Y-117328846D01*
X143380261Y-117483489D01*
X143380264Y-117483501D01*
X143440602Y-117629172D01*
X143440609Y-117629185D01*
X143528210Y-117760288D01*
X143528213Y-117760292D01*
X143639707Y-117871786D01*
X143639711Y-117871789D01*
X143770814Y-117959390D01*
X143770827Y-117959397D01*
X143870060Y-118000500D01*
X143916503Y-118019737D01*
X144071153Y-118050499D01*
X144071156Y-118050500D01*
X144071158Y-118050500D01*
X144228844Y-118050500D01*
X144228845Y-118050499D01*
X144383497Y-118019737D01*
X144529179Y-117959394D01*
X144660289Y-117871789D01*
X144771789Y-117760289D01*
X144859394Y-117629179D01*
X144919737Y-117483497D01*
X144950500Y-117328842D01*
X144950500Y-117171158D01*
X144950500Y-117171155D01*
X144950499Y-117171153D01*
X144919738Y-117016510D01*
X144919737Y-117016503D01*
X144919735Y-117016498D01*
X144859397Y-116870827D01*
X144859390Y-116870814D01*
X144771789Y-116739711D01*
X144771786Y-116739707D01*
X144660292Y-116628213D01*
X144660288Y-116628210D01*
X144529185Y-116540609D01*
X144529172Y-116540602D01*
X144383501Y-116480264D01*
X144383489Y-116480261D01*
X144228845Y-116449500D01*
X144228842Y-116449500D01*
X144071158Y-116449500D01*
X144071155Y-116449500D01*
X143916510Y-116480261D01*
X143916498Y-116480264D01*
X143770827Y-116540602D01*
X143770814Y-116540609D01*
X143639711Y-116628210D01*
X143639707Y-116628213D01*
X143528213Y-116739707D01*
X143528210Y-116739711D01*
X143440609Y-116870814D01*
X143440602Y-116870827D01*
X143380264Y-117016498D01*
X143380261Y-117016510D01*
X143349500Y-117171153D01*
X127125500Y-117171153D01*
X127125500Y-117121158D01*
X127125500Y-117121155D01*
X127125499Y-117121153D01*
X127104684Y-117016510D01*
X127094737Y-116966503D01*
X127055102Y-116870814D01*
X127034397Y-116820827D01*
X127034390Y-116820814D01*
X126946789Y-116689711D01*
X126946786Y-116689707D01*
X126835292Y-116578213D01*
X126835288Y-116578210D01*
X126704185Y-116490609D01*
X126704172Y-116490602D01*
X126558501Y-116430264D01*
X126558489Y-116430261D01*
X126403845Y-116399500D01*
X126403842Y-116399500D01*
X126246158Y-116399500D01*
X126246155Y-116399500D01*
X126091510Y-116430261D01*
X126091498Y-116430264D01*
X125945827Y-116490602D01*
X125945814Y-116490609D01*
X125814711Y-116578210D01*
X125814707Y-116578213D01*
X125703213Y-116689707D01*
X125703210Y-116689711D01*
X125615609Y-116820814D01*
X125615602Y-116820827D01*
X125555264Y-116966498D01*
X125555261Y-116966510D01*
X125524500Y-117121153D01*
X100300500Y-117121153D01*
X100300500Y-114971153D01*
X132374500Y-114971153D01*
X132374500Y-115128846D01*
X132405261Y-115283489D01*
X132405264Y-115283501D01*
X132465602Y-115429172D01*
X132465609Y-115429185D01*
X132553210Y-115560288D01*
X132553213Y-115560292D01*
X132664707Y-115671786D01*
X132664711Y-115671789D01*
X132795814Y-115759390D01*
X132795827Y-115759397D01*
X132941498Y-115819735D01*
X132941503Y-115819737D01*
X133096153Y-115850499D01*
X133096156Y-115850500D01*
X133096158Y-115850500D01*
X133253844Y-115850500D01*
X133253845Y-115850499D01*
X133408497Y-115819737D01*
X133554179Y-115759394D01*
X133685289Y-115671789D01*
X133796789Y-115560289D01*
X133884394Y-115429179D01*
X133944737Y-115283497D01*
X133975500Y-115128842D01*
X133975500Y-114971158D01*
X133975500Y-114971155D01*
X133975499Y-114971153D01*
X133944738Y-114816510D01*
X133944737Y-114816503D01*
X133944735Y-114816498D01*
X133884397Y-114670827D01*
X133884390Y-114670814D01*
X133796789Y-114539711D01*
X133796786Y-114539707D01*
X133685292Y-114428213D01*
X133685288Y-114428210D01*
X133554185Y-114340609D01*
X133554172Y-114340602D01*
X133408501Y-114280264D01*
X133408489Y-114280261D01*
X133253845Y-114249500D01*
X133253842Y-114249500D01*
X133096158Y-114249500D01*
X133096155Y-114249500D01*
X132941510Y-114280261D01*
X132941498Y-114280264D01*
X132795827Y-114340602D01*
X132795814Y-114340609D01*
X132664711Y-114428210D01*
X132664707Y-114428213D01*
X132553213Y-114539707D01*
X132553210Y-114539711D01*
X132465609Y-114670814D01*
X132465602Y-114670827D01*
X132405264Y-114816498D01*
X132405261Y-114816510D01*
X132374500Y-114971153D01*
X100300500Y-114971153D01*
X100300500Y-100424500D01*
X100320185Y-100357461D01*
X100372989Y-100311706D01*
X100424500Y-100300500D01*
X169575500Y-100300500D01*
X169642539Y-100320185D01*
G37*
%TD.AperFunction*%
%TD*%
M02*
