M48
; DRILL file KiCad 10.0.6 date 2026-09-27T11:53:54
; FORMAT={-:-/ absolute / metric / decimal}
; #@! TF.CreationDate,2026-09-27T11:53:54+05:30
; #@! TF.GenerationSoftware,Kicad,Pcbnew,10.0.6
; #@! TF.FileFunction,MixedPlating,1,4
FMAT,2
METRIC
; #@! TA.AperFunction,Plated,PTH,ViaDrill
T1C0.300
%
G90
G05
T1
X100.725Y-115.0
X100.8Y-102.5
X100.8Y-106.0
X100.8Y-109.5
X100.8Y-113.0
X100.8Y-116.5
X100.8Y-120.0
X100.8Y-127.0
X100.8Y-130.5
X100.8Y-134.0
X100.8Y-137.5
X100.8Y-141.0
X100.8Y-144.5
X100.85Y-121.525
X100.85Y-123.55
X101.45Y-101.45
X101.45Y-106.45
X101.45Y-111.45
X101.45Y-126.45
X101.45Y-131.45
X101.45Y-136.45
X101.45Y-141.45
X101.45Y-146.45
X102.5Y-100.8
X102.5Y-149.2
X105.125Y-110.365
X105.125Y-115.365
X105.125Y-125.365
X105.125Y-130.365
X106.0Y-100.8
X106.0Y-149.2
X106.45Y-101.45
X106.45Y-106.45
X106.45Y-111.45
X106.45Y-116.45
X106.45Y-126.45
X106.45Y-131.45
X106.45Y-136.45
X106.45Y-141.45
X106.45Y-146.45
X109.5Y-100.8
X109.5Y-149.2
X110.125Y-110.365
X110.125Y-115.365
X110.125Y-125.365
X110.125Y-130.365
X111.45Y-101.45
X111.45Y-106.45
X111.45Y-111.45
X111.45Y-116.45
X111.45Y-126.45
X111.45Y-131.45
X111.45Y-136.45
X111.45Y-141.45
X111.45Y-146.45
X113.0Y-100.8
X113.0Y-149.2
X115.5Y-111.0
X115.5Y-116.0
X115.5Y-126.0
X115.5Y-131.0
X115.575Y-123.6
X116.45Y-101.45
X116.45Y-106.45
X116.45Y-111.45
X116.45Y-116.45
X116.45Y-126.45
X116.45Y-131.45
X116.45Y-136.45
X116.45Y-141.45
X116.45Y-146.45
X116.5Y-100.8
X116.5Y-149.2
X120.0Y-100.8
X120.0Y-149.2
X120.5Y-111.0
X120.5Y-126.0
X120.5Y-131.0
X121.45Y-101.45
X121.45Y-106.45
X121.45Y-111.45
X121.45Y-126.45
X121.45Y-131.45
X121.45Y-136.45
X121.45Y-141.45
X121.45Y-146.45
X122.75Y-114.025
X123.5Y-100.8
X123.5Y-149.2
X125.5Y-111.0
X125.5Y-126.0
X125.5Y-131.0
X126.325Y-117.2
X126.45Y-101.45
X126.45Y-106.45
X126.45Y-111.45
X126.45Y-126.45
X126.45Y-131.45
X126.45Y-136.45
X126.45Y-141.45
X126.45Y-146.45
X127.0Y-100.8
X127.0Y-149.2
X130.5Y-100.8
X130.5Y-111.0
X130.5Y-126.0
X130.5Y-131.0
X130.5Y-149.2
X131.45Y-101.45
X131.45Y-106.45
X131.45Y-111.45
X131.45Y-126.45
X131.45Y-131.45
X131.45Y-136.45
X131.45Y-141.45
X131.45Y-146.45
X133.175Y-115.05
X134.0Y-100.8
X134.0Y-149.2
X135.5Y-126.0
X135.5Y-131.0
X136.45Y-101.45
X136.45Y-126.45
X136.45Y-131.45
X136.45Y-136.45
X136.45Y-141.45
X136.45Y-146.45
X136.925Y-106.575
X137.5Y-100.8
X137.5Y-149.2
X140.225Y-115.925
X141.0Y-100.8
X141.0Y-149.2
X141.45Y-101.45
X141.45Y-106.45
X141.45Y-111.45
X141.45Y-126.45
X141.45Y-131.45
X141.45Y-136.45
X141.45Y-141.45
X141.45Y-146.45
X144.15Y-117.25
X144.5Y-100.8
X144.5Y-149.2
X146.45Y-101.45
X146.45Y-106.45
X146.45Y-111.45
X146.45Y-126.45
X146.45Y-131.45
X146.45Y-136.45
X146.45Y-141.45
X146.45Y-146.45
X147.85Y-114.1
X148.0Y-100.8
X148.0Y-149.2
X151.45Y-101.45
X151.45Y-106.45
X151.45Y-111.45
X151.45Y-126.45
X151.45Y-131.45
X151.45Y-136.45
X151.45Y-141.45
X151.45Y-146.45
X151.5Y-100.8
X151.5Y-149.2
X151.525Y-116.1
X154.975Y-100.925
X155.0Y-149.2
X155.125Y-110.365
X155.125Y-115.365
X155.125Y-125.365
X155.125Y-130.365
X156.45Y-101.45
X156.45Y-106.45
X156.45Y-111.45
X156.45Y-116.45
X156.45Y-126.45
X156.45Y-131.45
X156.45Y-136.45
X156.45Y-141.45
X156.45Y-146.45
X158.5Y-100.8
X158.5Y-149.2
X160.125Y-110.365
X160.125Y-115.365
X160.125Y-125.365
X160.125Y-130.365
X161.45Y-101.45
X161.45Y-106.45
X161.45Y-111.45
X161.45Y-116.45
X161.45Y-126.45
X161.45Y-131.45
X161.45Y-136.45
X161.45Y-141.45
X161.45Y-146.45
X162.0Y-100.8
X162.0Y-149.2
X165.125Y-110.365
X165.125Y-115.365
X165.125Y-125.365
X165.125Y-130.365
X165.5Y-100.8
X165.5Y-149.2
X166.45Y-101.45
X166.45Y-106.45
X166.45Y-111.45
X166.45Y-116.45
X166.45Y-126.45
X166.45Y-131.45
X166.45Y-136.45
X166.45Y-141.45
X166.45Y-146.45
X169.2Y-102.5
X169.2Y-106.0
X169.2Y-109.5
X169.2Y-113.0
X169.2Y-116.5
X169.2Y-120.0
X169.2Y-123.5
X169.2Y-127.0
X169.2Y-130.5
X169.2Y-134.0
X169.2Y-137.5
X169.2Y-141.0
X169.2Y-144.5
M30
