#VRML V2.0 utf8
#SG90 Micro Servo 3D Model with Integrated Pin-Plugged Connector


Shape {
    appearance Appearance {
        material Material {
            diffuseColor 0.15 0.15 0.15
            specularColor 0.4 0.4 0.4
            shininess 0.8
            transparency 0.0
        }
    }
    geometry IndexedFaceSet {
        coord Coordinate {
            point [
        -1.3000 -6.4400 0.0000,
        1.3000 -6.4400 0.0000,
        1.3000 1.3600 0.0000,
        -1.3000 1.3600 0.0000,
        -1.3000 -6.4400 14.0000,
        1.3000 -6.4400 14.0000,
        1.3000 1.3600 14.0000,
        -1.3000 1.3600 14.0000
            ]
        }
        coordIndex [
        0, 1, 2, 3, -1,
        4, 7, 6, 5, -1,
        0, 4, 5, 1, -1,
        1, 5, 6, 2, -1,
        2, 6, 7, 3, -1,
        3, 7, 4, 0, -1
        ]
        solid TRUE
    }
}

Shape {
    appearance Appearance {
        material Material {
            diffuseColor 0.85 0.1 0.1
            specularColor 0.2 0.2 0.2
            shininess 0.8
            transparency 0.0
        }
    }
    geometry IndexedFaceSet {
        coord Coordinate {
            point [
        -0.5500 -0.5500 14.0000,
        0.5500 -0.5500 14.0000,
        0.5500 0.5500 14.0000,
        -0.5500 0.5500 14.0000,
        -0.5500 -0.5500 18.0000,
        0.5500 -0.5500 18.0000,
        0.5500 0.5500 18.0000,
        -0.5500 0.5500 18.0000
            ]
        }
        coordIndex [
        0, 1, 2, 3, -1,
        4, 7, 6, 5, -1,
        0, 4, 5, 1, -1,
        1, 5, 6, 2, -1,
        2, 6, 7, 3, -1,
        3, 7, 4, 0, -1
        ]
        solid TRUE
    }
}

Shape {
    appearance Appearance {
        material Material {
            diffuseColor 0.85 0.1 0.1
            specularColor 0.2 0.2 0.2
            shininess 0.8
            transparency 0.0
        }
    }
    geometry IndexedFaceSet {
        coord Coordinate {
            point [
        0.0000 -3.5500 17.4500,
        22.0000 -3.5500 17.4500,
        22.0000 -2.4500 17.4500,
        0.0000 -2.4500 17.4500,
        0.0000 -3.5500 18.5500,
        22.0000 -3.5500 18.5500,
        22.0000 -2.4500 18.5500,
        0.0000 -2.4500 18.5500
            ]
        }
        coordIndex [
        0, 1, 2, 3, -1,
        4, 7, 6, 5, -1,
        0, 4, 5, 1, -1,
        1, 5, 6, 2, -1,
        2, 6, 7, 3, -1,
        3, 7, 4, 0, -1
        ]
        solid TRUE
    }
}

Shape {
    appearance Appearance {
        material Material {
            diffuseColor 0.85 0.1 0.1
            specularColor 0.2 0.2 0.2
            shininess 0.8
            transparency 0.0
        }
    }
    geometry IndexedFaceSet {
        coord Coordinate {
            point [
        21.4500 -10.5500 6.0000,
        22.5500 -10.5500 6.0000,
        22.5500 -9.4500 6.0000,
        21.4500 -9.4500 6.0000,
        21.4500 -10.5500 18.0000,
        22.5500 -10.5500 18.0000,
        22.5500 -9.4500 18.0000,
        21.4500 -9.4500 18.0000
            ]
        }
        coordIndex [
        0, 1, 2, 3, -1,
        4, 7, 6, 5, -1,
        0, 4, 5, 1, -1,
        1, 5, 6, 2, -1,
        2, 6, 7, 3, -1,
        3, 7, 4, 0, -1
        ]
        solid TRUE
    }
}

Shape {
    appearance Appearance {
        material Material {
            diffuseColor 0.35 0.2 0.1
            specularColor 0.2 0.2 0.2
            shininess 0.8
            transparency 0.0
        }
    }
    geometry IndexedFaceSet {
        coord Coordinate {
            point [
        -0.5500 -3.0900 14.0000,
        0.5500 -3.0900 14.0000,
        0.5500 -1.9900 14.0000,
        -0.5500 -1.9900 14.0000,
        -0.5500 -3.0900 18.0000,
        0.5500 -3.0900 18.0000,
        0.5500 -1.9900 18.0000,
        -0.5500 -1.9900 18.0000
            ]
        }
        coordIndex [
        0, 1, 2, 3, -1,
        4, 7, 6, 5, -1,
        0, 4, 5, 1, -1,
        1, 5, 6, 2, -1,
        2, 6, 7, 3, -1,
        3, 7, 4, 0, -1
        ]
        solid TRUE
    }
}

Shape {
    appearance Appearance {
        material Material {
            diffuseColor 0.35 0.2 0.1
            specularColor 0.2 0.2 0.2
            shininess 0.8
            transparency 0.0
        }
    }
    geometry IndexedFaceSet {
        coord Coordinate {
            point [
        0.0000 -6.0900 17.4500,
        22.0000 -6.0900 17.4500,
        22.0000 -4.9900 17.4500,
        0.0000 -4.9900 17.4500,
        0.0000 -6.0900 18.5500,
        22.0000 -6.0900 18.5500,
        22.0000 -4.9900 18.5500,
        0.0000 -4.9900 18.5500
            ]
        }
        coordIndex [
        0, 1, 2, 3, -1,
        4, 7, 6, 5, -1,
        0, 4, 5, 1, -1,
        1, 5, 6, 2, -1,
        2, 6, 7, 3, -1,
        3, 7, 4, 0, -1
        ]
        solid TRUE
    }
}

Shape {
    appearance Appearance {
        material Material {
            diffuseColor 0.35 0.2 0.1
            specularColor 0.2 0.2 0.2
            shininess 0.8
            transparency 0.0
        }
    }
    geometry IndexedFaceSet {
        coord Coordinate {
            point [
        21.4500 -9.2500 6.0000,
        22.5500 -9.2500 6.0000,
        22.5500 -8.1500 6.0000,
        21.4500 -8.1500 6.0000,
        21.4500 -9.2500 18.0000,
        22.5500 -9.2500 18.0000,
        22.5500 -8.1500 18.0000,
        21.4500 -8.1500 18.0000
            ]
        }
        coordIndex [
        0, 1, 2, 3, -1,
        4, 7, 6, 5, -1,
        0, 4, 5, 1, -1,
        1, 5, 6, 2, -1,
        2, 6, 7, 3, -1,
        3, 7, 4, 0, -1
        ]
        solid TRUE
    }
}

Shape {
    appearance Appearance {
        material Material {
            diffuseColor 0.95 0.5 0.05
            specularColor 0.2 0.2 0.2
            shininess 0.8
            transparency 0.0
        }
    }
    geometry IndexedFaceSet {
        coord Coordinate {
            point [
        -0.5500 -5.6300 14.0000,
        0.5500 -5.6300 14.0000,
        0.5500 -4.5300 14.0000,
        -0.5500 -4.5300 14.0000,
        -0.5500 -5.6300 18.0000,
        0.5500 -5.6300 18.0000,
        0.5500 -4.5300 18.0000,
        -0.5500 -4.5300 18.0000
            ]
        }
        coordIndex [
        0, 1, 2, 3, -1,
        4, 7, 6, 5, -1,
        0, 4, 5, 1, -1,
        1, 5, 6, 2, -1,
        2, 6, 7, 3, -1,
        3, 7, 4, 0, -1
        ]
        solid TRUE
    }
}

Shape {
    appearance Appearance {
        material Material {
            diffuseColor 0.95 0.5 0.05
            specularColor 0.2 0.2 0.2
            shininess 0.8
            transparency 0.0
        }
    }
    geometry IndexedFaceSet {
        coord Coordinate {
            point [
        0.0000 -8.6300 17.4500,
        22.0000 -8.6300 17.4500,
        22.0000 -7.5300 17.4500,
        0.0000 -7.5300 17.4500,
        0.0000 -8.6300 18.5500,
        22.0000 -8.6300 18.5500,
        22.0000 -7.5300 18.5500,
        0.0000 -7.5300 18.5500
            ]
        }
        coordIndex [
        0, 1, 2, 3, -1,
        4, 7, 6, 5, -1,
        0, 4, 5, 1, -1,
        1, 5, 6, 2, -1,
        2, 6, 7, 3, -1,
        3, 7, 4, 0, -1
        ]
        solid TRUE
    }
}

Shape {
    appearance Appearance {
        material Material {
            diffuseColor 0.95 0.5 0.05
            specularColor 0.2 0.2 0.2
            shininess 0.8
            transparency 0.0
        }
    }
    geometry IndexedFaceSet {
        coord Coordinate {
            point [
        21.4500 -7.9500 6.0000,
        22.5500 -7.9500 6.0000,
        22.5500 -6.8500 6.0000,
        21.4500 -6.8500 6.0000,
        21.4500 -7.9500 18.0000,
        22.5500 -7.9500 18.0000,
        22.5500 -6.8500 18.0000,
        21.4500 -6.8500 18.0000
            ]
        }
        coordIndex [
        0, 1, 2, 3, -1,
        4, 7, 6, 5, -1,
        0, 4, 5, 1, -1,
        1, 5, 6, 2, -1,
        2, 6, 7, 3, -1,
        3, 7, 4, 0, -1
        ]
        solid TRUE
    }
}

Shape {
    appearance Appearance {
        material Material {
            diffuseColor 0.1 0.35 0.85
            specularColor 0.4 0.6 0.9
            shininess 0.7
            transparency 0.25
        }
    }
    geometry IndexedFaceSet {
        coord Coordinate {
            point [
        23.7500 -26.4000 0.0000,
        52.2500 -26.4000 0.0000,
        52.2500 -3.6000 0.0000,
        23.7500 -3.6000 0.0000,
        23.7500 -26.4000 12.2000,
        52.2500 -26.4000 12.2000,
        52.2500 -3.6000 12.2000,
        23.7500 -3.6000 12.2000
            ]
        }
        coordIndex [
        0, 1, 2, 3, -1,
        4, 7, 6, 5, -1,
        0, 4, 5, 1, -1,
        1, 5, 6, 2, -1,
        2, 6, 7, 3, -1,
        3, 7, 4, 0, -1
        ]
        solid TRUE
    }
}

Shape {
    appearance Appearance {
        material Material {
            diffuseColor 0.1 0.35 0.85
            specularColor 0.4 0.6 0.9
            shininess 0.7
            transparency 0.25
        }
    }
    geometry IndexedFaceSet {
        coord Coordinate {
            point [
        19.0000 -26.4000 5.1000,
        57.0000 -26.4000 5.1000,
        57.0000 -3.6000 5.1000,
        19.0000 -3.6000 5.1000,
        19.0000 -26.4000 7.1000,
        57.0000 -26.4000 7.1000,
        57.0000 -3.6000 7.1000,
        19.0000 -3.6000 7.1000
            ]
        }
        coordIndex [
        0, 1, 2, 3, -1,
        4, 7, 6, 5, -1,
        0, 4, 5, 1, -1,
        1, 5, 6, 2, -1,
        2, 6, 7, 3, -1,
        3, 7, 4, 0, -1
        ]
        solid TRUE
    }
}

Shape {
    appearance Appearance {
        material Material {
            diffuseColor 0.1 0.35 0.85
            specularColor 0.4 0.6 0.9
            shininess 0.8
            transparency 0.25
        }
    }
    geometry IndexedFaceSet {
        coord Coordinate {
            point [
        44.0000 -15.0000 12.2000,
        44.0000 -15.0000 18.2000,
        49.5000 -15.0000 12.2000,
        49.5000 -15.0000 18.2000,
        49.3126 -13.5765 12.2000,
        49.3126 -13.5765 18.2000,
        48.7631 -12.2500 12.2000,
        48.7631 -12.2500 18.2000,
        47.8891 -11.1109 12.2000,
        47.8891 -11.1109 18.2000,
        46.7500 -10.2369 12.2000,
        46.7500 -10.2369 18.2000,
        45.4235 -9.6874 12.2000,
        45.4235 -9.6874 18.2000,
        44.0000 -9.5000 12.2000,
        44.0000 -9.5000 18.2000,
        42.5765 -9.6874 12.2000,
        42.5765 -9.6874 18.2000,
        41.2500 -10.2369 12.2000,
        41.2500 -10.2369 18.2000,
        40.1109 -11.1109 12.2000,
        40.1109 -11.1109 18.2000,
        39.2369 -12.2500 12.2000,
        39.2369 -12.2500 18.2000,
        38.6874 -13.5765 12.2000,
        38.6874 -13.5765 18.2000,
        38.5000 -15.0000 12.2000,
        38.5000 -15.0000 18.2000,
        38.6874 -16.4235 12.2000,
        38.6874 -16.4235 18.2000,
        39.2369 -17.7500 12.2000,
        39.2369 -17.7500 18.2000,
        40.1109 -18.8891 12.2000,
        40.1109 -18.8891 18.2000,
        41.2500 -19.7631 12.2000,
        41.2500 -19.7631 18.2000,
        42.5765 -20.3126 12.2000,
        42.5765 -20.3126 18.2000,
        44.0000 -20.5000 12.2000,
        44.0000 -20.5000 18.2000,
        45.4235 -20.3126 12.2000,
        45.4235 -20.3126 18.2000,
        46.7500 -19.7631 12.2000,
        46.7500 -19.7631 18.2000,
        47.8891 -18.8891 12.2000,
        47.8891 -18.8891 18.2000,
        48.7631 -17.7500 12.2000,
        48.7631 -17.7500 18.2000,
        49.3126 -16.4235 12.2000,
        49.3126 -16.4235 18.2000
            ]
        }
        coordIndex [
        2, 4, 5, 3, -1,
        0, 4, 2, -1,
        1, 3, 5, -1,
        4, 6, 7, 5, -1,
        0, 6, 4, -1,
        1, 5, 7, -1,
        6, 8, 9, 7, -1,
        0, 8, 6, -1,
        1, 7, 9, -1,
        8, 10, 11, 9, -1,
        0, 10, 8, -1,
        1, 9, 11, -1,
        10, 12, 13, 11, -1,
        0, 12, 10, -1,
        1, 11, 13, -1,
        12, 14, 15, 13, -1,
        0, 14, 12, -1,
        1, 13, 15, -1,
        14, 16, 17, 15, -1,
        0, 16, 14, -1,
        1, 15, 17, -1,
        16, 18, 19, 17, -1,
        0, 18, 16, -1,
        1, 17, 19, -1,
        18, 20, 21, 19, -1,
        0, 20, 18, -1,
        1, 19, 21, -1,
        20, 22, 23, 21, -1,
        0, 22, 20, -1,
        1, 21, 23, -1,
        22, 24, 25, 23, -1,
        0, 24, 22, -1,
        1, 23, 25, -1,
        24, 26, 27, 25, -1,
        0, 26, 24, -1,
        1, 25, 27, -1,
        26, 28, 29, 27, -1,
        0, 28, 26, -1,
        1, 27, 29, -1,
        28, 30, 31, 29, -1,
        0, 30, 28, -1,
        1, 29, 31, -1,
        30, 32, 33, 31, -1,
        0, 32, 30, -1,
        1, 31, 33, -1,
        32, 34, 35, 33, -1,
        0, 34, 32, -1,
        1, 33, 35, -1,
        34, 36, 37, 35, -1,
        0, 36, 34, -1,
        1, 35, 37, -1,
        36, 38, 39, 37, -1,
        0, 38, 36, -1,
        1, 37, 39, -1,
        38, 40, 41, 39, -1,
        0, 40, 38, -1,
        1, 39, 41, -1,
        40, 42, 43, 41, -1,
        0, 42, 40, -1,
        1, 41, 43, -1,
        42, 44, 45, 43, -1,
        0, 44, 42, -1,
        1, 43, 45, -1,
        44, 46, 47, 45, -1,
        0, 46, 44, -1,
        1, 45, 47, -1,
        46, 48, 49, 47, -1,
        0, 48, 46, -1,
        1, 47, 49, -1,
        48, 2, 3, 49, -1,
        0, 2, 48, -1,
        1, 49, 3, -1
        ]
        solid TRUE
    }
}

Shape {
    appearance Appearance {
        material Material {
            diffuseColor 0.85 0.7 0.25
            specularColor 0.9 0.8 0.4
            shininess 0.8
            transparency 0.0
        }
    }
    geometry IndexedFaceSet {
        coord Coordinate {
            point [
        44.0000 -15.0000 18.2000,
        44.0000 -15.0000 22.2000,
        46.4000 -15.0000 18.2000,
        46.4000 -15.0000 22.2000,
        46.2553 -14.1792 18.2000,
        46.2553 -14.1792 22.2000,
        45.8385 -13.4573 18.2000,
        45.8385 -13.4573 22.2000,
        45.2000 -12.9215 18.2000,
        45.2000 -12.9215 22.2000,
        44.4168 -12.6365 18.2000,
        44.4168 -12.6365 22.2000,
        43.5832 -12.6365 18.2000,
        43.5832 -12.6365 22.2000,
        42.8000 -12.9215 18.2000,
        42.8000 -12.9215 22.2000,
        42.1615 -13.4573 18.2000,
        42.1615 -13.4573 22.2000,
        41.7447 -14.1792 18.2000,
        41.7447 -14.1792 22.2000,
        41.6000 -15.0000 18.2000,
        41.6000 -15.0000 22.2000,
        41.7447 -15.8208 18.2000,
        41.7447 -15.8208 22.2000,
        42.1615 -16.5427 18.2000,
        42.1615 -16.5427 22.2000,
        42.8000 -17.0785 18.2000,
        42.8000 -17.0785 22.2000,
        43.5832 -17.3635 18.2000,
        43.5832 -17.3635 22.2000,
        44.4168 -17.3635 18.2000,
        44.4168 -17.3635 22.2000,
        45.2000 -17.0785 18.2000,
        45.2000 -17.0785 22.2000,
        45.8385 -16.5427 18.2000,
        45.8385 -16.5427 22.2000,
        46.2553 -15.8208 18.2000,
        46.2553 -15.8208 22.2000
            ]
        }
        coordIndex [
        2, 4, 5, 3, -1,
        0, 4, 2, -1,
        1, 3, 5, -1,
        4, 6, 7, 5, -1,
        0, 6, 4, -1,
        1, 5, 7, -1,
        6, 8, 9, 7, -1,
        0, 8, 6, -1,
        1, 7, 9, -1,
        8, 10, 11, 9, -1,
        0, 10, 8, -1,
        1, 9, 11, -1,
        10, 12, 13, 11, -1,
        0, 12, 10, -1,
        1, 11, 13, -1,
        12, 14, 15, 13, -1,
        0, 14, 12, -1,
        1, 13, 15, -1,
        14, 16, 17, 15, -1,
        0, 16, 14, -1,
        1, 15, 17, -1,
        16, 18, 19, 17, -1,
        0, 18, 16, -1,
        1, 17, 19, -1,
        18, 20, 21, 19, -1,
        0, 20, 18, -1,
        1, 19, 21, -1,
        20, 22, 23, 21, -1,
        0, 22, 20, -1,
        1, 21, 23, -1,
        22, 24, 25, 23, -1,
        0, 24, 22, -1,
        1, 23, 25, -1,
        24, 26, 27, 25, -1,
        0, 26, 24, -1,
        1, 25, 27, -1,
        26, 28, 29, 27, -1,
        0, 28, 26, -1,
        1, 27, 29, -1,
        28, 30, 31, 29, -1,
        0, 30, 28, -1,
        1, 29, 31, -1,
        30, 32, 33, 31, -1,
        0, 32, 30, -1,
        1, 31, 33, -1,
        32, 34, 35, 33, -1,
        0, 34, 32, -1,
        1, 33, 35, -1,
        34, 36, 37, 35, -1,
        0, 36, 34, -1,
        1, 35, 37, -1,
        36, 2, 3, 37, -1,
        0, 2, 36, -1,
        1, 37, 3, -1
        ]
        solid TRUE
    }
}

Shape {
    appearance Appearance {
        material Material {
            diffuseColor 0.92 0.92 0.92
            specularColor 0.5 0.5 0.5
            shininess 0.8
            transparency 0.0
        }
    }
    geometry IndexedFaceSet {
        coord Coordinate {
            point [
        44.0000 -15.0000 22.2000,
        44.0000 -15.0000 24.2000,
        48.0000 -15.0000 22.2000,
        48.0000 -15.0000 24.2000,
        47.8637 -13.9647 22.2000,
        47.8637 -13.9647 24.2000,
        47.4641 -13.0000 22.2000,
        47.4641 -13.0000 24.2000,
        46.8284 -12.1716 22.2000,
        46.8284 -12.1716 24.2000,
        46.0000 -11.5359 22.2000,
        46.0000 -11.5359 24.2000,
        45.0353 -11.1363 22.2000,
        45.0353 -11.1363 24.2000,
        44.0000 -11.0000 22.2000,
        44.0000 -11.0000 24.2000,
        42.9647 -11.1363 22.2000,
        42.9647 -11.1363 24.2000,
        42.0000 -11.5359 22.2000,
        42.0000 -11.5359 24.2000,
        41.1716 -12.1716 22.2000,
        41.1716 -12.1716 24.2000,
        40.5359 -13.0000 22.2000,
        40.5359 -13.0000 24.2000,
        40.1363 -13.9647 22.2000,
        40.1363 -13.9647 24.2000,
        40.0000 -15.0000 22.2000,
        40.0000 -15.0000 24.2000,
        40.1363 -16.0353 22.2000,
        40.1363 -16.0353 24.2000,
        40.5359 -17.0000 22.2000,
        40.5359 -17.0000 24.2000,
        41.1716 -17.8284 22.2000,
        41.1716 -17.8284 24.2000,
        42.0000 -18.4641 22.2000,
        42.0000 -18.4641 24.2000,
        42.9647 -18.8637 22.2000,
        42.9647 -18.8637 24.2000,
        44.0000 -19.0000 22.2000,
        44.0000 -19.0000 24.2000,
        45.0353 -18.8637 22.2000,
        45.0353 -18.8637 24.2000,
        46.0000 -18.4641 22.2000,
        46.0000 -18.4641 24.2000,
        46.8284 -17.8284 22.2000,
        46.8284 -17.8284 24.2000,
        47.4641 -17.0000 22.2000,
        47.4641 -17.0000 24.2000,
        47.8637 -16.0353 22.2000,
        47.8637 -16.0353 24.2000
            ]
        }
        coordIndex [
        2, 4, 5, 3, -1,
        0, 4, 2, -1,
        1, 3, 5, -1,
        4, 6, 7, 5, -1,
        0, 6, 4, -1,
        1, 5, 7, -1,
        6, 8, 9, 7, -1,
        0, 8, 6, -1,
        1, 7, 9, -1,
        8, 10, 11, 9, -1,
        0, 10, 8, -1,
        1, 9, 11, -1,
        10, 12, 13, 11, -1,
        0, 12, 10, -1,
        1, 11, 13, -1,
        12, 14, 15, 13, -1,
        0, 14, 12, -1,
        1, 13, 15, -1,
        14, 16, 17, 15, -1,
        0, 16, 14, -1,
        1, 15, 17, -1,
        16, 18, 19, 17, -1,
        0, 18, 16, -1,
        1, 17, 19, -1,
        18, 20, 21, 19, -1,
        0, 20, 18, -1,
        1, 19, 21, -1,
        20, 22, 23, 21, -1,
        0, 22, 20, -1,
        1, 21, 23, -1,
        22, 24, 25, 23, -1,
        0, 24, 22, -1,
        1, 23, 25, -1,
        24, 26, 27, 25, -1,
        0, 26, 24, -1,
        1, 25, 27, -1,
        26, 28, 29, 27, -1,
        0, 28, 26, -1,
        1, 27, 29, -1,
        28, 30, 31, 29, -1,
        0, 30, 28, -1,
        1, 29, 31, -1,
        30, 32, 33, 31, -1,
        0, 32, 30, -1,
        1, 31, 33, -1,
        32, 34, 35, 33, -1,
        0, 34, 32, -1,
        1, 33, 35, -1,
        34, 36, 37, 35, -1,
        0, 36, 34, -1,
        1, 35, 37, -1,
        36, 38, 39, 37, -1,
        0, 38, 36, -1,
        1, 37, 39, -1,
        38, 40, 41, 39, -1,
        0, 40, 38, -1,
        1, 39, 41, -1,
        40, 42, 43, 41, -1,
        0, 42, 40, -1,
        1, 41, 43, -1,
        42, 44, 45, 43, -1,
        0, 44, 42, -1,
        1, 43, 45, -1,
        44, 46, 47, 45, -1,
        0, 46, 44, -1,
        1, 45, 47, -1,
        46, 48, 49, 47, -1,
        0, 48, 46, -1,
        1, 47, 49, -1,
        48, 2, 3, 49, -1,
        0, 2, 48, -1,
        1, 49, 3, -1
        ]
        solid TRUE
    }
}

Shape {
    appearance Appearance {
        material Material {
            diffuseColor 0.92 0.92 0.92
            specularColor 0.5 0.5 0.5
            shininess 0.6
            transparency 0.0
        }
    }
    geometry IndexedFaceSet {
        coord Coordinate {
            point [
        42.0000 -17.1000 22.2000,
        64.0000 -17.1000 22.2000,
        64.0000 -12.9000 22.2000,
        42.0000 -12.9000 22.2000,
        42.0000 -17.1000 24.0000,
        64.0000 -17.1000 24.0000,
        64.0000 -12.9000 24.0000,
        42.0000 -12.9000 24.0000
            ]
        }
        coordIndex [
        0, 1, 2, 3, -1,
        4, 7, 6, 5, -1,
        0, 4, 5, 1, -1,
        1, 5, 6, 2, -1,
        2, 6, 7, 3, -1,
        3, 7, 4, 0, -1
        ]
        solid TRUE
    }
}

Shape {
    appearance Appearance {
        material Material {
            diffuseColor 0.92 0.92 0.92
            specularColor 0.5 0.5 0.5
            shininess 0.8
            transparency 0.0
        }
    }
    geometry IndexedFaceSet {
        coord Coordinate {
            point [
        64.0000 -15.0000 22.2000,
        64.0000 -15.0000 24.0000,
        66.2000 -15.0000 22.2000,
        66.2000 -15.0000 24.0000,
        66.0325 -14.1581 22.2000,
        66.0325 -14.1581 24.0000,
        65.5556 -13.4444 22.2000,
        65.5556 -13.4444 24.0000,
        64.8419 -12.9675 22.2000,
        64.8419 -12.9675 24.0000,
        64.0000 -12.8000 22.2000,
        64.0000 -12.8000 24.0000,
        63.1581 -12.9675 22.2000,
        63.1581 -12.9675 24.0000,
        62.4444 -13.4444 22.2000,
        62.4444 -13.4444 24.0000,
        61.9675 -14.1581 22.2000,
        61.9675 -14.1581 24.0000,
        61.8000 -15.0000 22.2000,
        61.8000 -15.0000 24.0000,
        61.9675 -15.8419 22.2000,
        61.9675 -15.8419 24.0000,
        62.4444 -16.5556 22.2000,
        62.4444 -16.5556 24.0000,
        63.1581 -17.0325 22.2000,
        63.1581 -17.0325 24.0000,
        64.0000 -17.2000 22.2000,
        64.0000 -17.2000 24.0000,
        64.8419 -17.0325 22.2000,
        64.8419 -17.0325 24.0000,
        65.5556 -16.5556 22.2000,
        65.5556 -16.5556 24.0000,
        66.0325 -15.8419 22.2000,
        66.0325 -15.8419 24.0000
            ]
        }
        coordIndex [
        2, 4, 5, 3, -1,
        0, 4, 2, -1,
        1, 3, 5, -1,
        4, 6, 7, 5, -1,
        0, 6, 4, -1,
        1, 5, 7, -1,
        6, 8, 9, 7, -1,
        0, 8, 6, -1,
        1, 7, 9, -1,
        8, 10, 11, 9, -1,
        0, 10, 8, -1,
        1, 9, 11, -1,
        10, 12, 13, 11, -1,
        0, 12, 10, -1,
        1, 11, 13, -1,
        12, 14, 15, 13, -1,
        0, 14, 12, -1,
        1, 13, 15, -1,
        14, 16, 17, 15, -1,
        0, 16, 14, -1,
        1, 15, 17, -1,
        16, 18, 19, 17, -1,
        0, 18, 16, -1,
        1, 17, 19, -1,
        18, 20, 21, 19, -1,
        0, 20, 18, -1,
        1, 19, 21, -1,
        20, 22, 23, 21, -1,
        0, 22, 20, -1,
        1, 21, 23, -1,
        22, 24, 25, 23, -1,
        0, 24, 22, -1,
        1, 23, 25, -1,
        24, 26, 27, 25, -1,
        0, 26, 24, -1,
        1, 25, 27, -1,
        26, 28, 29, 27, -1,
        0, 28, 26, -1,
        1, 27, 29, -1,
        28, 30, 31, 29, -1,
        0, 30, 28, -1,
        1, 29, 31, -1,
        30, 32, 33, 31, -1,
        0, 32, 30, -1,
        1, 31, 33, -1,
        32, 2, 3, 33, -1,
        0, 2, 32, -1,
        1, 33, 3, -1
        ]
        solid TRUE
    }
}